<?xml version="1.0" encoding="UTF-8" standalone="no"?>
<!-- Created with Inkscape (http://www.inkscape.org/) -->

<svg
   xmlns:dc="http://purl.org/dc/elements/1.1/"
   xmlns:cc="http://creativecommons.org/ns#"
   xmlns:rdf="http://www.w3.org/1999/02/22-rdf-syntax-ns#"
   xmlns:svg="http://www.w3.org/2000/svg"
   xmlns="http://www.w3.org/2000/svg"
   xmlns:sodipodi="http://sodipodi.sourceforge.net/DTD/sodipodi-0.dtd"
   xmlns:inkscape="http://www.inkscape.org/namespaces/inkscape"
   version="1.1"
   id="svg2"
   width="2247.3601"
   height="3178.5603"
   viewBox="0 0 2247.3601 3178.5603"
   sodipodi:docname="polaris.svg"
   inkscape:version="0.92.4 5da689c313, 2019-01-14">
  <metadata
     id="metadata8">
    <rdf:RDF>
      <cc:Work
         rdf:about="">
        <dc:format>image/svg+xml</dc:format>
        <dc:type
           rdf:resource="http://purl.org/dc/dcmitype/StillImage" />
        <dc:title></dc:title>
      </cc:Work>
    </rdf:RDF>
  </metadata>
  <defs
     id="defs6" />
  <sodipodi:namedview
     pagecolor="#ffffff"
     bordercolor="#666666"
     borderopacity="1"
     objecttolerance="10"
     gridtolerance="10"
     guidetolerance="10"
     inkscape:pageopacity="0"
     inkscape:pageshadow="2"
     inkscape:window-width="1920"
     inkscape:window-height="1060"
     id="namedview4"
     showgrid="false"
     fit-margin-top="0"
     fit-margin-left="0"
     fit-margin-right="0"
     fit-margin-bottom="0"
     inkscape:zoom="0.21000352"
     inkscape:cx="1048.2845"
     inkscape:cy="1780.2761"
     inkscape:window-x="0"
     inkscape:window-y="0"
     inkscape:window-maximized="0"
     inkscape:current-layer="svg2" />
  <path
     style="fill:#5a739b;fill-opacity:1;stroke-width:1"
     d="m 2018.8802,3120.1602 v -58.4 h -8.64 -8.64 v -117.6 -117.6 h 8.64 8.64 V 1559.2001 291.84004 h -8.64 -8.64 V 283.2 274.56 H 1000.8 0 v -100 -100 h 1000.8 1000.8002 v -8.64 -8.64 h 8.64 8.64 V 28.64 0 h 114.24 114.24 v 1589.2802 1589.28 h -114.24 -114.24 z m 177.2231,-85.4172 c 1.4648,-0.295 3.0128,-0.6691 3.44,-0.8316 l 0.7769,-0.2954 v -8.8079 -8.8079 h -8.16 -8.16 v 3.68 3.68 h 3.36 3.36 v 2.2 2.2 l -1,0.2 c -0.55,0.11 -1.8204,0.2 -2.823,0.2 -5.4353,0 -8.4707,-3.3828 -8.4707,-9.44 0,-3.38 0.7623,-5.6054 2.5233,-7.3665 2.9473,-2.9473 7.8595,-2.4933 8.8517,0.8181 l 0.38,1.2684 h 5.1156 5.1156 l -0.192,-2.0561 c -0.2417,-2.5882 -0.7938,-3.9133 -2.3494,-5.6385 -2.5438,-2.8212 -6.842,-4.0226 -13.3801,-3.74 -6.0047,0.2595 -9.5513,1.605 -12.4779,4.7336 -3.1426,3.3598 -4.7885,9.24 -4.1036,14.6615 0.9406,7.4465 5.292,12.3107 12.3475,13.8027 2.1761,0.4601 12.8084,0.1512 15.8461,-0.4604 z m -15.8772,-1.2998 c -8.3351,-2.3475 -12.4176,-9.9463 -10.2308,-19.043 1.6822,-6.9976 7.2836,-10.8561 15.7861,-10.8744 7.2961,-0.016 11.8292,2.5757 12.7246,7.2744 l 0.1982,1.04 -3.592,-0.012 -3.592,-0.011 -0.64,-1.3431 c -0.9503,-1.9942 -2.2878,-2.6376 -5.44,-2.617 -2.9498,0.019 -4.5515,0.669 -6.1575,2.4982 -1.6857,1.9199 -2.4117,4.3635 -2.4377,8.2051 -0.013,1.848 0.1543,3.9586 0.3706,4.6903 0.6527,2.2077 2.2781,4.2716 4.2166,5.3543 1.5508,0.8661 2.1022,0.9905 4.8,1.0827 1.6764,0.057 3.696,-0.015 4.488,-0.1605 l 1.44,-0.2646 v -3.6711 -3.6711 l -3.28,-0.091 -3.28,-0.091 v -2.0688 -2.0688 h 6.5659 6.5659 l -0.086,7.44 -0.086,7.44 -2.72,0.5791 c -3.8094,0.8112 -13.271,1.0438 -15.6141,0.3839 z m -121.4158,-2.323 -0.09,-3.76 -6.96,-0.086 -6.96,-0.086 v -12.3219 -12.3219 l -5.04,0.088 -5.04,0.088 -0.083,16.08 -0.083,16.08 h 12.1731 12.1731 z m -22.6501,-12.4 v -14.56 h 3.52 3.52 v 12.32 12.32 h 7.04 7.04 v 2.24 2.24 h -10.56 -10.56 z m 82.1629,0.08 -0.083,-16.08 -5.2,-0.088 -5.2,-0.088 v 16.1679 16.1679 h 5.2829 5.283 z m -8.8829,-0.08 v -14.56 h 3.68 3.68 v 14.56 14.56 h -3.68 -3.68 z m 44.9159,-34.6149 c 8.5998,-2.7726 15.4595,-5.1 15.2438,-5.1719 -0.3042,-0.1014 -0.3009,-0.1871 0.015,-0.382 0.3828,-0.2366 -2.7989,-1.3191 -16.5625,-5.6349 -2.6775,-0.8396 -4.8217,-1.5731 -4.7647,-1.63 0.057,-0.057 9.0156,1.7818 19.9082,4.0862 10.8926,2.3044 20.1306,4.2162 20.5289,4.2486 1.0369,0.084 23.4096,-16.214 23.2983,-16.9726 -0.071,-0.4814 -2.4751,-0.8349 -19.6254,-2.885 l -19.5448,-2.3363 -14.0261,6.0564 c -7.7144,3.331 -14.0005,6.183 -13.9691,6.3377 0.031,0.1548 -6.1245,1.7857 -13.68,3.6243 -10.642,2.5896 -13.735,3.4522 -13.7279,3.8286 0.013,0.6754 19.7276,12.1456 20.6078,11.9896 0.3647,-0.065 7.6992,-2.386 16.299,-5.1587 z m -24.846,-1.4347 c -4.5375,-2.6603 -8.1951,-4.8918 -8.128,-4.959 0.2239,-0.2239 22.1268,-5.5448 22.8381,-5.5481 0.5614,0 20.8543,6.2444 21.1078,6.4978 0.076,0.076 -27.1446,8.8718 -27.4078,8.8559 -0.088,-0.01 -3.8725,-2.1863 -8.4101,-4.8466 z m -69.5099,-14.5283 c 13.024,-5.413 23.7302,-9.8815 23.7916,-9.9302 0.061,-0.049 -0.3488,-2.844 -0.9116,-6.2119 -0.5628,-3.3679 -0.973,-6.164 -0.9116,-6.2137 0.061,-0.05 7.6606,-0.5448 16.8872,-1.1005 9.2265,-0.5557 16.8001,-1.0453 16.8301,-1.088 0.1204,-0.1719 6.8876,-49.7285 6.8812,-50.3917 0,-0.4812 -0.2416,-0.7611 -0.7269,-0.8586 -0.396,-0.08 -11.5031,-0.5999 -24.6825,-1.1562 -16.7491,-0.7071 -24.0257,-0.9093 -24.1725,-0.6718 -0.1155,0.1869 -0.6852,4.9165 -1.2659,10.5102 -0.5808,5.5937 -1.0792,10.194 -1.1075,10.2229 -0.028,0.029 -9.0516,2.9519 -20.0516,6.4955 -11,3.5435 -20.9,6.7356 -22,7.0935 -1.6788,0.5461 -2,0.7678 -2,1.3806 0,0.768 8.2369,50.9383 8.472,51.6025 0.075,0.2116 0.3953,0.3339 0.7121,0.2719 0.3167,-0.062 11.2319,-4.5416 24.2559,-9.9545 z m 21.4555,-24.5421 c -0.1477,-0.4752 -5.63,-32.9314 -5.6214,-33.28 0.01,-0.3469 -1.4085,-0.2947 -2.4177,0.089 -0.4758,0.1809 -0.9101,0.2839 -0.9651,0.229 -0.1084,-0.1084 1.8007,-18.5816 1.9351,-18.7254 0.079,-0.084 46.3461,1.8914 46.4782,1.9844 0.1374,0.097 -6.577,47.922 -6.7527,48.0977 -0.1893,0.1894 -27.7518,1.9704 -30.842,1.9929 -1.0816,0.01 -1.7348,-0.1316 -1.8144,-0.3876 z m 106.5445,2.96 c 12.788,-0.88 23.5995,-1.6 24.0255,-1.6 1.6724,0 0.7034,-1.153 -4.1015,-4.88 l -4.8474,-3.76 h -1.7783 c -0.9781,0 -7.8263,0.4321 -15.2183,0.9588 -7.392,0.5267 -13.8005,0.9581 -14.241,0.9588 -0.6155,0 -1.7708,1.0343 -4.9867,4.4604 -2.3021,2.4526 -4.1856,4.6846 -4.1856,4.96 0,0.3518 0.3098,0.5008 1.0412,0.5008 0.5726,0 11.5041,-0.72 24.2921,-1.6 z m -20.9333,-25.2611 c 5.9106,-8.6979 10.7466,-16.0068 10.7466,-16.2419 0,-0.633 -26.1143,-27.2979 -26.7283,-27.2919 -0.638,0.01 -28.365,40.464 -28.365,41.3887 0,0.4904 3.4032,2.444 16.32,9.3684 8.976,4.8118 16.536,8.7133 16.8,8.67 0.264,-0.043 5.316,-7.1953 11.2267,-15.8933 z m -27.0667,5.6928 c -8.272,-4.4209 -15.0852,-8.0758 -15.1403,-8.1219 -0.055,-0.046 5.8488,-8.7992 13.12,-19.4514 l 13.2203,-19.3677 9.6,9.8187 c 5.28,5.4004 10.805,11.0681 12.2777,12.5951 l 2.6777,2.7764 -10.0503,14.797 c -5.5276,8.1384 -10.1886,14.8409 -10.3577,14.8945 -0.1691,0.054 -7.0754,-3.5197 -15.3474,-7.9407 z M 2100.16,1758.5345 c 2.0084,-0.9014 4.6024,-3.3249 5.5781,-5.2116 1.6485,-3.1879 2.2848,-9.8184 1.3036,-13.5853 -0.9932,-3.8131 -3.1397,-6.6299 -6.1962,-8.1309 -1.5213,-0.7471 -2.2081,-0.8856 -4.3653,-0.8804 -2.1453,0.01 -2.8238,0.1444 -4.1888,0.8595 -3.3649,1.7627 -4.6979,4.1354 -6.7211,11.9634 -2.0438,7.9079 -2.6259,9.0701 -4.8638,9.7119 -2.154,0.6178 -4.2785,-0.5256 -5.6133,-3.0209 -0.5795,-1.0834 -0.6853,-1.8207 -0.6888,-4.8 0,-3.0716 0.093,-3.7183 0.7619,-5.0763 0.8491,-1.7248 2.7877,-3.1888 4.6968,-3.5469 l 1.1245,-0.211 -0.094,-2.3029 -0.094,-2.3029 -1.6092,0.039 c -3.0645,0.074 -6.7611,2.7991 -8.1307,5.9944 -1.5676,3.6569 -1.7437,10.1255 -0.3729,13.6939 2.4794,6.4544 10.0104,8.6814 14.8756,4.3988 2.0073,-1.7669 3.117,-4.245 4.8167,-10.7571 1.5857,-6.075 2.2242,-7.5974 3.711,-8.8485 1.3493,-1.1353 3.8195,-1.257 5.4932,-0.2705 4.419,2.6044 4.482,12.8166 0.1028,16.6616 -0.6806,0.5976 -1.9372,1.2313 -3.0606,1.5437 l -1.9059,0.5299 v 1.3475 c 0,0.7412 0.093,1.8151 0.2078,2.3865 0.207,1.035 0.2136,1.0382 1.7686,0.854 0.8585,-0.1016 2.4171,-0.569 3.4634,-1.0386 z m -6.0956,-35.0633 c 8.6844,-3.2939 12.8572,-4.7297 13.3708,-4.6008 0.4106,0.103 1.53,0.5339 2.4876,0.9573 2.4303,1.0748 3.1249,2.2418 2.9319,4.9261 l -0.1462,2.0336 2.1258,-0.2252 c 1.1693,-0.1238 2.1974,-0.2944 2.2847,-0.3791 0.087,-0.085 0.2087,-1.2584 0.2698,-2.6084 0.1059,-2.3386 0.061,-2.5294 -0.9587,-4.0396 -0.8195,-1.2141 -1.6066,-1.8722 -3.3632,-2.8122 -1.8985,-1.016 -31.7389,-12.401 -32.5067,-12.4023 -0.132,-3e-4 -0.2394,1.0436 -0.2386,2.3196 v 2.32 l 7.4386,2.7054 c 4.0912,1.4879 8.8065,3.1606 10.4784,3.717 2.9486,0.9813 3.0062,1.0188 1.92,1.2515 -0.897,0.1922 -7.4743,2.4927 -18.9598,6.6316 -0.8604,0.31 -0.88,0.3743 -0.88,2.88 0,2.3131 0.055,2.541 0.56,2.3383 0.308,-0.1235 6.2409,-2.3792 13.1842,-5.0128 z m 7.1569,-20.6205 c 2.2071,-0.7521 4.5112,-2.9715 5.3815,-5.1841 0.9572,-2.4335 1.0499,-7.7079 0.1793,-10.2033 -2.4774,-7.1013 -11.0165,-8.4203 -13.9608,-2.1565 -0.3773,0.8025 -1.2867,3.6261 -2.021,6.2746 -1.4357,5.1785 -2.2905,6.6588 -3.8454,6.6588 -1.1212,0 -2.3619,-1.0907 -2.8268,-2.485 -0.5423,-1.6265 -0.4748,-4.7773 0.1334,-6.228 0.5107,-1.218 2.1401,-2.4837 3.2003,-2.4859 0.3994,0 0.5329,-0.1765 0.4262,-0.5611 -0.086,-0.308 -0.2507,-1.397 -0.3671,-2.4199 l -0.2117,-1.8598 -1.0145,0.2189 c -1.6757,0.3615 -3.2943,1.3314 -4.341,2.6013 -1.5554,1.887 -2.1034,3.9169 -2.1088,7.8117 0,3.2498 0.042,3.4845 1.1153,5.5876 0.9019,1.7679 1.4267,2.3848 2.6949,3.1678 1.3746,0.8487 1.8697,0.9724 3.8924,0.9724 2.0641,0 2.4687,-0.1063 3.6992,-0.9711 1.8147,-1.2754 2.7635,-3.2275 4.2754,-8.796 0.665,-2.4493 1.4661,-4.876 1.7803,-5.3926 1.2056,-1.9823 4.2218,-1.4247 5.464,1.0102 0.7701,1.5097 0.9261,4.8599 0.3116,6.6935 -0.4708,1.4045 -2.093,2.9197 -3.6904,3.4469 -1.2532,0.4136 -1.3137,0.6267 -0.9439,3.3244 0.2322,1.6943 0.4464,1.7695 2.7776,0.9752 z m -17.3811,-24.0996 v -1.5691 l 9.84,-0.1109 c 11.2594,-0.1269 11.4412,-0.1672 12.819,-2.8383 0.6291,-1.2194 0.7244,-1.8216 0.64,-4.0462 -0.054,-1.4374 -0.1919,-2.7063 -0.3054,-2.8197 -0.1135,-0.1134 -1.0495,-0.089 -2.08,0.054 l -1.8736,0.2601 -0.16,1.912 c -0.1371,1.6377 -0.2748,1.9699 -0.96,2.3149 -0.5827,0.2934 -3.1252,0.4041 -9.36,0.4075 h -8.56 v -2.24 -2.24 h -1.76 -1.76 v 2.2314 2.2314 l -4.6478,0.089 -4.6478,0.089 1.3757,2.24 1.3756,2.24 3.2722,0.091 3.2721,0.091 v 1.5888 1.5888 h 1.76 1.76 z m 12.96,-12.5207 c 4.547,-0.6438 8.285,-3.4222 9.8019,-7.2857 0.9573,-2.4381 1.0426,-7.4083 0.1702,-9.9111 -0.9323,-2.6745 -2.6904,-4.6282 -5.3725,-5.97 -1.2725,-0.6366 -2.4174,-1.0463 -2.5443,-0.9105 -0.1269,0.1359 -0.3291,1.2638 -0.4494,2.5065 l -0.2187,2.2595 1.3177,0.5942 c 3.804,1.7154 5.1599,6.5823 2.8673,10.2918 -1.2531,2.0276 -4.1595,3.6351 -6.5724,3.6351 h -1.0798 v -9.76 -9.76 h -2.0128 c -7.3041,0 -12.4229,4.4316 -12.9425,11.2052 -0.6802,8.8654 6.7278,14.5642 17.0353,13.105 z m -7.36,-5.0895 c -4.6934,-1.1426 -7.0802,-6.2725 -4.8945,-10.5197 0.901,-1.7507 3.016,-3.2202 5.0223,-3.4893 l 1.3122,-0.176 v 7.2421 c 0,3.9832 -0.108,7.2274 -0.24,7.2094 -0.132,-0.018 -0.672,-0.1379 -1.2,-0.2665 z m -15.5097,-4.2323 3.5097,-2.9316 v -1.8684 c 0,-1.0276 -0.074,-1.8684 -0.1654,-1.8684 -0.091,0 -1.7469,0.7932 -3.68,1.7626 l -3.5146,1.7627 v 3.0373 c 0,1.6706 0.077,3.0374 0.1703,3.0374 0.094,0 1.7497,-1.3192 3.68,-2.9316 z m 32.9497,-21.5484 v -2.4 h -8.1443 c -8.5847,0 -10.6669,-0.2328 -12.404,-1.3866 -2.1143,-1.4044 -3.1316,-5.0878 -2.0063,-7.2639 1.0205,-1.9734 1.5196,-2.0595 12.5546,-2.1664 l 10,-0.097 v -2.3832 -2.3831 h -8.5819 c -9.4765,0 -11.0823,-0.2333 -12.614,-1.8325 -2.4124,-2.5185 -2.4007,-6.663 0.023,-8.3088 0.77,-0.5227 1.8353,-0.5881 11.0124,-0.6754 l 10.16,-0.097 v -2.403 -2.4029 l -10.64,0.1 -10.64,0.1 -1.8166,0.8516 c -1.244,0.5831 -2.0704,1.2389 -2.6214,2.08 -2.4497,3.7397 -1.6707,9.3287 1.7283,12.3996 l 1.17,1.0569 -1.0564,0.5689 c -2.2041,1.187 -3.5487,4.4239 -3.2421,7.805 0.1978,2.1809 1.1477,4.2209 2.7371,5.878 l 1.151,1.2 h -1.6649 -1.665 v 2.08 2.08 h 13.28 13.28 v -2.4 z m -10.08,-37.2898 c 4.547,-0.6438 8.285,-3.4222 9.8019,-7.2857 0.9573,-2.4382 1.0426,-7.4083 0.1702,-9.9111 -0.9323,-2.6745 -2.6904,-4.6282 -5.3725,-5.97 -1.2725,-0.6366 -2.4174,-1.0463 -2.5443,-0.9105 -0.1269,0.1359 -0.3291,1.2638 -0.4494,2.5065 l -0.2187,2.2595 1.3177,0.5942 c 3.804,1.7154 5.1599,6.5823 2.8673,10.2918 -1.2531,2.0276 -4.1595,3.6351 -6.5724,3.6351 h -1.0798 v -9.7601 -9.76 h -2.0128 c -7.3041,0 -12.4229,4.4317 -12.9425,11.2053 -0.6802,8.8654 6.7278,14.5642 17.0353,13.105 z m -7.36,-5.0895 c -4.6934,-1.1426 -7.0802,-6.2725 -4.8945,-10.5197 0.901,-1.7507 3.016,-3.2202 5.0223,-3.4893 l 1.3122,-0.176 v 7.2421 c 0,3.9832 -0.108,7.2274 -0.24,7.2094 -0.132,-0.018 -0.672,-0.1379 -1.2,-0.2665 z m 11.7811,-21.9702 c 2.2071,-0.7521 4.5112,-2.9715 5.3815,-5.1841 0.9572,-2.4335 1.0499,-7.7079 0.1793,-10.2033 -2.4774,-7.1013 -11.0165,-8.4203 -13.9608,-2.1565 -0.3773,0.8025 -1.2867,3.6261 -2.021,6.2746 -1.4357,5.1785 -2.2905,6.6587 -3.8454,6.6587 -1.1212,0 -2.3619,-1.0906 -2.8268,-2.4849 -0.5423,-1.6265 -0.4748,-4.7773 0.1334,-6.228 0.5107,-1.218 2.1401,-2.4837 3.2003,-2.4859 0.3994,0 0.5329,-0.1765 0.4262,-0.5612 -0.086,-0.308 -0.2507,-1.3969 -0.3671,-2.4198 l -0.2117,-1.8598 -1.0145,0.2189 c -1.6757,0.3615 -3.2943,1.3314 -4.341,2.6013 -1.5554,1.887 -2.1034,3.9169 -2.1088,7.8117 0,3.2498 0.042,3.4845 1.1153,5.5876 0.9019,1.7679 1.4267,2.3848 2.6949,3.1678 1.3746,0.8487 1.8697,0.9723 3.8924,0.9723 2.0641,0 2.4687,-0.1062 3.6992,-0.971 1.8147,-1.2754 2.7635,-3.2275 4.2754,-8.796 0.665,-2.4493 1.4661,-4.876 1.7803,-5.3926 1.2056,-1.9823 4.2218,-1.4247 5.464,1.0102 0.7701,1.5097 0.9261,4.8599 0.3116,6.6934 -0.4708,1.4046 -2.093,2.9198 -3.6904,3.447 -1.2532,0.4136 -1.3137,0.6267 -0.9439,3.3244 0.2322,1.6943 0.4464,1.7695 2.7776,0.9752 z m 5.6589,-41.4106 v -2.56 h -8 -8 v -4.0921 c 0,-6.3753 0.4465,-6.9396 10.6388,-13.4466 l 5.3589,-3.4213 v -3.1388 c 0,-2.4178 -0.091,-3.0874 -0.3989,-2.9144 -0.22,0.1234 -2.8923,1.8061 -5.9385,3.7394 -5.8993,3.7439 -8.6935,6.0244 -9.6388,7.867 l -0.5841,1.1386 -0.2217,-1.3121 c -0.3724,-2.2039 -1.8874,-4.9809 -3.4842,-6.3865 -4.7131,-4.1486 -12.7379,-2.4856 -15.2944,3.1695 -0.7438,1.6453 -0.7601,1.8894 -0.8572,12.7973 l -0.099,11.12 h 18.2589 18.2589 v -2.56 z m -32.32,-9.2219 c 0,-7.4243 0.3145,-9.2557 1.8325,-10.6719 1.3285,-1.2394 2.2599,-1.62 3.9643,-1.62 1.0793,0 1.9633,0.2475 2.9504,0.826 2.5347,1.4854 3.0928,3.6963 3.0928,12.2515 v 5.8763 h -5.92 -5.92 z m 22.24,-21.5078 c 4.547,-0.6438 8.285,-3.4222 9.8019,-7.2857 0.9573,-2.4382 1.0426,-7.4083 0.1702,-9.9111 -0.9323,-2.6745 -2.6904,-4.6282 -5.3725,-5.97 -1.2725,-0.6366 -2.4174,-1.0463 -2.5443,-0.9105 -0.1269,0.1359 -0.3291,1.2638 -0.4494,2.5065 l -0.2187,2.2595 1.3177,0.5942 c 3.804,1.7154 5.1599,6.5823 2.8673,10.2918 -1.2531,2.0276 -4.1595,3.635 -6.5724,3.635 h -1.0798 v -9.76 -9.76 h -2.0128 c -7.3041,0 -12.4229,4.4317 -12.9425,11.2053 -0.6802,8.8654 6.7278,14.5642 17.0353,13.105 z m -7.36,-5.0895 c -4.6934,-1.1426 -7.0802,-6.2725 -4.8945,-10.5197 0.901,-1.7507 3.016,-3.2202 5.0223,-3.4893 l 1.3122,-0.176 v 7.2421 c 0,3.9832 -0.108,7.2274 -0.24,7.2094 -0.132,-0.018 -0.672,-0.1379 -1.2,-0.2665 z m -12.0094,-5.2208 -0.01,-2 -3.3422,-2.5572 c -1.8382,-1.4064 -3.49,-2.6064 -3.6706,-2.6666 -0.2085,-0.07 -0.3284,0.9575 -0.3284,2.8144 v 2.9239 l 3.6,1.7399 c 1.98,0.9568 3.636,1.7411 3.68,1.7427 0.044,0 0.076,-0.8971 0.071,-1.9971 z m 39.6234,-20.48 -0.094,-2.32 -6.1526,-0.087 -6.1527,-0.087 1.0879,-1.4253 c 3.0704,-4.0223 1.8528,-10.5979 -2.5873,-13.974 -2.4276,-1.8458 -4.778,-2.5886 -8.7314,-2.7595 -6.8452,-0.2959 -11.3229,1.775 -13.5295,6.2572 -0.9432,1.916 -1.0542,2.4295 -1.0527,4.8686 0,3.1155 0.4994,4.4492 2.4087,6.4563 l 1.1705,1.2304 h -1.5504 -1.5505 v 2.08 2.08 h 18.414 18.414 z m -27.4246,-2.3474 c -6.9792,-1.8766 -8.2603,-9.3793 -2.1248,-12.4439 1.6376,-0.8179 2.3485,-0.9691 5.073,-1.0785 4.4824,-0.18 6.8801,0.4971 8.8949,2.5119 3.8786,3.8786 1.9732,9.556 -3.6997,11.0243 -2.3542,0.6093 -5.848,0.6034 -8.1434,-0.014 z m 13.697,-21.5586 c 1.5318,-0.7856 2.409,-1.7693 3.298,-3.698 0.6038,-1.3101 0.7356,-2.1404 0.7356,-4.636 0,-3.4233 -0.5112,-5.1842 -2.2759,-7.84 l -1.0633,-1.6 0.7096,-0.275 c 0.3903,-0.1512 1.0336,-0.4002 1.4296,-0.5531 0.6584,-0.2543 0.72,-0.4846 0.72,-2.6893 v -2.4111 l -1.2,0.5414 c -1.0021,0.4522 -2.7567,0.5743 -10.64,0.7405 -10.104,0.2129 -10.9515,0.3473 -12.7468,2.0219 -2.9554,2.7567 -3.4908,11.0482 -1.0256,15.8804 0.8244,1.616 2.9191,3.3842 4.7467,4.007 0.8028,0.2735 1.5666,0.4973 1.6973,0.4973 0.2514,0 0.4435,-0.8183 0.7631,-3.2512 0.192,-1.4621 0.1767,-1.4954 -0.7871,-1.7071 -0.5406,-0.1187 -1.4167,-0.5808 -1.9468,-1.0269 -1.517,-1.2765 -1.9842,-2.4948 -2.0018,-5.2198 -0.028,-4.3108 1.7441,-6.5703 4.9662,-6.333 1.6075,0.1183 1.5421,-0.056 2.6549,7.0545 0.4336,2.7701 1.0114,5.5703 1.284,6.2228 1.0338,2.4742 3.0784,4.3444 5.3905,4.9307 1.4079,0.357 3.9252,0.045 5.2918,-0.656 z m -4.7664,-4.3999 c -0.7883,-0.2882 -1.9671,-1.4802 -2.2891,-2.3147 -0.1656,-0.4293 -0.6526,-2.6833 -1.0821,-5.0087 -0.4295,-2.3255 -0.9231,-4.6022 -1.0969,-5.0594 -0.3144,-0.8267 -0.3074,-0.8313 1.2943,-0.8313 2.7287,0 4.4359,0.6053 5.9346,2.104 3.1311,3.1311 3.1191,9.5564 -0.02,10.8681 -1.1525,0.4815 -1.9038,0.5478 -2.7406,0.242 z m 8.32,-25.5118 v -2.3777 l -9.04,-0.1023 c -8.7398,-0.099 -9.0908,-0.1272 -10.5687,-0.855 -0.9428,-0.4643 -1.7245,-1.1313 -2.0394,-1.7403 -0.5682,-1.0988 -0.6337,-3.412 -0.1236,-4.3651 0.4651,-0.8691 0.4326,-0.9593 -0.4683,-1.3019 -0.6871,-0.2612 -0.8,-0.5041 -0.8,-1.7211 v -1.417 l 9.84,-0.1109 c 11.2594,-0.127 11.4412,-0.1672 12.819,-2.8383 0.6291,-1.2194 0.7244,-1.8216 0.64,-4.0462 -0.054,-1.4374 -0.1919,-2.7063 -0.3054,-2.8197 -0.1135,-0.1134 -1.0495,-0.089 -2.08,0.054 l -1.8736,0.2601 -0.16,1.912 c -0.1371,1.6377 -0.2748,1.9699 -0.96,2.3149 -0.5827,0.2934 -3.1252,0.4041 -9.36,0.4075 h -8.56 v -2.24 -2.24 h -1.76 -1.76 v 2.2315 2.2314 l -4.6478,0.089 -4.6478,0.089 1.3757,2.24 1.3756,2.24 3.3066,0.092 3.3065,0.092 -0.1872,2.3084 c -0.103,1.2697 -0.2772,2.9165 -0.3872,3.6597 -0.2843,1.9213 0.7398,3.9197 2.661,5.1922 l 1.4743,0.9765 h -1.8149 -1.8148 v 2.08 2.08 h 13.28 13.28 z m -31.36,-28.5023 v -2.4 h -2.56 -2.56 v 2.4 2.4 h 2.56 2.56 z m 31.36,0 v -2.4 h -13.28 -13.28 v 2.4 2.4 h 13.28 13.28 z m -5.6589,-6.7494 c 2.2071,-0.7521 4.5112,-2.9715 5.3815,-5.1841 0.9572,-2.4335 1.0499,-7.7079 0.1793,-10.2034 -2.4774,-7.1012 -11.0165,-8.4202 -13.9608,-2.1564 -0.3773,0.8025 -1.2867,3.6261 -2.021,6.2746 -1.4357,5.1785 -2.2905,6.6587 -3.8454,6.6587 -1.1212,0 -2.3619,-1.0906 -2.8268,-2.4849 -0.5423,-1.6265 -0.4748,-4.7773 0.1334,-6.228 0.5107,-1.218 2.1401,-2.4837 3.2003,-2.4859 0.3994,0 0.5329,-0.1765 0.4262,-0.5612 -0.086,-0.308 -0.2507,-1.3969 -0.3671,-2.4198 l -0.2117,-1.8598 -1.0145,0.2189 c -1.6757,0.3615 -3.2943,1.3314 -4.341,2.6013 -1.5554,1.887 -2.1034,3.9169 -2.1088,7.8117 0,3.2498 0.042,3.4845 1.1153,5.5876 0.9019,1.7679 1.4267,2.3848 2.6949,3.1678 1.3746,0.8487 1.8697,0.9723 3.8924,0.9723 2.0641,0 2.4687,-0.1062 3.6992,-0.971 1.8147,-1.2754 2.7635,-3.2275 4.2754,-8.796 0.665,-2.4493 1.4661,-4.876 1.7803,-5.3926 1.2056,-1.9823 4.2218,-1.4247 5.464,1.0102 0.7701,1.5097 0.9261,4.8599 0.3116,6.6934 -0.4708,1.4046 -2.093,2.9198 -3.6904,3.447 -1.2532,0.4136 -1.3137,0.6267 -0.9439,3.3244 0.2322,1.6943 0.4464,1.7695 2.7776,0.9752 z m 11.9102,-26.5674 c 1.0405,-0.6817 0.9955,-1.1453 -0.2486,-2.5623 -1.7002,-1.9364 -3.0084,-2.3457 -7.5227,-2.3538 l -3.92,-0.01 v 2.56 2.56 h 2.72 2.72 v -1.12 c 0,-1.039 0.072,-1.12 0.9916,-1.12 1.3179,0 3.011,0.8322 3.637,1.7876 0.6001,0.9159 0.6121,0.9178 1.6227,0.2556 z m -18.6078,-24.1138 c 8.5636,-2.1902 12.9756,-7.6488 12.9918,-16.0736 0.013,-6.7164 -2.9153,-11.6572 -8.3864,-14.1505 -3.928,-1.7902 -3.8612,-1.8007 -4.5036,0.7057 -0.3028,1.182 -0.5495,2.3125 -0.548,2.5122 0,0.1998 0.7382,0.6038 1.6373,0.8978 4.8038,1.5713 7.4314,5.1716 7.4003,10.1399 -0.047,7.5572 -5.9791,11.8434 -15.7549,11.3842 -5.7924,-0.2721 -9.6274,-2.1049 -11.7252,-5.6038 -2.5202,-4.2031 -2.0056,-10.4948 1.0798,-13.2039 0.8404,-0.7378 3.5048,-2.245 4.8022,-2.7164 0.042,-0.015 -0.1634,-1.1349 -0.457,-2.4879 -0.6103,-2.8121 -0.4479,-2.7629 -3.8084,-1.1555 -2.4992,1.1953 -4.9706,3.7905 -6.2855,6.6004 -0.8764,1.8728 -1.0207,2.5709 -1.1425,5.5287 -0.1698,4.1211 0.2446,6.3029 1.7811,9.3774 2.0563,4.1143 5.6479,6.9069 10.6355,8.2693 3.0034,0.8204 9.028,0.8086 12.2835,-0.024 z m 8.8029,-34.8754 c 1.5318,-0.7856 2.409,-1.7693 3.298,-3.698 0.6038,-1.3101 0.7356,-2.1404 0.7356,-4.636 0,-3.4234 -0.5112,-5.1842 -2.2759,-7.84 l -1.0633,-1.6 0.7096,-0.275 c 0.3903,-0.1512 1.0336,-0.4002 1.4296,-0.5531 0.6584,-0.2543 0.72,-0.4846 0.72,-2.6893 v -2.4111 l -1.2,0.5414 c -1.0021,0.4522 -2.7567,0.5743 -10.64,0.7405 -10.104,0.2128 -10.9515,0.3473 -12.7468,2.0219 -2.9554,2.7567 -3.4908,11.0482 -1.0256,15.8804 0.8244,1.616 2.9191,3.3842 4.7467,4.007 0.8028,0.2735 1.5666,0.4973 1.6973,0.4973 0.2514,0 0.4435,-0.8183 0.7631,-3.2512 0.192,-1.4621 0.1767,-1.4954 -0.7871,-1.7071 -0.5406,-0.1187 -1.4167,-0.5808 -1.9468,-1.0269 -1.517,-1.2765 -1.9842,-2.4948 -2.0018,-5.2198 -0.028,-4.3108 1.7441,-6.5703 4.9662,-6.333 1.6075,0.1183 1.5421,-0.055 2.6549,7.0545 0.4336,2.7701 1.0114,5.5703 1.284,6.2228 1.0338,2.4741 3.0784,4.3444 5.3905,4.9307 1.4079,0.357 3.9252,0.045 5.2918,-0.656 z m -4.7664,-4.3999 c -0.7883,-0.2882 -1.9671,-1.4802 -2.2891,-2.3147 -0.1656,-0.4293 -0.6526,-2.6833 -1.0821,-5.0087 -0.4295,-2.3255 -0.9231,-4.6022 -1.0969,-5.0594 -0.3144,-0.8267 -0.3074,-0.8313 1.2943,-0.8313 2.7287,0 4.4359,0.6053 5.9346,2.104 3.1311,3.1311 3.1191,9.5564 -0.02,10.8681 -1.1525,0.4815 -1.9038,0.5478 -2.7406,0.242 z m 8.32,-25.5341 v -2.4 h -18.24 -18.24 v 2.4 2.4 h 18.24 18.24 z m -8.4912,-6.7305 c 7.0716,-1.8419 10.6344,-8.2056 8.51,-15.1999 -0.6018,-1.9814 -0.9793,-2.6012 -2.5256,-4.1475 -1.2855,-1.2855 -2.3597,-2.0207 -3.6676,-2.51 -3.1068,-1.1625 -3.1469,-1.1374 -3.5837,2.2407 l -0.1929,1.4928 1.8555,0.5394 c 3.3873,0.9846 5.2365,3.9756 4.5946,7.4316 -0.7019,3.7795 -4.134,5.8259 -9.7919,5.8384 -6.1014,0.014 -9.7895,-2.7222 -9.8312,-7.2926 -0.026,-2.8511 1.4532,-4.9541 4.0985,-5.8272 1.1275,-0.3721 1.1468,-0.4067 0.951,-1.7074 -0.4835,-3.213 -0.4477,-3.1461 -1.5551,-2.9124 -1.5246,0.3218 -4.0005,1.7536 -4.928,2.8499 -0.4536,0.5361 -1.1962,1.7667 -1.6502,2.7347 -1.1194,2.3864 -1.1615,6.9021 -0.09,9.6254 1.8778,4.7717 6.3335,7.2735 13.0303,7.3162 1.6291,0.01 3.7154,-0.1958 4.776,-0.4721 z m 4.8112,-26.0858 c 5.0328,-2.5679 5.7546,-11.372 1.256,-15.3218 l -1.1183,-0.9819 h 1.7712 1.7711 v -2.08 -2.08 h -13.28 -13.28 v 2.4 2.4 h 8.56 c 10.9963,0 12.1613,0.3121 13.7139,3.6464 1.4812,3.181 0.7626,6.1551 -1.8054,7.4718 -1.3634,0.6992 -1.6804,0.72 -10.9363,0.72 h -9.5322 v 2.4196 2.4196 l 10.64,-0.1 10.64,-0.1 1.6,-0.8163 z m 3.68,-28.3037 v -2.4 h -18.24 -18.24 v 2.4 2.4 h 18.24 18.24 z m 0,-23.84 v -2.56 h -7.36 -7.36 v -5.68 c 0,-8.8826 -0.7184,-11.7425 -3.5765,-14.3122 -2.1196,-1.9057 -4.4079,-2.7278 -7.5929,-2.7278 -5.4315,0 -8.985,2.6715 -10.1528,7.6329 -0.3013,1.2801 -0.4268,4.49 -0.4304,11.0071 v 9.2 h 18.24 18.24 z m -31.986,-8.88 c 0.018,-8.0895 0.4062,-9.3282 3.346,-10.6781 2.5814,-1.1854 6.3758,-0.4401 7.7427,1.5209 1.2102,1.7361 1.4373,3.0478 1.6132,9.3172 l 0.1728,6.16 h -6.4444 -6.4443 z m 28.4324,-19.906 c 1.5318,-0.7856 2.409,-1.7693 3.298,-3.698 0.6038,-1.3101 0.7356,-2.1404 0.7356,-4.636 0,-3.4234 -0.5112,-5.1843 -2.2759,-7.84 l -1.0633,-1.6 0.7096,-0.275 c 0.3903,-0.1512 1.0336,-0.4002 1.4296,-0.5531 0.6584,-0.2543 0.72,-0.4846 0.72,-2.6893 v -2.4111 l -1.2,0.5414 c -1.0021,0.4522 -2.7567,0.5743 -10.64,0.7404 -10.104,0.2129 -10.9515,0.3474 -12.7468,2.022 -2.9554,2.7567 -3.4908,11.0482 -1.0256,15.8804 0.8244,1.616 2.9191,3.3842 4.7467,4.007 0.8028,0.2735 1.5666,0.4973 1.6973,0.4973 0.2514,0 0.4435,-0.8183 0.7631,-3.2512 0.192,-1.4621 0.1767,-1.4954 -0.7871,-1.7071 -0.5406,-0.1187 -1.4167,-0.5808 -1.9468,-1.0269 -1.517,-1.2765 -1.9842,-2.4948 -2.0018,-5.2199 -0.028,-4.3107 1.7441,-6.5702 4.9662,-6.3329 1.6075,0.1183 1.5421,-0.055 2.6549,7.0545 0.4336,2.7701 1.0114,5.5703 1.284,6.2228 1.0338,2.4741 3.0784,4.3444 5.3905,4.9307 1.4079,0.357 3.9252,0.045 5.2918,-0.656 z m -4.7664,-4.3999 c -0.7883,-0.2882 -1.9671,-1.4802 -2.2891,-2.3147 -0.1656,-0.4293 -0.6526,-2.6833 -1.0821,-5.0087 -0.4295,-2.3255 -0.9231,-4.6022 -1.0969,-5.0594 -0.3144,-0.8268 -0.3074,-0.8313 1.2943,-0.8313 2.7287,0 4.4359,0.6053 5.9346,2.104 3.1311,3.1311 3.1191,9.5564 -0.02,10.8681 -1.1525,0.4815 -1.9038,0.5478 -2.7406,0.242 z m 8.32,-25.5119 v -2.3777 l -9.04,-0.1023 c -8.7398,-0.099 -9.0908,-0.1273 -10.5687,-0.855 -0.9428,-0.4643 -1.7245,-1.1313 -2.0394,-1.7403 -0.5815,-1.1244 -0.6302,-3.4185 -0.094,-4.4205 0.1988,-0.3714 0.24,-0.7796 0.092,-0.9073 -0.2373,-0.2043 -3.8332,-1.6192 -4.1151,-1.6192 -0.2808,0 -1.4345,3.66 -1.4345,4.551 0,1.6642 1.1693,3.6354 2.7954,4.7125 l 1.4743,0.9765 h -1.8149 -1.8148 v 2.08 2.0801 h 13.28 13.28 z m -3.5536,-12.6483 c 1.5318,-0.7856 2.409,-1.7693 3.298,-3.698 0.6038,-1.3101 0.7356,-2.1404 0.7356,-4.636 0,-3.4234 -0.5112,-5.1843 -2.2759,-7.84 l -1.0633,-1.6 0.7096,-0.275 c 0.3903,-0.1512 1.0336,-0.4002 1.4296,-0.5531 0.6584,-0.2543 0.72,-0.4846 0.72,-2.6893 v -2.4111 l -1.2,0.5414 c -1.0021,0.4522 -2.7567,0.5743 -10.64,0.7404 -10.104,0.2129 -10.9515,0.3474 -12.7468,2.022 -2.9554,2.7567 -3.4908,11.0482 -1.0256,15.8804 0.8244,1.616 2.9191,3.3842 4.7467,4.007 0.8028,0.2735 1.5666,0.4973 1.6973,0.4973 0.2514,0 0.4435,-0.8183 0.7631,-3.2512 0.192,-1.4621 0.1767,-1.4954 -0.7871,-1.7071 -0.5406,-0.1187 -1.4167,-0.5808 -1.9468,-1.0269 -1.517,-1.2765 -1.9842,-2.4948 -2.0018,-5.2199 -0.028,-4.3107 1.7441,-6.5702 4.9662,-6.3329 1.6075,0.1183 1.5421,-0.055 2.6549,7.0545 0.4336,2.7701 1.0114,5.5703 1.284,6.2228 1.0338,2.4741 3.0784,4.3444 5.3905,4.9307 1.4079,0.357 3.9252,0.045 5.2918,-0.656 z m -4.7664,-4.3999 c -0.7883,-0.2882 -1.9671,-1.4802 -2.2891,-2.3147 -0.1656,-0.4293 -0.6526,-2.6833 -1.0821,-5.0087 -0.4295,-2.3255 -0.9231,-4.6022 -1.0969,-5.0594 -0.3144,-0.8268 -0.3074,-0.8313 1.2943,-0.8313 2.7287,0 4.4359,0.6053 5.9346,2.104 3.1311,3.1311 3.1191,9.5564 -0.02,10.8681 -1.1525,0.4815 -1.9038,0.5478 -2.7406,0.242 z m 8.32,-25.5341 v -2.4 h -18.24 -18.24 v 2.4 2.4 h 18.24 18.24 z m 0,-9.92 v -2.4 h -18.24 -18.24 v 2.4 2.4 h 18.24 18.24 z m -10.08,-6.5698 c 4.547,-0.6437 8.285,-3.4221 9.8019,-7.2857 0.9573,-2.4381 1.0426,-7.4082 0.1702,-9.911 -0.9323,-2.6746 -2.6904,-4.6283 -5.3725,-5.97 -1.2725,-0.6366 -2.4174,-1.0463 -2.5443,-0.9105 -0.1269,0.1359 -0.3291,1.2638 -0.4494,2.5065 l -0.2187,2.2595 1.3177,0.5942 c 3.804,1.7154 5.1599,6.5823 2.8673,10.2918 -1.2531,2.0276 -4.1595,3.635 -6.5724,3.635 h -1.0798 v -9.76 -9.76 h -2.0128 c -7.3041,0 -12.4229,4.4316 -12.9425,11.2053 -0.6802,8.8654 6.7278,14.5642 17.0353,13.1049 z m -7.36,-5.0894 c -4.6934,-1.1426 -7.0802,-6.2725 -4.8945,-10.5197 0.901,-1.7508 3.016,-3.2202 5.0223,-3.4893 l 1.3122,-0.176 v 7.2421 c 0,3.9832 -0.108,7.2274 -0.24,7.2094 -0.132,-0.018 -0.672,-0.138 -1.2,-0.2665 z m -15.5097,-4.2324 3.5097,-2.9315 v -1.8685 c 0,-1.0276 -0.074,-1.8684 -0.1654,-1.8684 -0.091,0 -1.7469,0.7932 -3.68,1.7627 l -3.5146,1.7627 v 3.0373 c 0,1.6705 0.077,3.0373 0.1703,3.0373 0.094,0 1.7497,-1.3192 3.68,-2.9316 z m 32.9497,-21.2284 v -2.4 h -18.24 -18.24 v 2.4 2.4 h 18.24 18.24 z m -10.08,-6.2498 c 4.547,-0.6437 8.285,-3.4221 9.8019,-7.2857 0.9573,-2.4381 1.0426,-7.4082 0.1702,-9.911 -0.9323,-2.6746 -2.6904,-4.6283 -5.3725,-5.97 -1.2725,-0.6366 -2.4174,-1.04629 -2.5443,-0.91045 -0.1269,0.13585 -0.3291,1.26375 -0.4494,2.50645 l -0.2187,2.2595 1.3177,0.5942 c 3.804,1.7154 5.1599,6.5823 2.8673,10.2918 -1.2531,2.0276 -4.1595,3.635 -6.5724,3.635 h -1.0798 v -9.76 -9.75994 h -2.0128 c -7.3041,0 -12.4229,4.43154 -12.9425,11.20524 -0.6802,8.8654 6.7278,14.5642 17.0353,13.1049 z m -7.36,-5.0894 c -4.6934,-1.1426 -7.0802,-6.2725 -4.8945,-10.5197 0.901,-1.7508 3.016,-3.2202 5.0223,-3.4893 l 1.3122,-0.176 v 7.2421 c 0,3.9832 -0.108,7.2274 -0.24,7.2094 -0.132,-0.018 -0.672,-0.138 -1.2,-0.2665 z m 7.36,-34.91053 c 4.547,-0.64375 8.285,-3.42215 9.8019,-7.2857 0.9573,-2.43811 1.0426,-7.40825 0.1702,-9.91107 -0.9323,-2.67453 -2.6904,-4.62822 -5.3725,-5.96998 -1.2725,-0.63661 -2.4174,-1.04631 -2.5443,-0.91047 -0.1269,0.13584 -0.3291,1.26378 -0.4494,2.5065 l -0.2187,2.25949 1.3177,0.5942 c 3.804,1.71536 5.1599,6.58228 2.8673,10.29178 -1.2531,2.02758 -4.1595,3.63504 -6.5724,3.63504 h -1.0798 v -9.76 -9.76 h -2.0128 c -7.3041,0 -12.4229,4.43162 -12.9425,11.20525 -0.6802,8.86537 6.7278,14.56419 17.0353,13.10496 z m -7.36,-5.08944 c -4.6934,-1.14259 -7.0802,-6.27248 -4.8945,-10.51971 0.901,-1.75076 3.016,-3.22023 5.0223,-3.48932 l 1.3122,-0.176 v 7.24212 c 0,3.98316 -0.108,7.22739 -0.24,7.20937 -0.132,-0.0179 -0.672,-0.13792 -1.2,-0.26646 z m -5.6,-22.06986 v -1.56909 l 9.84,-0.11091 c 11.2594,-0.12691 11.4412,-0.16717 12.819,-2.83824 0.6291,-1.21945 0.7244,-1.82163 0.64,-4.04617 -0.054,-1.43744 -0.1919,-2.70631 -0.3054,-2.81972 -0.1135,-0.1134 -1.0495,-0.0891 -2.08,0.054 l -1.8736,0.26012 -0.16,1.91204 c -0.1371,1.63766 -0.2748,1.96982 -0.96,2.31484 -0.5827,0.29341 -3.1252,0.4041 -9.36,0.40756 l -8.56,0.005 v -2.24 -2.24 h -1.76 -1.76 v 2.23146 2.23142 l -4.6478,0.0886 -4.6478,0.0885 1.3757,2.24 1.3756,2.24 3.2722,0.0912 3.2721,0.0912 v 1.5888 1.5888 h 1.76 1.76 z m 23.04,-29.79091 v -2.56 h -8 -8 v -4.09219 c 0,-6.37524 0.4465,-6.93956 10.6388,-13.4466 l 5.3589,-3.42121 v -3.13888 c 0,-2.41776 -0.091,-3.08733 -0.3989,-2.9144 -0.22,0.12345 -2.8923,1.80617 -5.9385,3.73939 -5.8993,3.7439 -8.6935,6.02445 -9.6388,7.86707 l -0.5841,1.13856 -0.2217,-1.31209 c -0.3724,-2.20391 -1.8874,-4.98087 -3.4842,-6.38647 -4.7131,-4.14864 -12.7379,-2.48563 -15.2944,3.16951 -0.7438,1.64531 -0.7601,1.8894 -0.8572,12.79731 l -0.099,11.12 h 18.2589 18.2589 v -2.56 z m -32.32,-9.22192 c 0,-7.42432 0.3145,-9.25575 1.8325,-10.67191 1.3285,-1.23942 2.2599,-1.62003 3.9643,-1.62003 1.0793,0 1.9633,0.24749 2.9504,0.82602 2.5347,1.48541 3.0928,3.69632 3.0928,12.25152 v 5.87632 h -5.92 -5.92 z m 22.24,-21.82787 c 4.547,-0.64375 8.285,-3.42215 9.8019,-7.2857 0.9573,-2.43811 1.0426,-7.40826 0.1702,-9.91107 -0.9323,-2.67453 -2.6904,-4.62823 -5.3725,-5.96999 -1.2725,-0.6366 -2.4174,-1.0463 -2.5443,-0.91046 -0.1269,0.13584 -0.3291,1.26378 -0.4494,2.5065 l -0.2187,2.25948 1.3177,0.59421 c 3.804,1.71536 5.1599,6.58227 2.8673,10.29178 -1.2531,2.02758 -4.1595,3.63504 -6.5724,3.63504 h -1.0798 v -9.76 -9.76 h -2.0128 c -7.3041,0 -12.4229,4.43161 -12.9425,11.20525 -0.6802,8.86537 6.7278,14.56419 17.0353,13.10496 z m -7.36,-5.08944 c -4.6934,-1.1426 -7.0802,-6.27248 -4.8945,-10.51972 0.901,-1.75075 3.016,-3.22022 5.0223,-3.48931 l 1.3122,-0.176 v 7.24211 c 0,3.98317 -0.108,7.2274 -0.24,7.20938 -0.132,-0.0179 -0.672,-0.13792 -1.2,-0.26646 z m -12.0094,-5.22077 -0.01,-2 -3.3422,-2.55722 c -1.8382,-1.40643 -3.49,-2.60643 -3.6706,-2.66665 -0.2085,-0.0695 -0.3284,0.95756 -0.3284,2.81443 v 2.92393 l 3.6,1.73981 c 1.98,0.9569 3.636,1.74115 3.68,1.74275 0.044,0.003 0.076,-0.89705 0.071,-1.99705 z m 23.7905,-16.74944 c 2.2071,-0.75207 4.5112,-2.97155 5.3815,-5.1841 0.9572,-2.4335 1.0499,-7.7079 0.1793,-10.20336 -2.4774,-7.10125 -11.0165,-8.42026 -13.9608,-2.15648 -0.3773,0.80253 -1.2867,3.62611 -2.021,6.27462 -1.4357,5.1785 -2.2905,6.65876 -3.8454,6.65876 -1.1212,0 -2.3619,-1.09063 -2.8268,-2.48499 -0.5423,-1.62647 -0.4748,-4.77725 0.1334,-6.22801 0.5107,-1.21795 2.1401,-2.48361 3.2003,-2.48582 0.3994,0 0.5329,-0.17651 0.4262,-0.56118 -0.086,-0.308 -0.2507,-1.39693 -0.3671,-2.41984 l -0.2117,-1.85981 -1.0145,0.21888 c -1.6757,0.36153 -3.2943,1.33145 -4.341,2.60134 -1.5554,1.88695 -2.1034,3.91683 -2.1088,7.81168 0,3.24976 0.042,3.48452 1.1153,5.58762 0.9019,1.76784 1.4267,2.38474 2.6949,3.16774 1.3746,0.84871 1.8697,0.97239 3.8924,0.97239 2.0641,0 2.4687,-0.10621 3.6992,-0.97101 1.8147,-1.27546 2.7635,-3.22758 4.2754,-8.79606 0.665,-2.44929 1.4661,-4.87594 1.7803,-5.39255 1.2056,-1.98237 4.2218,-1.42474 5.464,1.01014 0.7701,1.5097 0.9261,4.85994 0.3116,6.69348 -0.4708,1.40454 -2.093,2.91977 -3.6904,3.44694 -1.2532,0.4136 -1.3137,0.62672 -0.9439,3.32439 0.2322,1.69433 0.4464,1.76953 2.7776,0.97523 z m -4.4211,-24.14036 c 4.547,-0.64374 8.285,-3.42214 9.8019,-7.28569 0.9573,-2.43811 1.0426,-7.40826 0.1702,-9.91107 -0.9323,-2.67453 -2.6904,-4.62823 -5.3725,-5.96999 -1.2725,-0.63661 -2.4174,-1.0463 -2.5443,-0.91046 -0.1269,0.13584 -0.3291,1.26377 -0.4494,2.50649 l -0.2187,2.25949 1.3177,0.59421 c 3.804,1.71536 5.1599,6.58227 2.8673,10.29178 -1.2531,2.02758 -4.1595,3.63504 -6.5724,3.63504 h -1.0798 v -9.76 -9.76 h -2.0128 c -7.3041,0 -12.4229,4.43161 -12.9425,11.20524 -0.6802,8.86538 6.7278,14.5642 17.0353,13.10496 z m -7.36,-5.08944 c -4.6934,-1.14259 -7.0802,-6.27248 -4.8945,-10.51971 0.901,-1.75075 3.016,-3.22022 5.0223,-3.48931 l 1.3122,-0.176 v 7.24211 c 0,3.98317 -0.108,7.22739 -0.24,7.20938 -0.132,-0.0179 -0.672,-0.13792 -1.2,-0.26647 z m 13.8864,-22.40681 c 1.5318,-0.78563 2.409,-1.76925 3.298,-3.69795 0.6038,-1.31018 0.7356,-2.14045 0.7356,-4.636 0,-3.4234 -0.5112,-5.18429 -2.2759,-7.84 l -1.0633,-1.6 0.7096,-0.27501 c 0.3903,-0.15127 1.0336,-0.40019 1.4296,-0.55315 0.6584,-0.25431 0.72,-0.48455 0.72,-2.68928 v -2.41114 l -1.2,0.54147 c -1.0021,0.45219 -2.7567,0.57427 -10.64,0.74042 -10.104,0.21289 -10.9515,0.34736 -12.7468,2.02195 -2.9554,2.75674 -3.4908,11.04819 -1.0256,15.88042 0.8244,1.61593 2.9191,3.38422 4.7467,4.00694 0.8028,0.27357 1.5666,0.49738 1.6973,0.49738 0.2514,0 0.4435,-0.81834 0.7631,-3.2512 0.192,-1.46218 0.1767,-1.49546 -0.7871,-1.70714 -0.5406,-0.11872 -1.4167,-0.58083 -1.9468,-1.02688 -1.517,-1.27654 -1.9842,-2.49478 -2.0018,-5.21987 -0.028,-4.31075 1.7441,-6.57021 4.9662,-6.33299 1.6075,0.11833 1.5421,-0.0555 2.6549,7.05456 0.4336,2.77004 1.0114,5.5703 1.284,6.22275 1.0338,2.47417 3.0784,4.34441 5.3905,4.93072 1.4079,0.35699 3.9252,0.045 5.2918,-0.656 z m -4.7664,-4.39994 c -0.7883,-0.28816 -1.9671,-1.48016 -2.2891,-2.31465 -0.1656,-0.42935 -0.6526,-2.6833 -1.0821,-5.00874 -0.4295,-2.32547 -0.9231,-4.60218 -1.0969,-5.05936 -0.3144,-0.82675 -0.3074,-0.83126 1.2943,-0.83126 2.7287,0 4.4359,0.60528 5.9346,2.104 3.1311,3.13107 3.1191,9.55632 -0.02,10.86803 -1.1525,0.48153 -1.9038,0.54787 -2.7406,0.24198 z m 4.64,-24.11037 c 5.0328,-2.56784 5.7546,-11.37203 1.256,-15.32176 l -1.1183,-0.98189 h 1.7712 1.7711 v -2.08 -2.08 h -13.28 -13.28 v 2.4 2.4 l 8.56,0.003 c 10.9963,0.003 12.1613,0.31204 13.7139,3.64637 1.4812,3.18099 0.7626,6.15507 -1.8054,7.47184 -1.3634,0.69914 -1.6804,0.72 -10.9363,0.72 h -9.5322 v 2.41959 2.41958 l 10.64,-0.0996 10.64,-0.0996 1.6,-0.81635 z m 3.68,-26.15206 v -2.80845 l -4.8,-3.32189 c -2.64,-1.82707 -4.8,-3.42083 -4.8,-3.54169 0,-0.12087 2.16,-1.62314 4.8,-3.33844 l 4.8,-3.11868 v -2.87012 c 0,-2.20784 -0.092,-2.81596 -0.4,-2.63555 -0.22,0.12899 -3.1609,2.15376 -6.5352,4.49943 -3.3744,2.34569 -6.3264,4.3318 -6.56,4.4136 -0.2337,0.0818 -3.2328,-1.84247 -6.6648,-4.27613 l -6.24,-4.42483 -0.094,2.56883 c -0.052,1.41286 -0.026,2.74477 0.056,2.95977 0.082,0.21501 2.0327,1.71706 4.3338,3.33792 2.3011,1.62087 4.1838,3.0504 4.1838,3.17677 0,0.12634 -1.944,1.4937 -4.32,3.03853 l -4.32,2.8088 v 2.86915 c 0,2.20666 0.092,2.8152 0.4,2.63546 0.22,-0.12858 2.9606,-2.01536 6.0903,-4.19293 3.1297,-2.17754 5.8822,-4.03277 6.1167,-4.12275 0.2345,-0.09 3.3618,1.9247 6.9496,4.47709 3.5879,2.55238 6.6314,4.64828 6.7634,4.6576 0.132,0.009 0.24,-1.24685 0.24,-2.79149 z m -10.88,-67.59159 v -7.04 h -2.4 -2.4 v 6.82666 c 0,3.75469 0.096,6.92269 0.2133,7.04 0.1173,0.11734 1.1973,0.21334 2.4,0.21334 h 2.1867 z m 10.88,-57.76 v -5.92 h -10.6691 -10.6691 l -0.2149,-7.92 c -0.1213,-4.47226 -0.4146,-9.02317 -0.6736,-10.45414 -0.6422,-3.54736 -2.0827,-6.30442 -4.6299,-8.86093 -3.5022,-3.51504 -7.0368,-4.86228 -12.8234,-4.88768 -1.848,-0.008 -4.152,0.17657 -5.12,0.41049 -6.3579,1.53623 -11.0817,6.51434 -12.1766,12.83226 -0.2095,1.20864 -0.4329,8.07888 -0.5335,16.4 l -0.1729,14.32 h 28.8415 28.8415 z m -47.5537,-12.23523 c 0.2507,-7.04429 0.5075,-8.66128 1.652,-10.40205 2.2263,-3.38608 7.4895,-4.29606 10.8617,-1.87795 2.1358,1.53158 3.0182,3.68153 3.3686,8.20774 0.1629,2.10512 0.2996,5.30349 0.3038,7.10749 l 0.01,3.28 h -8.2092 -8.2092 l 0.2247,-6.31523 z m 23.5132,-30.81178 c 7.6559,-0.80637 13.4325,-3.40832 17.8393,-8.0352 3.6144,-3.79485 5.6973,-7.91453 6.693,-13.23779 0.7565,-4.04394 0.5144,-11.79466 -0.4747,-15.2 -3.5579,-12.2497 -13.9355,-19.20426 -28.6487,-19.19911 -15.1097,0.005 -25.555,7.20512 -29.014,19.99911 -0.9164,3.38925 -1.008,11.82825 -0.1681,15.48297 1.5043,6.5464 5.0305,11.75568 10.4098,15.3786 6.0277,4.05961 14.3091,5.76508 23.3634,4.81142 z m -8.2795,-12.15382 c -3.0669,-0.31248 -6.0813,-1.10688 -8.1199,-2.13994 -2.0805,-1.05427 -4.9927,-3.84464 -6.061,-5.80736 -2.2842,-4.19693 -2.4004,-10.23958 -0.2839,-14.77187 1.0205,-2.18535 3.8713,-5.08794 6.1126,-6.22371 6.8923,-3.49255 19.1929,-2.99783 25.2387,1.0151 7.6139,5.05386 8.4777,16.93779 1.6879,23.2239 -1.0472,0.96951 -2.6668,2.13456 -3.5992,2.58903 -3.6523,1.78022 -9.7741,2.64473 -14.9752,2.11485 z m 32.32,-70.87917 v -20.32 h -4.96 -4.96 v 14.4 14.4 h -23.52 -23.52 v 5.92 5.92 h 28.48 28.48 z m 0,-26.83386 v -6.19382 l -6.48,-2.36618 -6.48,-2.36615 -0.084,-11.37056 -0.084,-11.37056 6.1708,-2.32534 c 3.394,-1.27894 6.3509,-2.43664 6.5709,-2.57264 0.303,-0.18726 0.379,-1.76739 0.3131,-6.51203 l -0.087,-6.26474 -28.64,11.45536 -28.64,11.45536 -0.087,6.21923 -0.087,6.2192 28.4066,11.06493 c 15.6236,6.08573 28.5866,11.07773 28.8066,11.09338 0.3072,0.0218 0.4,-1.40854 0.4,-6.16544 z m -33.2614,-18.32487 c -5.5338,-2.01158 -10.0976,-3.69366 -10.142,-3.73795 -0.044,-0.0443 4.4583,-1.78179 10.0057,-3.86102 5.5474,-2.07927 10.15,-3.71667 10.228,-3.63869 0.078,0.0779 0.103,3.46125 0.056,7.51843 l -0.086,7.37667 z m 33.2614,-42.84128 v -5.92 h -12 -12 l 0.01,-0.88 c 0.028,-2.85449 0.6414,-6.84521 1.2289,-7.99683 1.0649,-2.08733 3.9392,-4.36973 13.605,-10.80317 l 9.1347,-6.08 0.012,-7.12221 0.011,-7.12217 -2.64,1.65248 c -7.1246,4.45955 -11.4979,7.24089 -13.68,8.70016 -2.9386,1.96521 -6.3805,5.22669 -7.722,7.31725 -0.5502,0.85734 -1.0573,1.50185 -1.1269,1.43222 -0.07,-0.0696 -0.4213,-1.19005 -0.7815,-2.48989 -1.7002,-6.13539 -5.8297,-10.27424 -11.4253,-11.45117 -7.4449,-1.56588 -14.9237,1.5513 -17.8299,7.43152 -1.9668,3.97959 -2.1175,5.50832 -2.2995,23.33181 l -0.1626,15.92 h 28.8339 28.8338 v -5.92 z m -47.5906,-14.53494 c 0.2114,-9.5888 0.4021,-10.70627 2.1386,-12.52986 2.7148,-2.85088 8.3639,-2.39837 10.653,0.85331 1.1947,1.69709 1.4968,4.33399 1.5091,13.17149 l 0.01,7.12 h -7.2502 -7.2503 l 0.1899,-8.61494 z m 47.5906,-40.82675 v -5.92173 l -28.72,0.0817 -28.72,0.0817 -0.087,5.84 -0.087,5.84 h 28.8072 28.8072 z m -14.9482,-12.4849 c 5.8419,-1.22454 11.0983,-5.18595 13.4881,-10.16503 1.9304,-4.02198 2.5112,-7.58707 2.3309,-14.30838 -0.131,-4.88272 -0.2604,-5.96797 -1.0103,-8.47296 -1.4662,-4.89791 -3.5457,-7.90005 -7.112,-10.26722 -2.8842,-1.91441 -5.8068,-2.79298 -9.3885,-2.82231 -5.2313,-0.0428 -8.9858,1.37708 -12.2365,4.62781 -3.0973,3.09723 -4.3035,6.06799 -7.9318,19.53404 -1.8006,6.68298 -3.4631,9.0079 -6.4412,9.0079 -2.0661,0 -3.9763,-1.85939 -4.8239,-4.69558 -0.6172,-2.0655 -0.5167,-7.71622 0.1725,-9.69168 0.8996,-2.57907 3.3559,-4.49862 6.5147,-5.09123 l 1.158,-0.21722 -0.2059,-3.36556 c -0.1132,-1.85105 -0.2059,-4.49515 -0.2059,-5.87577 v -2.51022 h -1.3728 c -5.2885,0 -11.5131,4.00389 -13.9294,8.96 -1.9156,3.92912 -2.4023,6.5223 -2.4023,12.8 0,6.41843 0.4968,8.93718 2.5237,12.7943 4.8272,9.18621 16.9769,11.0689 24.2829,3.76282 2.7831,-2.7831 4.5148,-6.42922 6.4198,-13.51712 2.9228,-10.8745 3.5954,-12.58208 5.4303,-13.78429 3.309,-2.16818 8.0914,-0.0833 9.8129,4.27783 1.0041,2.5438 1.0651,8.34646 0.1149,10.91926 -1.2408,3.35955 -4.9897,6.33504 -8.7366,6.93418 -0.7389,0.11814 -1.3451,0.37641 -1.3472,0.57392 0,0.1975 0.2388,2.83958 0.5353,5.87129 0.5164,5.27786 0.5676,5.5065 1.2039,5.37786 0.3655,-0.0739 1.7859,-0.36938 3.1564,-0.65664 z m 70.0534,-96.11865 c 21.3774,-5.8609 32.1689,-28.8633 22.644,-48.2662 -1.9139,-3.8988 -4.7379,-7.7505 -7.482,-10.2049 l -1.9985,-1.7874 1.036,-3.5682 c 0.5698,-1.9624 1.8732,-6.5561 2.8964,-10.2081 1.8144,-6.4763 1.8809,-6.64 2.6984,-6.64 1.6066,0 5.9172,-1.2837 8.2523,-2.4577 4.5577,-2.2912 8.9554,-7.3636 10.6312,-12.2623 0.8392,-2.4533 1.1918,-8.1212 0.6767,-10.88 -1.4927,-7.9949 -8.1847,-14.9344 -16.2197,-16.8196 -2.7288,-0.6402 -6.8885,-0.6989 -9.9789,-0.1407 l -2.299,0.4153 -7.995,-7.7611 -7.995,-7.761 0.4539,-1.2867 c 0.6718,-1.904 0.5764,-5.6201 -0.2053,-7.9994 -1.764,-5.3691 -6.4527,-8.8031 -12.4607,-9.1264 -3.0965,-0.1665 -5.8371,0.5529 -8.1137,2.13 l -1.276,0.884 -4.5052,-2.0494 c -2.4778,-1.1271 -6.1084,-2.77 -8.068,-3.6509 -3.552,-1.5966 -3.5635,-1.6054 -3.7666,-2.8753 -0.4815,-3.0115 -2.808,-6.164 -5.68,-7.6967 -1.2005,-0.6407 -1.8496,-0.7421 -4.7505,-0.7421 -3.8824,0 -5.1338,0.4769 -7.5245,2.8676 -1.6121,1.6122 -2.2451,2.7334 -2.8273,5.0082 l -0.4218,1.6485 -5.2532,2.2306 c -2.8893,1.2269 -6.7572,2.859 -8.5954,3.6269 l -3.3421,1.3962 -1.4535,-0.9627 c -7.3248,-4.8518 -17.5552,-1.375 -20.5001,6.967 -0.774,2.1924 -0.9742,6.2468 -0.3843,7.7825 0.2879,0.7495 -0.1472,1.2872 -6.3436,7.84 l -6.6527,7.0352 -3.1508,-0.098 c -6.5704,-0.2046 -12.1696,2.5239 -15.8061,7.7022 -2.1948,3.1252 -2.9104,5.187 -3.107,8.9512 -0.3126,5.9861 1.0582,9.7097 5.0658,13.7597 5.1649,5.2197 11.8968,6.8444 18.8184,4.5416 9.4127,-3.1315 14.4995,-12.9799 11.5938,-22.4463 -0.3359,-1.0944 -0.929,-2.5047 -1.318,-3.1342 l -0.7073,-1.1444 1.5548,-2.0062 c 7.8705,-10.1555 8.9218,-11.3909 9.5549,-11.2276 1.9481,0.5024 5.239,0.5108 7.1595,0.018 l 2.0394,-0.5231 2.6006,2.3781 c 1.4303,1.3079 4.4478,4.1535 6.7057,6.3235 l 4.1051,3.9454 -0.546,1.44 c -0.6701,1.7674 -0.7725,7.1635 -0.176,9.28 0.2231,0.792 0.8879,2.3931 1.4771,3.5579 l 1.0714,2.118 -5.8184,8.3478 -5.8184,8.3479 -2.9735,0.014 c -5.3625,0.026 -9.2452,1.1813 -13.5229,4.0251 -4.1515,2.7599 -7.2605,6.8501 -9.0495,11.9055 -0.9113,2.5753 -0.993,3.1423 -1.0027,6.9636 -0.01,3.1603 0.1313,4.6214 0.5799,6.08 1.4334,4.661 4.4047,9.1617 7.82,11.8453 8.3123,6.5315 19.564,6.9987 28.1487,1.169 2.9466,-2.001 6.1953,-5.6941 7.7116,-8.7665 1.7002,-3.445 2.2778,-6.0241 2.2837,-10.1966 0.01,-4.215 -0.7767,-7.4883 -2.5728,-10.7607 l -1.296,-2.3615 4.9447,-9.3315 4.9448,-9.3316 1.392,-0.08 c 3.5958,-0.2059 4.894,-0.5299 7.647,-1.908 12.5696,-6.2924 13.6494,-23.1949 1.9771,-30.9493 -4.3567,-2.8943 -9.2137,-3.7174 -14.5963,-2.4736 -1.7499,0.4044 -3.2425,0.595 -3.4898,0.4457 -0.2375,-0.1436 -3.6023,-2.7481 -7.4772,-5.7879 l -7.0453,-5.5269 0.2331,-1.5131 c 0.1282,-0.8322 0.1803,-1.6018 0.1158,-1.7103 -0.064,-0.1085 3.2273,-1.9667 7.3151,-4.1294 4.0879,-2.1627 7.8082,-4.145 8.2673,-4.4051 0.7774,-0.4404 0.9782,-0.4023 2.9221,0.5547 1.8384,0.905 2.402,1.0275 4.7274,1.0275 2.3004,0 2.8921,-0.1254 4.5979,-0.9745 l 1.9578,-0.9745 4,2.337 c 2.2,1.2853 5.6064,3.2499 7.5697,4.3656 l 3.5697,2.0286 0.329,2.217 c 1.068,7.1957 7.3603,12.0065 15.276,11.6795 l 2.1586,-0.089 5.5317,7.2 c 3.0424,3.96 5.9166,7.7369 6.3872,8.3931 l 0.8556,1.1931 -0.9902,2.4869 c -1.3445,3.3764 -1.6303,4.8446 -1.6395,8.4196 -0.012,4.6423 1.434,9.0642 4.1323,12.6381 l 1.245,1.649 -5.4649,9.9701 c -5.3406,9.7432 -5.4874,9.9701 -6.4526,9.9714 -1.7524,0 -7.0083,0.9546 -9.1476,1.6574 -9.4333,3.0993 -16.9835,9.7537 -21.143,18.6347 -4.139,8.837 -4.1197,19.3187 0.053,28.5203 4.0573,8.9482 13.2602,16.564 22.9894,19.0248 3.5139,0.8887 3.8122,0.9134 9.7811,0.8081 4.3262,-0.076 5.9447,-0.2343 7.9052,-0.7718 z m 6.9748,-64.068 c -2.819,-1.4547 -6.4273,-2.6683 -9.4907,-3.1922 -1.2041,-0.206 -2.2352,-0.4144 -2.2913,-0.4632 -0.056,-0.049 0.6726,-1.5068 1.6194,-3.24 0.9468,-1.7333 3.7201,-6.81 6.1629,-11.2816 2.4432,-4.4723 4.9315,-8.6202 5.5306,-9.2193 1.8342,-1.8342 3.1903,-2.0955 5.3783,-1.0363 2.8345,1.3721 3.0444,4.3478 0.8454,11.9858 -0.7094,2.464 -2.1239,7.468 -3.1433,11.12 -1.0195,3.652 -1.9341,6.6232 -2.0325,6.6026 -0.098,-0.021 -1.2588,-0.5947 -2.5788,-1.2758 z m -77.0052,-15.9821 c -0.8551,-0.7125 -2.8056,-1.9005 -4.3344,-2.64 -1.5288,-0.7396 -2.7888,-1.4433 -2.8,-1.5639 -0.049,-0.5271 12.3187,-17.8484 13.7123,-19.2044 2.2628,-2.2017 4.0437,-2.4148 5.6546,-0.6767 0.9249,0.998 1.0276,2.8167 0.2791,4.9401 -0.5922,1.6798 -10.4581,20.434 -10.7516,20.4377 -0.1128,0.001 -0.9048,-0.5804 -1.76,-1.2928 z m 69.1339,-39.1232 c -1.2148,-1.5991 -4.2064,-5.5071 -6.6481,-8.6845 -4.8042,-6.2517 -5.8807,-8.0904 -5.3342,-9.1115 0.4733,-0.8844 1.4367,-1.0954 2.4776,-0.5427 0.7914,0.4202 17.0938,15.945 17.2954,16.4704 0.044,0.1137 -0.5324,0.5963 -1.28,1.0723 -0.7477,0.476 -2.0215,1.504 -2.8307,2.2845 l -1.4713,1.419 z m -108.967,-2.5649 c -0.9891,-0.7351 -2.0617,-1.4916 -2.3837,-1.6812 -0.5186,-0.3052 0.1418,-1.1086 5.7867,-7.04 3.5046,-3.6824 6.6843,-6.9445 7.066,-7.249 1.2331,-0.9836 2.2198,-1.2114 2.9705,-0.6855 0.8123,0.569 0.8469,1.5175 0.1054,2.8934 -0.4234,0.7855 -11.6153,15.224 -11.722,15.1223 -0.013,-0.013 -0.8338,-0.625 -1.8229,-1.36 z m 38.5983,-1.7177 c -0.704,-0.6402 -3.8937,-3.6595 -7.0881,-6.7097 -6.2142,-5.9336 -6.9826,-6.9985 -5.8596,-8.1215 1.3143,-1.3142 1.8463,-1.0154 11.0939,6.2292 l 7.323,5.7369 -1.9935,2.0231 c -1.0964,1.1127 -2.039,2.0192 -2.0946,2.0145 -0.056,0 -0.6771,-0.5324 -1.3811,-1.1725 z m -6.7407,-25.8506 -0.6607,-1.3999 2.5807,-1.1343 c 6.5286,-2.8697 13.8756,-5.8929 14.8207,-6.0986 1.4823,-0.3226 1.3902,0.557 -0.16,1.5286 -1.0016,0.6277 -15.2046,8.2406 -15.7461,8.44 -0.096,0.035 -0.4712,-0.5659 -0.8346,-1.3358 z m 41.3007,-1.7094 c -11.031,-6.3505 -10.7952,-6.1917 -10.1513,-6.8356 0.3738,-0.3738 2.6447,0.53 11.3666,4.5235 l 5.9115,2.7067 -0.6672,1.3733 c -0.3669,0.7553 -0.7465,1.3711 -0.8434,1.3685 -0.097,0 -2.6242,-1.414 -5.6162,-3.1364 z M 756.1601,3036.613 v -5.6272 l -1.4521,1.2782 c -3.3195,2.9219 -7.6685,2.3568 -11.0014,-1.4296 -1.8141,-2.061 -2.4265,-4.0684 -2.4265,-7.9542 0,-4.0458 0.6575,-6.093 2.6365,-8.2087 3.3101,-3.5388 8.6794,-3.5607 11.549,-0.047 l 0.993,1.2158 0.011,-1.84 0.011,-1.84 h 1.6 1.6 v 15.04 15.04 h -1.76 -1.76 v -5.6272 z m -2.8811,-6.5323 c 0.8081,-0.4122 1.571,-1.1797 2.1473,-2.16 0.8089,-1.3762 0.8938,-1.809 0.8938,-4.5605 0,-3.5662 -0.7399,-5.5134 -2.6479,-6.9687 -0.9758,-0.7443 -1.4491,-0.8713 -3.2472,-0.8713 -1.6724,0 -2.313,0.1484 -3.1175,0.7222 -2.9246,2.0862 -3.5871,9.0072 -1.1663,12.185 1.7571,2.3066 4.5771,2.9597 7.1378,1.6533 z m 1155.7508,4.1601 c -6.2326,-1.1017 -9.1655,-6.9393 -9.1833,-18.2787 -0.015,-9.4465 2.3485,-15.125 7.1937,-17.2844 1.2227,-0.5449 2.2129,-0.7146 4.1992,-0.7193 2.3026,-0.01 2.8449,0.1147 4.7518,1.0535 2.3665,1.165 3.582,2.5601 4.8495,5.5657 1.4084,3.3399 1.8106,6.4968 1.6341,12.8275 -0.1716,6.1522 -0.5454,8.2542 -2.0034,11.265 -2.0606,4.2552 -6.5413,6.4368 -11.4416,5.5707 z m 5.0371,-3.9286 c 1.6669,-0.9441 2.9109,-2.7917 3.6033,-5.352 0.4529,-1.6744 0.5626,-3.3904 0.5626,-8.8 0,-7.4885 -0.3849,-9.8141 -2.0122,-12.1573 -1.366,-1.967 -3.0035,-2.7711 -5.382,-2.643 -2.497,0.1346 -4.0248,1.2089 -5.1194,3.5999 -1.219,2.6626 -1.5363,5.0025 -1.5408,11.3604 0,6.5289 0.3364,8.8115 1.6941,11.3368 1.6861,3.1363 5.2857,4.3027 8.1944,2.6552 z m 46.6203,3.92 c -3.6722,-0.7643 -6.5337,-3.8208 -7.2573,-7.752 l -0.2209,-1.2 h 1.7956 c 0.9876,0 1.8958,-0.01 2.0184,-0.019 0.1226,-0.01 0.3883,0.542 0.5906,1.227 0.9204,3.1173 2.7035,4.5566 5.6302,4.5446 2.1363,-0.01 3.9686,-0.8157 5.3029,-2.3354 1.3504,-1.5381 2.64,-5.6485 2.8792,-9.1776 l 0.1844,-2.72 -1.3364,1.502 c -2.6704,3.0013 -6.8882,4.0567 -10.8198,2.7076 -2.2311,-0.7657 -4.6044,-3.0293 -5.7555,-5.4896 -0.8212,-1.7549 -0.8984,-2.2365 -0.8984,-5.6 0,-3.3161 0.084,-3.8596 0.8513,-5.496 2.2466,-4.7924 6.831,-7.2397 11.8629,-6.3328 4.7868,0.8627 7.9955,4.0389 9.4451,9.3492 0.8017,2.9373 0.7811,12.5433 -0.034,16.0796 -1.177,5.103 -3.8367,8.7175 -7.3941,10.0485 -2.0566,0.7695 -4.9751,1.0525 -6.8437,0.6635 z m 6.1233,-17.0631 c 1.3602,-0.5694 3.2488,-2.697 3.77,-4.2471 0.5211,-1.5497 0.5261,-4.9554 0.01,-6.7908 -0.4849,-1.7244 -2.5759,-4.051 -4.0899,-4.5507 -1.9266,-0.6358 -4.689,-0.2468 -6.2567,0.8812 -4.6926,3.3764 -4.4278,12.0373 0.4417,14.4477 1.6277,0.8057 4.527,0.9287 6.1249,0.2597 z m -1588.0368,16.6122 c -2.0508,-0.5511 -3.1028,-1.3633 -3.9736,-3.0676 -0.844,-1.6518 -0.9118,-3.0751 -0.2248,-4.7194 1.1671,-2.7932 2.8523,-3.685 8.6284,-4.5662 5.6382,-0.8601 5.9176,-0.9688 5.9117,-2.3 -0.012,-2.5558 -1.7076,-3.7669 -5.2753,-3.7669 -2.843,0 -4.2465,0.657 -5.128,2.4007 l -0.6481,1.2818 -1.6851,-0.2683 c -1.5336,-0.2441 -1.6659,-0.3306 -1.4709,-0.9617 1.2534,-4.0578 4.1338,-5.787 9.6177,-5.7738 2.5896,0.01 3.1391,0.1146 4.7852,0.9437 3.005,1.5135 3.132,1.9371 3.3521,11.1766 0.1133,4.7565 0.3264,8.0229 0.56,8.5808 0.2074,0.4955 0.3771,0.9707 0.3771,1.056 0,0.085 -0.8195,0.112 -1.821,0.059 -1.786,-0.094 -1.8265,-0.1175 -2.1088,-1.216 -0.1583,-0.616 -0.3253,-1.1585 -0.3711,-1.2055 -0.046,-0.047 -0.9012,0.407 -1.9006,1.0088 -1.1182,0.6734 -2.5929,1.2293 -3.8341,1.4455 -2.4556,0.4276 -2.8308,0.4192 -4.7908,-0.1077 z m 6.2186,-3.4253 c 2.6505,-0.8874 4.1278,-2.8272 4.1278,-5.4202 0,-1.2157 -0.06,-1.31 -0.7227,-1.1436 -0.3974,0.1 -2.5144,0.4689 -4.7044,0.8203 -4.6443,0.7453 -5.5609,1.2347 -5.7141,3.0509 -0.1076,1.2756 0.5027,2.2638 1.7012,2.7543 0.9531,0.3901 4.071,0.3539 5.3122,-0.062 z m 20.2158,3.5854 c -1.3666,-0.3404 -2.6136,-1.1456 -3.6794,-2.3756 l -0.8714,-1.0056 -0.01,1.68 -0.01,1.68 h -1.6 -1.6 v -14.88 -14.88 h 1.76 1.76 v 5.4808 5.4807 l 1.3835,-1.2753 c 2.3744,-2.1886 5.4847,-2.4463 8.8437,-0.7327 3.3172,1.6923 5.0461,6.2783 4.4544,11.8156 -0.2816,2.6359 -1.0622,4.5598 -2.5266,6.2277 -1.9046,2.1692 -5.4148,3.4053 -7.907,2.7844 z m 4.4808,-4.2652 c 1.8168,-1.3858 2.6097,-3.4144 2.5935,-6.636 -0.019,-3.7865 -1.0666,-6.0234 -3.3864,-7.2304 -1.3045,-0.6788 -3.7397,-0.5668 -5.0503,0.2321 -2.3198,1.4142 -3.194,3.3354 -3.1845,6.9983 0.01,3.9169 0.7499,5.6578 3.0189,7.1032 1.4443,0.9201 4.5016,0.6824 6.0088,-0.4672 z m 15.8644,4.1351 c -3.3886,-0.754 -5.8813,-3.1293 -6.8764,-6.5522 -0.3617,-1.2442 -0.4721,-2.6681 -0.3863,-4.9844 0.1019,-2.753 0.255,-3.5185 1.0142,-5.0703 1.6736,-3.4207 4.7478,-5.1797 9.0153,-5.1583 3.9573,0.02 6.891,1.7972 8.5578,5.1848 0.9995,2.0313 1.0412,2.269 1.0196,5.8037 -0.016,2.6257 -0.176,4.085 -0.556,5.0745 -1.6883,4.396 -6.7201,6.8299 -11.7882,5.7022 z m 5.6373,-3.8212 c 2.2275,-1.2617 3.3659,-3.6121 3.3659,-6.9499 0,-4.701 -2.4415,-7.6626 -6.3267,-7.6747 -2.1539,-0.01 -3.4978,0.561 -4.7773,2.0183 -1.2389,1.411 -1.6889,2.9182 -1.6889,5.6564 0,1.144 0.1511,2.6239 0.3357,3.2887 0.4069,1.4652 2.0184,3.3718 3.3348,3.9453 1.5631,0.6811 4.29,0.5465 5.7565,-0.2841 z m 26.3031,3.7912 c -2.0508,-0.5511 -3.1028,-1.3633 -3.9736,-3.0676 -0.844,-1.6518 -0.9118,-3.0751 -0.2248,-4.7194 1.1671,-2.7932 2.8523,-3.685 8.6284,-4.5662 5.6382,-0.8601 5.9176,-0.9688 5.9117,-2.3 -0.012,-2.5558 -1.7076,-3.7669 -5.2753,-3.7669 -2.843,0 -4.2465,0.657 -5.128,2.4007 l -0.6481,1.2818 -1.6851,-0.2683 c -1.5336,-0.2441 -1.6659,-0.3306 -1.4709,-0.9617 1.2534,-4.0578 4.1338,-5.787 9.6177,-5.7738 2.5896,0.01 3.1391,0.1146 4.7852,0.9437 3.005,1.5135 3.132,1.9371 3.3521,11.1766 0.1133,4.7565 0.3264,8.0229 0.56,8.5808 0.2074,0.4955 0.3771,0.9707 0.3771,1.056 0,0.085 -0.8195,0.112 -1.821,0.059 -1.786,-0.094 -1.8265,-0.1175 -2.1088,-1.216 -0.1583,-0.616 -0.3253,-1.1585 -0.3711,-1.2055 -0.046,-0.047 -0.9012,0.407 -1.9006,1.0088 -1.1182,0.6734 -2.5929,1.2293 -3.8341,1.4455 -2.4556,0.4276 -2.8308,0.4192 -4.7908,-0.1077 z m 6.2186,-3.4253 c 2.6505,-0.8874 4.1278,-2.8272 4.1278,-5.4202 0,-1.2157 -0.06,-1.31 -0.7227,-1.1436 -0.3974,0.1 -2.5144,0.4689 -4.7044,0.8203 -4.6443,0.7453 -5.5609,1.2347 -5.7141,3.0509 -0.1076,1.2756 0.5027,2.2638 1.7012,2.7543 0.9531,0.3901 4.071,0.3539 5.3122,-0.062 z m 15.8847,3.4268 c -2.6402,-0.9421 -2.7929,-1.5333 -2.7951,-10.8226 v -7.28 h -1.28 -1.28 v -1.76 -1.76 h 1.28 1.28 l 0.01,-2.64 0.01,-2.64 1.7537,-1.0249 1.7536,-1.0248 v 3.6648 3.6649 h 1.76 1.76 v 1.76 1.76 h -1.76 -1.76 v 7.136 c 0,5.1235 0.1083,7.2443 0.384,7.52 0.2112,0.2112 1.0005,0.384 1.7539,0.384 1.4635,0 1.3423,-0.1538 1.8575,2.3571 0.1414,0.6893 0.023,0.7754 -1.3247,0.96 -1.899,0.2603 -1.9648,0.2554 -3.3937,-0.2545 z m 13.1563,0.028 c -3.3886,-0.754 -5.8813,-3.1293 -6.8764,-6.5522 -0.3617,-1.2442 -0.4721,-2.6681 -0.3863,-4.9844 0.1019,-2.753 0.255,-3.5185 1.0142,-5.0703 1.6736,-3.4207 4.7478,-5.1797 9.0153,-5.1583 3.9573,0.02 6.891,1.7972 8.5578,5.1848 0.9995,2.0313 1.0412,2.269 1.0196,5.8037 -0.016,2.6257 -0.176,4.085 -0.556,5.0745 -1.6883,4.396 -6.7201,6.8299 -11.7882,5.7022 z m 5.6373,-3.8212 c 2.2275,-1.2617 3.3659,-3.6121 3.3659,-6.9499 0,-4.701 -2.4415,-7.6626 -6.3267,-7.6747 -2.1539,-0.01 -3.4978,0.561 -4.7773,2.0183 -1.2389,1.411 -1.6888,2.9182 -1.6888,5.6564 0,1.144 0.151,2.6239 0.3356,3.2887 0.4069,1.4652 2.0184,3.3718 3.3348,3.9453 1.5631,0.6811 4.29,0.5465 5.7565,-0.2841 z m 37.904,3.9376 c -5.3814,-0.9506 -8.4041,-5.6167 -7.8551,-12.1256 0.512,-6.0709 4.217,-9.7563 9.8006,-9.7487 5.6299,0.01 9.3084,3.7102 9.6436,9.7068 l 0.1164,2.08 -8.1042,0.086 -8.1042,0.086 0.2121,1.0344 c 0.4084,1.9917 1.4884,3.7799 2.8117,4.6556 1.1277,0.7463 1.6229,0.8589 3.7777,0.8589 2.7899,0 3.7047,-0.4466 5.028,-2.4549 l 0.7411,-1.1247 1.6589,0.3173 c 0.9124,0.1744 1.7033,0.3522 1.7576,0.3951 0.2733,0.2158 -0.9752,2.47 -1.9903,3.5936 -1.9758,2.1869 -5.8943,3.2771 -9.4939,2.6411 z m 7.9018,-14.4875 c -0.9213,-4.7037 -8.7313,-5.6634 -11.2408,-1.3812 -1.4558,2.4841 -1.594,2.4212 5.3245,2.4212 h 6.12 z m 23.6988,14.3537 c -3.3097,-0.9157 -5.8715,-3.8115 -6.6379,-7.5035 -0.5117,-2.4645 -0.2202,-6.531 0.6257,-8.7289 1.3246,-3.4422 4.2834,-5.5127 7.8771,-5.5123 2.2395,2e-4 3.6691,0.6331 5.2,2.3022 l 1.04,1.1339 v -5.6626 -5.6625 h 1.6 1.6 v 14.88 14.88 h -1.44 -1.44 l -0.01,-1.84 -0.01,-1.84 -1.1483,1.3697 c -0.6316,0.7533 -1.5307,1.5673 -1.998,1.809 -1.3278,0.6866 -3.5641,0.8459 -5.2661,0.375 z m 5.406,-3.8692 c 4.3765,-2.5648 3.8138,-12.3247 -0.8213,-14.2446 -1.507,-0.6242 -4.2297,-0.2667 -5.5317,0.7264 -1.5745,1.2009 -2.2394,2.8262 -2.404,5.8762 -0.2158,3.9993 0.9487,6.597 3.6159,8.0656 1.1733,0.6461 3.6664,0.4407 5.1411,-0.4236 z m 66.0121,3.8866 c -3.3886,-0.754 -5.8813,-3.1293 -6.8764,-6.5522 -0.3617,-1.2442 -0.4721,-2.6681 -0.3863,-4.9844 0.1019,-2.753 0.255,-3.5185 1.0142,-5.0703 1.6736,-3.4207 4.7478,-5.1797 9.0153,-5.1583 3.9573,0.02 6.891,1.7972 8.5578,5.1848 0.9995,2.0313 1.0412,2.269 1.0196,5.8037 -0.016,2.6257 -0.176,4.085 -0.556,5.0745 -1.6883,4.396 -6.7201,6.8299 -11.7882,5.7022 z m 5.6373,-3.8212 c 2.2276,-1.2617 3.3659,-3.6121 3.3659,-6.9499 0,-4.701 -2.4415,-7.6626 -6.3267,-7.6747 -2.1539,-0.01 -3.4978,0.561 -4.7773,2.0183 -1.2389,1.411 -1.6888,2.9182 -1.6888,5.6564 0,1.144 0.151,2.6239 0.3356,3.2887 0.4069,1.4652 2.0184,3.3718 3.3348,3.9453 1.5631,0.6811 4.29,0.5465 5.7565,-0.2841 z m 59.9031,3.7912 c -2.0507,-0.5511 -3.1027,-1.3633 -3.9736,-3.0676 -0.844,-1.6518 -0.9118,-3.0751 -0.2248,-4.7194 1.1671,-2.7932 2.8523,-3.685 8.6284,-4.5662 5.6382,-0.8601 5.9177,-0.9688 5.9117,-2.3 -0.012,-2.5558 -1.7076,-3.7669 -5.2753,-3.7669 -2.843,0 -4.2465,0.657 -5.128,2.4007 l -0.6481,1.2818 -1.6851,-0.2683 c -1.5336,-0.2441 -1.6659,-0.3306 -1.4709,-0.9617 1.2534,-4.0578 4.1338,-5.787 9.6177,-5.7738 2.5896,0.01 3.1391,0.1146 4.7852,0.9437 3.005,1.5135 3.132,1.9371 3.3521,11.1766 0.1133,4.7565 0.3265,8.0229 0.56,8.5808 0.2074,0.4955 0.3771,0.9707 0.3771,1.056 0,0.085 -0.8195,0.112 -1.821,0.059 -1.786,-0.094 -1.8265,-0.1175 -2.1088,-1.216 -0.1583,-0.616 -0.3253,-1.1585 -0.3711,-1.2055 -0.046,-0.047 -0.9011,0.407 -1.9006,1.0088 -1.1182,0.6734 -2.5929,1.2293 -3.834,1.4455 -2.4557,0.4276 -2.8309,0.4192 -4.7909,-0.1077 z m 6.2186,-3.4253 c 2.6505,-0.8874 4.1278,-2.8272 4.1278,-5.4202 0,-1.2157 -0.06,-1.31 -0.7226,-1.1436 -0.3975,0.1 -2.5145,0.4689 -4.7045,0.8203 -4.6443,0.7453 -5.5609,1.2347 -5.7141,3.0509 -0.1076,1.2756 0.5027,2.2638 1.7012,2.7543 0.9531,0.3901 4.071,0.3539 5.3122,-0.062 z m 15.8847,3.4268 c -2.6402,-0.9421 -2.7929,-1.5333 -2.7951,-10.8226 v -7.28 h -1.28 -1.28 v -1.76 -1.76 h 1.28 1.28 l 0.01,-2.64 0.01,-2.64 1.7537,-1.0249 1.7537,-1.0248 v 3.6648 3.6649 h 1.76 1.76 v 1.76 1.76 h -1.76 -1.76 v 7.136 c 0,5.1235 0.1082,7.2443 0.384,7.52 0.2112,0.2112 1.0004,0.384 1.7538,0.384 1.4635,0 1.3424,-0.1538 1.8575,2.3571 0.1414,0.6893 0.022,0.7754 -1.3247,0.96 -1.899,0.2603 -1.9648,0.2554 -3.3937,-0.2545 z m 42.6431,0.171 c -1.9757,-0.4169 -3.5543,-1.3791 -4.4286,-2.6994 l -0.8514,-1.2857 -0.098,-8.9043 -0.099,-8.9042 h 1.572 1.5721 l 0.1656,7.8015 c 0.1835,8.6379 0.3145,9.2169 2.3316,10.3031 1.3264,0.7144 4.312,0.5021 5.5093,-0.3918 2.352,-1.756 2.6291,-2.9355 2.6388,-11.2328 l 0.01,-6.48 h 1.76 1.76 v 10.88 10.88 h -1.6 -1.6 v -1.8266 -1.8267 l -1.36,1.3119 c -0.748,0.7215 -1.7939,1.5295 -2.3242,1.7956 -1.2285,0.6165 -3.514,0.8837 -4.9558,0.5794 z m 23.3345,-0.026 c -5.3814,-0.9507 -8.4041,-5.6167 -7.8551,-12.1256 0.512,-6.071 4.217,-9.7563 9.8006,-9.7488 5.6299,0.01 9.3084,3.7102 9.6437,9.7068 l 0.1163,2.08 -8.1042,0.086 -8.1042,0.086 0.2121,1.0345 c 0.4084,1.9916 1.4884,3.7798 2.8117,4.6555 1.1277,0.7463 1.6229,0.8589 3.7777,0.8589 2.7899,0 3.7047,-0.4466 5.028,-2.4549 l 0.7411,-1.1246 1.6589,0.3172 c 0.9124,0.1745 1.7033,0.3523 1.7576,0.3952 0.2733,0.2158 -0.9752,2.4699 -1.9903,3.5935 -1.9758,2.187 -5.8942,3.2771 -9.4939,2.6412 z m 7.9018,-14.4876 c -0.9213,-4.7037 -8.7313,-5.6633 -11.2408,-1.3811 -1.4558,2.484 -1.594,2.4211 5.3245,2.4211 h 6.12 z m 23.6988,14.3538 c -3.3096,-0.9157 -5.8715,-3.8116 -6.6379,-7.5036 -0.5117,-2.4645 -0.2202,-6.5309 0.6257,-8.7288 1.3246,-3.4423 4.2834,-5.5128 7.8771,-5.5124 2.2395,2e-4 3.6691,0.6332 5.2,2.3023 l 1.04,1.1338 v -5.6625 -5.6626 h 1.6 1.6 v 14.88 14.88 h -1.44 -1.44 l -0.01,-1.84 -0.01,-1.84 -1.1483,1.3697 c -0.6316,0.7533 -1.5307,1.5673 -1.998,1.809 -1.3278,0.6867 -3.5641,0.8459 -5.2661,0.3751 z m 5.406,-3.8693 c 4.3765,-2.5648 3.8138,-12.3246 -0.8212,-14.2445 -1.5071,-0.6243 -4.2298,-0.2667 -5.5318,0.7264 -1.5745,1.2009 -2.2394,2.8262 -2.404,5.8762 -0.2158,3.9992 0.9487,6.5969 3.6159,8.0656 1.1733,0.646 3.6664,0.4406 5.1411,-0.4237 z m 17.7134,4.0031 c -5.3814,-0.9507 -8.4041,-5.6167 -7.8551,-12.1256 0.512,-6.071 4.217,-9.7563 9.8006,-9.7488 5.6299,0.01 9.3084,3.7102 9.6437,9.7068 l 0.1163,2.08 -8.1042,0.086 -8.1042,0.086 0.2121,1.0345 c 0.4084,1.9916 1.4884,3.7798 2.8117,4.6555 1.1278,0.7463 1.6229,0.8589 3.7777,0.8589 2.7899,0 3.7047,-0.4466 5.028,-2.4549 l 0.7411,-1.1246 1.6589,0.3172 c 0.9124,0.1745 1.7033,0.3523 1.7576,0.3952 0.2733,0.2158 -0.9752,2.4699 -1.9903,3.5935 -1.9758,2.187 -5.8942,3.2771 -9.4939,2.6412 z m 7.9018,-14.4876 c -0.9213,-4.7037 -8.7313,-5.6633 -11.2408,-1.3811 -1.4558,2.484 -1.594,2.4211 5.3245,2.4211 h 6.12 z m 29.7237,14.4733 c -6.7979,-1.2114 -11.035,-5.5201 -12.0302,-12.2333 -0.8738,-5.8949 1.5146,-12.3804 5.5888,-15.1757 5.0182,-3.4429 13.5745,-3.2973 17.6619,0.3007 1.3651,1.2016 3.3385,4.4892 3.3392,5.5631 3e-4,0.3298 -3.1444,1.3103 -3.297,1.028 -0.035,-0.064 -0.498,-0.9647 -1.0301,-2.002 -0.7967,-1.5532 -1.2766,-2.0613 -2.72,-2.88 -1.6553,-0.9389 -1.9405,-0.9941 -5.1352,-0.9941 -3.1306,0 -3.523,0.072 -5.2663,0.9634 -3.541,1.8109 -5.3598,5.3172 -5.3928,10.3966 -0.036,5.5707 1.4952,8.5746 5.3832,10.5598 1.8502,0.9447 2.5926,1.1379 4.7489,1.2358 3.0418,0.1382 5.9094,-0.5383 8.058,-1.901 l 1.4516,-0.9205 v -2.727 -2.7271 h -4.32 -4.32 v -1.76 -1.76 h 6.24 6.24 v 5.36 5.36 l -1.5194,1.0125 c -4.2607,2.8392 -9.3622,4.0702 -13.6794,3.3008 z m 38.8545,0.014 c -5.3814,-0.9507 -8.4041,-5.6167 -7.8551,-12.1256 0.512,-6.071 4.217,-9.7563 9.8006,-9.7488 5.6299,0.01 9.3084,3.7102 9.6437,9.7069 l 0.1163,2.08 -8.1042,0.086 -8.1042,0.086 0.2121,1.0344 c 0.4084,1.9916 1.4884,3.7799 2.8117,4.6556 1.1278,0.7463 1.6229,0.8589 3.7777,0.8589 2.7899,0 3.7047,-0.4467 5.028,-2.4549 l 0.7411,-1.1247 1.6589,0.3172 c 0.9124,0.1745 1.7033,0.3523 1.7576,0.3952 0.2733,0.2158 -0.9752,2.4699 -1.9903,3.5936 -1.9758,2.1869 -5.8942,3.277 -9.4939,2.6411 z m 7.9018,-14.4875 c -0.9213,-4.7038 -8.7313,-5.6634 -11.2408,-1.3812 -1.4558,2.484 -1.594,2.4212 5.3245,2.4212 h 6.12 z m 35.5969,14.3711 c -3.3886,-0.7541 -5.8813,-3.1293 -6.8763,-6.5522 -0.3618,-1.2443 -0.4721,-2.6681 -0.3864,-4.9844 0.1019,-2.753 0.255,-3.5185 1.0143,-5.0703 1.6735,-3.4207 4.7477,-5.1797 9.0152,-5.1583 3.9574,0.02 6.891,1.7972 8.5578,5.1848 0.9995,2.0312 1.0413,2.269 1.0196,5.8036 -0.016,2.6258 -0.176,4.0851 -0.556,5.0746 -1.6883,4.396 -6.72,6.8299 -11.7882,5.7022 z m 5.6373,-3.8213 c 2.2276,-1.2616 3.3659,-3.6121 3.3659,-6.9498 0,-4.701 -2.4414,-7.6627 -6.3267,-7.6748 -2.1539,-0.01 -3.4978,0.5611 -4.7773,2.0183 -1.2389,1.4111 -1.6888,2.9182 -1.6888,5.6565 0,1.144 0.151,2.6239 0.3356,3.2887 0.4069,1.4652 2.0184,3.3717 3.3348,3.9453 1.5631,0.6811 4.29,0.5464 5.7565,-0.2842 z m 18.1775,3.9514 c -1.3665,-0.3405 -2.6136,-1.1456 -3.6794,-2.3756 l -0.8714,-1.0056 -0.01,1.68 -0.01,1.68 h -1.6 -1.6 v -14.88 -14.88 h 1.76 1.76 v 5.4807 5.4808 l 1.3835,-1.2753 c 2.3744,-2.1887 5.4848,-2.4464 8.8437,-0.7328 3.3172,1.6923 5.0461,6.2784 4.4544,11.8157 -0.2816,2.6359 -1.0622,4.5598 -2.5266,6.2277 -1.9046,2.1692 -5.4148,3.4053 -7.907,2.7844 z m 4.4808,-4.2653 c 1.8168,-1.3857 2.6097,-3.4144 2.5935,-6.6359 -0.019,-3.7866 -1.0666,-6.0234 -3.3864,-7.2304 -1.3045,-0.6788 -3.7397,-0.5669 -5.0503,0.2321 -2.3198,1.4141 -3.194,3.3353 -3.1845,6.9983 0.01,3.9169 0.75,5.6578 3.0189,7.1032 1.4443,0.9201 4.5016,0.6823 6.0088,-0.4673 z m 24.5258,4.2516 c -5.3815,-0.9507 -8.4043,-5.6167 -7.8553,-12.1256 0.5121,-6.071 4.217,-9.7563 9.8007,-9.7488 5.6299,0.01 9.3084,3.7102 9.6437,9.7069 l 0.1163,2.08 -8.1041,0.086 -8.1044,0.086 0.2122,1.0344 c 0.4084,1.9916 1.4884,3.7799 2.8117,4.6556 1.1278,0.7463 1.6229,0.8589 3.7778,0.8589 2.7899,0 3.7046,-0.4467 5.028,-2.4549 l 0.7411,-1.1247 1.6589,0.3172 c 0.9123,0.1745 1.7033,0.3523 1.7576,0.3952 0.2732,0.2158 -0.9752,2.4699 -1.9903,3.5936 -1.9758,2.1869 -5.8943,3.277 -9.4939,2.6411 z m 7.9018,-14.4875 c -0.9213,-4.7038 -8.7313,-5.6634 -11.241,-1.3812 -1.4557,2.484 -1.594,2.4212 5.3246,2.4212 h 6.12 z M 0,3031.8402 v -2.08 h 169.4401 169.44 v 2.08 2.08 H 169.4401 0 Z m 353.6001,-12.8 v -14.88 h 1.76 1.76 v 13.12 13.12 h 7.36 7.36 v 1.76 1.76 h -9.12 -9.12 z m 87.68,4 v -10.88 h 1.44 1.44 v 1.6364 1.6363 l 1.52,-1.6108 c 1.7641,-1.8695 2.9867,-2.239 5.2,-1.5714 1.5597,0.4704 1.7301,0.9603 0.9963,2.8652 -0.3006,0.7805 -0.4276,0.8414 -1.1676,0.56 -1.2908,-0.4907 -2.7716,-0.3726 -3.8919,0.3105 -1.6967,1.0346 -2.0168,2.7729 -2.0168,10.9519 v 6.9819 h -1.76 -1.76 z m 67.52,0 v -10.88 h 1.76 1.76 v 10.88 10.88 h -1.76 -1.76 z m 8.32,0 v -10.88 h 1.44 1.44 v 1.6364 1.6363 l 1.52,-1.6108 c 1.7641,-1.8695 2.9867,-2.239 5.2,-1.5714 1.5597,0.4704 1.7301,0.9603 0.9964,2.8652 -0.3007,0.7805 -0.4277,0.8414 -1.1677,0.56 -1.2907,-0.4907 -2.7715,-0.3726 -3.8919,0.3105 -1.6967,1.0346 -2.0168,2.7729 -2.0168,10.9519 v 6.9819 h -1.76 -1.76 z m 75.52,0 v -10.88 h 1.76 1.76 v 10.88 10.88 h -1.76 -1.76 z m 8,0 v -10.88 h 1.6 1.6 v 1.5028 1.5027 l 1.04,-1.0065 c 1.5244,-1.4754 3.2408,-2.0902 5.8587,-2.0985 2.9037,-0.01 5.1063,1.0772 6.2576,3.0866 0.7458,1.3017 0.766,1.5368 0.8625,10.0529 l 0.099,8.72 h -1.7788 -1.7788 v -7.5303 c 0,-8.4082 -0.1622,-9.2594 -1.9808,-10.4001 -1.4705,-0.9223 -4.4783,-0.7669 -5.9902,0.3097 -2.027,1.4434 -2.2541,2.4975 -2.262,10.5007 l -0.01,7.12 h -1.76 -1.76 z m 23.04,1.76 v -9.12 h -1.6 -1.6 v -1.76 -1.76 h 1.6 1.6 v -2.325 c 0,-4.2785 1.6791,-5.8531 6.1737,-5.7894 1.3716,0.019 2.5704,0.1119 2.664,0.2055 0.094,0.094 0.071,0.8314 -0.05,1.6396 l -0.2203,1.4693 h -1.8482 c -2.5245,0 -3.172,0.5606 -3.4191,2.96 l -0.1896,1.84 h 2.1248 2.1248 v 1.76 1.76 h -2.08 -2.08 v 9.12 9.12 h -1.6 -1.6 z m 31.68,-1.76 v -10.88 h 1.44 1.44 v 1.6364 1.6363 l 1.52,-1.6108 c 1.7641,-1.8695 2.9867,-2.239 5.2,-1.5714 1.5597,0.4704 1.7301,0.9603 0.9964,2.8652 -0.3006,0.7805 -0.4277,0.8414 -1.1677,0.56 -1.2907,-0.4907 -2.7715,-0.3726 -3.8919,0.3105 -1.6967,1.0346 -2.0168,2.7729 -2.0168,10.9519 v 6.9819 h -1.76 -1.76 z m 12.8,0 v -10.88 h 1.44 1.44 v 1.5467 c 0,0.8506 0.071,1.6174 0.1572,1.7038 0.086,0.086 0.8619,-0.522 1.7232,-1.3522 1.2137,-1.1698 1.9387,-1.5894 3.2219,-1.8646 3.061,-0.6565 5.4903,0.2468 7.0294,2.6137 l 0.7718,1.1869 1.1026,-1.2882 c 1.9039,-2.2242 4.5663,-3.1529 7.2894,-2.5426 2.0628,0.4623 3.2961,1.4154 4.0976,3.167 0.6187,1.3518 0.682,2.155 0.7904,10.0295 l 0.1179,8.56 h -1.7907 -1.7907 v -7.44 c 0,-4.092 -0.1458,-7.9584 -0.3218,-8.592 -0.4603,-1.6572 -1.3211,-2.2925 -3.3317,-2.4592 -2.2796,-0.1891 -4.071,0.7637 -4.9847,2.6511 -0.5824,1.2031 -0.64,1.9761 -0.64,8.5811 v 7.259 h -1.76 -1.76 v -7.44 c 0,-4.1116 -0.1491,-7.9703 -0.331,-8.6254 -0.4754,-1.7114 -1.6254,-2.4946 -3.6631,-2.4946 -1.9759,0 -3.4633,0.8528 -4.4668,2.5611 -0.6029,1.0263 -0.6657,1.7347 -0.7586,8.5589 l -0.1013,7.44 h -1.7387 -1.7387 v -10.88 z m 65.92,0 v -10.88 h 1.76 1.76 v 10.88 10.88 h -1.76 -1.76 z m 170.56,0 v -10.88 h 1.44 1.44 v 1.6364 1.6363 l 1.52,-1.6108 c 1.7641,-1.8695 2.9867,-2.239 5.2,-1.5714 1.5597,0.4704 1.7301,0.9603 0.9964,2.8652 -0.3006,0.7805 -0.4276,0.8414 -1.1677,0.56 -1.2907,-0.4907 -2.7715,-0.3726 -3.8919,0.3105 -1.6967,1.0346 -2.0168,2.7729 -2.0168,10.9519 v 6.9819 h -1.76 -1.76 z m 34.88,0 v -10.88 h 1.6 1.6 v 1.5028 1.5027 l 1.04,-1.0065 c 1.5244,-1.4754 3.2408,-2.0902 5.8587,-2.0985 2.9037,-0.01 5.1063,1.0772 6.2576,3.0866 0.7458,1.3017 0.766,1.5368 0.8625,10.0529 l 0.099,8.72 h -1.7788 -1.7788 v -7.5303 c 0,-8.4082 -0.1621,-9.2594 -1.9808,-10.4001 -1.4705,-0.9223 -4.4783,-0.7669 -5.9901,0.3097 -2.0271,1.4434 -2.2542,2.4975 -2.2621,10.5007 l -0.01,7.12 h -1.76 -1.76 z m 66.2399,-4 v -14.88 h 1.6 1.6 v 14.88 14.88 h -1.6 -1.6 z m 37.7601,12.8 v -2.08 h 407.2001 407.2 v 2.08 2.08 h -407.2 -407.2001 z m 829.5325,0.7624 c 0.4814,-3.5891 3.3411,-7.1972 10.7605,-13.5766 5.5572,-4.7783 8.0174,-8.2753 8.0239,-11.405 0.01,-2.6519 -1.1508,-4.4788 -3.6476,-5.7625 -1.9422,-0.9987 -5.4462,-0.7347 -7.2605,0.5469 -1.4739,1.0411 -2.419,2.5766 -2.7782,4.5135 l -0.2305,1.2429 -2,-0.2687 c -1.8166,-0.2441 -2,-0.3385 -2,-1.0288 0,-1.661 1.3533,-4.4538 2.8812,-5.9459 2.1285,-2.0786 4.4503,-2.9164 8.1588,-2.9441 5.0974,-0.038 8.2616,1.6437 10.0931,5.364 0.9376,1.9046 1.0057,2.2614 0.9006,4.7211 -0.2018,4.7223 -2.1163,7.3732 -10.7946,14.9467 -3.9103,3.4125 -6.1191,5.6695 -6.1191,6.2528 0,0.1 3.888,0.1813 8.64,0.1813 h 8.64 v 2.24 2.24 h -11.7222 -11.7221 z m 65.1876,-12.7728 v -14.0903 l -1.68,1.2626 c -1.6051,1.2062 -6.216,3.8641 -6.72,3.8736 -0.132,0 -0.24,-0.9048 -0.24,-2.0162 0,-2.0204 2e-4,-2.0209 1.2,-2.5912 2.9889,-1.4209 7.128,-5.0299 8.565,-7.4681 0.5199,-0.8821 0.7968,-1.04 1.824,-1.04 h 1.211 v 18.08 18.08 h -2.08 -2.08 z m -1354.1307,-6.5659 c -0.1081,-0.2817 0.1071,-0.813 0.4977,-1.2288 0.7207,-0.7671 1.3129,-2.4057 1.3129,-3.6328 0,-0.589 -0.177,-0.7221 -0.96,-0.7221 -0.9503,0 -0.96,-0.018 -0.96,-1.76 v -1.76 h 1.92 1.92 l -0.014,2.32 c -0.021,3.493 -0.3956,4.9317 -1.6105,6.1852 -1.152,1.1886 -1.8081,1.3751 -2.1061,0.5985 z m -75.3094,-7.3437 v -1.76 h 1.76 1.76 v 1.76 1.76 h -1.76 -1.76 z m 83.84,0 v -1.76 h 1.76 1.76 v 1.76 1.76 h -1.76 -1.76 z m 141.44,0 v -1.76 h 1.76 1.76 v 1.76 1.76 h -1.76 -1.76 z"
     id="path832-6"
     inkscape:connector-curvature="0" />
</svg>
