<?xml version="1.0" encoding="UTF-8" standalone="no"?>
<!-- Created with Inkscape (http://www.inkscape.org/) -->

<svg
   xmlns:dc="http://purl.org/dc/elements/1.1/"
   xmlns:cc="http://creativecommons.org/ns#"
   xmlns:rdf="http://www.w3.org/1999/02/22-rdf-syntax-ns#"
   xmlns:svg="http://www.w3.org/2000/svg"
   xmlns="http://www.w3.org/2000/svg"
   xmlns:sodipodi="http://sodipodi.sourceforge.net/DTD/sodipodi-0.dtd"
   xmlns:inkscape="http://www.inkscape.org/namespaces/inkscape"
   id="svg8"
   version="1.1"
   viewBox="0 0 371.35974 229.12573"
   height="229.12573mm"
   width="371.35974mm"
   inkscape:version="0.92.2 2405546, 2018-03-11"
   sodipodi:docname="doe_anova_strategy.svg">
  <sodipodi:namedview
     inkscape:window-maximized="1"
     inkscape:window-y="0"
     inkscape:window-x="0"
     inkscape:window-height="1060"
     inkscape:window-width="1920"
     showgrid="false"
     inkscape:current-layer="layer2"
     inkscape:document-units="mm"
     inkscape:cy="112.70173"
     inkscape:cx="293.80977"
     inkscape:zoom="0.5"
     inkscape:pageshadow="2"
     inkscape:pageopacity="0.0"
     borderopacity="1.0"
     bordercolor="#666666"
     pagecolor="#ffffff"
     id="base"
     inkscape:snap-bbox="true"
     inkscape:bbox-paths="true"
     inkscape:snap-bbox-edge-midpoints="true"
     inkscape:snap-global="false"
     inkscape:snap-bbox-midpoints="true"
     inkscape:bbox-nodes="true"
     fit-margin-top="5"
     fit-margin-left="5"
     fit-margin-right="5"
     fit-margin-bottom="5"
     scale-x="0.8" />
  <defs
     id="defs2">
    <marker
       inkscape:stockid="Arrow1Lend"
       orient="auto"
       refY="0"
       refX="0"
       id="Arrow1Lend"
       style="overflow:visible"
       inkscape:isstock="true">
      <path
         id="path9750"
         d="M 0,0 5,-5 -12.5,0 5,5 Z"
         style="fill:#000000;fill-opacity:1;fill-rule:evenodd;stroke:#000000;stroke-width:1.00000003pt;stroke-opacity:1"
         transform="matrix(-0.8,0,0,-0.8,-10,0)"
         inkscape:connector-curvature="0" />
    </marker>
    <defs
       id="defs4362">
      <g
         id="g4360">
        <symbol
           style="overflow:visible"
           overflow="visible"
           id="lx-text819-62-6-glyph0-0">
          <path
             inkscape:connector-curvature="0"
             style="stroke:none"
             d=""
             id="path4273" />
        </symbol>
        <symbol
           style="overflow:visible"
           overflow="visible"
           id="lx-text819-62-6-glyph0-1">
          <path
             inkscape:connector-curvature="0"
             style="stroke:none"
             d="m 3.125,-4.5625 h 2.421875 c 1.6875,0 3.21875,-1.125 3.21875,-2.578125 0,-1.390625 -1.390625,-2.65625 -3.328125,-2.65625 H 0.609375 V -9.375 h 0.28125 c 1.03125,0 1.078125,0.140625 1.078125,0.671875 v 7.609375 c 0,0.53125 -0.046875,0.671875 -1.078125,0.671875 H 0.609375 V 0 C 0.953125,-0.03125 2.125,-0.03125 2.53125,-0.03125 c 0.4375,0 1.609375,0 1.953125,0.03125 V -0.421875 H 4.203125 C 3.171875,-0.421875 3.125,-0.5625 3.125,-1.09375 Z M 3.09375,-4.90625 V -8.8125 c 0,-0.46875 0.03125,-0.5625 0.671875,-0.5625 h 1.34375 c 2.328125,0 2.328125,1.609375 2.328125,2.234375 0,0.59375 0,2.234375 -2.34375,2.234375 z m 0,0"
             id="path4276" />
        </symbol>
        <symbol
           style="overflow:visible"
           overflow="visible"
           id="lx-text819-62-6-glyph0-2">
          <path
             inkscape:connector-curvature="0"
             style="stroke:none"
             d="m 2.390625,-3.34375 c 0,-1.390625 0.578125,-2.6875 1.6875,-2.6875 0.109375,0 0.140625,0 0.203125,0 C 4.15625,-5.96875 3.9375,-5.875 3.9375,-5.5 c 0,0.421875 0.328125,0.578125 0.546875,0.578125 0.296875,0 0.578125,-0.1875 0.578125,-0.578125 0,-0.421875 -0.390625,-0.828125 -1,-0.828125 -1.21875,0 -1.640625,1.328125 -1.71875,1.59375 H 2.328125 v -1.59375 L 0.40625,-6.171875 V -5.75 c 0.96875,0 1.078125,0.09375 1.078125,0.796875 V -1.0625 c 0,0.640625 -0.15625,0.640625 -1.078125,0.640625 V 0 c 0.390625,-0.03125 1.1875,-0.03125 1.609375,-0.03125 0.390625,0 1.40625,0 1.75,0.03125 V -0.421875 H 3.46875 c -1.046875,0 -1.078125,-0.15625 -1.078125,-0.671875 z m 0,0"
             id="path4279" />
        </symbol>
        <symbol
           style="overflow:visible"
           overflow="visible"
           id="lx-text819-62-6-glyph0-3">
          <path
             inkscape:connector-curvature="0"
             style="stroke:none"
             d="M 4.359375,-6.171875 V -5.75 c 0.96875,0 1.09375,0.09375 1.09375,0.796875 V -2.375 c 0,1.21875 -0.640625,2.234375 -1.71875,2.234375 -1.1875,0 -1.25,-0.671875 -1.25,-1.4375 v -4.75 l -2.03125,0.15625 V -5.75 c 1.09375,0 1.09375,0.046875 1.09375,1.3125 v 2.15625 c 0,0.890625 0,1.40625 0.4375,1.875 0.34375,0.375 0.921875,0.546875 1.65625,0.546875 0.25,0 0.703125,0 1.1875,-0.40625 0.421875,-0.34375 0.65625,-0.875 0.65625,-0.875 v 1.28125 L 7.46875,0 v -0.421875 c -0.96875,0 -1.078125,-0.09375 -1.078125,-0.796875 v -5.109375 z m 0,0"
             id="path4282" />
        </symbol>
        <symbol
           style="overflow:visible"
           overflow="visible"
           id="lx-text819-62-6-glyph0-4">
          <path
             inkscape:connector-curvature="0"
             style="stroke:none"
             d="m 6.390625,-3.484375 c 0,-1.328125 0,-1.734375 -0.34375,-2.203125 -0.40625,-0.546875 -1.078125,-0.640625 -1.578125,-0.640625 -1.390625,0 -1.9375,1.1875 -2.046875,1.484375 H 2.40625 v -1.484375 l -1.953125,0.15625 V -5.75 c 0.984375,0 1.09375,0.09375 1.09375,0.796875 V -1.0625 c 0,0.640625 -0.15625,0.640625 -1.09375,0.640625 V 0 c 0.375,-0.03125 1.15625,-0.03125 1.5625,-0.03125 0.40625,0 1.1875,0 1.5625,0.03125 v -0.421875 c -0.921875,0 -1.09375,0 -1.09375,-0.640625 v -2.671875 c 0,-1.5 0.984375,-2.296875 1.875,-2.296875 0.890625,0 1.09375,0.71875 1.09375,1.59375 v 3.375 c 0,0.640625 -0.15625,0.640625 -1.09375,0.640625 V 0 c 0.375,-0.03125 1.15625,-0.03125 1.546875,-0.03125 0.421875,0 1.1875,0 1.5625,0.03125 v -0.421875 c -0.71875,0 -1.078125,0 -1.078125,-0.421875 z m 0,0"
             id="path4285" />
        </symbol>
        <symbol
           style="overflow:visible"
           overflow="visible"
           id="lx-text819-62-6-glyph0-5">
          <path
             inkscape:connector-curvature="0"
             style="stroke:none"
             d="m 5.5,-3.328125 c 0.3125,0 0.34375,0 0.34375,-0.265625 0,-1.453125 -0.78125,-2.796875 -2.515625,-2.796875 -1.640625,0 -2.890625,1.46875 -2.890625,3.25 0,1.890625 1.453125,3.28125 3.046875,3.28125 1.703125,0 2.359375,-1.546875 2.359375,-1.84375 0,-0.09375 -0.078125,-0.140625 -0.15625,-0.140625 -0.125,0 -0.15625,0.0625 -0.171875,0.140625 -0.375,1.203125 -1.34375,1.53125 -1.9375,1.53125 -0.609375,0 -2.0625,-0.40625 -2.0625,-2.890625 V -3.328125 Z M 1.53125,-3.59375 c 0.125,-2.265625 1.375,-2.515625 1.78125,-2.515625 1.53125,0 1.625,2.015625 1.640625,2.515625 z m 0,0"
             id="path4288" />
        </symbol>
        <symbol
           style="overflow:visible"
           overflow="visible"
           id="lx-text819-62-6-glyph0-6">
          <path
             inkscape:connector-curvature="0"
             style="stroke:none"
             d="M 3.296875,-9.53125 C 3.203125,-9.796875 3.1875,-9.796875 2.859375,-9.796875 H 0.625 V -9.375 H 0.921875 C 1.953125,-9.375 2,-9.234375 2,-8.703125 v 7.21875 c 0,0.390625 0,1.0625 -1.375,1.0625 V 0 C 1,-0.03125 1.765625,-0.03125 2.171875,-0.03125 c 0.390625,0 1.15625,0 1.53125,0.03125 v -0.421875 c -1.359375,0 -1.359375,-0.671875 -1.359375,-1.0625 V -9.3125 H 2.359375 L 5.8125,-0.265625 C 5.859375,-0.109375 5.90625,0 6.046875,0 c 0.140625,0 0.15625,-0.078125 0.25,-0.28125 L 9.78125,-9.375 h 0.015625 v 8.28125 c 0,0.53125 -0.046875,0.671875 -1.078125,0.671875 H 8.4375 V 0 c 0.328125,-0.03125 1.46875,-0.03125 1.890625,-0.03125 0.421875,0 1.5625,0 1.890625,0.03125 V -0.421875 H 11.9375 c -1.03125,0 -1.078125,-0.140625 -1.078125,-0.671875 v -7.609375 c 0,-0.53125 0.04687,-0.671875 1.078125,-0.671875 h 0.28125 V -9.796875 H 10 c -0.3125,0 -0.328125,0.015625 -0.453125,0.28125 l -3.125,8.171875 z m 0,0"
             id="path4291" />
        </symbol>
        <symbol
           style="overflow:visible"
           overflow="visible"
           id="lx-text819-62-6-glyph0-7">
          <path
             inkscape:connector-curvature="0"
             style="stroke:none"
             d="m 6.578125,-3.0625 c 0,-1.859375 -1.40625,-3.328125 -3.0625,-3.328125 -1.71875,0 -3.078125,1.515625 -3.078125,3.328125 0,1.828125 1.421875,3.203125 3.0625,3.203125 1.6875,0 3.078125,-1.40625 3.078125,-3.203125 z m -3.0625,2.890625 c -0.53125,0 -1.171875,-0.234375 -1.59375,-0.9375 C 1.53125,-1.75 1.515625,-2.59375 1.515625,-3.203125 c 0,-0.546875 0,-1.421875 0.453125,-2.0625 C 2.359375,-5.875 3,-6.109375 3.5,-6.109375 c 0.5625,0 1.15625,0.25 1.546875,0.8125 C 5.5,-4.640625 5.5,-3.734375 5.5,-3.203125 c 0,0.5 0,1.390625 -0.375,2.0625 -0.40625,0.703125 -1.0625,0.96875 -1.609375,0.96875 z m 0,0"
             id="path4294" />
        </symbol>
        <symbol
           style="overflow:visible"
           overflow="visible"
           id="lx-text819-62-6-glyph0-8">
          <path
             inkscape:connector-curvature="0"
             style="stroke:none"
             d="M 4.296875,-9.796875 V -9.375 c 0.984375,0 1.09375,0.09375 1.09375,0.796875 V -5.40625 C 5.09375,-5.828125 4.46875,-6.328125 3.59375,-6.328125 c -1.65625,0 -3.09375,1.40625 -3.09375,3.25 0,1.8125 1.359375,3.21875 2.9375,3.21875 1.09375,0 1.71875,-0.71875 1.921875,-0.984375 V 0.140625 L 7.390625,0 v -0.421875 c -0.984375,0 -1.09375,-0.09375 -1.09375,-0.796875 v -8.734375 z m 1.0625,8.125 c 0,0.25 0,0.296875 -0.203125,0.609375 -0.34375,0.5 -0.921875,0.921875 -1.640625,0.921875 -0.375,0 -1.921875,-0.140625 -1.921875,-2.921875 0,-1.046875 0.171875,-1.609375 0.484375,-2.09375 0.28125,-0.4375 0.859375,-0.875 1.578125,-0.875 0.890625,0 1.390625,0.640625 1.53125,0.875 0.171875,0.234375 0.171875,0.265625 0.171875,0.515625 z m 0,0"
             id="path4297" />
        </symbol>
        <symbol
           style="overflow:visible"
           overflow="visible"
           id="lx-text819-62-6-glyph0-9">
          <path
             inkscape:connector-curvature="0"
             style="stroke:none"
             d="m 2.46875,-9.953125 -2,0.15625 V -9.375 c 0.984375,0 1.09375,0.09375 1.09375,0.796875 V -1.0625 c 0,0.640625 -0.15625,0.640625 -1.09375,0.640625 V 0 c 0.40625,-0.03125 1.109375,-0.03125 1.546875,-0.03125 0.421875,0 1.140625,0 1.546875,0.03125 v -0.421875 c -0.921875,0 -1.09375,0 -1.09375,-0.640625 z m 0,0"
             id="path4300" />
        </symbol>
        <symbol
           style="overflow:visible"
           overflow="visible"
           id="lx-text819-62-6-glyph0-10">
          <path
             inkscape:connector-curvature="0"
             style="stroke:none"
             d="m 4.65625,3.484375 c 0,-0.046875 0,-0.078125 -0.234375,-0.3125 -1.4375,-1.453125 -2.234375,-3.8125 -2.234375,-6.75 0,-2.78125 0.671875,-5.171875 2.328125,-6.859375 0.140625,-0.140625 0.140625,-0.15625 0.140625,-0.203125 0,-0.09375 -0.0625,-0.109375 -0.125,-0.109375 -0.1875,0 -1.359375,1.03125 -2.0625,2.4375 -0.734375,1.4375 -1.0625,2.984375 -1.0625,4.734375 0,1.28125 0.203125,2.984375 0.953125,4.53125 0.84375,1.71875 2.015625,2.640625 2.171875,2.640625 0.0625,0 0.125,-0.015625 0.125,-0.109375 z m 0,0"
             id="path4303" />
        </symbol>
        <symbol
           style="overflow:visible"
           overflow="visible"
           id="lx-text819-62-6-glyph0-11">
          <path
             inkscape:connector-curvature="0"
             style="stroke:none"
             d="M 4.046875,-3.578125 C 4.046875,-4.65625 3.90625,-6.4375 3.09375,-8.109375 2.25,-9.828125 1.078125,-10.75 0.921875,-10.75 c -0.0625,0 -0.140625,0.01563 -0.140625,0.109375 0,0.04687 0,0.0625 0.25,0.3125 1.4375,1.453125 2.234375,3.8125 2.234375,6.75 0,2.78125 -0.671875,5.171875 -2.328125,6.859375 -0.15625,0.125 -0.15625,0.15625 -0.15625,0.203125 0,0.09375 0.078125,0.109375 0.140625,0.109375 0.1875,0 1.359375,-1.03125 2.0625,-2.4375 0.734375,-1.453125 1.0625,-3 1.0625,-4.734375 z m 0,0"
             id="path4306" />
        </symbol>
        <symbol
           style="overflow:visible"
           overflow="visible"
           id="lx-text819-62-6-glyph0-12">
          <path
             inkscape:connector-curvature="0"
             style="stroke:none"
             d="m 9.6875,-4.640625 c 0.203125,0 0.453125,0 0.453125,-0.265625 0,-0.265625 -0.25,-0.265625 -0.453125,-0.265625 H 1.234375 c -0.203125,0 -0.453125,0 -0.453125,0.25 0,0.28125 0.234375,0.28125 0.453125,0.28125 z m 0,2.65625 c 0.203125,0 0.453125,0 0.453125,-0.25 0,-0.28125 -0.25,-0.28125 -0.453125,-0.28125 H 1.234375 c -0.203125,0 -0.453125,0 -0.453125,0.265625 0,0.265625 0.234375,0.265625 0.453125,0.265625 z m 0,0"
             id="path4309" />
        </symbol>
        <symbol
           style="overflow:visible"
           overflow="visible"
           id="lx-text819-62-6-glyph0-13">
          <path
             inkscape:connector-curvature="0"
             style="stroke:none"
             d="M 5.71875,-3.3125 H 9.6875 c 0.203125,0 0.453125,0 0.453125,-0.265625 0,-0.265625 -0.25,-0.265625 -0.453125,-0.265625 H 5.71875 v -3.953125 c 0,-0.203125 0,-0.46875 -0.25,-0.46875 -0.28125,0 -0.28125,0.25 -0.28125,0.46875 V -3.84375 H 1.234375 c -0.203125,0 -0.453125,0 -0.453125,0.265625 0,0.265625 0.234375,0.265625 0.453125,0.265625 H 5.1875 v 3.953125 c 0,0.203125 0,0.46875 0.265625,0.46875 0.265625,0 0.265625,-0.25 0.265625,-0.46875 z m 0,0"
             id="path4312" />
        </symbol>
        <symbol
           style="overflow:visible"
           overflow="visible"
           id="lx-text819-62-6-glyph1-0">
          <path
             inkscape:connector-curvature="0"
             style="stroke:none"
             d=""
             id="path4315" />
        </symbol>
        <symbol
           style="overflow:visible"
           overflow="visible"
           id="lx-text819-62-6-glyph1-1">
          <path
             inkscape:connector-curvature="0"
             style="stroke:none"
             d="m 3.765625,1.609375 c -0.375,0.546875 -0.9375,1.03125 -1.640625,1.03125 -0.171875,0 -0.859375,-0.03125 -1.078125,-0.6875 C 1.09375,1.96875 1.15625,1.96875 1.1875,1.96875 c 0.4375,0 0.71875,-0.375 0.71875,-0.703125 C 1.90625,0.9375 1.640625,0.8125 1.421875,0.8125 1.1875,0.8125 0.6875,0.984375 0.6875,1.6875 c 0,0.734375 0.625,1.234375 1.4375,1.234375 1.4375,0 2.875,-1.3125 3.28125,-2.90625 l 1.40625,-5.59375 c 0.015625,-0.078125 0.046875,-0.15625 0.046875,-0.25 0,-0.203125 -0.171875,-0.359375 -0.390625,-0.359375 -0.125,0 -0.4375,0.0625 -0.546875,0.5 l -1.0625,4.203125 c -0.0625,0.265625 -0.0625,0.296875 -0.1875,0.453125 -0.28125,0.40625 -0.75,0.890625 -1.4375,0.890625 -0.8125,0 -0.875,-0.796875 -0.875,-1.171875 0,-0.828125 0.375,-1.921875 0.765625,-2.96875 0.15625,-0.40625 0.25,-0.609375 0.25,-0.890625 0,-0.609375 -0.4375,-1.15625 -1.140625,-1.15625 -1.3125,0 -1.84375,2.078125 -1.84375,2.203125 0,0.046875 0.046875,0.125 0.15625,0.125 C 0.671875,-4 0.6875,-4.0625 0.75,-4.265625 1.09375,-5.46875 1.640625,-6.03125 2.1875,-6.03125 c 0.140625,0 0.375,0 0.375,0.46875 0,0.375 -0.15625,0.78125 -0.375,1.328125 -0.703125,1.875 -0.703125,2.359375 -0.703125,2.703125 0,1.359375 0.984375,1.671875 1.703125,1.671875 0.40625,0 0.921875,-0.125 1.4375,-0.65625 L 4.640625,-0.5 c -0.21875,0.84375 -0.359375,1.40625 -0.875,2.109375 z m 0,0"
             id="path4318" />
        </symbol>
        <symbol
           style="overflow:visible"
           overflow="visible"
           id="lx-text819-62-6-glyph1-2">
          <path
             inkscape:connector-curvature="0"
             style="stroke:none"
             d="m 6.390625,-5.765625 c 0.296875,0 0.40625,0 0.40625,-0.265625 0,-0.15625 -0.109375,-0.15625 -0.375,-0.15625 h -1.15625 c 0.265625,-1.46875 0.46875,-2.484375 0.59375,-2.953125 0.078125,-0.34375 0.375,-0.671875 0.75,-0.671875 0.296875,0 0.609375,0.125 0.75,0.265625 C 6.796875,-9.5 6.625,-9.078125 6.625,-8.828125 c 0,0.28125 0.21875,0.453125 0.484375,0.453125 0.296875,0 0.71875,-0.25 0.71875,-0.796875 0,-0.59375 -0.59375,-0.921875 -1.234375,-0.921875 -0.609375,0 -1.21875,0.453125 -1.5,1.015625 -0.265625,0.5 -0.40625,1.015625 -0.734375,2.890625 H 3.40625 c -0.28125,0 -0.421875,0 -0.421875,0.265625 0,0.15625 0.078125,0.15625 0.375,0.15625 H 4.28125 C 4.015625,-4.4375 3.421875,-1.1875 3.09375,0.34375 c -0.234375,1.25 -0.453125,2.296875 -1.171875,2.296875 -0.046875,0 -0.453125,0 -0.71875,-0.28125 C 1.9375,2.3125 1.9375,1.671875 1.9375,1.65625 1.9375,1.375 1.71875,1.203125 1.453125,1.203125 c -0.296875,0 -0.71875,0.25 -0.71875,0.796875 0,0.609375 0.625,0.921875 1.1875,0.921875 1.46875,0 2.0625,-2.625 2.21875,-3.34375 0.265625,-1.09375 0.96875,-4.90625 1.03125,-5.34375 z m 0,0"
             id="path4321" />
        </symbol>
        <symbol
           style="overflow:visible"
           overflow="visible"
           id="lx-text819-62-6-glyph1-3">
          <path
             inkscape:connector-curvature="0"
             style="stroke:none"
             d="m 2.796875,0.0625 c 0,-0.84375 -0.265625,-1.453125 -0.859375,-1.453125 -0.453125,0 -0.6875,0.375 -0.6875,0.6875 C 1.25,-0.390625 1.46875,0 1.953125,0 c 0.1875,0 0.34375,-0.0625 0.46875,-0.1875 0.03125,-0.03125 0.046875,-0.03125 0.0625,-0.03125 0.03125,0 0.03125,0.203125 0.03125,0.28125 0,0.46875 -0.09375,1.40625 -0.921875,2.328125 C 1.4375,2.5625 1.4375,2.59375 1.4375,2.625 c 0,0.078125 0.0625,0.140625 0.140625,0.140625 0.109375,0 1.21875,-1.0625 1.21875,-2.703125 z m 0,0"
             id="path4324" />
        </symbol>
        <symbol
           style="overflow:visible"
           overflow="visible"
           id="lx-text819-62-6-glyph1-4">
          <path
             inkscape:connector-curvature="0"
             style="stroke:none"
             d="m 2.640625,-0.6875 c 0,-0.421875 -0.34375,-0.703125 -0.6875,-0.703125 -0.421875,0 -0.703125,0.34375 -0.703125,0.6875 C 1.25,-0.28125 1.59375,0 1.9375,0 2.359375,0 2.640625,-0.34375 2.640625,-0.6875 Z m 0,0"
             id="path4327" />
        </symbol>
        <symbol
           style="overflow:visible"
           overflow="visible"
           id="lx-text819-62-6-glyph1-5">
          <path
             inkscape:connector-curvature="0"
             style="stroke:none"
             d="m 5.609375,-5.390625 c -0.28125,0 -0.40625,0 -0.609375,0.171875 -0.078125,0.0625 -0.234375,0.28125 -0.234375,0.515625 0,0.28125 0.21875,0.453125 0.484375,0.453125 0.34375,0 0.734375,-0.28125 0.734375,-0.859375 0,-0.6875 -0.65625,-1.21875 -1.65625,-1.21875 -1.875,0 -3.75,2.046875 -3.75,4.09375 0,1.25 0.765625,2.375 2.234375,2.375 C 4.765625,0.140625 6,-1.375 6,-1.5625 6,-1.65625 5.90625,-1.71875 5.859375,-1.71875 c -0.046875,0 -0.0625,0.015625 -0.1875,0.140625 -0.921875,1.21875 -2.28125,1.4375 -2.828125,1.4375 -1,0 -1.3125,-0.859375 -1.3125,-1.578125 0,-0.5 0.25,-1.890625 0.765625,-2.875 0.375,-0.671875 1.140625,-1.4375 2.046875,-1.4375 0.1875,0 0.984375,0.015625 1.265625,0.640625 z m 0,0"
             id="path4330" />
        </symbol>
        <symbol
           style="overflow:visible"
           overflow="visible"
           id="lx-text819-62-6-glyph2-0">
          <path
             inkscape:connector-curvature="0"
             style="stroke:none"
             d=""
             id="path4333" />
        </symbol>
        <symbol
           style="overflow:visible"
           overflow="visible"
           id="lx-text819-62-6-glyph2-1">
          <path
             inkscape:connector-curvature="0"
             style="stroke:none"
             d="m 2.9375,-6.375 c 0,-0.25 0,-0.265625 -0.234375,-0.265625 C 2.078125,-6 1.203125,-6 0.890625,-6 v 0.3125 c 0.203125,0 0.78125,0 1.296875,-0.265625 v 5.171875 c 0,0.359375 -0.03125,0.46875 -0.921875,0.46875 h -0.3125 V 0 c 0.34375,-0.03125 1.203125,-0.03125 1.609375,-0.03125 0.390625,0 1.265625,0 1.609375,0.03125 v -0.3125 h -0.3125 c -0.90625,0 -0.921875,-0.109375 -0.921875,-0.46875 z m 0,0"
             id="path4336" />
        </symbol>
        <symbol
           style="overflow:visible"
           overflow="visible"
           id="lx-text819-62-6-glyph2-2">
          <path
             inkscape:connector-curvature="0"
             style="stroke:none"
             d="m 4.578125,-3.1875 c 0,-0.796875 -0.046875,-1.59375 -0.390625,-2.328125 -0.453125,-0.96875 -1.28125,-1.125 -1.6875,-1.125 -0.609375,0 -1.328125,0.265625 -1.75,1.1875 -0.3125,0.6875 -0.359375,1.46875 -0.359375,2.265625 0,0.75 0.03125,1.640625 0.453125,2.40625 0.421875,0.796875 1.15625,1 1.640625,1 0.53125,0 1.296875,-0.203125 1.734375,-1.15625 0.3125,-0.6875 0.359375,-1.46875 0.359375,-2.25 z M 2.484375,0 C 2.09375,0 1.5,-0.25 1.328125,-1.203125 1.21875,-1.796875 1.21875,-2.71875 1.21875,-3.3125 c 0,-0.640625 0,-1.296875 0.078125,-1.828125 0.1875,-1.1875 0.9375,-1.28125 1.1875,-1.28125 0.328125,0 0.984375,0.1875 1.171875,1.171875 0.109375,0.5625 0.109375,1.3125 0.109375,1.9375 0,0.75 0,1.421875 -0.109375,2.0625 C 3.5,-0.296875 2.9375,0 2.484375,0 Z m 0,0"
             id="path4339" />
        </symbol>
        <symbol
           style="overflow:visible"
           overflow="visible"
           id="lx-text819-62-6-glyph3-0">
          <path
             inkscape:connector-curvature="0"
             style="stroke:none"
             d=""
             id="path4342" />
        </symbol>
        <symbol
           style="overflow:visible"
           overflow="visible"
           id="lx-text819-62-6-glyph3-1">
          <path
             inkscape:connector-curvature="0"
             style="stroke:none"
             d="m 0.875,-0.59375 c -0.03125,0.15625 -0.09375,0.390625 -0.09375,0.4375 0,0.171875 0.140625,0.265625 0.296875,0.265625 0.125,0 0.296875,-0.078125 0.375,-0.28125 0,-0.015625 0.125,-0.484375 0.1875,-0.734375 l 0.21875,-0.890625 C 1.90625,-2.03125 1.96875,-2.25 2.03125,-2.46875 c 0.03125,-0.171875 0.109375,-0.46875 0.125,-0.5 0.140625,-0.3125 0.671875,-1.21875 1.625,-1.21875 0.453125,0 0.53125,0.375 0.53125,0.703125 0,0.609375 -0.484375,1.890625 -0.640625,2.3125 C 3.578125,-0.9375 3.5625,-0.8125 3.5625,-0.703125 c 0,0.46875 0.359375,0.8125 0.828125,0.8125 0.9375,0 1.296875,-1.453125 1.296875,-1.53125 0,-0.109375 -0.078125,-0.109375 -0.109375,-0.109375 -0.109375,0 -0.109375,0.03125 -0.15625,0.1875 -0.203125,0.671875 -0.53125,1.234375 -1.015625,1.234375 -0.171875,0 -0.234375,-0.09375 -0.234375,-0.328125 0,-0.25 0.078125,-0.484375 0.171875,-0.703125 0.1875,-0.53125 0.609375,-1.625 0.609375,-2.203125 0,-0.65625 -0.421875,-1.0625 -1.140625,-1.0625 -0.90625,0 -1.390625,0.640625 -1.5625,0.875 -0.046875,-0.5625 -0.453125,-0.875 -0.921875,-0.875 -0.453125,0 -0.640625,0.390625 -0.734375,0.5625 C 0.421875,-3.5 0.296875,-2.90625 0.296875,-2.875 c 0,0.109375 0.09375,0.109375 0.109375,0.109375 0.109375,0 0.109375,-0.015625 0.171875,-0.234375 0.171875,-0.703125 0.375,-1.1875 0.734375,-1.1875 0.1875,0 0.296875,0.125 0.296875,0.453125 0,0.21875 -0.03125,0.328125 -0.15625,0.84375 z m 0,0"
             id="path4345" />
        </symbol>
        <symbol
           style="overflow:visible"
           overflow="visible"
           id="lx-text819-62-6-glyph4-0">
          <path
             inkscape:connector-curvature="0"
             style="stroke:none"
             d=""
             id="path4348" />
        </symbol>
        <symbol
           style="overflow:visible"
           overflow="visible"
           id="lx-text819-62-6-glyph4-1">
          <path
             inkscape:connector-curvature="0"
             style="stroke:none"
             d="m 6.5625,-2.296875 c 0.171875,0 0.359375,0 0.359375,-0.203125 0,-0.1875 -0.1875,-0.1875 -0.359375,-0.1875 H 1.171875 c -0.171875,0 -0.34375,0 -0.34375,0.1875 0,0.203125 0.171875,0.203125 0.34375,0.203125 z m 0,0"
             id="path4351" />
        </symbol>
        <symbol
           style="overflow:visible"
           overflow="visible"
           id="lx-text819-62-6-glyph5-0">
          <path
             inkscape:connector-curvature="0"
             style="stroke:none"
             d=""
             id="path4354" />
        </symbol>
        <symbol
           style="overflow:visible"
           overflow="visible"
           id="lx-text819-62-6-glyph5-1">
          <path
             inkscape:connector-curvature="0"
             style="stroke:none"
             d="M 2.75,-3.578125 C 2.75,-4 2.40625,-4.34375 2,-4.34375 c -0.421875,0 -0.765625,0.34375 -0.765625,0.765625 0,0.40625 0.34375,0.75 0.765625,0.75 0.40625,0 0.75,-0.34375 0.75,-0.75 z m 0,0"
             id="path4357" />
        </symbol>
      </g>
    </defs>
    <defs
       id="defs4101">
      <g
         id="g4099">
        <symbol
           style="overflow:visible"
           overflow="visible"
           id="lx-text819-62-7-glyph0-0">
          <path
             inkscape:connector-curvature="0"
             style="stroke:none"
             d=""
             id="path3997" />
        </symbol>
        <symbol
           style="overflow:visible"
           overflow="visible"
           id="lx-text819-62-7-glyph0-1">
          <path
             inkscape:connector-curvature="0"
             style="stroke:none"
             d="M 8.1875,-9.765625 H 0.59375 v 0.40625 H 0.875 c 1.03125,0 1.078125,0.15625 1.078125,0.6875 v 7.578125 c 0,0.53125 -0.046875,0.671875 -1.078125,0.671875 H 0.59375 V 0 c 0.34375,-0.03125 1.609375,-0.03125 2.046875,-0.03125 0.5,0 1.765625,0 2.171875,0.03125 V -0.421875 H 4.390625 c -1.25,0 -1.28125,-0.171875 -1.28125,-0.6875 v -3.5625 H 4.375 c 1.34375,0 1.484375,0.46875 1.484375,1.671875 H 6.1875 V -6.765625 H 5.859375 C 5.859375,-5.5625 5.71875,-5.09375 4.375,-5.09375 H 3.109375 v -3.6875 c 0,-0.46875 0.03125,-0.578125 0.65625,-0.578125 H 5.5625 c 2.0625,0 2.484375,0.765625 2.6875,2.796875 h 0.3125 z m 0,0"
             id="path4000" />
        </symbol>
        <symbol
           style="overflow:visible"
           overflow="visible"
           id="lx-text819-62-7-glyph0-2">
          <path
             inkscape:connector-curvature="0"
             style="stroke:none"
             d="m 2.5,-8.828125 c 0,-0.375 -0.3125,-0.703125 -0.703125,-0.703125 -0.375,0 -0.6875,0.296875 -0.6875,0.6875 0,0.421875 0.34375,0.703125 0.6875,0.703125 0.4375,0 0.703125,-0.375 0.703125,-0.6875 z m -1.984375,2.65625 V -5.75 c 0.921875,0 1.046875,0.078125 1.046875,0.78125 v 3.90625 c 0,0.640625 -0.15625,0.640625 -1.09375,0.640625 V 0 C 0.875,-0.03125 1.5625,-0.03125 1.984375,-0.03125 c 0.15625,0 0.984375,0 1.46875,0.03125 v -0.421875 c -0.921875,0 -0.984375,-0.0625 -0.984375,-0.625 v -5.28125 z m 0,0"
             id="path4003" />
        </symbol>
        <symbol
           style="overflow:visible"
           overflow="visible"
           id="lx-text819-62-7-glyph0-3">
          <path
             inkscape:connector-curvature="0"
             style="stroke:none"
             d="M 2.40625,-5.765625 H 4.4375 V -6.1875 H 2.40625 V -8.828125 H 2.09375 C 2.078125,-7.46875 1.5625,-6.09375 0.265625,-6.046875 v 0.28125 h 1.21875 v 3.984375 c 0,1.59375 1.046875,1.921875 1.8125,1.921875 0.90625,0 1.375,-0.890625 1.375,-1.921875 v -0.8125 h -0.3125 v 0.78125 c 0,1.03125 -0.421875,1.640625 -0.96875,1.640625 C 2.40625,-0.171875 2.40625,-1.5 2.40625,-1.75 Z m 0,0"
             id="path4006" />
        </symbol>
        <symbol
           style="overflow:visible"
           overflow="visible"
           id="lx-text819-62-7-glyph0-4">
          <path
             inkscape:connector-curvature="0"
             style="stroke:none"
             d="M 3.296875,-9.53125 C 3.203125,-9.796875 3.1875,-9.796875 2.859375,-9.796875 H 0.625 V -9.375 H 0.921875 C 1.953125,-9.375 2,-9.234375 2,-8.703125 v 7.21875 c 0,0.390625 0,1.0625 -1.375,1.0625 V 0 C 1,-0.03125 1.765625,-0.03125 2.171875,-0.03125 c 0.390625,0 1.15625,0 1.53125,0.03125 v -0.421875 c -1.359375,0 -1.359375,-0.671875 -1.359375,-1.0625 V -9.3125 H 2.359375 L 5.8125,-0.265625 C 5.859375,-0.109375 5.90625,0 6.046875,0 c 0.140625,0 0.15625,-0.078125 0.25,-0.28125 L 9.78125,-9.375 h 0.015625 v 8.28125 c 0,0.53125 -0.046875,0.671875 -1.078125,0.671875 H 8.4375 V 0 c 0.328125,-0.03125 1.46875,-0.03125 1.890625,-0.03125 0.421875,0 1.5625,0 1.890625,0.03125 V -0.421875 H 11.9375 c -1.03125,0 -1.078125,-0.140625 -1.078125,-0.671875 v -7.609375 c 0,-0.53125 0.04687,-0.671875 1.078125,-0.671875 h 0.28125 V -9.796875 H 10 c -0.3125,0 -0.328125,0.015625 -0.453125,0.28125 l -3.125,8.171875 z m 0,0"
             id="path4009" />
        </symbol>
        <symbol
           style="overflow:visible"
           overflow="visible"
           id="lx-text819-62-7-glyph0-5">
          <path
             inkscape:connector-curvature="0"
             style="stroke:none"
             d="m 6.578125,-3.0625 c 0,-1.859375 -1.40625,-3.328125 -3.0625,-3.328125 -1.71875,0 -3.078125,1.515625 -3.078125,3.328125 0,1.828125 1.421875,3.203125 3.0625,3.203125 1.6875,0 3.078125,-1.40625 3.078125,-3.203125 z m -3.0625,2.890625 c -0.53125,0 -1.171875,-0.234375 -1.59375,-0.9375 C 1.53125,-1.75 1.515625,-2.59375 1.515625,-3.203125 c 0,-0.546875 0,-1.421875 0.453125,-2.0625 C 2.359375,-5.875 3,-6.109375 3.5,-6.109375 c 0.5625,0 1.15625,0.25 1.546875,0.8125 C 5.5,-4.640625 5.5,-3.734375 5.5,-3.203125 c 0,0.5 0,1.390625 -0.375,2.0625 -0.40625,0.703125 -1.0625,0.96875 -1.609375,0.96875 z m 0,0"
             id="path4012" />
        </symbol>
        <symbol
           style="overflow:visible"
           overflow="visible"
           id="lx-text819-62-7-glyph0-6">
          <path
             inkscape:connector-curvature="0"
             style="stroke:none"
             d="M 4.296875,-9.796875 V -9.375 c 0.984375,0 1.09375,0.09375 1.09375,0.796875 V -5.40625 C 5.09375,-5.828125 4.46875,-6.328125 3.59375,-6.328125 c -1.65625,0 -3.09375,1.40625 -3.09375,3.25 0,1.8125 1.359375,3.21875 2.9375,3.21875 1.09375,0 1.71875,-0.71875 1.921875,-0.984375 V 0.140625 L 7.390625,0 v -0.421875 c -0.984375,0 -1.09375,-0.09375 -1.09375,-0.796875 v -8.734375 z m 1.0625,8.125 c 0,0.25 0,0.296875 -0.203125,0.609375 -0.34375,0.5 -0.921875,0.921875 -1.640625,0.921875 -0.375,0 -1.921875,-0.140625 -1.921875,-2.921875 0,-1.046875 0.171875,-1.609375 0.484375,-2.09375 0.28125,-0.4375 0.859375,-0.875 1.578125,-0.875 0.890625,0 1.390625,0.640625 1.53125,0.875 0.171875,0.234375 0.171875,0.265625 0.171875,0.515625 z m 0,0"
             id="path4015" />
        </symbol>
        <symbol
           style="overflow:visible"
           overflow="visible"
           id="lx-text819-62-7-glyph0-7">
          <path
             inkscape:connector-curvature="0"
             style="stroke:none"
             d="m 5.5,-3.328125 c 0.3125,0 0.34375,0 0.34375,-0.265625 0,-1.453125 -0.78125,-2.796875 -2.515625,-2.796875 -1.640625,0 -2.890625,1.46875 -2.890625,3.25 0,1.890625 1.453125,3.28125 3.046875,3.28125 1.703125,0 2.359375,-1.546875 2.359375,-1.84375 0,-0.09375 -0.078125,-0.140625 -0.15625,-0.140625 -0.125,0 -0.15625,0.0625 -0.171875,0.140625 -0.375,1.203125 -1.34375,1.53125 -1.9375,1.53125 -0.609375,0 -2.0625,-0.40625 -2.0625,-2.890625 V -3.328125 Z M 1.53125,-3.59375 c 0.125,-2.265625 1.375,-2.515625 1.78125,-2.515625 1.53125,0 1.625,2.015625 1.640625,2.515625 z m 0,0"
             id="path4018" />
        </symbol>
        <symbol
           style="overflow:visible"
           overflow="visible"
           id="lx-text819-62-7-glyph0-8">
          <path
             inkscape:connector-curvature="0"
             style="stroke:none"
             d="m 2.46875,-9.953125 -2,0.15625 V -9.375 c 0.984375,0 1.09375,0.09375 1.09375,0.796875 V -1.0625 c 0,0.640625 -0.15625,0.640625 -1.09375,0.640625 V 0 c 0.40625,-0.03125 1.109375,-0.03125 1.546875,-0.03125 0.421875,0 1.140625,0 1.546875,0.03125 v -0.421875 c -0.921875,0 -1.09375,0 -1.09375,-0.640625 z m 0,0"
             id="path4021" />
        </symbol>
        <symbol
           style="overflow:visible"
           overflow="visible"
           id="lx-text819-62-7-glyph0-9">
          <path
             inkscape:connector-curvature="0"
             style="stroke:none"
             d="m 1.125,-3.15625 c -0.25,0.265625 -0.53125,0.75 -0.53125,1.3125 0,1.25 1.1875,2.140625 2.53125,2.140625 0.96875,0 1.828125,-0.40625 2.5625,-1.09375 0.34375,0.3125 1.234375,1.09375 2.453125,1.09375 1.078125,0 1.96875,-0.8125 2,-2.03125 h -0.3125 c -0.03125,1.09375 -0.921875,1.625 -1.625,1.625 -0.703125,0 -1.34375,-0.59375 -1.953125,-1.296875 0.671875,-0.828125 1.171875,-1.671875 1.90625,-2.9375 0.5,-0.875 0.8125,-1.40625 2.0625,-1.421875 V -6.1875 c -0.484375,0.015625 -0.953125,0.03125 -1.421875,0.03125 -0.390625,0 -1.3125,0 -1.640625,-0.03125 v 0.421875 c 0.609375,0 1,0.234375 1,0.625 0,0.0625 0,0.15625 -0.046875,0.265625 C 7.8125,-4.34375 7.4375,-3.703125 7.078125,-3.109375 6.5625,-2.28125 6.109375,-1.734375 6.046875,-1.65625 5.8125,-1.96875 4.34375,-3.828125 3.6875,-5.546875 4.0625,-5.953125 5.375,-7.375 5.375,-8.453125 5.375,-8.59375 5.359375,-10.25 4.1875,-10.25 c -0.875,0 -1.875,0.765625 -1.875,2.28125 0,0.671875 0.125,1.640625 0.484375,2.640625 C 2.828125,-5.234375 2.875,-5.125 2.875,-5.09375 c 0,0.046875 -0.078125,0.109375 -0.109375,0.140625 z M 3.578125,-5.859375 C 3.28125,-6.703125 3.15625,-7.671875 3.15625,-8.3125 c 0,-1.15625 0.546875,-1.65625 1.0625,-1.65625 0.78125,0 0.84375,1.25 0.84375,1.53125 0,0.9375 -1.171875,2.234375 -1.484375,2.578125 z M 3,-4.78125 c 0.578125,1.3125 1.515625,2.71875 2.4375,3.734375 -0.890625,0.828125 -1.765625,0.9375 -2.1875,0.9375 -1.171875,0 -1.578125,-1.296875 -1.578125,-2.171875 0,-0.375 0.0625,-0.96875 0.453125,-1.5 0.015625,-0.046875 0.765625,-0.859375 0.875,-1 z m 0,0"
             id="path4024" />
        </symbol>
        <symbol
           style="overflow:visible"
           overflow="visible"
           id="lx-text819-62-7-glyph0-10">
          <path
             inkscape:connector-curvature="0"
             style="stroke:none"
             d="m 6.046875,-4.875 c 1.421875,-0.328125 2.53125,-1.234375 2.53125,-2.34375 0,-1.390625 -1.625,-2.578125 -3.6875,-2.578125 H 0.609375 V -9.375 h 0.28125 c 1.03125,0 1.078125,0.140625 1.078125,0.671875 v 7.609375 c 0,0.53125 -0.046875,0.671875 -1.078125,0.671875 H 0.609375 V 0 c 0.328125,-0.03125 1.5,-0.03125 1.921875,-0.03125 0.40625,0 1.59375,0 1.921875,0.03125 v -0.421875 h -0.28125 c -1.03125,0 -1.078125,-0.140625 -1.078125,-0.671875 v -3.671875 h 1.671875 c 0.5625,0 1.09375,0.15625 1.46875,0.5625 0.5,0.546875 0.5,0.84375 0.5,1.84375 0,1.125 0,1.5 0.625,2.109375 0.21875,0.21875 0.8125,0.546875 1.625,0.546875 1.109375,0 1.296875,-1.25 1.296875,-1.546875 0,-0.078125 0,-0.21875 -0.15625,-0.21875 -0.140625,0 -0.140625,0.09375 -0.15625,0.234375 -0.078125,0.859375 -0.484375,1.25 -0.953125,1.25 -0.65625,0 -0.796875,-0.671875 -0.90625,-1.4375 C 8.09375,-1.515625 8,-2.140625 7.953125,-2.5 7.859375,-3.21875 7.796875,-3.671875 7.375,-4.109375 7.21875,-4.28125 6.84375,-4.65625 6.046875,-4.875 Z M 4.703125,-5.046875 H 3.09375 V -8.8125 c 0,-0.328125 0,-0.5 0.3125,-0.546875 C 3.53125,-9.375 3.953125,-9.375 4.25,-9.375 c 1.15625,0 3,0 3,2.15625 0,1.25 -0.6875,2.171875 -2.546875,2.171875 z m 0,0"
             id="path4027" />
        </symbol>
        <symbol
           style="overflow:visible"
           overflow="visible"
           id="lx-text819-62-7-glyph0-11">
          <path
             inkscape:connector-curvature="0"
             style="stroke:none"
             d="M 4.359375,-6.171875 V -5.75 c 0.96875,0 1.09375,0.09375 1.09375,0.796875 V -2.375 c 0,1.21875 -0.640625,2.234375 -1.71875,2.234375 -1.1875,0 -1.25,-0.671875 -1.25,-1.4375 v -4.75 l -2.03125,0.15625 V -5.75 c 1.09375,0 1.09375,0.046875 1.09375,1.3125 v 2.15625 c 0,0.890625 0,1.40625 0.4375,1.875 0.34375,0.375 0.921875,0.546875 1.65625,0.546875 0.25,0 0.703125,0 1.1875,-0.40625 0.421875,-0.34375 0.65625,-0.875 0.65625,-0.875 v 1.28125 L 7.46875,0 v -0.421875 c -0.96875,0 -1.078125,-0.09375 -1.078125,-0.796875 v -5.109375 z m 0,0"
             id="path4030" />
        </symbol>
        <symbol
           style="overflow:visible"
           overflow="visible"
           id="lx-text819-62-7-glyph0-12">
          <path
             inkscape:connector-curvature="0"
             style="stroke:none"
             d="m 6.390625,-3.484375 c 0,-1.328125 0,-1.734375 -0.34375,-2.203125 -0.40625,-0.546875 -1.078125,-0.640625 -1.578125,-0.640625 -1.390625,0 -1.9375,1.1875 -2.046875,1.484375 H 2.40625 v -1.484375 l -1.953125,0.15625 V -5.75 c 0.984375,0 1.09375,0.09375 1.09375,0.796875 V -1.0625 c 0,0.640625 -0.15625,0.640625 -1.09375,0.640625 V 0 c 0.375,-0.03125 1.15625,-0.03125 1.5625,-0.03125 0.40625,0 1.1875,0 1.5625,0.03125 v -0.421875 c -0.921875,0 -1.09375,0 -1.09375,-0.640625 v -2.671875 c 0,-1.5 0.984375,-2.296875 1.875,-2.296875 0.890625,0 1.09375,0.71875 1.09375,1.59375 v 3.375 c 0,0.640625 -0.15625,0.640625 -1.09375,0.640625 V 0 c 0.375,-0.03125 1.15625,-0.03125 1.546875,-0.03125 0.421875,0 1.1875,0 1.5625,0.03125 v -0.421875 c -0.71875,0 -1.078125,0 -1.078125,-0.421875 z m 0,0"
             id="path4033" />
        </symbol>
        <symbol
           style="overflow:visible"
           overflow="visible"
           id="lx-text819-62-7-glyph0-13">
          <path
             inkscape:connector-curvature="0"
             style="stroke:none"
             d="m 5.546875,-9.984375 c -0.046875,-0.171875 -0.078125,-0.25 -0.28125,-0.25 -0.203125,0 -0.234375,0.03125 -0.296875,0.265625 l -3,8.578125 C 1.765625,-0.796875 1.359375,-0.4375 0.4375,-0.421875 V 0 c 0.875,-0.03125 0.90625,-0.03125 1.390625,-0.03125 0.390625,0 1.078125,0 1.453125,0.03125 V -0.421875 C 2.6875,-0.4375 2.328125,-0.734375 2.328125,-1.140625 c 0,-0.078125 0,-0.109375 0.0625,-0.296875 L 3.0625,-3.34375 h 3.609375 l 0.78125,2.25 c 0.078125,0.171875 0.078125,0.203125 0.078125,0.25 0,0.421875 -0.734375,0.421875 -1.09375,0.421875 V 0 c 0.328125,-0.03125 1.46875,-0.03125 1.875,-0.03125 0.390625,0 1.421875,0 1.75,0.03125 v -0.421875 c -0.921875,0 -1.1875,0 -1.390625,-0.578125 z m -0.6875,1.453125 1.671875,4.765625 H 3.203125 Z m 0,0"
             id="path4036" />
        </symbol>
        <symbol
           style="overflow:visible"
           overflow="visible"
           id="lx-text819-62-7-glyph0-14">
          <path
             inkscape:connector-curvature="0"
             style="stroke:none"
             d="M 3.234375,-9.59375 C 3.109375,-9.78125 3.09375,-9.796875 2.78125,-9.796875 H 0.59375 V -9.375 c 0.609375,0 0.96875,0 1.359375,0.09375 V -1.5 c 0,0.40625 0,1.078125 -1.359375,1.078125 V 0 c 0.375,-0.03125 1.125,-0.03125 1.53125,-0.03125 0.40625,0 1.15625,0 1.53125,0.03125 V -0.421875 C 2.296875,-0.421875 2.296875,-1.09375 2.296875,-1.5 V -9.046875 C 2.40625,-8.9375 2.40625,-8.90625 2.53125,-8.734375 L 8.140625,-0.21875 C 8.28125,-0.015625 8.296875,0 8.390625,0 c 0.125,0 0.15625,-0.0625 0.171875,-0.09375 v -8.203125 c 0,-0.40625 0,-1.078125 1.359375,-1.078125 v -0.421875 c -0.375,0.03125 -1.125,0.03125 -1.53125,0.03125 -0.40625,0 -1.15625,0 -1.53125,-0.03125 V -9.375 c 1.359375,0 1.359375,0.671875 1.359375,1.078125 v 6.28125 z m 0,0"
             id="path4039" />
        </symbol>
        <symbol
           style="overflow:visible"
           overflow="visible"
           id="lx-text819-62-7-glyph0-15">
          <path
             inkscape:connector-curvature="0"
             style="stroke:none"
             d="m 10.140625,-4.859375 c 0,-2.96875 -2.1875,-5.234375 -4.671875,-5.234375 -2.5625,0 -4.6875,2.296875 -4.6875,5.234375 0,2.90625 2.15625,5.15625 4.671875,5.15625 2.5625,0 4.6875,-2.28125 4.6875,-5.15625 z M 5.46875,-0.03125 c -1.46875,0 -3.359375,-1.375 -3.359375,-5.046875 0,-3.515625 2,-4.703125 3.34375,-4.703125 1.421875,0 3.359375,1.234375 3.359375,4.703125 0,3.734375 -1.953125,5.046875 -3.34375,5.046875 z m 0,0"
             id="path4042" />
        </symbol>
        <symbol
           style="overflow:visible"
           overflow="visible"
           id="lx-text819-62-7-glyph0-16">
          <path
             inkscape:connector-curvature="0"
             style="stroke:none"
             d="m 8.765625,-8.375 c 0.125,-0.359375 0.375,-0.984375 1.484375,-1 v -0.421875 c -0.71875,0.03125 -0.75,0.03125 -1.3125,0.03125 -0.390625,0 -1.109375,0 -1.46875,-0.03125 V -9.375 c 0.734375,0.015625 0.953125,0.40625 0.953125,0.703125 0,0.078125 0,0.109375 -0.09375,0.3125 L 5.65625,-1.296875 2.828125,-8.75 C 2.75,-8.90625 2.75,-8.9375 2.75,-8.96875 2.75,-9.375 3.46875,-9.375 3.828125,-9.375 v -0.421875 c -0.34375,0.03125 -1.4375,0.03125 -1.84375,0.03125 -0.40625,0 -1.375,0 -1.71875,-0.03125 V -9.375 c 0.875,0 1.109375,0 1.328125,0.5625 l 3.359375,8.84375 c 0.0625,0.203125 0.09375,0.265625 0.296875,0.265625 0.203125,0 0.21875,-0.03125 0.3125,-0.28125 z m 0,0"
             id="path4045" />
        </symbol>
        <symbol
           style="overflow:visible"
           overflow="visible"
           id="lx-text819-62-7-glyph0-17">
          <path
             inkscape:connector-curvature="0"
             style="stroke:none"
             d="m 4.65625,3.484375 c 0,-0.046875 0,-0.078125 -0.234375,-0.3125 -1.4375,-1.453125 -2.234375,-3.8125 -2.234375,-6.75 0,-2.78125 0.671875,-5.171875 2.328125,-6.859375 0.140625,-0.140625 0.140625,-0.15625 0.140625,-0.203125 0,-0.09375 -0.0625,-0.109375 -0.125,-0.109375 -0.1875,0 -1.359375,1.03125 -2.0625,2.4375 -0.734375,1.4375 -1.0625,2.984375 -1.0625,4.734375 0,1.28125 0.203125,2.984375 0.953125,4.53125 0.84375,1.71875 2.015625,2.640625 2.171875,2.640625 0.0625,0 0.125,-0.015625 0.125,-0.109375 z m 0,0"
             id="path4048" />
        </symbol>
        <symbol
           style="overflow:visible"
           overflow="visible"
           id="lx-text819-62-7-glyph0-18">
          <path
             inkscape:connector-curvature="0"
             style="stroke:none"
             d="M 4.046875,-3.578125 C 4.046875,-4.65625 3.90625,-6.4375 3.09375,-8.109375 2.25,-9.828125 1.078125,-10.75 0.921875,-10.75 c -0.0625,0 -0.140625,0.01563 -0.140625,0.109375 0,0.04687 0,0.0625 0.25,0.3125 1.4375,1.453125 2.234375,3.8125 2.234375,6.75 0,2.78125 -0.671875,5.171875 -2.328125,6.859375 -0.15625,0.125 -0.15625,0.15625 -0.15625,0.203125 0,0.09375 0.078125,0.109375 0.140625,0.109375 0.1875,0 1.359375,-1.03125 2.0625,-2.4375 0.734375,-1.453125 1.0625,-3 1.0625,-4.734375 z m 0,0"
             id="path4051" />
        </symbol>
        <symbol
           style="overflow:visible"
           overflow="visible"
           id="lx-text819-62-7-glyph0-19">
          <path
             inkscape:connector-curvature="0"
             style="stroke:none"
             d="m 9.6875,-4.640625 c 0.203125,0 0.453125,0 0.453125,-0.265625 0,-0.265625 -0.25,-0.265625 -0.453125,-0.265625 H 1.234375 c -0.203125,0 -0.453125,0 -0.453125,0.25 0,0.28125 0.234375,0.28125 0.453125,0.28125 z m 0,2.65625 c 0.203125,0 0.453125,0 0.453125,-0.25 0,-0.28125 -0.25,-0.28125 -0.453125,-0.28125 H 1.234375 c -0.203125,0 -0.453125,0 -0.453125,0.265625 0,0.265625 0.234375,0.265625 0.453125,0.265625 z m 0,0"
             id="path4054" />
        </symbol>
        <symbol
           style="overflow:visible"
           overflow="visible"
           id="lx-text819-62-7-glyph0-20">
          <path
             inkscape:connector-curvature="0"
             style="stroke:none"
             d="M 5.71875,-3.3125 H 9.6875 c 0.203125,0 0.453125,0 0.453125,-0.265625 0,-0.265625 -0.25,-0.265625 -0.453125,-0.265625 H 5.71875 v -3.953125 c 0,-0.203125 0,-0.46875 -0.25,-0.46875 -0.28125,0 -0.28125,0.25 -0.28125,0.46875 V -3.84375 H 1.234375 c -0.203125,0 -0.453125,0 -0.453125,0.265625 0,0.265625 0.234375,0.265625 0.453125,0.265625 H 5.1875 v 3.953125 c 0,0.203125 0,0.46875 0.265625,0.46875 0.265625,0 0.265625,-0.25 0.265625,-0.46875 z m 0,0"
             id="path4057" />
        </symbol>
        <symbol
           style="overflow:visible"
           overflow="visible"
           id="lx-text819-62-7-glyph1-0">
          <path
             inkscape:connector-curvature="0"
             style="stroke:none"
             d=""
             id="path4060" />
        </symbol>
        <symbol
           style="overflow:visible"
           overflow="visible"
           id="lx-text819-62-7-glyph1-1">
          <path
             inkscape:connector-curvature="0"
             style="stroke:none"
             d="m 3.765625,1.609375 c -0.375,0.546875 -0.9375,1.03125 -1.640625,1.03125 -0.171875,0 -0.859375,-0.03125 -1.078125,-0.6875 C 1.09375,1.96875 1.15625,1.96875 1.1875,1.96875 c 0.4375,0 0.71875,-0.375 0.71875,-0.703125 C 1.90625,0.9375 1.640625,0.8125 1.421875,0.8125 1.1875,0.8125 0.6875,0.984375 0.6875,1.6875 c 0,0.734375 0.625,1.234375 1.4375,1.234375 1.4375,0 2.875,-1.3125 3.28125,-2.90625 l 1.40625,-5.59375 c 0.015625,-0.078125 0.046875,-0.15625 0.046875,-0.25 0,-0.203125 -0.171875,-0.359375 -0.390625,-0.359375 -0.125,0 -0.4375,0.0625 -0.546875,0.5 l -1.0625,4.203125 c -0.0625,0.265625 -0.0625,0.296875 -0.1875,0.453125 -0.28125,0.40625 -0.75,0.890625 -1.4375,0.890625 -0.8125,0 -0.875,-0.796875 -0.875,-1.171875 0,-0.828125 0.375,-1.921875 0.765625,-2.96875 0.15625,-0.40625 0.25,-0.609375 0.25,-0.890625 0,-0.609375 -0.4375,-1.15625 -1.140625,-1.15625 -1.3125,0 -1.84375,2.078125 -1.84375,2.203125 0,0.046875 0.046875,0.125 0.15625,0.125 C 0.671875,-4 0.6875,-4.0625 0.75,-4.265625 1.09375,-5.46875 1.640625,-6.03125 2.1875,-6.03125 c 0.140625,0 0.375,0 0.375,0.46875 0,0.375 -0.15625,0.78125 -0.375,1.328125 -0.703125,1.875 -0.703125,2.359375 -0.703125,2.703125 0,1.359375 0.984375,1.671875 1.703125,1.671875 0.40625,0 0.921875,-0.125 1.4375,-0.65625 L 4.640625,-0.5 c -0.21875,0.84375 -0.359375,1.40625 -0.875,2.109375 z m 0,0"
             id="path4063" />
        </symbol>
        <symbol
           style="overflow:visible"
           overflow="visible"
           id="lx-text819-62-7-glyph1-2">
          <path
             inkscape:connector-curvature="0"
             style="stroke:none"
             d="m 6.390625,-5.765625 c 0.296875,0 0.40625,0 0.40625,-0.265625 0,-0.15625 -0.109375,-0.15625 -0.375,-0.15625 h -1.15625 c 0.265625,-1.46875 0.46875,-2.484375 0.59375,-2.953125 0.078125,-0.34375 0.375,-0.671875 0.75,-0.671875 0.296875,0 0.609375,0.125 0.75,0.265625 C 6.796875,-9.5 6.625,-9.078125 6.625,-8.828125 c 0,0.28125 0.21875,0.453125 0.484375,0.453125 0.296875,0 0.71875,-0.25 0.71875,-0.796875 0,-0.59375 -0.59375,-0.921875 -1.234375,-0.921875 -0.609375,0 -1.21875,0.453125 -1.5,1.015625 -0.265625,0.5 -0.40625,1.015625 -0.734375,2.890625 H 3.40625 c -0.28125,0 -0.421875,0 -0.421875,0.265625 0,0.15625 0.078125,0.15625 0.375,0.15625 H 4.28125 C 4.015625,-4.4375 3.421875,-1.1875 3.09375,0.34375 c -0.234375,1.25 -0.453125,2.296875 -1.171875,2.296875 -0.046875,0 -0.453125,0 -0.71875,-0.28125 C 1.9375,2.3125 1.9375,1.671875 1.9375,1.65625 1.9375,1.375 1.71875,1.203125 1.453125,1.203125 c -0.296875,0 -0.71875,0.25 -0.71875,0.796875 0,0.609375 0.625,0.921875 1.1875,0.921875 1.46875,0 2.0625,-2.625 2.21875,-3.34375 0.265625,-1.09375 0.96875,-4.90625 1.03125,-5.34375 z m 0,0"
             id="path4066" />
        </symbol>
        <symbol
           style="overflow:visible"
           overflow="visible"
           id="lx-text819-62-7-glyph1-3">
          <path
             inkscape:connector-curvature="0"
             style="stroke:none"
             d="m 2.796875,0.0625 c 0,-0.84375 -0.265625,-1.453125 -0.859375,-1.453125 -0.453125,0 -0.6875,0.375 -0.6875,0.6875 C 1.25,-0.390625 1.46875,0 1.953125,0 c 0.1875,0 0.34375,-0.0625 0.46875,-0.1875 0.03125,-0.03125 0.046875,-0.03125 0.0625,-0.03125 0.03125,0 0.03125,0.203125 0.03125,0.28125 0,0.46875 -0.09375,1.40625 -0.921875,2.328125 C 1.4375,2.5625 1.4375,2.59375 1.4375,2.625 c 0,0.078125 0.0625,0.140625 0.140625,0.140625 0.109375,0 1.21875,-1.0625 1.21875,-2.703125 z m 0,0"
             id="path4069" />
        </symbol>
        <symbol
           style="overflow:visible"
           overflow="visible"
           id="lx-text819-62-7-glyph1-4">
          <path
             inkscape:connector-curvature="0"
             style="stroke:none"
             d="m 2.640625,-0.6875 c 0,-0.421875 -0.34375,-0.703125 -0.6875,-0.703125 -0.421875,0 -0.703125,0.34375 -0.703125,0.6875 C 1.25,-0.28125 1.59375,0 1.9375,0 2.359375,0 2.640625,-0.34375 2.640625,-0.6875 Z m 0,0"
             id="path4072" />
        </symbol>
        <symbol
           style="overflow:visible"
           overflow="visible"
           id="lx-text819-62-7-glyph1-5">
          <path
             inkscape:connector-curvature="0"
             style="stroke:none"
             d="m 5.609375,-5.390625 c -0.28125,0 -0.40625,0 -0.609375,0.171875 -0.078125,0.0625 -0.234375,0.28125 -0.234375,0.515625 0,0.28125 0.21875,0.453125 0.484375,0.453125 0.34375,0 0.734375,-0.28125 0.734375,-0.859375 0,-0.6875 -0.65625,-1.21875 -1.65625,-1.21875 -1.875,0 -3.75,2.046875 -3.75,4.09375 0,1.25 0.765625,2.375 2.234375,2.375 C 4.765625,0.140625 6,-1.375 6,-1.5625 6,-1.65625 5.90625,-1.71875 5.859375,-1.71875 c -0.046875,0 -0.0625,0.015625 -0.1875,0.140625 -0.921875,1.21875 -2.28125,1.4375 -2.828125,1.4375 -1,0 -1.3125,-0.859375 -1.3125,-1.578125 0,-0.5 0.25,-1.890625 0.765625,-2.875 0.375,-0.671875 1.140625,-1.4375 2.046875,-1.4375 0.1875,0 0.984375,0.015625 1.265625,0.640625 z m 0,0"
             id="path4075" />
        </symbol>
        <symbol
           style="overflow:visible"
           overflow="visible"
           id="lx-text819-62-7-glyph2-0">
          <path
             inkscape:connector-curvature="0"
             style="stroke:none"
             d=""
             id="path4078" />
        </symbol>
        <symbol
           style="overflow:visible"
           overflow="visible"
           id="lx-text819-62-7-glyph2-1">
          <path
             inkscape:connector-curvature="0"
             style="stroke:none"
             d="m 2.9375,-6.375 c 0,-0.25 0,-0.265625 -0.234375,-0.265625 C 2.078125,-6 1.203125,-6 0.890625,-6 v 0.3125 c 0.203125,0 0.78125,0 1.296875,-0.265625 v 5.171875 c 0,0.359375 -0.03125,0.46875 -0.921875,0.46875 h -0.3125 V 0 c 0.34375,-0.03125 1.203125,-0.03125 1.609375,-0.03125 0.390625,0 1.265625,0 1.609375,0.03125 v -0.3125 h -0.3125 c -0.90625,0 -0.921875,-0.109375 -0.921875,-0.46875 z m 0,0"
             id="path4081" />
        </symbol>
        <symbol
           style="overflow:visible"
           overflow="visible"
           id="lx-text819-62-7-glyph2-2">
          <path
             inkscape:connector-curvature="0"
             style="stroke:none"
             d="m 4.578125,-3.1875 c 0,-0.796875 -0.046875,-1.59375 -0.390625,-2.328125 -0.453125,-0.96875 -1.28125,-1.125 -1.6875,-1.125 -0.609375,0 -1.328125,0.265625 -1.75,1.1875 -0.3125,0.6875 -0.359375,1.46875 -0.359375,2.265625 0,0.75 0.03125,1.640625 0.453125,2.40625 0.421875,0.796875 1.15625,1 1.640625,1 0.53125,0 1.296875,-0.203125 1.734375,-1.15625 0.3125,-0.6875 0.359375,-1.46875 0.359375,-2.25 z M 2.484375,0 C 2.09375,0 1.5,-0.25 1.328125,-1.203125 1.21875,-1.796875 1.21875,-2.71875 1.21875,-3.3125 c 0,-0.640625 0,-1.296875 0.078125,-1.828125 0.1875,-1.1875 0.9375,-1.28125 1.1875,-1.28125 0.328125,0 0.984375,0.1875 1.171875,1.171875 0.109375,0.5625 0.109375,1.3125 0.109375,1.9375 0,0.75 0,1.421875 -0.109375,2.0625 C 3.5,-0.296875 2.9375,0 2.484375,0 Z m 0,0"
             id="path4084" />
        </symbol>
        <symbol
           style="overflow:visible"
           overflow="visible"
           id="lx-text819-62-7-glyph3-0">
          <path
             inkscape:connector-curvature="0"
             style="stroke:none"
             d=""
             id="path4087" />
        </symbol>
        <symbol
           style="overflow:visible"
           overflow="visible"
           id="lx-text819-62-7-glyph3-1">
          <path
             inkscape:connector-curvature="0"
             style="stroke:none"
             d="m 0.875,-0.59375 c -0.03125,0.15625 -0.09375,0.390625 -0.09375,0.4375 0,0.171875 0.140625,0.265625 0.296875,0.265625 0.125,0 0.296875,-0.078125 0.375,-0.28125 0,-0.015625 0.125,-0.484375 0.1875,-0.734375 l 0.21875,-0.890625 C 1.90625,-2.03125 1.96875,-2.25 2.03125,-2.46875 c 0.03125,-0.171875 0.109375,-0.46875 0.125,-0.5 0.140625,-0.3125 0.671875,-1.21875 1.625,-1.21875 0.453125,0 0.53125,0.375 0.53125,0.703125 0,0.609375 -0.484375,1.890625 -0.640625,2.3125 C 3.578125,-0.9375 3.5625,-0.8125 3.5625,-0.703125 c 0,0.46875 0.359375,0.8125 0.828125,0.8125 0.9375,0 1.296875,-1.453125 1.296875,-1.53125 0,-0.109375 -0.078125,-0.109375 -0.109375,-0.109375 -0.109375,0 -0.109375,0.03125 -0.15625,0.1875 -0.203125,0.671875 -0.53125,1.234375 -1.015625,1.234375 -0.171875,0 -0.234375,-0.09375 -0.234375,-0.328125 0,-0.25 0.078125,-0.484375 0.171875,-0.703125 0.1875,-0.53125 0.609375,-1.625 0.609375,-2.203125 0,-0.65625 -0.421875,-1.0625 -1.140625,-1.0625 -0.90625,0 -1.390625,0.640625 -1.5625,0.875 -0.046875,-0.5625 -0.453125,-0.875 -0.921875,-0.875 -0.453125,0 -0.640625,0.390625 -0.734375,0.5625 C 0.421875,-3.5 0.296875,-2.90625 0.296875,-2.875 c 0,0.109375 0.09375,0.109375 0.109375,0.109375 0.109375,0 0.109375,-0.015625 0.171875,-0.234375 0.171875,-0.703125 0.375,-1.1875 0.734375,-1.1875 0.1875,0 0.296875,0.125 0.296875,0.453125 0,0.21875 -0.03125,0.328125 -0.15625,0.84375 z m 0,0"
             id="path4090" />
        </symbol>
        <symbol
           style="overflow:visible"
           overflow="visible"
           id="lx-text819-62-7-glyph4-0">
          <path
             inkscape:connector-curvature="0"
             style="stroke:none"
             d=""
             id="path4093" />
        </symbol>
        <symbol
           style="overflow:visible"
           overflow="visible"
           id="lx-text819-62-7-glyph4-1">
          <path
             inkscape:connector-curvature="0"
             style="stroke:none"
             d="M 2.75,-3.578125 C 2.75,-4 2.40625,-4.34375 2,-4.34375 c -0.421875,0 -0.765625,0.34375 -0.765625,0.765625 0,0.40625 0.34375,0.75 0.765625,0.75 0.40625,0 0.75,-0.34375 0.75,-0.75 z m 0,0"
             id="path4096" />
        </symbol>
      </g>
    </defs>
  </defs>
  <metadata
     id="metadata5">
    <rdf:RDF>
      <cc:Work
         rdf:about="">
        <dc:format>image/svg+xml</dc:format>
        <dc:type
           rdf:resource="http://purl.org/dc/dcmitype/StillImage" />
        <dc:title></dc:title>
      </cc:Work>
    </rdf:RDF>
  </metadata>
  <g
     style="display:inline"
     transform="translate(-90.081277,-28.599812)"
     id="layer1"
     inkscape:groupmode="layer"
     inkscape:label="boxes" />
  <g
     style="display:inline"
     inkscape:label="text"
     id="layer2"
     inkscape:groupmode="layer"
     transform="translate(-90.081277,58.400188)">
    <path
       sodipodi:type="star"
       style="display:inline;fill:#a2a2a2;fill-opacity:1;stroke:none;stroke-width:0.3577432;stroke-miterlimit:4;stroke-dasharray:none;stroke-dashoffset:0;stroke-opacity:1"
       id="path10261-9-5"
       sodipodi:sides="3"
       sodipodi:cx="77.975883"
       sodipodi:cy="64.60537"
       sodipodi:r1="3.8870547"
       sodipodi:r2="1.9435273"
       sodipodi:arg1="-1.5707963"
       sodipodi:arg2="-0.52359878"
       inkscape:flatsided="true"
       inkscape:rounded="0"
       inkscape:randomized="0"
       d="m 77.975884,60.718315 3.366288,5.830582 -6.732577,0 z"
       inkscape:transform-center-y="1.8473579"
       transform="matrix(-1.1509367,0,0,-1.9010379,364.83954,106.10912)"
       inkscape:transform-center-x="1.0522014e-05" />
    <path
       sodipodi:type="star"
       style="display:inline;fill:#a2a2a2;fill-opacity:1;stroke:none;stroke-width:0.3577432;stroke-miterlimit:4;stroke-dasharray:none;stroke-dashoffset:0;stroke-opacity:1"
       id="path10261-9-5-2"
       sodipodi:sides="3"
       sodipodi:cx="77.975883"
       sodipodi:cy="64.60537"
       sodipodi:r1="3.8870547"
       sodipodi:r2="1.9435273"
       sodipodi:arg1="-1.5707963"
       sodipodi:arg2="-0.52359878"
       inkscape:flatsided="true"
       inkscape:rounded="0"
       inkscape:randomized="0"
       d="m 77.975884,60.718315 3.366288,5.830582 -6.732577,0 z"
       inkscape:transform-center-y="1.8473579"
       transform="matrix(-1.1509367,0,0,-1.9010379,364.83954,150.1906)"
       inkscape:transform-center-x="1.0522014e-05" />
    <ellipse
       style="fill:none;fill-opacity:1;stroke:#a2a2a2;stroke-width:2.5135417;stroke-miterlimit:4;stroke-dasharray:none;stroke-dashoffset:0;stroke-opacity:1"
       id="path2765"
       cx="275.0751"
       cy="100.38809"
       rx="175.06152"
       ry="48.309608" />
    <path
       sodipodi:type="star"
       style="display:inline;fill:#a2a2a2;fill-opacity:1;stroke:none;stroke-width:0.25880167;stroke-miterlimit:4;stroke-dasharray:none;stroke-dashoffset:0;stroke-opacity:1"
       id="path10261-1-0-2"
       sodipodi:sides="3"
       sodipodi:cx="77.975883"
       sodipodi:cy="64.60537"
       sodipodi:r1="3.8870547"
       sodipodi:r2="1.9435273"
       sodipodi:arg1="-1.5707963"
       sodipodi:arg2="-0.52359878"
       inkscape:flatsided="true"
       inkscape:rounded="0"
       inkscape:randomized="0"
       d="m 77.975884,60.718315 3.366288,5.830582 -6.732577,0 z"
       inkscape:transform-center-y="-0.80868715"
       transform="matrix(-0.25191159,-1.5708766,2.5946655,-0.41609021,61.084274,204.89118)"
       inkscape:transform-center-x="2.0974169" />
    <path
       sodipodi:type="star"
       style="display:inline;fill:#a2a2a2;fill-opacity:1;stroke:none;stroke-width:0.25880167;stroke-miterlimit:4;stroke-dasharray:none;stroke-dashoffset:0;stroke-opacity:1"
       id="path10261-1-0-2-9"
       sodipodi:sides="3"
       sodipodi:cx="77.975883"
       sodipodi:cy="64.60537"
       sodipodi:r1="3.8870547"
       sodipodi:r2="1.9435273"
       sodipodi:arg1="-1.5707963"
       sodipodi:arg2="-0.52359878"
       inkscape:flatsided="true"
       inkscape:rounded="0"
       inkscape:randomized="0"
       d="m 77.975884,60.718315 3.366288,5.830582 -6.732577,0 z"
       inkscape:transform-center-y="0.65422043"
       transform="matrix(-1.3273275,0.87710584,-1.4487429,-2.1923877,299.46122,180.12533)"
       inkscape:transform-center-x="0.82624597" />
    <path
       sodipodi:type="star"
       style="display:inline;fill:#a2a2a2;fill-opacity:1;stroke:none;stroke-width:0.25880167;stroke-miterlimit:4;stroke-dasharray:none;stroke-dashoffset:0;stroke-opacity:1"
       id="path10261-1-0-2-3"
       sodipodi:sides="3"
       sodipodi:cx="77.975883"
       sodipodi:cy="64.60537"
       sodipodi:r1="3.8870547"
       sodipodi:r2="1.9435273"
       sodipodi:arg1="-1.5707963"
       sodipodi:arg2="-0.52359878"
       inkscape:flatsided="true"
       inkscape:rounded="0"
       inkscape:randomized="0"
       d="m 77.975884,60.718315 3.366288,5.830582 -6.732577,0 z"
       inkscape:transform-center-y="-0.51392086"
       transform="matrix(-0.16009333,1.5828717,-2.6144782,-0.26443107,391.8535,39.038967)"
       inkscape:transform-center-x="-2.2712121" />
    <path
       sodipodi:type="star"
       style="display:inline;fill:#a2a2a2;fill-opacity:1;stroke:none;stroke-width:0.25880167;stroke-miterlimit:4;stroke-dasharray:none;stroke-dashoffset:0;stroke-opacity:1"
       id="path10261-1-0-2-1"
       sodipodi:sides="3"
       sodipodi:cx="77.975883"
       sodipodi:cy="64.60537"
       sodipodi:r1="3.8870547"
       sodipodi:r2="1.9435273"
       sodipodi:arg1="-1.5707963"
       sodipodi:arg2="-0.52359878"
       inkscape:flatsided="true"
       inkscape:rounded="0"
       inkscape:randomized="0"
       d="m 77.975884,60.718315 3.366288,5.830582 -6.732577,0 z"
       inkscape:transform-center-y="0.79749174"
       transform="matrix(0.24842512,1.5714317,-2.5955824,0.4103315,489.20568,-3.6622812)"
       inkscape:transform-center-x="-2.1041822" />
    <path
       sodipodi:type="star"
       style="display:inline;fill:#a2a2a2;fill-opacity:1;stroke:none;stroke-width:0.25880167;stroke-miterlimit:4;stroke-dasharray:none;stroke-dashoffset:0;stroke-opacity:1"
       id="path10261-1-0-2-94"
       sodipodi:sides="3"
       sodipodi:cx="77.975883"
       sodipodi:cy="64.60537"
       sodipodi:r1="3.8870547"
       sodipodi:r2="1.9435273"
       sodipodi:arg1="-1.5707963"
       sodipodi:arg2="-0.52359878"
       inkscape:flatsided="true"
       inkscape:rounded="0"
       inkscape:randomized="0"
       d="m 77.975884,60.718315 3.366288,5.830582 -6.732577,0 z"
       inkscape:transform-center-y="-0.92737987"
       transform="matrix(1.3897778,-0.77435821,1.2790315,2.2955389,258.27535,8.0240988)"
       inkscape:transform-center-x="-1.0962812" />
    <path
       sodipodi:type="star"
       style="display:inline;fill:#a2a2a2;fill-opacity:1;stroke:none;stroke-width:0.25880167;stroke-miterlimit:4;stroke-dasharray:none;stroke-dashoffset:0;stroke-opacity:1"
       id="path10261-1-0-2-7"
       sodipodi:sides="3"
       sodipodi:cx="77.975883"
       sodipodi:cy="64.60537"
       sodipodi:r1="3.8870547"
       sodipodi:r2="1.9435273"
       sodipodi:arg1="-1.5707963"
       sodipodi:arg2="-0.52359878"
       inkscape:flatsided="true"
       inkscape:rounded="0"
       inkscape:randomized="0"
       d="m 77.975884,60.718315 3.366288,5.830582 -6.732577,0 z"
       inkscape:transform-center-y="0.71109897"
       transform="matrix(0.22151686,-1.5754501,2.6022197,0.36588622,153.8943,154.78743)"
       inkscape:transform-center-x="2.1559127" />
    <rect
       style="fill:#e6e6e6;fill-opacity:1;stroke:#000000;stroke-width:1.05833328;stroke-miterlimit:4;stroke-dasharray:none;stroke-dashoffset:0;stroke-opacity:1"
       id="rect1255"
       width="90.336304"
       height="31.938988"
       x="229.92609"
       y="-52.871021" />
    <rect
       style="display:inline;fill:#e6e6e6;fill-opacity:1;stroke:#000000;stroke-width:1.05833328;stroke-miterlimit:4;stroke-dasharray:none;stroke-dashoffset:0;stroke-opacity:1"
       id="rect1255-6"
       width="90.336304"
       height="31.938988"
       x="229.92609"
       y="-8.7895355" />
    <rect
       style="display:inline;fill:#e6e6e6;fill-opacity:1;stroke:#000000;stroke-width:1.05833328;stroke-miterlimit:4;stroke-dasharray:none;stroke-dashoffset:0;stroke-opacity:1"
       id="rect1255-6-7"
       width="90.336304"
       height="31.938988"
       x="229.92609"
       y="35.291946" />
    <rect
       style="display:inline;fill:#e6e6e6;fill-opacity:1;stroke:#000000;stroke-width:1.05833328;stroke-miterlimit:4;stroke-dasharray:none;stroke-dashoffset:0;stroke-opacity:1"
       id="rect1255-6-6"
       width="90.336304"
       height="31.938988"
       x="100.01358"
       y="52.07848" />
    <rect
       style="display:inline;fill:#e6e6e6;fill-opacity:1;stroke:#000000;stroke-width:1.05833328;stroke-miterlimit:4;stroke-dasharray:none;stroke-dashoffset:0;stroke-opacity:1"
       id="rect1255-6-1"
       width="90.336304"
       height="31.938988"
       x="100.01358"
       y="116.75871" />
    <rect
       style="display:inline;fill:#e6e6e6;fill-opacity:1;stroke:#000000;stroke-width:1.05833328;stroke-miterlimit:4;stroke-dasharray:none;stroke-dashoffset:0;stroke-opacity:1"
       id="rect1255-6-2"
       width="90.336304"
       height="31.938988"
       x="229.90698"
       y="133.25739" />
    <rect
       style="display:inline;fill:#e6e6e6;fill-opacity:1;stroke:#000000;stroke-width:1.05833328;stroke-miterlimit:4;stroke-dasharray:none;stroke-dashoffset:0;stroke-opacity:1"
       id="rect1255-6-5"
       width="90.336304"
       height="31.938988"
       x="359.80029"
       y="116.75871" />
    <rect
       style="display:inline;fill:#e6e6e6;fill-opacity:1;stroke:#000000;stroke-width:1.05833328;stroke-miterlimit:4;stroke-dasharray:none;stroke-dashoffset:0;stroke-opacity:1"
       id="rect1255-6-8"
       width="90.336304"
       height="31.938988"
       x="359.80029"
       y="52.07848" />
    <text
       xml:space="preserve"
       style="font-style:normal;font-weight:normal;font-size:4.93888855px;line-height:1.25;font-family:sans-serif;letter-spacing:0px;word-spacing:0px;fill:#000000;fill-opacity:1;stroke:none;stroke-width:0.26458332"
       x="275.03647"
       y="-40.937298"
       id="text1236"><tspan
         sodipodi:role="line"
         id="tspan1234"
         x="275.03647"
         y="-40.937298"
         style="font-style:normal;font-variant:normal;font-weight:normal;font-stretch:normal;font-size:11.28888893px;font-family:serif;-inkscape-font-specification:serif;text-align:center;text-anchor:middle;stroke-width:0.26458332">Define Search</tspan><tspan
         sodipodi:role="line"
         x="275.03647"
         y="-26.826187"
         style="font-style:normal;font-variant:normal;font-weight:normal;font-stretch:normal;font-size:11.28888893px;font-family:serif;-inkscape-font-specification:serif;text-align:center;text-anchor:middle;stroke-width:0.26458332"
         id="tspan1238">Space</tspan></text>
    <text
       xml:space="preserve"
       style="font-style:normal;font-weight:normal;font-size:4.93888855px;line-height:1.25;font-family:sans-serif;letter-spacing:0px;word-spacing:0px;display:inline;fill:#000000;fill-opacity:1;stroke:none;stroke-width:0.26458332"
       x="275.03647"
       y="3.1441844"
       id="text1236-2"><tspan
         sodipodi:role="line"
         x="275.03647"
         y="3.1441844"
         style="font-style:normal;font-variant:normal;font-weight:normal;font-stretch:normal;font-size:11.28888893px;font-family:serif;-inkscape-font-specification:serif;text-align:center;text-anchor:middle;stroke-width:0.26458332"
         id="tspan1238-1">Select</tspan><tspan
         sodipodi:role="line"
         x="275.03647"
         y="17.255295"
         style="font-style:normal;font-variant:normal;font-weight:normal;font-stretch:normal;font-size:11.28888893px;font-family:serif;-inkscape-font-specification:serif;text-align:center;text-anchor:middle;stroke-width:0.26458332"
         id="tspan2735">Model</tspan></text>
    <text
       xml:space="preserve"
       style="font-style:normal;font-weight:normal;font-size:4.93888855px;line-height:1.25;font-family:sans-serif;letter-spacing:0px;word-spacing:0px;display:inline;fill:#000000;fill-opacity:1;stroke:none;stroke-width:0.26458332"
       x="275.03647"
       y="47.225666"
       id="text1236-2-0"><tspan
         sodipodi:role="line"
         x="275.03647"
         y="47.225666"
         style="font-style:normal;font-variant:normal;font-weight:normal;font-stretch:normal;font-size:11.28888893px;font-family:serif;-inkscape-font-specification:serif;text-align:center;text-anchor:middle;stroke-width:0.26458332"
         id="tspan2735-3">Generate</tspan><tspan
         sodipodi:role="line"
         x="275.03647"
         y="61.336777"
         style="font-style:normal;font-variant:normal;font-weight:normal;font-stretch:normal;font-size:11.28888893px;font-family:serif;-inkscape-font-specification:serif;text-align:center;text-anchor:middle;stroke-width:0.26458332"
         id="tspan2763">Design</tspan></text>
    <text
       xml:space="preserve"
       style="font-style:normal;font-weight:normal;font-size:4.93888855px;line-height:1.25;font-family:sans-serif;letter-spacing:0px;word-spacing:0px;display:inline;fill:#000000;fill-opacity:1;stroke:none;stroke-width:0.26458332"
       x="145.12396"
       y="64.012199"
       id="text1236-2-06"><tspan
         sodipodi:role="line"
         x="145.12396"
         y="64.012199"
         style="font-style:normal;font-variant:normal;font-weight:normal;font-stretch:normal;font-size:11.28888893px;font-family:serif;-inkscape-font-specification:serif;text-align:center;text-anchor:middle;stroke-width:0.26458332"
         id="tspan2735-6">Run</tspan><tspan
         sodipodi:role="line"
         x="145.12396"
         y="78.123314"
         style="font-style:normal;font-variant:normal;font-weight:normal;font-stretch:normal;font-size:11.28888893px;font-family:serif;-inkscape-font-specification:serif;text-align:center;text-anchor:middle;stroke-width:0.26458332"
         id="tspan2793">Experiments</tspan></text>
    <text
       xml:space="preserve"
       style="font-style:normal;font-weight:normal;font-size:4.93888855px;line-height:1.25;font-family:sans-serif;letter-spacing:0px;word-spacing:0px;display:inline;fill:#000000;fill-opacity:1;stroke:none;stroke-width:0.26458332"
       x="145.33185"
       y="129.90598"
       id="text1236-2-8"><tspan
         sodipodi:role="line"
         x="146.79808"
         y="129.90598"
         style="font-style:normal;font-variant:normal;font-weight:normal;font-stretch:normal;font-size:11.28888893px;font-family:serif;-inkscape-font-specification:serif;text-align:center;text-anchor:middle;stroke-width:0.26458332"
         id="tspan2735-9">Fit Model </tspan><tspan
         sodipodi:role="line"
         x="145.33185"
         y="144.01709"
         style="font-style:normal;font-variant:normal;font-weight:normal;font-stretch:normal;font-size:11.28888893px;font-family:serif;-inkscape-font-specification:serif;text-align:center;text-anchor:middle;stroke-width:0.26458332"
         id="tspan2809">&amp; ANOVA</tspan></text>
    <text
       xml:space="preserve"
       style="font-style:normal;font-weight:normal;font-size:4.93888855px;line-height:1.25;font-family:sans-serif;letter-spacing:0px;word-spacing:0px;display:inline;fill:#000000;fill-opacity:1;stroke:none;stroke-width:0.26458332"
       x="274.98798"
       y="146.40463"
       id="text1236-2-02"><tspan
         sodipodi:role="line"
         x="274.98798"
         y="146.40463"
         style="font-style:normal;font-variant:normal;font-weight:normal;font-stretch:normal;font-size:11.28888893px;font-family:serif;-inkscape-font-specification:serif;text-align:center;text-anchor:middle;stroke-width:0.26458332"
         id="tspan2735-7">Predict</tspan><tspan
         sodipodi:role="line"
         x="274.98798"
         y="160.51575"
         style="font-style:normal;font-variant:normal;font-weight:normal;font-stretch:normal;font-size:11.28888893px;font-family:serif;-inkscape-font-specification:serif;text-align:center;text-anchor:middle;stroke-width:0.26458332"
         id="tspan2825">Best Point</tspan></text>
    <text
       xml:space="preserve"
       style="font-style:normal;font-weight:normal;font-size:4.93888855px;line-height:1.25;font-family:sans-serif;letter-spacing:0px;word-spacing:0px;display:inline;fill:#000000;fill-opacity:1;stroke:none;stroke-width:0.26458332"
       x="404.91064"
       y="128.69241"
       id="text1236-2-9"><tspan
         sodipodi:role="line"
         x="404.91064"
         y="128.69241"
         style="font-style:normal;font-variant:normal;font-weight:normal;font-stretch:normal;font-size:11.28888893px;font-family:serif;-inkscape-font-specification:serif;text-align:center;text-anchor:middle;stroke-width:0.26458332"
         id="tspan2735-2">Fix Relevant</tspan><tspan
         sodipodi:role="line"
         x="404.91064"
         y="142.80353"
         style="font-style:normal;font-variant:normal;font-weight:normal;font-stretch:normal;font-size:11.28888893px;font-family:serif;-inkscape-font-specification:serif;text-align:center;text-anchor:middle;stroke-width:0.26458332"
         id="tspan2841">Factors</tspan></text>
    <text
       xml:space="preserve"
       style="font-style:normal;font-weight:normal;font-size:4.93888855px;line-height:1.25;font-family:sans-serif;letter-spacing:0px;word-spacing:0px;display:inline;fill:#000000;fill-opacity:1;stroke:none;stroke-width:0.26458332"
       x="405.04834"
       y="63.927528"
       id="text1236-2-97"><tspan
         sodipodi:role="line"
         x="405.04834"
         y="63.927528"
         style="font-style:normal;font-variant:normal;font-weight:normal;font-stretch:normal;font-size:11.28888893px;font-family:serif;-inkscape-font-specification:serif;text-align:center;text-anchor:middle;stroke-width:0.26458332"
         id="tspan2857">Update Model</tspan><tspan
         sodipodi:role="line"
         x="405.04834"
         y="78.038643"
         style="font-style:normal;font-variant:normal;font-weight:normal;font-stretch:normal;font-size:11.28888893px;font-family:serif;-inkscape-font-specification:serif;text-align:center;text-anchor:middle;stroke-width:0.26458332"
         id="tspan2861">&amp; Search Space</tspan></text>
  </g>
</svg>
