<svg xmlns="http://www.w3.org/2000/svg" viewBox="0 0 354.33 354.33"><title>Zeichenfläche 1</title><g id="Ebene_2" data-name="Ebene 2"><path d="M208,289.38c-7.42,35-18.29,57.12-30.4,57.12-22.37,0-40.5-75.38-40.5-168.37S155.2,9.76,177.57,9.76s40.5,75.38,40.5,168.37a624.52,624.52,0,0,1-5.13,82.07" style="fill:none;stroke:#ffde00;stroke-miterlimit:10;stroke-width:4px"/><path d="M70.39,152.69c-29.47-25.59-45-47.7-38.63-58.74,11.18-19.37,85.53,2.62,166.06,49.11s136.75,99.89,125.56,119.26-85.53-2.62-166.06-49.11a633.54,633.54,0,0,1-64.57-42.47" style="fill:none;stroke:#ffde00;stroke-miterlimit:10;stroke-width:4px"/><path d="M255.49,97.25c35.71-12,61.65-14.12,67.89-3.3,11.18,19.37-45,72.76-125.56,119.26S42.94,281.69,31.76,262.32s45-72.76,125.56-119.26a628.74,628.74,0,0,1,71.53-35.72" style="fill:none;stroke:#ffde00;stroke-miterlimit:10;stroke-width:4px"/></g><g id="Ebene_3" data-name="Ebene 3"><circle cx="177.57" cy="178.13" r="33.65" style="fill:none;stroke:#1d1d1b;stroke-miterlimit:10;stroke-width:3px"/></g><g id="Ebene_4" data-name="Ebene 4"><circle cx="195.14" cy="185.43" r="11.43" style="fill:#009640;stroke:#1d1d1b;stroke-miterlimit:10"/><circle cx="171.99" cy="163.42" r="11.43" style="fill:#009640;stroke:#1d1d1b;stroke-miterlimit:10"/><circle cx="189.16" cy="167.85" r="11.43" style="fill:#e6332a;stroke:#1d1d1b;stroke-miterlimit:10"/><circle cx="160.56" cy="176.86" r="11.43" style="fill:#e6332a;stroke:#1d1d1b;stroke-miterlimit:10"/><circle cx="165.74" cy="193.42" r="11.43" style="fill:#009640;stroke:#1d1d1b;stroke-miterlimit:10"/><circle cx="183.99" cy="193.98" r="11.43" style="fill:#e6332a;stroke:#1d1d1b;stroke-miterlimit:10"/><circle cx="177.08" cy="179.28" r="11.43" style="fill:#009640;stroke:#1d1d1b;stroke-miterlimit:10"/></g><g id="Ebene_5" data-name="Ebene 5"><circle cx="81.02" cy="161.79" r="8.69" style="fill:#ffde00;stroke:#1d1d1b;stroke-miterlimit:10"/><circle cx="210.84" cy="275.07" r="8.69" style="fill:#ffde00;stroke:#1d1d1b;stroke-miterlimit:10"/><circle cx="242.24" cy="102.66" r="8.69" style="fill:#ffde00;stroke:#1d1d1b;stroke-miterlimit:10"/></g><g id="Ebene_6" data-name="Ebene 6"><line x1="192.02" y1="168.73" x2="257.18" y2="146.75" style="fill:none;stroke:#1d1d1b;stroke-miterlimit:10"/><path d="M267.73,149.63a4.63,4.63,0,0,0,.06.83,1.3,1.3,0,0,0,.18.49.8.8,0,0,0,.32.28,3,3,0,0,0,.63.2v.43h-3.86v-.43a1.8,1.8,0,0,0,.73-.31.85.85,0,0,0,.24-.49,6.07,6.07,0,0,0,.06-1v-7.6a6.28,6.28,0,0,0,0-.88,1.09,1.09,0,0,0-.15-.43.74.74,0,0,0-.27-.25,3,3,0,0,0-.57-.21v-.43h4.36a4.94,4.94,0,0,1,3.06.79,2.85,2.85,0,0,1,1,2.4,4.09,4.09,0,0,1-.32,1.64,3.07,3.07,0,0,1-.9,1.2,3.57,3.57,0,0,1-1.37.67,6.68,6.68,0,0,1-1.66.2q-1,0-1.51,0Zm0-3.65h1a4.45,4.45,0,0,0,1.64-.26,1.94,1.94,0,0,0,1-.86,3.21,3.21,0,0,0,.34-1.6,3.42,3.42,0,0,0-.2-1.26,2,2,0,0,0-1.41-1.25,4.27,4.27,0,0,0-1.07-.13q-.87,0-1.31,0Z" style="fill:#1d1d1b"/><path d="M277.45,144.91l.12,0a6.69,6.69,0,0,1,.9-.93,3.23,3.23,0,0,1,.89-.52,3,3,0,0,1,1.08-.18,7.33,7.33,0,0,1,.92.05v2h-1a2.06,2.06,0,0,0-.45-.69.93.93,0,0,0-.65-.22,1.23,1.23,0,0,0-.63.18,2.36,2.36,0,0,0-.6.54,2.29,2.29,0,0,0-.4.66,2.2,2.2,0,0,0-.11.73v3.08a4.2,4.2,0,0,0,.1,1.1.77.77,0,0,0,.32.44,1.92,1.92,0,0,0,.67.22v.43h-3.54v-.43a3,3,0,0,0,.48-.18.78.78,0,0,0,.25-.22,1,1,0,0,0,.16-.43,5.57,5.57,0,0,0,.05-.91v-3.83q0-.56,0-.91a1.37,1.37,0,0,0-.12-.55.67.67,0,0,0-.32-.31,2.56,2.56,0,0,0-.61-.17v-.46l2.06-.09h.54Z" style="fill:#1d1d1b"/><path d="M286.08,152a3.55,3.55,0,0,1-2.79-1.08,4.65,4.65,0,0,1-1-3.19,5.42,5.42,0,0,1,.5-2.45,3.4,3.4,0,0,1,1.38-1.49,4.06,4.06,0,0,1,2-.49,3.6,3.6,0,0,1,2.85,1.09,4.6,4.6,0,0,1,1,3.14,5.63,5.63,0,0,1-.48,2.46,3.3,3.3,0,0,1-1.37,1.5A4.24,4.24,0,0,1,286.08,152ZM284,147.55a5.5,5.5,0,0,0,.58,2.78,1.81,1.81,0,0,0,1.65,1,1.72,1.72,0,0,0,1-.29,2.16,2.16,0,0,0,.67-.77,3.79,3.79,0,0,0,.37-1.12,7.53,7.53,0,0,0,.11-1.33,6.82,6.82,0,0,0-.29-2.14,2.65,2.65,0,0,0-.78-1.25,1.73,1.73,0,0,0-1.12-.4,1.81,1.81,0,0,0-1.63.92A5.06,5.06,0,0,0,284,147.55Z" style="fill:#1d1d1b"/><path d="M291.28,143.89a1.85,1.85,0,0,0,.71-.25,1.27,1.27,0,0,0,.43-.45,2.52,2.52,0,0,0,.24-.69q.09-.42.18-1.22h1.25v2.17h2.84v.89h-2.84v3.91a10.33,10.33,0,0,0,.07,1.36,1.87,1.87,0,0,0,.26.79,1.18,1.18,0,0,0,.44.41,1.42,1.42,0,0,0,.63.12,1.53,1.53,0,0,0,.66-.15,2.47,2.47,0,0,0,.61-.42l.4.47a4.72,4.72,0,0,1-1.18.88,2.6,2.6,0,0,1-1.16.27,2.06,2.06,0,0,1-1.69-.67,3.28,3.28,0,0,1-.55-2.1v-4.88h-1.3Z" style="fill:#1d1d1b"/><path d="M301.56,152a3.55,3.55,0,0,1-2.79-1.08,4.65,4.65,0,0,1-1-3.19,5.42,5.42,0,0,1,.5-2.45,3.4,3.4,0,0,1,1.38-1.49,4.06,4.06,0,0,1,2-.49,3.6,3.6,0,0,1,2.85,1.09,4.6,4.6,0,0,1,1,3.14A5.63,5.63,0,0,1,305,150a3.3,3.3,0,0,1-1.37,1.5A4.24,4.24,0,0,1,301.56,152Zm-2.09-4.45a5.5,5.5,0,0,0,.58,2.78,1.81,1.81,0,0,0,1.65,1,1.72,1.72,0,0,0,1-.29,2.16,2.16,0,0,0,.67-.77,3.79,3.79,0,0,0,.37-1.12,7.53,7.53,0,0,0,.11-1.33,6.82,6.82,0,0,0-.29-2.14,2.65,2.65,0,0,0-.78-1.25,1.73,1.73,0,0,0-1.12-.4,1.81,1.81,0,0,0-1.63.92A5.06,5.06,0,0,0,299.47,147.55Z" style="fill:#1d1d1b"/><path d="M315.85,151.85h-3.46v-.43a3.1,3.1,0,0,0,.49-.18.71.71,0,0,0,.25-.22,1.1,1.1,0,0,0,.16-.44,5,5,0,0,0,.06-.89v-2.3q0-.62,0-1.12a4.74,4.74,0,0,0-.12-.82,1.7,1.7,0,0,0-.2-.5,1.25,1.25,0,0,0-.28-.31,1.29,1.29,0,0,0-.37-.2,1.69,1.69,0,0,0-.55-.07,1.59,1.59,0,0,0-.65.14,2.66,2.66,0,0,0-.68.47,2.39,2.39,0,0,0-.54.66,1.61,1.61,0,0,0-.17.75v3.28a5.24,5.24,0,0,0,.07,1.05.78.78,0,0,0,.27.45,1.83,1.83,0,0,0,.65.27v.43h-3.45v-.43a3,3,0,0,0,.49-.18A.75.75,0,0,0,308,151a1.16,1.16,0,0,0,.16-.43,5.26,5.26,0,0,0,.06-.91v-3.83q0-.56,0-.91a1.37,1.37,0,0,0-.12-.55.67.67,0,0,0-.32-.31,2.56,2.56,0,0,0-.61-.17v-.47l2.06-.08h.54l-.1,1.43.12,0a8.41,8.41,0,0,1,1.05-.94,3.59,3.59,0,0,1,.81-.44,2.43,2.43,0,0,1,.87-.15,3,3,0,0,1,.85.11,1.91,1.91,0,0,1,.66.34,1.86,1.86,0,0,1,.47.57,2.79,2.79,0,0,1,.28.81,6.4,6.4,0,0,1,.09,1.2v3.31a7.7,7.7,0,0,0,0,.88,1.13,1.13,0,0,0,.12.42.72.72,0,0,0,.25.25,2.53,2.53,0,0,0,.58.22Z" style="fill:#1d1d1b"/><line x1="200.31" y1="187.13" x2="257.18" y2="223.17" style="fill:none;stroke:#1d1d1b;stroke-miterlimit:10"/><path d="M272.12,226.54q.32.53.53.92t.44.89h.11q0-.54-.08-2.13t0-2.88v-1.85a8,8,0,0,0,0-.89,1.07,1.07,0,0,0-.13-.43.7.7,0,0,0-.25-.24,2.87,2.87,0,0,0-.57-.21v-.43h3.16v.43a2.79,2.79,0,0,0-.56.19.75.75,0,0,0-.26.23,1.06,1.06,0,0,0-.15.42,5.63,5.63,0,0,0-.05.92v9.85h-1.1l-4.9-8.21q-.46-.76-.65-1.12t-.36-.69h-.15q.06.68.09,2.45t0,3.53v1.79a6.46,6.46,0,0,0,0,.86,1.21,1.21,0,0,0,.13.43.74.74,0,0,0,.27.26,2.45,2.45,0,0,0,.58.21v.43H265v-.43a1.8,1.8,0,0,0,.73-.31.85.85,0,0,0,.24-.49,6.07,6.07,0,0,0,.06-1v-7.6a6.28,6.28,0,0,0,0-.88,1.09,1.09,0,0,0-.15-.43.74.74,0,0,0-.27-.25,3,3,0,0,0-.57-.21v-.43h2.75Z" style="fill:#1d1d1b"/><path d="M284.13,229.8a7.37,7.37,0,0,1-1,.92,3.92,3.92,0,0,1-1,.52,3.87,3.87,0,0,1-1.24.19,3.39,3.39,0,0,1-2.73-1.09,4.83,4.83,0,0,1-.92-3.2,5.37,5.37,0,0,1,.47-2.31,3.55,3.55,0,0,1,1.34-1.55,4.06,4.06,0,0,1,3.52-.26,2.55,2.55,0,0,1,1,.77,3.62,3.62,0,0,1,.58,1.23,8.17,8.17,0,0,1,.23,1.94h-5.54v.16a5.67,5.67,0,0,0,.23,1.74,2.2,2.2,0,0,0,.77,1.11,2.24,2.24,0,0,0,1.38.4,3,3,0,0,0,1.3-.27,3.83,3.83,0,0,0,1.15-.87Zm-1.48-3.57a6.69,6.69,0,0,0-.24-1.55,1.94,1.94,0,0,0-.55-.92,1.42,1.42,0,0,0-1-.32,1.71,1.71,0,0,0-1.45.72,3.89,3.89,0,0,0-.64,2.07Z" style="fill:#1d1d1b"/><path d="M285.67,222.89h2.5v4.47a11.54,11.54,0,0,0,.08,1.56,2.34,2.34,0,0,0,.24.81,1.34,1.34,0,0,0,.45.46,1.48,1.48,0,0,0,.8.18,1.61,1.61,0,0,0,.64-.13,2.73,2.73,0,0,0,.69-.46,2.23,2.23,0,0,0,.54-.65,1.68,1.68,0,0,0,.16-.76v-3.3q0-.5,0-.76a1.56,1.56,0,0,0-.09-.41.86.86,0,0,0-.15-.25.78.78,0,0,0-.24-.18,2.6,2.6,0,0,0-.5-.17v-.43h2.5v6q0,.68,0,1a1.34,1.34,0,0,0,.11.47.69.69,0,0,0,.27.29,2.32,2.32,0,0,0,.66.21v.46l-2,.09h-.54l.05-1.44-.13,0a5.8,5.8,0,0,1-1.39,1.16,2.71,2.71,0,0,1-1.33.37,2.5,2.5,0,0,1-1.32-.32,1.91,1.91,0,0,1-.77-.95,4.87,4.87,0,0,1-.25-1.77v-3.32a6.05,6.05,0,0,0-.06-1,.85.85,0,0,0-.22-.44,1.66,1.66,0,0,0-.71-.3Z" style="fill:#1d1d1b"/><path d="M295.3,223.33a1.85,1.85,0,0,0,.71-.25,1.25,1.25,0,0,0,.43-.45,2.46,2.46,0,0,0,.24-.69q.09-.42.18-1.22h1.25v2.17h2.84v.89h-2.84v3.91a10.32,10.32,0,0,0,.07,1.36,1.87,1.87,0,0,0,.26.79,1.18,1.18,0,0,0,.44.41,1.42,1.42,0,0,0,.63.12,1.53,1.53,0,0,0,.66-.15,2.47,2.47,0,0,0,.61-.42l.4.47a4.75,4.75,0,0,1-1.18.88,2.61,2.61,0,0,1-1.16.27,2.06,2.06,0,0,1-1.69-.67,3.28,3.28,0,0,1-.55-2.1v-4.88h-1.3Z" style="fill:#1d1d1b"/><path d="M304.29,224.35l.12,0a6.7,6.7,0,0,1,.9-.93,3.23,3.23,0,0,1,.89-.52,3,3,0,0,1,1.08-.18,7.33,7.33,0,0,1,.92.05v2h-1a2.06,2.06,0,0,0-.45-.69.93.93,0,0,0-.65-.21,1.23,1.23,0,0,0-.63.18,2.36,2.36,0,0,0-.6.54,2.29,2.29,0,0,0-.4.66,2.2,2.2,0,0,0-.11.73v3.08a4.19,4.19,0,0,0,.1,1.1.78.78,0,0,0,.32.44,1.92,1.92,0,0,0,.67.22v.43h-3.54v-.43a3,3,0,0,0,.48-.18.78.78,0,0,0,.25-.22,1,1,0,0,0,.16-.43,5.57,5.57,0,0,0,.05-.91v-3.83q0-.56,0-.91a1.37,1.37,0,0,0-.12-.55.67.67,0,0,0-.32-.31,2.56,2.56,0,0,0-.61-.17v-.46l2.06-.09h.54Z" style="fill:#1d1d1b"/><path d="M312.92,231.43a3.55,3.55,0,0,1-2.79-1.08,4.65,4.65,0,0,1-1-3.19,5.42,5.42,0,0,1,.5-2.45,3.4,3.4,0,0,1,1.38-1.49,4.06,4.06,0,0,1,2-.49,3.6,3.6,0,0,1,2.85,1.09,4.6,4.6,0,0,1,1,3.14,5.63,5.63,0,0,1-.48,2.46,3.3,3.3,0,0,1-1.37,1.5A4.24,4.24,0,0,1,312.92,231.43ZM310.83,227a5.5,5.5,0,0,0,.58,2.78,1.81,1.81,0,0,0,1.65,1,1.72,1.72,0,0,0,1-.29,2.16,2.16,0,0,0,.67-.77,3.79,3.79,0,0,0,.37-1.12,7.53,7.53,0,0,0,.11-1.33,6.82,6.82,0,0,0-.29-2.14,2.65,2.65,0,0,0-.78-1.25,1.73,1.73,0,0,0-1.12-.4,1.81,1.81,0,0,0-1.63.92A5.06,5.06,0,0,0,310.83,227Z" style="fill:#1d1d1b"/><path d="M327.21,231.29h-3.46v-.43a3.1,3.1,0,0,0,.49-.18.71.71,0,0,0,.25-.22,1.1,1.1,0,0,0,.16-.44,5,5,0,0,0,.06-.89v-2.3q0-.62,0-1.12a4.75,4.75,0,0,0-.12-.82,1.7,1.7,0,0,0-.2-.5,1.25,1.25,0,0,0-.28-.31,1.29,1.29,0,0,0-.37-.2,1.7,1.7,0,0,0-.55-.07,1.59,1.59,0,0,0-.65.14,2.66,2.66,0,0,0-.68.47,2.39,2.39,0,0,0-.54.66,1.61,1.61,0,0,0-.17.75v3.28a5.24,5.24,0,0,0,.07,1,.78.78,0,0,0,.27.45,1.83,1.83,0,0,0,.65.27v.43h-3.45v-.43a3,3,0,0,0,.49-.18.75.75,0,0,0,.25-.22,1.16,1.16,0,0,0,.16-.43,5.26,5.26,0,0,0,.06-.91v-3.83q0-.56,0-.91a1.37,1.37,0,0,0-.12-.55.67.67,0,0,0-.32-.31,2.56,2.56,0,0,0-.61-.17v-.47l2.06-.08h.54l-.1,1.43.12,0a8.41,8.41,0,0,1,1.05-.94,3.59,3.59,0,0,1,.81-.44,2.43,2.43,0,0,1,.87-.15,3,3,0,0,1,.85.11,1.91,1.91,0,0,1,.66.34,1.86,1.86,0,0,1,.47.57,2.79,2.79,0,0,1,.28.81,6.4,6.4,0,0,1,.09,1.2v3.31a7.7,7.7,0,0,0,0,.88,1.13,1.13,0,0,0,.12.42.72.72,0,0,0,.25.25,2.52,2.52,0,0,0,.58.22Z" style="fill:#1d1d1b"/><line x1="211.12" y1="275.36" x2="257.18" y2="275.36" style="fill:none;stroke:#1d1d1b;stroke-miterlimit:10"/><path d="M31,206.38q.32.53.53.92t.44.89h.11q0-.54-.08-2.13t0-2.88v-1.85a8,8,0,0,0,0-.89,1.09,1.09,0,0,0-.13-.43.7.7,0,0,0-.25-.24,2.84,2.84,0,0,0-.57-.21v-.43h3.16v.43a2.83,2.83,0,0,0-.56.19.77.77,0,0,0-.26.23,1.07,1.07,0,0,0-.15.42,5.63,5.63,0,0,0-.05.92v9.85H32L27.14,203q-.46-.76-.65-1.12t-.36-.69H26q.06.68.09,2.45t0,3.53v1.79a6.66,6.66,0,0,0,0,.86,1.21,1.21,0,0,0,.13.43.74.74,0,0,0,.27.26,2.47,2.47,0,0,0,.58.21v.43H23.91v-.43a1.8,1.8,0,0,0,.73-.31.85.85,0,0,0,.24-.49,5.94,5.94,0,0,0,.06-1v-7.6a6.28,6.28,0,0,0,0-.88,1.1,1.1,0,0,0-.15-.43.75.75,0,0,0-.27-.25,3,3,0,0,0-.57-.21v-.43h2.75Z" style="fill:#1d1d1b"/><path d="M35.78,202.73h2.5v4.47a11.54,11.54,0,0,0,.08,1.56,2.34,2.34,0,0,0,.24.81A1.34,1.34,0,0,0,39,210a1.48,1.48,0,0,0,.8.18,1.61,1.61,0,0,0,.64-.13,2.73,2.73,0,0,0,.69-.46,2.21,2.21,0,0,0,.54-.65,1.67,1.67,0,0,0,.16-.76v-3.3q0-.5,0-.76a1.56,1.56,0,0,0-.09-.41.88.88,0,0,0-.15-.25.78.78,0,0,0-.24-.18,2.57,2.57,0,0,0-.5-.17v-.43h2.5v6q0,.68,0,1a1.34,1.34,0,0,0,.11.47.69.69,0,0,0,.27.29,2.32,2.32,0,0,0,.66.21v.46l-2,.09h-.54l.05-1.44-.13,0a5.82,5.82,0,0,1-1.39,1.16,2.72,2.72,0,0,1-1.33.37,2.5,2.5,0,0,1-1.32-.32A1.91,1.91,0,0,1,37,210a4.87,4.87,0,0,1-.25-1.77v-3.32a5.93,5.93,0,0,0-.06-1,.85.85,0,0,0-.22-.44,1.67,1.67,0,0,0-.71-.3Z" style="fill:#1d1d1b"/><path d="M52.47,202.93v1.84H51.36a3,3,0,0,0-.37-.9,1.24,1.24,0,0,0-.51-.46,1.74,1.74,0,0,0-.72-.13,1.65,1.65,0,0,0-1.09.4,2.64,2.64,0,0,0-.75,1.2,6.15,6.15,0,0,0-.28,2,8.17,8.17,0,0,0,.11,1.37,3.16,3.16,0,0,0,.36,1.06,1.85,1.85,0,0,0,.68.69,2,2,0,0,0,1,.25A2.7,2.7,0,0,0,51,210a3.59,3.59,0,0,0,1.09-.83l.5.58a6.73,6.73,0,0,1-.79.76,3.7,3.7,0,0,1-.73.45,3.77,3.77,0,0,1-.77.26,3.89,3.89,0,0,1-.83.08,3.06,3.06,0,0,1-2.54-1.1A5,5,0,0,1,46,207a5.19,5.19,0,0,1,.49-2.31,3.65,3.65,0,0,1,1.38-1.55,3.83,3.83,0,0,1,2-.54,9.87,9.87,0,0,1,1.33.08A8.07,8.07,0,0,1,52.47,202.93Z" style="fill:#1d1d1b"/><path d="M56.21,208.94a5.24,5.24,0,0,0,.07,1,.77.77,0,0,0,.27.45,1.82,1.82,0,0,0,.65.27v.43H53.7v-.43a2,2,0,0,0,.61-.24.71.71,0,0,0,.25-.29,1.62,1.62,0,0,0,.11-.47q0-.29,0-.77v-7.36q0-.84,0-1.18a2.9,2.9,0,0,0-.07-.57,1,1,0,0,0-.16-.36.71.71,0,0,0-.27-.21,2.86,2.86,0,0,0-.62-.16v-.46l2.12-.09h.53Z" style="fill:#1d1d1b"/><path d="M65.77,209.64a7.42,7.42,0,0,1-1,.92,3.94,3.94,0,0,1-1,.52,3.87,3.87,0,0,1-1.24.19,3.39,3.39,0,0,1-2.73-1.09,4.83,4.83,0,0,1-.92-3.2,5.38,5.38,0,0,1,.47-2.31,3.56,3.56,0,0,1,1.34-1.55,4.06,4.06,0,0,1,3.52-.26,2.54,2.54,0,0,1,1,.77,3.58,3.58,0,0,1,.58,1.23,8.12,8.12,0,0,1,.23,1.94H60.41V207a5.64,5.64,0,0,0,.23,1.74,2.2,2.2,0,0,0,.76,1.11,2.24,2.24,0,0,0,1.38.4,3,3,0,0,0,1.3-.27,3.84,3.84,0,0,0,1.15-.87Zm-1.48-3.57a6.69,6.69,0,0,0-.24-1.55,1.94,1.94,0,0,0-.55-.92,1.42,1.42,0,0,0-1-.32,1.71,1.71,0,0,0-1.45.72,3.9,3.9,0,0,0-.64,2.07Z" style="fill:#1d1d1b"/><path d="M67.32,202.73h2.5v4.47a11.54,11.54,0,0,0,.08,1.56,2.34,2.34,0,0,0,.24.81,1.34,1.34,0,0,0,.45.46,1.48,1.48,0,0,0,.8.18,1.61,1.61,0,0,0,.64-.13,2.73,2.73,0,0,0,.69-.46,2.21,2.21,0,0,0,.54-.65,1.67,1.67,0,0,0,.16-.76v-3.3q0-.5,0-.76a1.56,1.56,0,0,0-.09-.41.88.88,0,0,0-.15-.25.78.78,0,0,0-.24-.18,2.57,2.57,0,0,0-.5-.17v-.43h2.5v6q0,.68,0,1a1.34,1.34,0,0,0,.11.47.69.69,0,0,0,.27.29,2.32,2.32,0,0,0,.66.21v.46l-2,.09h-.54l.05-1.44-.13,0A5.82,5.82,0,0,1,72,210.91a2.72,2.72,0,0,1-1.33.37,2.5,2.5,0,0,1-1.32-.32,1.91,1.91,0,0,1-.77-.95,4.87,4.87,0,0,1-.25-1.77v-3.32a5.93,5.93,0,0,0-.06-1,.85.85,0,0,0-.22-.44,1.67,1.67,0,0,0-.71-.3Z" style="fill:#1d1d1b"/><path d="M83.36,204.66h-.84a2.65,2.65,0,0,0-.46-.83,1.46,1.46,0,0,0-.6-.43,2.38,2.38,0,0,0-.82-.12,1.76,1.76,0,0,0-1.12.33,1.09,1.09,0,0,0-.42.9,1.23,1.23,0,0,0,.17.67,1.68,1.68,0,0,0,.52.49,9,9,0,0,0,1.24.61,9,9,0,0,1,1.38.71,2.61,2.61,0,0,1,.76.76,1.86,1.86,0,0,1,.28,1,2.6,2.6,0,0,1-.24,1.17,2,2,0,0,1-.67.77,2.87,2.87,0,0,1-1,.43,6,6,0,0,1-1.3.13,9.15,9.15,0,0,1-1.43-.11,13.34,13.34,0,0,1-1.35-.29V209h.86a2.24,2.24,0,0,0,.7,1.17,2,2,0,0,0,1.28.37,2.91,2.91,0,0,0,.62-.07,1.61,1.61,0,0,0,.54-.22,1.11,1.11,0,0,0,.38-.42,1.39,1.39,0,0,0,.14-.66,1.36,1.36,0,0,0-.18-.73,1.69,1.69,0,0,0-.54-.51,10.22,10.22,0,0,0-1.3-.63,8.06,8.06,0,0,1-1.28-.65,2.54,2.54,0,0,1-.76-.75,1.84,1.84,0,0,1-.28-1,2.06,2.06,0,0,1,.39-1.25,2.43,2.43,0,0,1,1.13-.81,4.85,4.85,0,0,1,1.73-.28,10.66,10.66,0,0,1,1.12.06q.54.06,1.36.22Z" style="fill:#1d1d1b"/><line x1="146.13" y1="192.42" x2="88.57" y2="206.55" style="fill:none;stroke:#1d1d1b;stroke-miterlimit:10"/><path d="M273.71,269.93v2.65h-.86a7.31,7.31,0,0,0-.27-.76,3.31,3.31,0,0,0-.29-.54,1.42,1.42,0,0,0-.33-.35,1.07,1.07,0,0,0-.43-.18,3.19,3.19,0,0,0-.59,0h-2.78v4.61H270a1.36,1.36,0,0,0,.61-.11.86.86,0,0,0,.37-.37,3.5,3.5,0,0,0,.28-.83h.83v3.38h-.83a3.19,3.19,0,0,0-.27-.79,1,1,0,0,0-.36-.38,1.32,1.32,0,0,0-.62-.11h-1.88v5.07h2.73a2.69,2.69,0,0,0,.7-.07,1.09,1.09,0,0,0,.46-.26,1.68,1.68,0,0,0,.34-.47,4.08,4.08,0,0,0,.25-.6q.1-.31.28-.91h.87l-.17,3.08h-8.14v-.43a1.81,1.81,0,0,0,.73-.31.86.86,0,0,0,.24-.49,6.07,6.07,0,0,0,.06-1v-7.6a6.29,6.29,0,0,0,0-.88,1.1,1.1,0,0,0-.15-.43.74.74,0,0,0-.27-.25,2.9,2.9,0,0,0-.57-.21v-.43Z" style="fill:#1d1d1b"/><path d="M278,279.73a5.25,5.25,0,0,0,.07,1.05.77.77,0,0,0,.27.45,1.81,1.81,0,0,0,.65.27v.43h-3.49v-.43a2,2,0,0,0,.61-.24.7.7,0,0,0,.25-.29,1.6,1.6,0,0,0,.11-.46,7.69,7.69,0,0,0,0-.77v-7.36q0-.84,0-1.18a2.84,2.84,0,0,0-.07-.57,1,1,0,0,0-.16-.36.71.71,0,0,0-.27-.21,2.89,2.89,0,0,0-.62-.16v-.46l2.12-.09H278Z" style="fill:#1d1d1b"/><path d="M287.54,280.44a7.42,7.42,0,0,1-1,.92,3.82,3.82,0,0,1-2.27.71A3.39,3.39,0,0,1,281.5,281a4.83,4.83,0,0,1-.92-3.2,5.37,5.37,0,0,1,.47-2.31,3.55,3.55,0,0,1,1.34-1.55,4.06,4.06,0,0,1,3.52-.26,2.56,2.56,0,0,1,1,.77,3.64,3.64,0,0,1,.58,1.23,8.18,8.18,0,0,1,.23,1.94h-5.54v.16a5.64,5.64,0,0,0,.23,1.75,2.2,2.2,0,0,0,.77,1.11,2.24,2.24,0,0,0,1.38.4,3,3,0,0,0,1.3-.27,3.83,3.83,0,0,0,1.15-.87Zm-1.48-3.57a6.68,6.68,0,0,0-.24-1.55,2,2,0,0,0-.55-.92,1.43,1.43,0,0,0-1-.32,1.71,1.71,0,0,0-1.45.72,3.9,3.9,0,0,0-.64,2.07Z" style="fill:#1d1d1b"/><path d="M295.85,273.73v1.84h-1.12a3,3,0,0,0-.37-.9,1.23,1.23,0,0,0-.51-.46,1.74,1.74,0,0,0-.72-.13,1.65,1.65,0,0,0-1.09.4,2.63,2.63,0,0,0-.75,1.2,6.12,6.12,0,0,0-.28,2,8.16,8.16,0,0,0,.11,1.37,3.15,3.15,0,0,0,.36,1.06,1.85,1.85,0,0,0,.68.69,2,2,0,0,0,1,.25,2.71,2.71,0,0,0,1.13-.24,3.6,3.6,0,0,0,1.08-.83l.5.58a6.75,6.75,0,0,1-.79.76,3.66,3.66,0,0,1-.73.45,3.7,3.7,0,0,1-.77.26,3.88,3.88,0,0,1-.83.08,3.05,3.05,0,0,1-2.54-1.1,5,5,0,0,1-.88-3.19,5.18,5.18,0,0,1,.49-2.31,3.65,3.65,0,0,1,1.38-1.55,3.83,3.83,0,0,1,2-.54,10,10,0,0,1,1.33.08A8.19,8.19,0,0,1,295.85,273.73Z" style="fill:#1d1d1b"/><path d="M296.71,274a1.85,1.85,0,0,0,.71-.25,1.25,1.25,0,0,0,.43-.45,2.47,2.47,0,0,0,.24-.69q.09-.42.18-1.22h1.25v2.17h2.84v.89h-2.84v3.91a10.31,10.31,0,0,0,.07,1.36,1.86,1.86,0,0,0,.26.79,1.17,1.17,0,0,0,.44.41,1.42,1.42,0,0,0,.63.12,1.51,1.51,0,0,0,.66-.15,2.44,2.44,0,0,0,.61-.42l.4.47a4.75,4.75,0,0,1-1.18.88,2.61,2.61,0,0,1-1.16.27,2.06,2.06,0,0,1-1.69-.67,3.29,3.29,0,0,1-.55-2.11v-4.88h-1.3Z" style="fill:#1d1d1b"/><path d="M305.7,275l.12,0a6.69,6.69,0,0,1,.9-.93,3.24,3.24,0,0,1,.89-.52,3,3,0,0,1,1.09-.18,7.33,7.33,0,0,1,.92.05v2h-1a2.07,2.07,0,0,0-.45-.69.94.94,0,0,0-.65-.21,1.22,1.22,0,0,0-.63.18,2.33,2.33,0,0,0-.6.54,2.24,2.24,0,0,0-.4.66,2.15,2.15,0,0,0-.11.73v3.08a4.21,4.21,0,0,0,.1,1.1.78.78,0,0,0,.32.44,1.94,1.94,0,0,0,.67.22v.43h-3.54v-.43a2.9,2.9,0,0,0,.48-.18.77.77,0,0,0,.25-.22,1,1,0,0,0,.16-.43,5.57,5.57,0,0,0,.05-.91v-3.83q0-.56,0-.91a1.37,1.37,0,0,0-.12-.55.68.68,0,0,0-.32-.31,2.58,2.58,0,0,0-.61-.17v-.46l2.06-.09h.54Z" style="fill:#1d1d1b"/><path d="M314.33,282.07a3.55,3.55,0,0,1-2.79-1.08,4.65,4.65,0,0,1-1-3.19,5.4,5.4,0,0,1,.5-2.45,3.4,3.4,0,0,1,1.38-1.49,4.07,4.07,0,0,1,2-.49,3.6,3.6,0,0,1,2.85,1.09,4.6,4.6,0,0,1,1,3.14,5.63,5.63,0,0,1-.48,2.46,3.31,3.31,0,0,1-1.37,1.5A4.23,4.23,0,0,1,314.33,282.07Zm-2.09-4.45a5.49,5.49,0,0,0,.58,2.78,1.81,1.81,0,0,0,1.65,1,1.71,1.71,0,0,0,1-.29,2.15,2.15,0,0,0,.67-.77,3.79,3.79,0,0,0,.37-1.12,7.54,7.54,0,0,0,.11-1.33,6.84,6.84,0,0,0-.29-2.14,2.65,2.65,0,0,0-.78-1.25,1.73,1.73,0,0,0-1.12-.4,1.81,1.81,0,0,0-1.63.92A5.06,5.06,0,0,0,312.24,277.63Z" style="fill:#1d1d1b"/><path d="M328.62,281.93h-3.46v-.43a3.1,3.1,0,0,0,.49-.18.73.73,0,0,0,.25-.22,1.16,1.16,0,0,0,.16-.43,5.21,5.21,0,0,0,.06-.89v-2.3q0-.62,0-1.12a4.63,4.63,0,0,0-.12-.82,1.75,1.75,0,0,0-.2-.5,1.28,1.28,0,0,0-.66-.51,1.72,1.72,0,0,0-.55-.07,1.59,1.59,0,0,0-.65.14,2.65,2.65,0,0,0-.68.47,2.39,2.39,0,0,0-.54.66,1.61,1.61,0,0,0-.17.75v3.28a5.25,5.25,0,0,0,.07,1.05.76.76,0,0,0,.27.45,1.79,1.79,0,0,0,.65.27v.43h-3.45v-.43a2.86,2.86,0,0,0,.49-.18.72.72,0,0,0,.25-.22,1.13,1.13,0,0,0,.16-.43,5.14,5.14,0,0,0,.06-.91v-3.83q0-.56,0-.91a1.37,1.37,0,0,0-.12-.55.68.68,0,0,0-.32-.31,2.58,2.58,0,0,0-.61-.17v-.47l2.06-.08h.54l-.1,1.43.12,0a8.49,8.49,0,0,1,1-.94,3.65,3.65,0,0,1,.81-.43,2.44,2.44,0,0,1,.87-.15,3.05,3.05,0,0,1,.85.11,1.92,1.92,0,0,1,.66.34,1.86,1.86,0,0,1,.47.57,2.84,2.84,0,0,1,.28.81,6.58,6.58,0,0,1,.09,1.2v3.31a7.7,7.7,0,0,0,0,.88,1.13,1.13,0,0,0,.12.42.71.71,0,0,0,.25.25,2.48,2.48,0,0,0,.58.22Z" style="fill:#1d1d1b"/></g></svg>