<?xml version="1.0" encoding="UTF-8" standalone="no"?>
<!DOCTYPE svg PUBLIC "-//W3C//DTD SVG 1.1//EN" "http://www.w3.org/Graphics/SVG/1.1/DTD/svg11.dtd">
<!-- Generated by graphviz version 2.26.3 (20100126.1600)
 -->
<!-- Title: tmstatediagram Pages: 1 -->
<svg width="354pt" height="152pt" viewBox="0.00 0.00 354.00 152.00" xmlns="http://www.w3.org/2000/svg" xmlns:xlink="http://www.w3.org/1999/xlink">
<g id="graph1" class="graph" transform="scale(1 1) rotate(0) translate(4 148)">
<title>tmstatediagram</title>
<polygon fill="white" stroke="white" points="-4,5 -4,-148 351,-148 351,5 -4,5"/>
<!-- start -->
<g id="node1" class="node"><title>start</title>
<text text-anchor="middle" x="27" y="-87.4" font-family="Times New Roman,serif" font-size="14.00">start</text>
</g>
<!-- A -->
<g id="node3" class="node"><title>A</title>
<ellipse fill="none" stroke="black" cx="110" cy="-92" rx="18" ry="18"/>
<text text-anchor="middle" x="110" y="-87.4" font-family="Times New Roman,serif" font-size="14.00">A</text>
</g>
<!-- start&#45;&gt;A -->
<g id="edge2" class="edge"><title>start-&gt;A</title>
<path fill="none" stroke="black" d="M54.1773,-92C62.9836,-92 72.7705,-92 81.6592,-92"/>
<polygon fill="black" stroke="black" points="81.9295,-95.5001 91.9295,-92 81.9294,-88.5001 81.9295,-95.5001"/>
</g>
<!-- H -->
<g id="node2" class="node"><title>H</title>
<ellipse fill="none" stroke="black" cx="324" cy="-22" rx="18" ry="18"/>
<ellipse fill="none" stroke="black" cx="324" cy="-22" rx="22" ry="22"/>
<text text-anchor="middle" x="324" y="-17.4" font-family="Times New Roman,serif" font-size="14.00">H</text>
</g>
<!-- B -->
<g id="node4" class="node"><title>B</title>
<ellipse fill="none" stroke="black" cx="324" cy="-92" rx="18" ry="18"/>
<text text-anchor="middle" x="324" y="-87.4" font-family="Times New Roman,serif" font-size="14.00">B</text>
</g>
<!-- A&#45;&gt;B -->
<g id="edge4" class="edge"><title>A-&gt;B</title>
<path fill="none" stroke="black" d="M128.246,-92C165.596,-92 251.002,-92 295.64,-92"/>
<polygon fill="black" stroke="black" points="295.801,-95.5001 305.801,-92 295.801,-88.5001 295.801,-95.5001"/>
<text text-anchor="middle" x="214" y="-95.4" font-family="Times New Roman,serif" font-size="14.00">0/P,R</text>
</g>
<!-- C -->
<g id="node5" class="node"><title>C</title>
<ellipse fill="none" stroke="black" cx="214" cy="-38" rx="18" ry="18"/>
<text text-anchor="middle" x="214" y="-33.4" font-family="Times New Roman,serif" font-size="14.00">C</text>
</g>
<!-- A&#45;&gt;C -->
<g id="edge6" class="edge"><title>A-&gt;C</title>
<path fill="none" stroke="black" d="M123.163,-79.0821C129.635,-73.2618 137.796,-66.6648 146,-62 158.709,-54.7734 173.974,-49.1457 186.818,-45.162"/>
<polygon fill="black" stroke="black" points="187.894,-48.4939 196.504,-42.3204 185.923,-41.7769 187.894,-48.4939"/>
<text text-anchor="middle" x="162" y="-65.4" font-family="Times New Roman,serif" font-size="14.00">1/P,L</text>
</g>
<!-- B&#45;&gt;A -->
<g id="edge8" class="edge"><title>B-&gt;A</title>
<path fill="none" stroke="black" d="M307.116,-98.8437C300.074,-101.452 291.744,-104.221 284,-106 224.223,-119.73 205.499,-120.886 146,-106 142.747,-105.186 139.392,-104.156 136.098,-103.026"/>
<polygon fill="black" stroke="black" points="137.157,-99.6847 126.565,-99.447 134.697,-106.238 137.157,-99.6847"/>
<text text-anchor="middle" x="214" y="-119.4" font-family="Times New Roman,serif" font-size="14.00">0/P,L</text>
</g>
<!-- B&#45;&gt;B -->
<g id="edge10" class="edge"><title>B-&gt;B</title>
<path fill="none" stroke="black" d="M314.425,-107.541C311.73,-117.909 314.922,-128 324,-128 329.958,-128 333.38,-123.654 334.267,-117.736"/>
<polygon fill="black" stroke="black" points="337.744,-117.281 333.575,-107.541 330.76,-117.756 337.744,-117.281"/>
<text text-anchor="middle" x="324" y="-131.4" font-family="Times New Roman,serif" font-size="14.00">1/P,R</text>
</g>
<!-- C&#45;&gt;H -->
<g id="edge14" class="edge"><title>C-&gt;H</title>
<path fill="none" stroke="black" d="M230.067,-29.7663C236.148,-27.0658 243.237,-24.4002 250,-23 263.601,-20.1841 278.91,-19.5681 292.06,-19.7961"/>
<polygon fill="black" stroke="black" points="291.957,-23.2945 302.069,-20.134 292.193,-16.2985 291.957,-23.2945"/>
<text text-anchor="middle" x="267" y="-26.4" font-family="Times New Roman,serif" font-size="14.00">1/P,R</text>
</g>
<!-- C&#45;&gt;B -->
<g id="edge12" class="edge"><title>C-&gt;B</title>
<path fill="none" stroke="black" d="M231.597,-42.3793C246.145,-46.3827 267.082,-53.0435 284,-62 290.288,-65.3292 296.651,-69.6021 302.395,-73.873"/>
<polygon fill="black" stroke="black" points="300.247,-76.6368 310.288,-80.0189 304.548,-71.1136 300.247,-76.6368"/>
<text text-anchor="middle" x="267" y="-65.4" font-family="Times New Roman,serif" font-size="14.00">0/P,L</text>
</g>
</g>
</svg>