<?xml version="1.0" encoding="UTF-8" standalone="no"?>
<!-- Created with Inkscape (http://www.inkscape.org/) -->

<svg
   xmlns:dc="http://purl.org/dc/elements/1.1/"
   xmlns:cc="http://creativecommons.org/ns#"
   xmlns:rdf="http://www.w3.org/1999/02/22-rdf-syntax-ns#"
   xmlns:svg="http://www.w3.org/2000/svg"
   xmlns="http://www.w3.org/2000/svg"
   xmlns:sodipodi="http://sodipodi.sourceforge.net/DTD/sodipodi-0.dtd"
   xmlns:inkscape="http://www.inkscape.org/namespaces/inkscape"
   id="svg4136"
   version="1.1"
   inkscape:version="0.91 r13725"
   xml:space="preserve"
   width="493.34576"
   height="546.56372"
   viewBox="0 0 493.34576 546.56372"
   sodipodi:docname="interfaceflow_simple.svg"><metadata
     id="metadata4142"><rdf:RDF><cc:Work
         rdf:about=""><dc:format>image/svg+xml</dc:format><dc:type
           rdf:resource="http://purl.org/dc/dcmitype/StillImage" /><dc:title></dc:title></cc:Work></rdf:RDF></metadata><defs
     id="defs4140"><marker
       inkscape:stockid="Arrow1Mend"
       orient="auto"
       refY="0"
       refX="0"
       id="Arrow1Mend"
       style="overflow:visible"
       inkscape:isstock="true"><path
         id="path4239"
         d="M 0,0 5,-5 -12.5,0 5,5 0,0 Z"
         style="fill:#929292;fill-opacity:1;fill-rule:evenodd;stroke:#929292;stroke-width:1pt;stroke-opacity:1"
         transform="matrix(-0.4,0,0,-0.4,-4,0)"
         inkscape:connector-curvature="0" /></marker><marker
       inkscape:stockid="Arrow1Lstart"
       orient="auto"
       refY="0"
       refX="0"
       id="Arrow1Lstart"
       style="overflow:visible"
       inkscape:isstock="true"><path
         id="path4487"
         d="M 0,0 5,-5 -12.5,0 5,5 0,0 Z"
         style="fill:#000000;fill-opacity:1;fill-rule:evenodd;stroke:#000000;stroke-width:1pt;stroke-opacity:1"
         transform="matrix(0.8,0,0,0.8,10,0)"
         inkscape:connector-curvature="0" /></marker></defs><sodipodi:namedview
     pagecolor="#ffffff"
     bordercolor="#666666"
     borderopacity="1"
     objecttolerance="10"
     gridtolerance="10"
     guidetolerance="10"
     inkscape:pageopacity="0"
     inkscape:pageshadow="2"
     inkscape:window-width="1920"
     inkscape:window-height="1062"
     id="namedview4138"
     showgrid="false"
     inkscape:zoom="0.83120565"
     inkscape:cx="88.986404"
     inkscape:cy="204.33944"
     inkscape:window-x="0"
     inkscape:window-y="18"
     inkscape:window-maximized="0"
     inkscape:current-layer="g4144"
     fit-margin-top="10"
     fit-margin-left="10"
     fit-margin-right="10"
     fit-margin-bottom="10" /><g
     id="g4144"
     inkscape:groupmode="layer"
     inkscape:label="ink_ext_XXXXXX"
     transform="matrix(1.25,0,0,-1.25,9.9996987,537.81521)"><path
       inkscape:connector-curvature="0"
       id="path4148"
       style="fill:none;stroke:#aaaaaa;stroke-width:1.20000005;stroke-linecap:butt;stroke-linejoin:miter;stroke-miterlimit:4;stroke-dasharray:none;stroke-opacity:1"
       d="m 22.5699,345.754 322.6641,0" /><path
       inkscape:connector-curvature="0"
       id="path4150"
       style="fill:none;stroke:#aaaaaa;stroke-width:1.20000005;stroke-linecap:butt;stroke-linejoin:miter;stroke-miterlimit:4;stroke-dasharray:none;stroke-opacity:1"
       d="m 22.1641,243.559 323.0079,0" /><path
       inkscape:connector-curvature="0"
       id="path4152"
       style="fill:none;stroke:#aaaaaa;stroke-width:1.20000005;stroke-linecap:butt;stroke-linejoin:miter;stroke-miterlimit:4;stroke-dasharray:none;stroke-opacity:1"
       d="m 22.0469,110.93 322.9571,0" /><g
       id="g4154"><text
         id="text4156"
         style="font-variant:normal;font-weight:normal;font-size:18px;font-family:'DejaVu Sans Mono';-inkscape-font-specification:DejaVuSansMono;writing-mode:lr-tb;fill:#009b09;fill-opacity:1;fill-rule:nonzero;stroke:none"
         transform="matrix(1,0,0,-1,270.28,368.026)"><tspan
           id="tspan4158"
           sodipodi:role="line"
           y="0"
           x="0 10.836 21.672001 32.507999 43.344002">run()</tspan><tspan
           id="tspan4160"
           sodipodi:role="line"
           y="0.34179699"
           x="-224.23399 -213.39799 -202.562 -191.726 -180.89 -170.054 -159.27191 -148.43591 -137.5999 -126.76391 -115.92791 -105.0919 -94.309814 -83.473816 -72.63781 -61.801811 -50.965813 -40.129814 -29.347719">save_final_config()</tspan></text>
</g><g
       id="g4162"><text
         id="text4164"
         style="font-variant:normal;font-weight:normal;font-size:18px;font-family:'DejaVu Sans Mono';-inkscape-font-specification:DejaVuSansMono;writing-mode:lr-tb;fill:#008195;fill-opacity:1;fill-rule:nonzero;stroke:none"
         transform="matrix(1,0,0,-1,131.52,257.32)"><tspan
           id="tspan4166"
           sodipodi:role="line"
           y="0"
           x="0 10.836 21.672001 32.507999 43.344002 54.18 64.962097 75.798096 86.634094 97.470093">__init__()</tspan></text>
</g><g
       id="g4168"><text
         id="text4170"
         style="font-variant:normal;font-weight:normal;font-size:18px;font-family:'DejaVu Sans Mono';-inkscape-font-specification:DejaVuSansMono;writing-mode:lr-tb;fill:#a8a600;fill-opacity:1;fill-rule:nonzero;stroke:none"
         transform="matrix(1,0,0,-1,120.152,164.171)"><tspan
           id="tspan4172"
           sodipodi:role="line"
           y="0"
           x="0 10.836 21.672001 32.507999 43.344002 54.18 64.962097 75.798096 86.634094 97.470093 108.30609 119.1421">delete_all()</tspan><tspan
           id="tspan4174"
           sodipodi:role="line"
           y="-34.477699"
           x="-65.285202 -54.4492 -43.613201 -32.777199 -21.9412 -11.1052 -0.32310623 10.512894 21.348894 32.184895 43.020893 53.856895 64.638985 75.474991 86.310989 97.146988 107.98299 118.81898 129.60107 140.43709 151.27309 162.10909 172.94508 183.78108">create_and_connect_all()</tspan><tspan
           id="tspan4176"
           sodipodi:role="line"
           y="34.1465"
           x="-27.386801 -16.5508 -5.7147999 5.1212001 15.9572 26.7932 37.575294 48.411293 59.247295 70.08329 80.919296 91.755295 102.53738 113.37339 124.20939 135.04539 145.88139">compute_results()</tspan></text>
</g><g
       id="g4178"><text
         id="text4180"
         style="font-variant:normal;font-weight:normal;font-size:18px;font-family:'DejaVu Sans Mono';-inkscape-font-specification:DejaVuSansMono;writing-mode:lr-tb;fill:#008195;fill-opacity:1;fill-rule:nonzero;stroke:none"
         transform="matrix(1,0,0,-1,70.375,289.885)"><tspan
           id="tspan4182"
           sodipodi:role="line"
           y="0"
           x="0 10.836 21.672001 32.507999 43.344002 54.18 64.962097 75.798096 86.634094 97.470093 108.30609 119.1421 129.92419 140.76019 151.59619 162.43219 173.26819 184.10419 194.88628 205.72227 216.55829">run_desired_results()</tspan></text>
</g><g
       id="g4184"><text
         id="text4186"
         style="font-variant:normal;font-size:18px;font-family:f-1;-inkscape-font-specification:f-1-0;writing-mode:lr-tb;fill:#000000;fill-opacity:1;fill-rule:nonzero;stroke:none"
         transform="matrix(1,0,0,-1,39.6938,398.763)"><tspan
           style="font-style:normal;font-variant:normal;font-weight:normal;font-stretch:normal;font-family:'TeX Gyre Schola';-inkscape-font-specification:'TeX Gyre Schola'"
           id="tspan4188"
           sodipodi:role="line"
           y="0"
           x="0 14.67 23.004 32.004002 39.995998 45 57.995998 66.996002 77.328003 86.328003 91.332001 97.325996 114.318 123.318 133.326 141.66 152.658 160.64999 169.64999 185.65199 194.65199 205.64999 212.65199 219.978 230.976 238.05 247.05 255.384 261.12619 271.13419 279.12619 288.12619">User Code (MeasurementInterface)</tspan><tspan
           style="font-style:normal;font-variant:normal;font-weight:normal;font-stretch:normal;font-family:'TeX Gyre Schola';-inkscape-font-specification:'TeX Gyre Schola'"
           id="tspan4190"
           sodipodi:role="line"
           y="73.166"
           x="-0.61210901 13.391891 21.38389 27.05389 36.233986 45.233986 53.225986 58.229984 64.223984 81.215988 90.215988 100.22398 108.55798 119.55598 127.54798 136.54799 152.54999 161.54999 172.54799 179.54999 192.54599 198.21599 203.88599 212.88599 223.88399 230.88599">Driver (MeasurementClient)</tspan><tspan
           style="font-style:normal;font-variant:normal;font-weight:normal;font-stretch:normal;font-family:'TeX Gyre Schola';-inkscape-font-specification:'TeX Gyre Schola'"
           id="tspan4192"
           sodipodi:role="line"
           y="177.737"
           x="-0.61210901 13.391891 26.387892 39.383892 44.38789 51.71389 62.711891 69.803894 78.803894 87.137871 92.880066 102.88806 110.88007">GCE Interface</tspan><tspan
           style="font-style:normal;font-variant:normal;font-weight:normal;font-stretch:normal;font-family:'TeX Gyre Schola';-inkscape-font-specification:'TeX Gyre Schola'"
           id="tspan4194"
           sodipodi:role="line"
           y="308.366"
           x="-0.090233997 11.249766 20.249765 28.709766 37.907818 46.907818">Server</tspan></text>
</g><g
       id="g4196"><text
         id="text4198"
         style="font-variant:normal;font-weight:normal;font-size:18px;font-family:'DejaVu Sans Mono';-inkscape-font-specification:DejaVuSansMono;writing-mode:lr-tb;fill:#bb0000;fill-opacity:1;fill-rule:nonzero;stroke:none"
         transform="matrix(1,0,0,-1,136.455,64.2793)"><tspan
           id="tspan4200"
           sodipodi:role="line"
           y="0"
           x="0 10.836 21.672001 32.507999 43.344002 54.18 64.962097 75.798096 86.634094">measure()</tspan></text>
</g><path
       inkscape:connector-curvature="0"
       id="path4202"
       style="fill:none;stroke:#000000;stroke-width:1.20000005;stroke-linecap:round;stroke-linejoin:miter;stroke-miterlimit:4;stroke-dasharray:none;stroke-opacity:1"
       d="m 22.5699,1.60117 322.445,0 0,420.051 -322.445,0 0,-420.051 z" /><g
       id="g4204"><text
         id="text4206"
         style="font-variant:normal;font-weight:normal;font-size:18px;font-family:'DejaVu Sans Mono';-inkscape-font-specification:DejaVuSansMono;writing-mode:lr-tb;fill:#bb0000;fill-opacity:1;fill-rule:nonzero;stroke:none"
         transform="matrix(1,0,0,-1,158.05,87.0223)"><tspan
           id="tspan4208"
           sodipodi:role="line"
           y="0"
           x="0 10.836 21.672001 32.507999 43.344002">get()</tspan><tspan
           id="tspan4210"
           sodipodi:role="line"
           y="73.028503"
           x="-5.5769501 5.2590499 16.095051 26.931049 37.767052 48.60305">load()</tspan><tspan
           id="tspan4212"
           sodipodi:role="line"
           y="48.685902"
           x="-11.14453 -0.30853 10.52747 21.36347 32.199471 43.035469 53.817562">clone()</tspan></text>
</g><path
       inkscape:connector-curvature="0"
       id="path4214"
       style="fill:none;stroke:#929292;stroke-width:2.4000001;stroke-linecap:butt;stroke-linejoin:miter;stroke-miterlimit:4;stroke-dasharray:none;stroke-opacity:1"
       d="M 43.4219,369.465 C -28.0309,294.102 -9.33594,155.176 103.75,167.719" /><path
       inkscape:connector-curvature="0"
       id="path4216"
       style="fill:#929292;fill-opacity:1;fill-rule:evenodd;stroke:none"
       d="M 90.6328,172.11 106.91,168.094 91.9102,160.61 c 2.1207,3.671 1.5898,8.312 -1.2774,11.5 z" /><path
       inkscape:connector-curvature="0"
       id="path4218"
       style="fill:none;stroke:#929292;stroke-width:0.89999998;stroke-linecap:butt;stroke-linejoin:round;stroke-miterlimit:4;stroke-dasharray:none;stroke-opacity:1"
       d="M 90.6332,172.109 106.91,168.094 91.9105,160.61 c 2.1204,3.672 1.5895,8.312 -1.2773,11.499 z" /><path
       inkscape:connector-curvature="0"
       id="path4226"
       style="fill:none;stroke:#929292;stroke-width:2.4000001;stroke-linecap:butt;stroke-linejoin:miter;stroke-miterlimit:4;stroke-dasharray:none;stroke-opacity:1"
       d="m 196.824,248.254 c 7.723,-9.836 4.824,-19.629 2,-30.363" /><path
       inkscape:connector-curvature="0"
       id="path4228"
       style="fill:#929292;fill-opacity:1;fill-rule:evenodd;stroke:none"
       d="m 201.27,227.176 -3.422,5.863 0.367,-17.469 8.918,15.024 -5.863,-3.418 z" /><path
       inkscape:connector-curvature="0"
       id="path4230"
       style="fill:none;stroke:#929292;stroke-width:1.20000005;stroke-linecap:butt;stroke-linejoin:miter;stroke-miterlimit:4;stroke-dasharray:none;stroke-opacity:1"
       d="m 201.27,227.176 -3.422,5.863 0.367,-17.469 8.917,15.024 -5.862,-3.418 z" /><path
       inkscape:connector-curvature="0"
       id="path4232"
       style="fill:none;stroke:#929292;stroke-width:2.4000001;stroke-linecap:butt;stroke-linejoin:miter;stroke-miterlimit:4;stroke-dasharray:none;stroke-opacity:1"
       d="m 279.238,132.137 c 11.317,-14.539 6.828,-33.16 -3.336,-46.7108" /><path
       inkscape:connector-curvature="0"
       id="path4234"
       style="fill:#929292;fill-opacity:1;fill-rule:evenodd;stroke:none"
       d="m 281.664,93.1059 -0.961,6.7179 -6.242,-16.3199 13.922,10.559 -6.719,-0.957 z" /><path
       inkscape:connector-curvature="0"
       id="path4236"
       style="fill:none;stroke:#929292;stroke-width:1.20000005;stroke-linecap:butt;stroke-linejoin:miter;stroke-miterlimit:4;stroke-dasharray:none;stroke-opacity:1"
       d="m 281.664,93.1059 -0.961,6.7191 -6.242,-16.3211 13.922,10.5586 -6.719,-0.9566 z" /><path
       style="fill:none;fill-rule:evenodd;stroke:#929292;stroke-width:2.4000001;stroke-linecap:butt;stroke-linejoin:miter;stroke-miterlimit:4;stroke-dasharray:none;stroke-opacity:1;marker-end:url(#Arrow1Mend)"
       d="m 324.94665,31.715058 c 49.23208,70.535502 86.6804,297.754352 3.40954,340.311772"
       id="path4224"
       inkscape:connector-curvature="0" /></g></svg>