<?xml version="1.0" encoding="UTF-8" standalone="no"?>
<!-- Created with Inkscape (http://www.inkscape.org/) -->

<svg
   xmlns:dc="http://purl.org/dc/elements/1.1/"
   xmlns:cc="http://creativecommons.org/ns#"
   xmlns:rdf="http://www.w3.org/1999/02/22-rdf-syntax-ns#"
   xmlns:svg="http://www.w3.org/2000/svg"
   xmlns="http://www.w3.org/2000/svg"
   xmlns:sodipodi="http://sodipodi.sourceforge.net/DTD/sodipodi-0.dtd"
   xmlns:inkscape="http://www.inkscape.org/namespaces/inkscape"
   version="1.1"
   id="svg2"
   xml:space="preserve"
   width="206.40579"
   height="185.58623"
   viewBox="0 0 206.40579 185.58624"
   sodipodi:docname="rasmussen_prior.svg"
   inkscape:version="0.92.4 5da689c313, 2019-01-14"><metadata
     id="metadata8"><rdf:RDF><cc:Work
         rdf:about=""><dc:format>image/svg+xml</dc:format><dc:type
           rdf:resource="http://purl.org/dc/dcmitype/StillImage" /><dc:title></dc:title></cc:Work></rdf:RDF></metadata><defs
     id="defs6"><clipPath
       clipPathUnits="userSpaceOnUse"
       id="clipPath64"><path
         d="M 0,0 H 524 V 409 H 0 Z"
         id="path62"
         inkscape:connector-curvature="0" /></clipPath><clipPath
       clipPathUnits="userSpaceOnUse"
       id="clipPath178"><path
         d="M 649.167,4055.83 V 533.334 H 5116.67 V 4055.83 Z"
         id="path176"
         inkscape:connector-curvature="0" /></clipPath><clipPath
       clipPathUnits="userSpaceOnUse"
       id="clipPath294"><path
         d="M 649.167,4055.83 V 533.334 H 5116.67 V 4055.83 Z"
         id="path292"
         inkscape:connector-curvature="0" /></clipPath><clipPath
       clipPathUnits="userSpaceOnUse"
       id="clipPath328"><path
         d="M 0,0 H 522 V 409 H 0 Z"
         id="path326"
         inkscape:connector-curvature="0" /></clipPath><clipPath
       clipPathUnits="userSpaceOnUse"
       id="clipPath442"><path
         d="M 649.167,4055.83 V 533.334 H 5116.67 V 4055.83 Z"
         id="path440"
         inkscape:connector-curvature="0" /></clipPath></defs><sodipodi:namedview
     pagecolor="#ffffff"
     bordercolor="#666666"
     borderopacity="1"
     objecttolerance="10"
     gridtolerance="10"
     guidetolerance="10"
     inkscape:pageopacity="0"
     inkscape:pageshadow="2"
     inkscape:window-width="1920"
     inkscape:window-height="1060"
     id="namedview4"
     showgrid="false"
     fit-margin-top="0"
     fit-margin-left="0"
     fit-margin-right="0"
     fit-margin-bottom="0"
     inkscape:zoom="2.5284424"
     inkscape:cx="185.87107"
     inkscape:cy="70.914329"
     inkscape:window-x="0"
     inkscape:window-y="0"
     inkscape:window-maximized="0"
     inkscape:current-layer="g10" /><g
     id="g10"
     inkscape:groupmode="layer"
     inkscape:label="rasmussen2006gaussian"
     transform="matrix(1.3333333,0,0,-1.3333333,593.94171,863.4501)"><text
   transform="matrix(1,0,0,-1,162.4081,703.9609)"
   style="font-variant:normal;font-weight:normal;font-size:9.96259975px;font-family:CMSY10;-inkscape-font-specification:CMSY10;writing-mode:lr-tb;fill:#000000;fill-opacity:1;fill-rule:nonzero;stroke:none"
   id="text22"><tspan
     x="0"
     y="0"
     id="tspan20" /></text>

<g
   id="g7862"
   transform="translate(-0.61370162)"><path
   d="m -427.31953,540.6255 h 135.5679 v 106.88621 h -135.5679 z"
   style="fill:none;stroke:#ffffff;stroke-width:0.15175501;stroke-linecap:butt;stroke-linejoin:round;stroke-miterlimit:10;stroke-dasharray:none;stroke-opacity:1"
   id="path70"
   inkscape:connector-curvature="0" /><path
   d="m -427.31953,540.6255 h 135.56769"
   style="fill:none;stroke:#000000;stroke-width:0.15175501;stroke-linecap:butt;stroke-linejoin:round;stroke-miterlimit:10;stroke-dasharray:none;stroke-opacity:1"
   id="path72"
   inkscape:connector-curvature="0" /><path
   d="m -427.31953,647.5115 h 135.56769"
   style="fill:none;stroke:#000000;stroke-width:0.15175501;stroke-linecap:butt;stroke-linejoin:round;stroke-miterlimit:10;stroke-dasharray:none;stroke-opacity:1"
   id="path74"
   inkscape:connector-curvature="0" /><path
   d="m -427.31953,540.6255 v 106.886"
   style="fill:none;stroke:#000000;stroke-width:0.15175501;stroke-linecap:butt;stroke-linejoin:round;stroke-miterlimit:10;stroke-dasharray:none;stroke-opacity:1"
   id="path76"
   inkscape:connector-curvature="0" /><path
   d="m -291.75184,540.6255 v 106.886"
   style="fill:none;stroke:#000000;stroke-width:0.15175501;stroke-linecap:butt;stroke-linejoin:round;stroke-miterlimit:10;stroke-dasharray:none;stroke-opacity:1"
   id="path78"
   inkscape:connector-curvature="0" /><path
   d="m -427.31953,540.6255 h 135.56769"
   style="fill:none;stroke:#000000;stroke-width:0.15175501;stroke-linecap:butt;stroke-linejoin:round;stroke-miterlimit:10;stroke-dasharray:none;stroke-opacity:1"
   id="path80"
   inkscape:connector-curvature="0" /><path
   d="m -427.31953,540.6255 v 106.886"
   style="fill:none;stroke:#000000;stroke-width:0.15175501;stroke-linecap:butt;stroke-linejoin:round;stroke-miterlimit:10;stroke-dasharray:none;stroke-opacity:1"
   id="path82"
   inkscape:connector-curvature="0" /><path
   d="m -427.31953,540.6255 v 1.3658"
   style="fill:none;stroke:#000000;stroke-width:0.15175501;stroke-linecap:butt;stroke-linejoin:round;stroke-miterlimit:10;stroke-dasharray:none;stroke-opacity:1"
   id="path84"
   inkscape:connector-curvature="0" /><path
   d="m -427.31953,647.5115 v -1.3403"
   style="fill:none;stroke:#000000;stroke-width:0.15175501;stroke-linecap:butt;stroke-linejoin:round;stroke-miterlimit:10;stroke-dasharray:none;stroke-opacity:1"
   id="path86"
   inkscape:connector-curvature="0" /><text
   y="-532.98718"
   x="-433.59207"
   id="text92"
   style="font-variant:normal;font-weight:normal;font-size:7.28423977px;font-family:Helvetica;-inkscape-font-specification:Helvetica;writing-mode:lr-tb;fill:#000000;fill-opacity:1;fill-rule:nonzero;stroke:none;stroke-width:0.30351001"
   transform="scale(1,-1)"><tspan
     style="stroke-width:0.30351001"
     id="tspan90"
     sodipodi:role="line"
     y="-532.98718"
     x="-433.59207 -429.33807">−5</tspan></text>

<path
   d="m -359.53564,540.6255 v 1.3658"
   style="fill:none;stroke:#000000;stroke-width:0.15175501;stroke-linecap:butt;stroke-linejoin:round;stroke-miterlimit:10;stroke-dasharray:none;stroke-opacity:1"
   id="path94"
   inkscape:connector-curvature="0" /><path
   d="m -359.53564,647.5115 v -1.3403"
   style="fill:none;stroke:#000000;stroke-width:0.15175501;stroke-linecap:butt;stroke-linejoin:round;stroke-miterlimit:10;stroke-dasharray:none;stroke-opacity:1"
   id="path96"
   inkscape:connector-curvature="0" /><text
   y="-532.98718"
   x="-361.55914"
   id="text102"
   style="font-variant:normal;font-weight:normal;font-size:7.28423977px;font-family:Helvetica;-inkscape-font-specification:Helvetica;writing-mode:lr-tb;fill:#000000;fill-opacity:1;fill-rule:nonzero;stroke:none;stroke-width:0.30351001"
   transform="scale(1,-1)"><tspan
     style="stroke-width:0.30351001"
     id="tspan100"
     y="-532.98718"
     x="-361.55914">0</tspan></text>

<path
   d="m -291.75184,540.6255 v 1.3658"
   style="fill:none;stroke:#000000;stroke-width:0.15175501;stroke-linecap:butt;stroke-linejoin:round;stroke-miterlimit:10;stroke-dasharray:none;stroke-opacity:1"
   id="path104"
   inkscape:connector-curvature="0" /><path
   d="m -291.75184,647.5115 v -1.3403"
   style="fill:none;stroke:#000000;stroke-width:0.15175501;stroke-linecap:butt;stroke-linejoin:round;stroke-miterlimit:10;stroke-dasharray:none;stroke-opacity:1"
   id="path106"
   inkscape:connector-curvature="0" /><text
   y="-532.98718"
   x="-293.77505"
   id="text112"
   style="font-variant:normal;font-weight:normal;font-size:7.28423977px;font-family:Helvetica;-inkscape-font-specification:Helvetica;writing-mode:lr-tb;fill:#000000;fill-opacity:1;fill-rule:nonzero;stroke:none;stroke-width:0.30351001"
   transform="scale(1,-1)"><tspan
     style="stroke-width:0.30351001"
     id="tspan110"
     y="-532.98718"
     x="-293.77505">5</tspan></text>

<path
   d="m -427.31953,551.32423 h 1.34048"
   style="fill:none;stroke:#000000;stroke-width:0.15175501;stroke-linecap:butt;stroke-linejoin:round;stroke-miterlimit:10;stroke-dasharray:none;stroke-opacity:1"
   id="path114"
   inkscape:connector-curvature="0" /><path
   d="m -291.75184,551.32423 h -1.3658"
   style="fill:none;stroke:#000000;stroke-width:0.15175501;stroke-linecap:butt;stroke-linejoin:round;stroke-miterlimit:10;stroke-dasharray:none;stroke-opacity:1"
   id="path116"
   inkscape:connector-curvature="0" /><text
   y="-548.61792"
   x="-436.5007"
   id="text122"
   style="font-variant:normal;font-weight:normal;font-size:7.28423977px;font-family:Helvetica;-inkscape-font-specification:Helvetica;writing-mode:lr-tb;fill:#000000;fill-opacity:1;fill-rule:nonzero;stroke:none;stroke-width:0.30351001"
   transform="scale(1,-1)"><tspan
     style="stroke-width:0.30351001"
     id="tspan120"
     sodipodi:role="line"
     y="-548.61792"
     x="-436.5007 -432.2467">−2</tspan></text>

<path
   d="m -427.31953,572.69628 h 1.34048"
   style="fill:none;stroke:#000000;stroke-width:0.15175501;stroke-linecap:butt;stroke-linejoin:round;stroke-miterlimit:10;stroke-dasharray:none;stroke-opacity:1"
   id="path124"
   inkscape:connector-curvature="0" /><path
   d="m -291.75184,572.69628 h -1.3658"
   style="fill:none;stroke:#000000;stroke-width:0.15175501;stroke-linecap:butt;stroke-linejoin:round;stroke-miterlimit:10;stroke-dasharray:none;stroke-opacity:1"
   id="path126"
   inkscape:connector-curvature="0" /><text
   y="-569.99017"
   x="-436.5007"
   id="text132"
   style="font-variant:normal;font-weight:normal;font-size:7.28423977px;font-family:Helvetica;-inkscape-font-specification:Helvetica;writing-mode:lr-tb;fill:#000000;fill-opacity:1;fill-rule:nonzero;stroke:none;stroke-width:0.30351001"
   transform="scale(1,-1)"><tspan
     style="stroke-width:0.30351001"
     id="tspan130"
     sodipodi:role="line"
     y="-569.99017"
     x="-436.5007 -432.2467">−1</tspan></text>

<path
   d="m -427.31953,594.06854 h 1.34048"
   style="fill:none;stroke:#000000;stroke-width:0.15175501;stroke-linecap:butt;stroke-linejoin:round;stroke-miterlimit:10;stroke-dasharray:none;stroke-opacity:1"
   id="path134"
   inkscape:connector-curvature="0" /><path
   d="m -291.75184,594.06854 h -1.3658"
   style="fill:none;stroke:#000000;stroke-width:0.15175501;stroke-linecap:butt;stroke-linejoin:round;stroke-miterlimit:10;stroke-dasharray:none;stroke-opacity:1"
   id="path136"
   inkscape:connector-curvature="0" /><text
   y="-591.36212"
   x="-432.25156"
   id="text142"
   style="font-variant:normal;font-weight:normal;font-size:7.28423977px;font-family:Helvetica;-inkscape-font-specification:Helvetica;writing-mode:lr-tb;fill:#000000;fill-opacity:1;fill-rule:nonzero;stroke:none;stroke-width:0.30351001"
   transform="scale(1,-1)"><tspan
     style="stroke-width:0.30351001"
     id="tspan140"
     y="-591.36212"
     x="-432.25156">0</tspan></text>

<path
   d="m -427.31953,615.466 h 1.34048"
   style="fill:none;stroke:#000000;stroke-width:0.15175501;stroke-linecap:butt;stroke-linejoin:round;stroke-miterlimit:10;stroke-dasharray:none;stroke-opacity:1"
   id="path144"
   inkscape:connector-curvature="0" /><path
   d="m -291.75184,615.466 h -1.3658"
   style="fill:none;stroke:#000000;stroke-width:0.15175501;stroke-linecap:butt;stroke-linejoin:round;stroke-miterlimit:10;stroke-dasharray:none;stroke-opacity:1"
   id="path146"
   inkscape:connector-curvature="0" /><text
   y="-612.75958"
   x="-432.25156"
   id="text152"
   style="font-variant:normal;font-weight:normal;font-size:7.28423977px;font-family:Helvetica;-inkscape-font-specification:Helvetica;writing-mode:lr-tb;fill:#000000;fill-opacity:1;fill-rule:nonzero;stroke:none;stroke-width:0.30351001"
   transform="scale(1,-1)"><tspan
     style="stroke-width:0.30351001"
     id="tspan150"
     y="-612.75958"
     x="-432.25156">1</tspan></text>

<path
   d="m -427.31953,636.83826 h 1.34048"
   style="fill:none;stroke:#000000;stroke-width:0.15175501;stroke-linecap:butt;stroke-linejoin:round;stroke-miterlimit:10;stroke-dasharray:none;stroke-opacity:1"
   id="path154"
   inkscape:connector-curvature="0" /><path
   d="m -291.75184,636.83826 h -1.3658"
   style="fill:none;stroke:#000000;stroke-width:0.15175501;stroke-linecap:butt;stroke-linejoin:round;stroke-miterlimit:10;stroke-dasharray:none;stroke-opacity:1"
   id="path156"
   inkscape:connector-curvature="0" /><text
   y="-634.1319"
   x="-432.25156"
   id="text162"
   style="font-variant:normal;font-weight:normal;font-size:7.28423977px;font-family:Helvetica;-inkscape-font-specification:Helvetica;writing-mode:lr-tb;fill:#000000;fill-opacity:1;fill-rule:nonzero;stroke:none;stroke-width:0.30351001"
   transform="scale(1,-1)"><tspan
     style="stroke-width:0.30351001"
     id="tspan160"
     y="-634.1319"
     x="-432.25156">2</tspan></text>

<path
   d="m -427.31953,540.6255 h 135.56769"
   style="fill:none;stroke:#000000;stroke-width:0.15175501;stroke-linecap:butt;stroke-linejoin:round;stroke-miterlimit:10;stroke-dasharray:none;stroke-opacity:1"
   id="path164"
   inkscape:connector-curvature="0" /><path
   d="m -427.31953,647.5115 h 135.56769"
   style="fill:none;stroke:#000000;stroke-width:0.15175501;stroke-linecap:butt;stroke-linejoin:round;stroke-miterlimit:10;stroke-dasharray:none;stroke-opacity:1"
   id="path166"
   inkscape:connector-curvature="0" /><path
   d="m -427.31953,540.6255 v 106.886"
   style="fill:none;stroke:#000000;stroke-width:0.15175501;stroke-linecap:butt;stroke-linejoin:round;stroke-miterlimit:10;stroke-dasharray:none;stroke-opacity:1"
   id="path168"
   inkscape:connector-curvature="0" /><path
   d="m -291.75184,540.6255 v 106.886"
   style="fill:none;stroke:#000000;stroke-width:0.15175501;stroke-linecap:butt;stroke-linejoin:round;stroke-miterlimit:10;stroke-dasharray:none;stroke-opacity:1"
   id="path170"
   inkscape:connector-curvature="0" /><path
   inkscape:connector-curvature="0"
   id="path180"
   style="fill:#dfdfdf;fill-opacity:1;fill-rule:evenodd;stroke:none;stroke-width:0.030351"
   d="m -426.91486,551.32423 h 134.73325 v 85.51394 h -134.73325 z" /><path
   inkscape:connector-curvature="0"
   id="path182"
   style="fill:none;stroke:#dfdfdf;stroke-width:0.15175501;stroke-linecap:butt;stroke-linejoin:round;stroke-miterlimit:10;stroke-dasharray:none;stroke-opacity:1"
   d="m -426.91486,551.32423 h 134.73325 v 85.51394 h -134.73325 z" /><path
   d="m -426.86427,568.21951 c 0,-0.25131 -0.20383,-0.45527 -0.45526,-0.45527 -0.25143,0 -0.45527,0.20396 -0.45527,0.45527 0,0.25161 0.20384,0.45526 0.45527,0.45526 0.25143,0 0.45526,-0.20365 0.45526,-0.45526"
   style="fill:#0000ff;fill-opacity:1;fill-rule:nonzero;stroke:none;stroke-width:0.030351"
   id="path186"
   inkscape:connector-curvature="0" /><path
   d="m -424.15799,578.99411 c 0,-0.2513 -0.20381,-0.45526 -0.45527,-0.45526 -0.25142,0 -0.45526,0.20396 -0.45526,0.45526 0,0.25161 0.20384,0.45527 0.45526,0.45527 0.25146,0 0.45527,-0.20366 0.45527,-0.45527"
   style="fill:#0000ff;fill-opacity:1;fill-rule:nonzero;stroke:none;stroke-width:0.030351"
   id="path188"
   inkscape:connector-curvature="0" /><path
   d="m -421.45168,590.55299 c 0,-0.25161 -0.20384,-0.45527 -0.45527,-0.45527 -0.25143,0 -0.45526,0.20366 -0.45526,0.45527 0,0.2513 0.20383,0.45526 0.45526,0.45526 0.25143,0 0.45527,-0.20396 0.45527,-0.45526"
   style="fill:#0000ff;fill-opacity:1;fill-rule:nonzero;stroke:none;stroke-width:0.030351"
   id="path190"
   inkscape:connector-curvature="0" /><path
   d="m -418.74537,601.78286 c 0,-0.25161 -0.20384,-0.45527 -0.45527,-0.45527 -0.25143,0 -0.45526,0.20366 -0.45526,0.45527 0,0.2513 0.20383,0.45526 0.45526,0.45526 0.25143,0 0.45527,-0.20396 0.45527,-0.45526"
   style="fill:#0000ff;fill-opacity:1;fill-rule:nonzero;stroke:none;stroke-width:0.030351"
   id="path192"
   inkscape:connector-curvature="0" /><path
   d="m -416.03919,611.77319 c 0,-0.2513 -0.20365,-0.45526 -0.45526,-0.45526 -0.25134,0 -0.45518,0.20396 -0.45518,0.45526 0,0.25161 0.20384,0.45527 0.45518,0.45527 0.25161,0 0.45526,-0.20366 0.45526,-0.45527"
   style="fill:#0000ff;fill-opacity:1;fill-rule:nonzero;stroke:none;stroke-width:0.030351"
   id="path194"
   inkscape:connector-curvature="0" /><path
   d="m -413.3076,619.89209 c 0,-0.25131 -0.20365,-0.45527 -0.45526,-0.45527 -0.25131,0 -0.45527,0.20396 -0.45527,0.45527 0,0.25161 0.20396,0.45526 0.45527,0.45526 0.25161,0 0.45526,-0.20365 0.45526,-0.45526"
   style="fill:#0000ff;fill-opacity:1;fill-rule:nonzero;stroke:none;stroke-width:0.030351"
   id="path196"
   inkscape:connector-curvature="0" /><path
   d="m -410.6012,625.65878 c 0,-0.25131 -0.20396,-0.45527 -0.45526,-0.45527 -0.25131,0 -0.45527,0.20396 -0.45527,0.45527 0,0.25161 0.20396,0.45526 0.45527,0.45526 0.2513,0 0.45526,-0.20365 0.45526,-0.45526"
   style="fill:#0000ff;fill-opacity:1;fill-rule:nonzero;stroke:none;stroke-width:0.030351"
   id="path198"
   inkscape:connector-curvature="0" /><path
   d="m -407.8948,628.618 c 0,-0.25131 -0.20396,-0.45527 -0.45527,-0.45527 -0.25161,0 -0.45526,0.20396 -0.45526,0.45527 0,0.25161 0.20365,0.45526 0.45526,0.45526 0.25131,0 0.45527,-0.20365 0.45527,-0.45526"
   style="fill:#0000ff;fill-opacity:1;fill-rule:nonzero;stroke:none;stroke-width:0.030351"
   id="path200"
   inkscape:connector-curvature="0" /><path
   d="m -405.18871,628.46624 c 0,-0.2513 -0.20365,-0.45526 -0.45526,-0.45526 -0.25131,0 -0.45527,0.20396 -0.45527,0.45526 0,0.25161 0.20396,0.45527 0.45527,0.45527 0.25161,0 0.45526,-0.20366 0.45526,-0.45527"
   style="fill:#0000ff;fill-opacity:1;fill-rule:nonzero;stroke:none;stroke-width:0.030351"
   id="path202"
   inkscape:connector-curvature="0" /><path
   d="m -402.48231,625.15313 c 0,-0.25161 -0.20396,-0.45527 -0.45526,-0.45527 -0.25131,0 -0.45527,0.20366 -0.45527,0.45527 0,0.2513 0.20396,0.45526 0.45527,0.45526 0.2513,0 0.45526,-0.20396 0.45526,-0.45526"
   style="fill:#0000ff;fill-opacity:1;fill-rule:nonzero;stroke:none;stroke-width:0.030351"
   id="path204"
   inkscape:connector-curvature="0" /><path
   d="m -399.75072,619.05743 c 0,-0.2513 -0.20396,-0.45526 -0.45526,-0.45526 -0.25131,0 -0.45527,0.20396 -0.45527,0.45526 0,0.25161 0.20396,0.45527 0.45527,0.45527 0.2513,0 0.45526,-0.20366 0.45526,-0.45527"
   style="fill:#0000ff;fill-opacity:1;fill-rule:nonzero;stroke:none;stroke-width:0.030351"
   id="path206"
   inkscape:connector-curvature="0" /><path
   d="m -397.04432,611.24205 c 0,-0.2513 -0.20396,-0.45526 -0.45526,-0.45526 -0.25161,0 -0.45527,0.20396 -0.45527,0.45526 0,0.25161 0.20366,0.45527 0.45527,0.45527 0.2513,0 0.45526,-0.20366 0.45526,-0.45527"
   style="fill:#0000ff;fill-opacity:1;fill-rule:nonzero;stroke:none;stroke-width:0.030351"
   id="path208"
   inkscape:connector-curvature="0" /><path
   d="m -394.33822,603.09797 c 0,-0.25131 -0.20366,-0.45527 -0.45527,-0.45527 -0.2513,0 -0.45526,0.20396 -0.45526,0.45527 0,0.2513 0.20396,0.45526 0.45526,0.45526 0.25161,0 0.45527,-0.20396 0.45527,-0.45526"
   style="fill:#0000ff;fill-opacity:1;fill-rule:nonzero;stroke:none;stroke-width:0.030351"
   id="path210"
   inkscape:connector-curvature="0" /><path
   d="m -391.63182,596.14243 c 0,-0.25131 -0.20396,-0.45527 -0.45527,-0.45527 -0.25131,0 -0.45526,0.20396 -0.45526,0.45527 0,0.25161 0.20395,0.45526 0.45526,0.45526 0.25131,0 0.45527,-0.20365 0.45527,-0.45526"
   style="fill:#0000ff;fill-opacity:1;fill-rule:nonzero;stroke:none;stroke-width:0.030351"
   id="path212"
   inkscape:connector-curvature="0" /><path
   d="m -388.92543,591.64046 c 0,-0.2513 -0.20396,-0.45526 -0.45526,-0.45526 -0.25161,0 -0.45527,0.20396 -0.45527,0.45526 0,0.25131 0.20366,0.45527 0.45527,0.45527 0.2513,0 0.45526,-0.20396 0.45526,-0.45527"
   style="fill:#0000ff;fill-opacity:1;fill-rule:nonzero;stroke:none;stroke-width:0.030351"
   id="path214"
   inkscape:connector-curvature="0" /><path
   d="m -386.19384,590.12292 c 0,-0.25131 -0.20396,-0.45527 -0.45526,-0.45527 -0.25161,0 -0.45527,0.20396 -0.45527,0.45527 0,0.2513 0.20366,0.45526 0.45527,0.45526 0.2513,0 0.45526,-0.20396 0.45526,-0.45526"
   style="fill:#0000ff;fill-opacity:1;fill-rule:nonzero;stroke:none;stroke-width:0.030351"
   id="path216"
   inkscape:connector-curvature="0" /><path
   d="m -383.48774,591.58978 c 0,-0.25131 -0.20366,-0.45527 -0.45527,-0.45527 -0.2513,0 -0.45526,0.20396 -0.45526,0.45527 0,0.25161 0.20396,0.45526 0.45526,0.45526 0.25161,0 0.45527,-0.20365 0.45527,-0.45526"
   style="fill:#0000ff;fill-opacity:1;fill-rule:nonzero;stroke:none;stroke-width:0.030351"
   id="path218"
   inkscape:connector-curvature="0" /><path
   d="m -380.78134,595.45953 c 0,-0.2513 -0.20396,-0.45526 -0.45527,-0.45526 -0.2513,0 -0.45526,0.20396 -0.45526,0.45526 0,0.25161 0.20396,0.45527 0.45526,0.45527 0.25131,0 0.45527,-0.20366 0.45527,-0.45527"
   style="fill:#0000ff;fill-opacity:1;fill-rule:nonzero;stroke:none;stroke-width:0.030351"
   id="path220"
   inkscape:connector-curvature="0" /><path
   d="m -378.07494,600.99859 c 0,-0.25131 -0.20396,-0.45527 -0.45527,-0.45527 -0.25161,0 -0.45526,0.20396 -0.45526,0.45527 0,0.25161 0.20365,0.45526 0.45526,0.45526 0.25131,0 0.45527,-0.20365 0.45527,-0.45526"
   style="fill:#0000ff;fill-opacity:1;fill-rule:nonzero;stroke:none;stroke-width:0.030351"
   id="path222"
   inkscape:connector-curvature="0" /><path
   d="m -375.36885,607.34711 c 0,-0.25131 -0.20365,-0.45527 -0.45526,-0.45527 -0.25131,0 -0.45527,0.20396 -0.45527,0.45527 0,0.2513 0.20396,0.45526 0.45527,0.45526 0.25161,0 0.45526,-0.20396 0.45526,-0.45526"
   style="fill:#0000ff;fill-opacity:1;fill-rule:nonzero;stroke:none;stroke-width:0.030351"
   id="path224"
   inkscape:connector-curvature="0" /><path
   d="m -372.63726,613.72082 c 0,-0.25131 -0.20365,-0.45527 -0.45526,-0.45527 -0.25131,0 -0.45527,0.20396 -0.45527,0.45527 0,0.2513 0.20396,0.45526 0.45527,0.45526 0.25161,0 0.45526,-0.20396 0.45526,-0.45526"
   style="fill:#0000ff;fill-opacity:1;fill-rule:nonzero;stroke:none;stroke-width:0.030351"
   id="path226"
   inkscape:connector-curvature="0" /><path
   d="m -369.93086,619.36094 c 0,-0.2513 -0.20396,-0.45526 -0.45526,-0.45526 -0.25131,0 -0.45527,0.20396 -0.45527,0.45526 0,0.25161 0.20396,0.45527 0.45527,0.45527 0.2513,0 0.45526,-0.20366 0.45526,-0.45527"
   style="fill:#0000ff;fill-opacity:1;fill-rule:nonzero;stroke:none;stroke-width:0.030351"
   id="path228"
   inkscape:connector-curvature="0" /><path
   d="m -367.22446,623.61008 c 0,-0.2513 -0.20396,-0.45526 -0.45527,-0.45526 -0.25161,0 -0.45526,0.20396 -0.45526,0.45526 0,0.25161 0.20365,0.45527 0.45526,0.45527 0.25131,0 0.45527,-0.20366 0.45527,-0.45527"
   style="fill:#0000ff;fill-opacity:1;fill-rule:nonzero;stroke:none;stroke-width:0.030351"
   id="path230"
   inkscape:connector-curvature="0" /><path
   d="m -364.51837,626.06366 c 0,-0.25161 -0.20365,-0.45527 -0.45526,-0.45527 -0.25131,0 -0.45527,0.20366 -0.45527,0.45527 0,0.2513 0.20396,0.45526 0.45527,0.45526 0.25161,0 0.45526,-0.20396 0.45526,-0.45526"
   style="fill:#0000ff;fill-opacity:1;fill-rule:nonzero;stroke:none;stroke-width:0.030351"
   id="path232"
   inkscape:connector-curvature="0" /><path
   d="m -361.81197,626.72106 c 0,-0.2513 -0.20396,-0.45526 -0.45526,-0.45526 -0.25131,0 -0.45527,0.20396 -0.45527,0.45526 0,0.25161 0.20396,0.45527 0.45527,0.45527 0.2513,0 0.45526,-0.20366 0.45526,-0.45527"
   style="fill:#0000ff;fill-opacity:1;fill-rule:nonzero;stroke:none;stroke-width:0.030351"
   id="path234"
   inkscape:connector-curvature="0" /><path
   d="m -359.08038,626.01297 c 0,-0.2513 -0.20396,-0.45526 -0.45526,-0.45526 -0.25131,0 -0.45527,0.20396 -0.45527,0.45526 0,0.25131 0.20396,0.45527 0.45527,0.45527 0.2513,0 0.45526,-0.20396 0.45526,-0.45527"
   style="fill:#0000ff;fill-opacity:1;fill-rule:nonzero;stroke:none;stroke-width:0.030351"
   id="path236"
   inkscape:connector-curvature="0" /><path
   d="m -356.37398,624.64718 c 0,-0.25131 -0.20396,-0.45527 -0.45526,-0.45527 -0.25161,0 -0.45527,0.20396 -0.45527,0.45527 0,0.2513 0.20366,0.45526 0.45527,0.45526 0.2513,0 0.45526,-0.20396 0.45526,-0.45526"
   style="fill:#0000ff;fill-opacity:1;fill-rule:nonzero;stroke:none;stroke-width:0.030351"
   id="path238"
   inkscape:connector-curvature="0" /><path
   d="m -353.66788,623.40795 c 0,-0.25161 -0.20366,-0.45527 -0.45527,-0.45527 -0.2513,0 -0.45526,0.20366 -0.45526,0.45527 0,0.2513 0.20396,0.45526 0.45526,0.45526 0.25161,0 0.45527,-0.20396 0.45527,-0.45526"
   style="fill:#0000ff;fill-opacity:1;fill-rule:nonzero;stroke:none;stroke-width:0.030351"
   id="path240"
   inkscape:connector-curvature="0" /><path
   d="m -350.96149,622.77543 c 0,-0.2513 -0.20395,-0.45526 -0.45526,-0.45526 -0.25131,0 -0.45527,0.20396 -0.45527,0.45526 0,0.25161 0.20396,0.45527 0.45527,0.45527 0.25131,0 0.45526,-0.20366 0.45526,-0.45527"
   style="fill:#0000ff;fill-opacity:1;fill-rule:nonzero;stroke:none;stroke-width:0.030351"
   id="path242"
   inkscape:connector-curvature="0" /><path
   d="m -348.25509,622.82612 c 0,-0.25131 -0.20396,-0.45527 -0.45526,-0.45527 -0.25161,0 -0.45527,0.20396 -0.45527,0.45527 0,0.2513 0.20366,0.45526 0.45527,0.45526 0.2513,0 0.45526,-0.20396 0.45526,-0.45526"
   style="fill:#0000ff;fill-opacity:1;fill-rule:nonzero;stroke:none;stroke-width:0.030351"
   id="path244"
   inkscape:connector-curvature="0" /><path
   d="m -345.5235,623.33207 c 0,-0.25161 -0.20396,-0.45527 -0.45526,-0.45527 -0.25161,0 -0.45527,0.20366 -0.45527,0.45527 0,0.2513 0.20366,0.45526 0.45527,0.45526 0.2513,0 0.45526,-0.20396 0.45526,-0.45526"
   style="fill:#0000ff;fill-opacity:1;fill-rule:nonzero;stroke:none;stroke-width:0.030351"
   id="path246"
   inkscape:connector-curvature="0" /><path
   d="m -342.8174,623.86321 c 0,-0.25161 -0.20366,-0.45526 -0.45527,-0.45526 -0.2513,0 -0.45526,0.20365 -0.45526,0.45526 0,0.25131 0.20396,0.45527 0.45526,0.45527 0.25161,0 0.45527,-0.20396 0.45527,-0.45527"
   style="fill:#0000ff;fill-opacity:1;fill-rule:nonzero;stroke:none;stroke-width:0.030351"
   id="path248"
   inkscape:connector-curvature="0" /><path
   d="m -340.111,624.01497 c 0,-0.25161 -0.20396,-0.45527 -0.45527,-0.45527 -0.2513,0 -0.45526,0.20366 -0.45526,0.45527 0,0.2513 0.20396,0.45526 0.45526,0.45526 0.25131,0 0.45527,-0.20396 0.45527,-0.45526"
   style="fill:#0000ff;fill-opacity:1;fill-rule:nonzero;stroke:none;stroke-width:0.030351"
   id="path250"
   inkscape:connector-curvature="0" /><path
   d="m -337.4046,623.63558 c 0,-0.25161 -0.20396,-0.45527 -0.45527,-0.45527 -0.25161,0 -0.45526,0.20366 -0.45526,0.45527 0,0.2513 0.20365,0.45526 0.45526,0.45526 0.25131,0 0.45527,-0.20396 0.45527,-0.45526"
   style="fill:#0000ff;fill-opacity:1;fill-rule:nonzero;stroke:none;stroke-width:0.030351"
   id="path252"
   inkscape:connector-curvature="0" /><path
   d="m -334.69851,622.62368 c 0,-0.25131 -0.20365,-0.45527 -0.45526,-0.45527 -0.25131,0 -0.45527,0.20396 -0.45527,0.45527 0,0.25161 0.20396,0.45526 0.45527,0.45526 0.25161,0 0.45526,-0.20365 0.45526,-0.45526"
   style="fill:#0000ff;fill-opacity:1;fill-rule:nonzero;stroke:none;stroke-width:0.030351"
   id="path254"
   inkscape:connector-curvature="0" /><path
   d="m -331.96692,620.92918 c 0,-0.25131 -0.20365,-0.45526 -0.45526,-0.45526 -0.25131,0 -0.45527,0.20395 -0.45527,0.45526 0,0.25131 0.20396,0.45527 0.45527,0.45527 0.25161,0 0.45526,-0.20396 0.45526,-0.45527"
   style="fill:#0000ff;fill-opacity:1;fill-rule:nonzero;stroke:none;stroke-width:0.030351"
   id="path256"
   inkscape:connector-curvature="0" /><path
   d="m -329.26052,618.42522 c 0,-0.2513 -0.20396,-0.45526 -0.45526,-0.45526 -0.25131,0 -0.45527,0.20396 -0.45527,0.45526 0,0.25131 0.20396,0.45527 0.45527,0.45527 0.2513,0 0.45526,-0.20396 0.45526,-0.45527"
   style="fill:#0000ff;fill-opacity:1;fill-rule:nonzero;stroke:none;stroke-width:0.030351"
   id="path258"
   inkscape:connector-curvature="0" /><path
   d="m -326.55412,615.1373 c 0,-0.25161 -0.20396,-0.45527 -0.45527,-0.45527 -0.25161,0 -0.45526,0.20366 -0.45526,0.45527 0,0.2513 0.20365,0.45526 0.45526,0.45526 0.25131,0 0.45527,-0.20396 0.45527,-0.45526"
   style="fill:#0000ff;fill-opacity:1;fill-rule:nonzero;stroke:none;stroke-width:0.030351"
   id="path260"
   inkscape:connector-curvature="0" /><path
   d="m -323.84803,611.19167 c 0,-0.25161 -0.20365,-0.45527 -0.45526,-0.45527 -0.25131,0 -0.45527,0.20366 -0.45527,0.45527 0,0.2513 0.20396,0.45526 0.45527,0.45526 0.25161,0 0.45526,-0.20396 0.45526,-0.45526"
   style="fill:#0000ff;fill-opacity:1;fill-rule:nonzero;stroke:none;stroke-width:0.030351"
   id="path262"
   inkscape:connector-curvature="0" /><path
   d="m -321.14163,606.96772 c 0,-0.25131 -0.20396,-0.45526 -0.45526,-0.45526 -0.25131,0 -0.45527,0.20395 -0.45527,0.45526 0,0.25131 0.20396,0.45527 0.45527,0.45527 0.2513,0 0.45526,-0.20396 0.45526,-0.45527"
   style="fill:#0000ff;fill-opacity:1;fill-rule:nonzero;stroke:none;stroke-width:0.030351"
   id="path264"
   inkscape:connector-curvature="0" /><path
   d="m -318.41004,603.04728 c 0,-0.2513 -0.20396,-0.45526 -0.45526,-0.45526 -0.25131,0 -0.45527,0.20396 -0.45527,0.45526 0,0.25161 0.20396,0.45527 0.45527,0.45527 0.2513,0 0.45526,-0.20366 0.45526,-0.45527"
   style="fill:#0000ff;fill-opacity:1;fill-rule:nonzero;stroke:none;stroke-width:0.030351"
   id="path266"
   inkscape:connector-curvature="0" /><path
   d="m -315.70364,600.03768 c 0,-0.25161 -0.20396,-0.45527 -0.45526,-0.45527 -0.25161,0 -0.45527,0.20366 -0.45527,0.45527 0,0.2513 0.20366,0.45526 0.45527,0.45526 0.2513,0 0.45526,-0.20396 0.45526,-0.45526"
   style="fill:#0000ff;fill-opacity:1;fill-rule:nonzero;stroke:none;stroke-width:0.030351"
   id="path268"
   inkscape:connector-curvature="0" /><path
   d="m -312.99754,598.21662 c 0,-0.25161 -0.20366,-0.45527 -0.45527,-0.45527 -0.2513,0 -0.45526,0.20366 -0.45526,0.45527 0,0.2513 0.20396,0.45526 0.45526,0.45526 0.25161,0 0.45527,-0.20396 0.45527,-0.45526"
   style="fill:#0000ff;fill-opacity:1;fill-rule:nonzero;stroke:none;stroke-width:0.030351"
   id="path270"
   inkscape:connector-curvature="0" /><path
   d="m -310.29115,597.40715 c 0,-0.2513 -0.20395,-0.45526 -0.45526,-0.45526 -0.25131,0 -0.45527,0.20396 -0.45527,0.45526 0,0.25131 0.20396,0.45527 0.45527,0.45527 0.25131,0 0.45526,-0.20396 0.45526,-0.45527"
   style="fill:#0000ff;fill-opacity:1;fill-rule:nonzero;stroke:none;stroke-width:0.030351"
   id="path272"
   inkscape:connector-curvature="0" /><path
   d="m -307.58475,597.00258 c 0,-0.25161 -0.20396,-0.45527 -0.45526,-0.45527 -0.25161,0 -0.45527,0.20366 -0.45527,0.45527 0,0.2513 0.20366,0.45526 0.45527,0.45526 0.2513,0 0.45526,-0.20396 0.45526,-0.45526"
   style="fill:#0000ff;fill-opacity:1;fill-rule:nonzero;stroke:none;stroke-width:0.030351"
   id="path274"
   inkscape:connector-curvature="0" /><path
   d="m -304.85316,596.14243 c 0,-0.25131 -0.20396,-0.45527 -0.45526,-0.45527 -0.25161,0 -0.45527,0.20396 -0.45527,0.45527 0,0.25161 0.20366,0.45526 0.45527,0.45526 0.2513,0 0.45526,-0.20365 0.45526,-0.45526"
   style="fill:#0000ff;fill-opacity:1;fill-rule:nonzero;stroke:none;stroke-width:0.030351"
   id="path276"
   inkscape:connector-curvature="0" /><path
   d="m -302.14706,593.94198 c 0,-0.2513 -0.20366,-0.45526 -0.45527,-0.45526 -0.2513,0 -0.45526,0.20396 -0.45526,0.45526 0,0.25161 0.20396,0.45527 0.45526,0.45527 0.25161,0 0.45527,-0.20366 0.45527,-0.45527"
   style="fill:#0000ff;fill-opacity:1;fill-rule:nonzero;stroke:none;stroke-width:0.030351"
   id="path278"
   inkscape:connector-curvature="0" /><path
   d="m -299.44066,590.02185 c 0,-0.25161 -0.20396,-0.45527 -0.45527,-0.45527 -0.2513,0 -0.45526,0.20366 -0.45526,0.45527 0,0.2513 0.20396,0.45526 0.45526,0.45526 0.25131,0 0.45527,-0.20396 0.45527,-0.45526"
   style="fill:#0000ff;fill-opacity:1;fill-rule:nonzero;stroke:none;stroke-width:0.030351"
   id="path280"
   inkscape:connector-curvature="0" /><path
   d="m -296.73426,584.50798 c 0,-0.25131 -0.20396,-0.45526 -0.45527,-0.45526 -0.25161,0 -0.45526,0.20395 -0.45526,0.45526 0,0.25131 0.20365,0.45527 0.45526,0.45527 0.25131,0 0.45527,-0.20396 0.45527,-0.45527"
   style="fill:#0000ff;fill-opacity:1;fill-rule:nonzero;stroke:none;stroke-width:0.030351"
   id="path282"
   inkscape:connector-curvature="0" /><path
   d="m -294.02817,578.13427 c 0,-0.25131 -0.20365,-0.45527 -0.45526,-0.45527 -0.25131,0 -0.45527,0.20396 -0.45527,0.45527 0,0.25131 0.20396,0.45527 0.45527,0.45527 0.25161,0 0.45526,-0.20396 0.45526,-0.45527"
   style="fill:#0000ff;fill-opacity:1;fill-rule:nonzero;stroke:none;stroke-width:0.030351"
   id="path284"
   inkscape:connector-curvature="0" /><path
   d="m -291.29658,571.88712 c 0,-0.25161 -0.20365,-0.45526 -0.45526,-0.45526 -0.25131,0 -0.45527,0.20365 -0.45527,0.45526 0,0.25131 0.20396,0.45527 0.45527,0.45527 0.25161,0 0.45526,-0.20396 0.45526,-0.45527"
   style="fill:#0000ff;fill-opacity:1;fill-rule:nonzero;stroke:none;stroke-width:0.030351"
   id="path286"
   inkscape:connector-curvature="0" /><path
   inkscape:connector-curvature="0"
   id="path296"
   style="fill:none;stroke:#ff0000;stroke-width:0.60702002;stroke-linecap:butt;stroke-linejoin:round;stroke-miterlimit:10;stroke-dasharray:none;stroke-opacity:1"
   d="m -381.23661,598.31768 0.91053,-3.28792 0.88534,-3.33861 0.91053,-3.3641 0.91053,-3.31312 0.91053,-3.23754 0.88504,-3.11098 0.91053,-2.93403 0.91053,-2.70609 0.91053,-2.45358 0.88534,-2.14976 0.91053,-1.79587 0.91053,-1.46686 0.88533,-1.06229 0.91053,-0.6577 0.91053,-0.25283 0.91053,0.15176 0.88504,0.55633 0.91053,0.98641 0.91053,1.36579 0.91053,1.74519 0.88534,2.09938 0.91053,2.42807 0.91053,2.7316 0.91053,3.0099 0.88534,3.21205 0.91053,3.3638 0.91053,3.49037 0.88503,3.56624 0.91053,3.56624 0.91053,3.51586 0.91053,3.3638 0.88534,3.21205 0.91053,2.93403 0.91053,2.63052 0.91053,2.27633 0.88534,1.84625 0.91053,1.39098 0.91053,0.88534 0.91053,0.3542 0.88503,-0.17725 0.91053,-0.73328 0.91053,-1.28992 0.88534,-1.82106 0.91053,-2.30182 0.91053,-2.78197 0.91053,-3.16166 0.88504,-3.54106 0.91053,-3.79387 0.91053,-4.02151 0.91053,-4.12257 0.88534,-4.17327 0.91053,-4.14807 0.91053,-4.02151 0.91053,-3.81906 0.88534,-3.54105 0.91053,-3.21205 0.91053,-2.80747 0.88503,-2.37739 0.91053,-1.92243 0.91053,-1.44168 0.91053,-0.91053 0.88534,-0.42977 0.91053,0.0504 0.91053,0.53114 0.91053,0.93602 0.88534,1.31511 0.91053,1.66931 0.91053,1.94762 0.91053,2.17495 0.88503,2.32702 0.91053,2.42807 0.91053,2.47877 0.88534,2.45327 0.91053,2.3774 0.91053,2.25113 0.91053,2.04869 0.88534,1.87175 0.91053,1.59343 0.91053,1.28991 0.91053,1.0116 0.88504,0.65771 0.91053,0.35389 h 0.91053 l 0.91053,-0.27801 0.88533,-0.60702 0.91053,-0.86015 0.91053,-1.06229 0.88534,-1.26442 0.91053,-1.36579 0.91053,-1.44168 0.91053,-1.44167 0.88504,-1.36579 0.91053,-1.26473 0.91053,-1.08748 0.91053,-0.86014 0.88534,-0.58153 0.91053,-0.30351 0.91053,0.0504 0.91053,0.37939" /><path
   inkscape:connector-curvature="0"
   id="path298"
   style="fill:none;stroke:#ff0000;stroke-width:0.60702002;stroke-linecap:butt;stroke-linejoin:round;stroke-miterlimit:10;stroke-dasharray:none;stroke-opacity:1"
   d="m -427.31953,609.80038 0.88521,-1.11267 0.91053,-1.0119 0.91053,-0.96091 0.88525,-0.88534 0.91053,-0.80946 0.91053,-0.73328 0.91053,-0.6829 0.88522,-0.60702 0.91053,-0.55664 0.91053,-0.50565 0.91053,-0.43007 0.88516,-0.35389 0.91053,-0.30351 0.91053,-0.20244 0.91053,-0.10107 h 0.88534 l 0.91053,0.10107 0.91053,0.25282 0.88533,0.3542 0.91053,0.53114 0.91053,0.6574 0.91053,0.78427 0.88504,0.93572 0.91053,1.06229 0.91053,1.16335 0.91053,1.28992 0.88534,1.3406 0.91053,1.39099 0.91053,1.41648 0.91053,1.41648 0.88534,1.39099 0.91053,1.31511 0.91053,1.18885 0.88503,1.08747 0.91053,0.93603 0.91053,0.73328 0.91053,0.50595 0.88534,0.27832 h 0.91053 l 0.91053,-0.27832 0.91053,-0.58183 0.88504,-0.88504 0.91053,-1.18884 0.91053,-1.49236 0.91053,-1.79557 0.88533,-2.09938 0.91053,-2.37739 0.91053,-2.60533 0.88534,-2.83266 0.91053,-3.0351 0.91053,-3.18686" /><path
   inkscape:connector-curvature="0"
   id="path300"
   style="fill:none;stroke:#00ff00;stroke-width:0.60702002;stroke-linecap:butt;stroke-linejoin:round;stroke-miterlimit:10;stroke-dasharray:none;stroke-opacity:1"
   d="m -381.23661,594.24549 0.91053,-0.48046 0.88534,-0.68289 0.91053,-0.91053 0.91053,-1.0371 0.91053,-1.13816 0.88504,-1.21404 0.91053,-1.18854 0.91053,-1.18885 0.91053,-1.08748 0.88534,-1.0119 0.91053,-0.85985 0.91053,-0.70808 0.88533,-0.55664 0.91053,-0.40458 0.91053,-0.22763 0.91053,-0.0759 0.88504,0.0759 0.91053,0.20244 0.91053,0.3287 0.91053,0.45526 0.88534,0.53115 0.91053,0.63221 0.91053,0.70839 0.91053,0.78397 0.88534,0.83465 0.91053,0.93572 0.91053,0.98641 0.88503,1.03709 0.91053,1.13817 0.91053,1.18884 0.91053,1.26443 0.88534,1.3406 0.91053,1.3658 0.91053,1.44167 0.91053,1.46686 0.88534,1.46717 0.91053,1.49205 0.91053,1.44168 0.91053,1.39129 0.88503,1.3403 0.91053,1.21404 0.91053,1.11297 0.88534,0.93572 0.91053,0.78427 0.91053,0.58152 0.91053,0.37939 0.88504,0.15176 0.91053,-0.0504 0.91053,-0.30351 0.91053,-0.50595 0.88534,-0.75877 0.91053,-0.93572 0.91053,-1.13817 0.91053,-1.31541 0.88534,-1.46686 0.91053,-1.59343 0.91053,-1.71999 0.88503,-1.82106 0.91053,-1.87144 0.91053,-1.94763 0.91053,-1.94762 0.88534,-1.97282 0.91053,-1.97281 0.91053,-1.97282 0.91053,-1.92213 0.88534,-1.87174 0.91053,-1.79557 0.91053,-1.71999 0.91053,-1.61862 0.88503,-1.51755 0.91053,-1.39129 0.91053,-1.23923 0.88534,-1.06228 0.91053,-0.88534 0.91053,-0.70809 0.91053,-0.48046 0.88534,-0.27832 0.91053,-0.0759 0.91053,0.17694 0.91053,0.37939 0.88504,0.60702 0.91053,0.78427 0.91053,0.98641 0.91053,1.16335 0.88533,1.28992 0.91053,1.41648 0.91053,1.51755 0.88534,1.59343 0.91053,1.59343 0.91053,1.61862 0.91053,1.56823 0.88504,1.54274 0.91053,1.44168 0.91053,1.3406 0.91053,1.21404 0.88534,1.08748 0.91053,0.91053 0.91053,0.73358 0.91053,0.58152" /><path
   inkscape:connector-curvature="0"
   id="path302"
   style="fill:none;stroke:#00ff00;stroke-width:0.60702002;stroke-linecap:butt;stroke-linejoin:round;stroke-miterlimit:10;stroke-dasharray:none;stroke-opacity:1"
   d="m -427.31953,572.9746 0.88521,-1.59343 0.91053,-1.56823 0.91053,-1.56794 0.88525,-1.54304 0.91053,-1.54274 0.91053,-1.54274 0.91053,-1.51755 0.88522,-1.49236 0.91053,-1.49236 0.91053,-1.49206 0.91053,-1.44167 0.88516,-1.41648 0.91053,-1.36576 0.91053,-1.28992 0.91053,-1.21404 0.88534,-1.11285 0.91053,-1.01169 0.91053,-0.88525 0.88533,-0.73346 0.91053,-0.55646 0.91053,-0.37938 0.91053,-0.17704 0.88504,0.0253 0.91053,0.27823 0.91053,0.50583 0.91053,0.75877 0.88534,1.01172 0.91053,1.26461 0.91053,1.51755 0.91053,1.77046 0.88534,1.99798 0.91053,2.20045 0.91053,2.42808 0.88503,2.57983 0.91053,2.73159 0.91053,2.83296 0.91053,2.88335 0.88534,2.90854 0.91053,2.85815 0.91053,2.80747 0.91053,2.65571 0.88504,2.50396 0.91053,2.27632 0.91053,2.0232 0.91053,1.71999 0.88533,1.44167 0.91053,1.08748 0.91053,0.78427 0.88534,0.42977 0.91053,0.10137 0.91053,-0.17725" /><text
   y="-526.23407"
   x="-371.29666"
   id="text310"
   style="font-variant:normal;font-weight:normal;font-size:7.28423977px;font-family:Helvetica;-inkscape-font-specification:Helvetica;writing-mode:lr-tb;fill:#000000;fill-opacity:1;fill-rule:nonzero;stroke:none;stroke-width:0.30351001"
   transform="scale(1,-1)"><tspan
     style="stroke-width:0.30351001"
     id="tspan308"
     sodipodi:role="line"
     y="-526.23407"
     x="-371.29666 -369.67953 -365.62952 -361.57947 -357.52945 -355.50443 -353.4794 -351.45438">input, x</tspan></text>

<text
   y="-439.51053"
   x="576.66742"
   id="text314"
   style="font-variant:normal;font-weight:normal;font-size:7.28423977px;font-family:Helvetica;-inkscape-font-specification:Helvetica;writing-mode:lr-tb;fill:#000000;fill-opacity:1;fill-rule:nonzero;stroke:none;stroke-width:0.30351001"
   transform="matrix(0,1,1,0,0,0)"><tspan
     style="stroke-width:0.30351001"
     id="tspan312"
     sodipodi:role="line"
     y="-439.51053"
     x="576.66742 580.71747 584.76746 586.79248 590.84253 594.89258 596.9176 598.94263 600.96765 602.99268 605.41827 609.06042">output, f(x)</tspan></text>

</g><text
   style="font-variant:normal;font-weight:normal;font-size:7.28423977px;font-family:Helvetica;-inkscape-font-specification:Helvetica;writing-mode:lr-tb;fill:#000000;fill-opacity:1;fill-rule:nonzero;stroke:none;stroke-width:0.30351001"
   id="text310-7"
   x="-411.97433"
   y="-509.94217"
   transform="scale(1,-1)"><tspan
     sodipodi:role="line"
     id="tspan308-7"
     style="stroke-width:0.30351001"
     x="-411.97433"
     y="-509.94217">(a) Gaussian Process Prior</tspan></text>


</g></svg>