<?xml version="1.0" encoding="UTF-8" standalone="no"?>
<!-- Created with Inkscape (http://www.inkscape.org/) -->

<svg
   xmlns:dc="http://purl.org/dc/elements/1.1/"
   xmlns:cc="http://creativecommons.org/ns#"
   xmlns:rdf="http://www.w3.org/1999/02/22-rdf-syntax-ns#"
   xmlns:svg="http://www.w3.org/2000/svg"
   xmlns="http://www.w3.org/2000/svg"
   xmlns:sodipodi="http://sodipodi.sourceforge.net/DTD/sodipodi-0.dtd"
   xmlns:inkscape="http://www.inkscape.org/namespaces/inkscape"
   version="1.1"
   id="svg2"
   xml:space="preserve"
   width="424.19348"
   height="185.89949"
   viewBox="0 0 424.19348 185.8995"
   sodipodi:docname="rasmussen_prior_posterior.svg"
   inkscape:version="0.92.4 5da689c313, 2019-01-14"><metadata
     id="metadata8"><rdf:RDF><cc:Work
         rdf:about=""><dc:format>image/svg+xml</dc:format><dc:type
           rdf:resource="http://purl.org/dc/dcmitype/StillImage" /><dc:title></dc:title></cc:Work></rdf:RDF></metadata><defs
     id="defs6"><clipPath
       clipPathUnits="userSpaceOnUse"
       id="clipPath64"><path
         d="M 0,0 H 524 V 409 H 0 Z"
         id="path62"
         inkscape:connector-curvature="0" /></clipPath><clipPath
       clipPathUnits="userSpaceOnUse"
       id="clipPath178"><path
         d="M 649.167,4055.83 V 533.334 H 5116.67 V 4055.83 Z"
         id="path176"
         inkscape:connector-curvature="0" /></clipPath><clipPath
       clipPathUnits="userSpaceOnUse"
       id="clipPath294"><path
         d="M 649.167,4055.83 V 533.334 H 5116.67 V 4055.83 Z"
         id="path292"
         inkscape:connector-curvature="0" /></clipPath><clipPath
       clipPathUnits="userSpaceOnUse"
       id="clipPath328"><path
         d="M 0,0 H 522 V 409 H 0 Z"
         id="path326"
         inkscape:connector-curvature="0" /></clipPath><clipPath
       clipPathUnits="userSpaceOnUse"
       id="clipPath442"><path
         d="M 649.167,4055.83 V 533.334 H 5116.67 V 4055.83 Z"
         id="path440"
         inkscape:connector-curvature="0" /></clipPath></defs><sodipodi:namedview
     pagecolor="#ffffff"
     bordercolor="#666666"
     borderopacity="1"
     objecttolerance="10"
     gridtolerance="10"
     guidetolerance="10"
     inkscape:pageopacity="0"
     inkscape:pageshadow="2"
     inkscape:window-width="1920"
     inkscape:window-height="1060"
     id="namedview4"
     showgrid="false"
     fit-margin-top="0"
     fit-margin-left="0"
     fit-margin-right="0"
     fit-margin-bottom="0"
     inkscape:zoom="2.5284424"
     inkscape:cx="206.71171"
     inkscape:cy="70.914333"
     inkscape:window-x="0"
     inkscape:window-y="0"
     inkscape:window-maximized="0"
     inkscape:current-layer="g10" /><g
     id="g10"
     inkscape:groupmode="layer"
     inkscape:label="rasmussen2006gaussian"
     transform="matrix(1.3333333,0,0,-1.3333333,593.94171,863.76335)"><text
       transform="matrix(1,0,0,-1,162.4081,703.9609)"
       style="font-variant:normal;font-weight:normal;font-size:9.96259975px;font-family:CMSY10;-inkscape-font-specification:CMSY10;writing-mode:lr-tb;fill:#000000;fill-opacity:1;fill-rule:nonzero;stroke:none"
       id="text22"><tspan
         x="0"
         y="0"
         id="tspan20"></tspan></text>
<g
       id="g7862"
       transform="translate(-0.61370162)"><path
         d="m -427.31953,540.6255 h 135.5679 v 106.88621 h -135.5679 z"
         style="fill:none;stroke:#ffffff;stroke-width:0.15175501;stroke-linecap:butt;stroke-linejoin:round;stroke-miterlimit:10;stroke-dasharray:none;stroke-opacity:1"
         id="path70"
         inkscape:connector-curvature="0" /><path
         d="m -427.31953,540.6255 h 135.56769"
         style="fill:none;stroke:#000000;stroke-width:0.15175501;stroke-linecap:butt;stroke-linejoin:round;stroke-miterlimit:10;stroke-dasharray:none;stroke-opacity:1"
         id="path72"
         inkscape:connector-curvature="0" /><path
         d="m -427.31953,647.5115 h 135.56769"
         style="fill:none;stroke:#000000;stroke-width:0.15175501;stroke-linecap:butt;stroke-linejoin:round;stroke-miterlimit:10;stroke-dasharray:none;stroke-opacity:1"
         id="path74"
         inkscape:connector-curvature="0" /><path
         d="m -427.31953,540.6255 v 106.886"
         style="fill:none;stroke:#000000;stroke-width:0.15175501;stroke-linecap:butt;stroke-linejoin:round;stroke-miterlimit:10;stroke-dasharray:none;stroke-opacity:1"
         id="path76"
         inkscape:connector-curvature="0" /><path
         d="m -291.75184,540.6255 v 106.886"
         style="fill:none;stroke:#000000;stroke-width:0.15175501;stroke-linecap:butt;stroke-linejoin:round;stroke-miterlimit:10;stroke-dasharray:none;stroke-opacity:1"
         id="path78"
         inkscape:connector-curvature="0" /><path
         d="m -427.31953,540.6255 h 135.56769"
         style="fill:none;stroke:#000000;stroke-width:0.15175501;stroke-linecap:butt;stroke-linejoin:round;stroke-miterlimit:10;stroke-dasharray:none;stroke-opacity:1"
         id="path80"
         inkscape:connector-curvature="0" /><path
         d="m -427.31953,540.6255 v 106.886"
         style="fill:none;stroke:#000000;stroke-width:0.15175501;stroke-linecap:butt;stroke-linejoin:round;stroke-miterlimit:10;stroke-dasharray:none;stroke-opacity:1"
         id="path82"
         inkscape:connector-curvature="0" /><path
         d="m -427.31953,540.6255 v 1.3658"
         style="fill:none;stroke:#000000;stroke-width:0.15175501;stroke-linecap:butt;stroke-linejoin:round;stroke-miterlimit:10;stroke-dasharray:none;stroke-opacity:1"
         id="path84"
         inkscape:connector-curvature="0" /><path
         d="m -427.31953,647.5115 v -1.3403"
         style="fill:none;stroke:#000000;stroke-width:0.15175501;stroke-linecap:butt;stroke-linejoin:round;stroke-miterlimit:10;stroke-dasharray:none;stroke-opacity:1"
         id="path86"
         inkscape:connector-curvature="0" /><text
         y="-532.98718"
         x="-433.59207"
         id="text92"
         style="font-variant:normal;font-weight:normal;font-size:7.28423977px;font-family:Helvetica;-inkscape-font-specification:Helvetica;writing-mode:lr-tb;fill:#000000;fill-opacity:1;fill-rule:nonzero;stroke:none;stroke-width:0.30351001"
         transform="scale(1,-1)"><tspan
           style="stroke-width:0.30351001"
           id="tspan90"
           sodipodi:role="line"
           y="-532.98718"
           x="-433.59207 -429.33807">−5</tspan></text>
<path
         d="m -359.53564,540.6255 v 1.3658"
         style="fill:none;stroke:#000000;stroke-width:0.15175501;stroke-linecap:butt;stroke-linejoin:round;stroke-miterlimit:10;stroke-dasharray:none;stroke-opacity:1"
         id="path94"
         inkscape:connector-curvature="0" /><path
         d="m -359.53564,647.5115 v -1.3403"
         style="fill:none;stroke:#000000;stroke-width:0.15175501;stroke-linecap:butt;stroke-linejoin:round;stroke-miterlimit:10;stroke-dasharray:none;stroke-opacity:1"
         id="path96"
         inkscape:connector-curvature="0" /><text
         y="-532.98718"
         x="-361.55914"
         id="text102"
         style="font-variant:normal;font-weight:normal;font-size:7.28423977px;font-family:Helvetica;-inkscape-font-specification:Helvetica;writing-mode:lr-tb;fill:#000000;fill-opacity:1;fill-rule:nonzero;stroke:none;stroke-width:0.30351001"
         transform="scale(1,-1)"><tspan
           style="stroke-width:0.30351001"
           id="tspan100"
           y="-532.98718"
           x="-361.55914">0</tspan></text>
<path
         d="m -291.75184,540.6255 v 1.3658"
         style="fill:none;stroke:#000000;stroke-width:0.15175501;stroke-linecap:butt;stroke-linejoin:round;stroke-miterlimit:10;stroke-dasharray:none;stroke-opacity:1"
         id="path104"
         inkscape:connector-curvature="0" /><path
         d="m -291.75184,647.5115 v -1.3403"
         style="fill:none;stroke:#000000;stroke-width:0.15175501;stroke-linecap:butt;stroke-linejoin:round;stroke-miterlimit:10;stroke-dasharray:none;stroke-opacity:1"
         id="path106"
         inkscape:connector-curvature="0" /><text
         y="-532.98718"
         x="-293.77505"
         id="text112"
         style="font-variant:normal;font-weight:normal;font-size:7.28423977px;font-family:Helvetica;-inkscape-font-specification:Helvetica;writing-mode:lr-tb;fill:#000000;fill-opacity:1;fill-rule:nonzero;stroke:none;stroke-width:0.30351001"
         transform="scale(1,-1)"><tspan
           style="stroke-width:0.30351001"
           id="tspan110"
           y="-532.98718"
           x="-293.77505">5</tspan></text>
<path
         d="m -427.31953,551.32423 h 1.34048"
         style="fill:none;stroke:#000000;stroke-width:0.15175501;stroke-linecap:butt;stroke-linejoin:round;stroke-miterlimit:10;stroke-dasharray:none;stroke-opacity:1"
         id="path114"
         inkscape:connector-curvature="0" /><path
         d="m -291.75184,551.32423 h -1.3658"
         style="fill:none;stroke:#000000;stroke-width:0.15175501;stroke-linecap:butt;stroke-linejoin:round;stroke-miterlimit:10;stroke-dasharray:none;stroke-opacity:1"
         id="path116"
         inkscape:connector-curvature="0" /><text
         y="-548.61792"
         x="-436.5007"
         id="text122"
         style="font-variant:normal;font-weight:normal;font-size:7.28423977px;font-family:Helvetica;-inkscape-font-specification:Helvetica;writing-mode:lr-tb;fill:#000000;fill-opacity:1;fill-rule:nonzero;stroke:none;stroke-width:0.30351001"
         transform="scale(1,-1)"><tspan
           style="stroke-width:0.30351001"
           id="tspan120"
           sodipodi:role="line"
           y="-548.61792"
           x="-436.5007 -432.2467">−2</tspan></text>
<path
         d="m -427.31953,572.69628 h 1.34048"
         style="fill:none;stroke:#000000;stroke-width:0.15175501;stroke-linecap:butt;stroke-linejoin:round;stroke-miterlimit:10;stroke-dasharray:none;stroke-opacity:1"
         id="path124"
         inkscape:connector-curvature="0" /><path
         d="m -291.75184,572.69628 h -1.3658"
         style="fill:none;stroke:#000000;stroke-width:0.15175501;stroke-linecap:butt;stroke-linejoin:round;stroke-miterlimit:10;stroke-dasharray:none;stroke-opacity:1"
         id="path126"
         inkscape:connector-curvature="0" /><text
         y="-569.99017"
         x="-436.5007"
         id="text132"
         style="font-variant:normal;font-weight:normal;font-size:7.28423977px;font-family:Helvetica;-inkscape-font-specification:Helvetica;writing-mode:lr-tb;fill:#000000;fill-opacity:1;fill-rule:nonzero;stroke:none;stroke-width:0.30351001"
         transform="scale(1,-1)"><tspan
           style="stroke-width:0.30351001"
           id="tspan130"
           sodipodi:role="line"
           y="-569.99017"
           x="-436.5007 -432.2467">−1</tspan></text>
<path
         d="m -427.31953,594.06854 h 1.34048"
         style="fill:none;stroke:#000000;stroke-width:0.15175501;stroke-linecap:butt;stroke-linejoin:round;stroke-miterlimit:10;stroke-dasharray:none;stroke-opacity:1"
         id="path134"
         inkscape:connector-curvature="0" /><path
         d="m -291.75184,594.06854 h -1.3658"
         style="fill:none;stroke:#000000;stroke-width:0.15175501;stroke-linecap:butt;stroke-linejoin:round;stroke-miterlimit:10;stroke-dasharray:none;stroke-opacity:1"
         id="path136"
         inkscape:connector-curvature="0" /><text
         y="-591.36212"
         x="-432.25156"
         id="text142"
         style="font-variant:normal;font-weight:normal;font-size:7.28423977px;font-family:Helvetica;-inkscape-font-specification:Helvetica;writing-mode:lr-tb;fill:#000000;fill-opacity:1;fill-rule:nonzero;stroke:none;stroke-width:0.30351001"
         transform="scale(1,-1)"><tspan
           style="stroke-width:0.30351001"
           id="tspan140"
           y="-591.36212"
           x="-432.25156">0</tspan></text>
<path
         d="m -427.31953,615.466 h 1.34048"
         style="fill:none;stroke:#000000;stroke-width:0.15175501;stroke-linecap:butt;stroke-linejoin:round;stroke-miterlimit:10;stroke-dasharray:none;stroke-opacity:1"
         id="path144"
         inkscape:connector-curvature="0" /><path
         d="m -291.75184,615.466 h -1.3658"
         style="fill:none;stroke:#000000;stroke-width:0.15175501;stroke-linecap:butt;stroke-linejoin:round;stroke-miterlimit:10;stroke-dasharray:none;stroke-opacity:1"
         id="path146"
         inkscape:connector-curvature="0" /><text
         y="-612.75958"
         x="-432.25156"
         id="text152"
         style="font-variant:normal;font-weight:normal;font-size:7.28423977px;font-family:Helvetica;-inkscape-font-specification:Helvetica;writing-mode:lr-tb;fill:#000000;fill-opacity:1;fill-rule:nonzero;stroke:none;stroke-width:0.30351001"
         transform="scale(1,-1)"><tspan
           style="stroke-width:0.30351001"
           id="tspan150"
           y="-612.75958"
           x="-432.25156">1</tspan></text>
<path
         d="m -427.31953,636.83826 h 1.34048"
         style="fill:none;stroke:#000000;stroke-width:0.15175501;stroke-linecap:butt;stroke-linejoin:round;stroke-miterlimit:10;stroke-dasharray:none;stroke-opacity:1"
         id="path154"
         inkscape:connector-curvature="0" /><path
         d="m -291.75184,636.83826 h -1.3658"
         style="fill:none;stroke:#000000;stroke-width:0.15175501;stroke-linecap:butt;stroke-linejoin:round;stroke-miterlimit:10;stroke-dasharray:none;stroke-opacity:1"
         id="path156"
         inkscape:connector-curvature="0" /><text
         y="-634.1319"
         x="-432.25156"
         id="text162"
         style="font-variant:normal;font-weight:normal;font-size:7.28423977px;font-family:Helvetica;-inkscape-font-specification:Helvetica;writing-mode:lr-tb;fill:#000000;fill-opacity:1;fill-rule:nonzero;stroke:none;stroke-width:0.30351001"
         transform="scale(1,-1)"><tspan
           style="stroke-width:0.30351001"
           id="tspan160"
           y="-634.1319"
           x="-432.25156">2</tspan></text>
<path
         d="m -427.31953,540.6255 h 135.56769"
         style="fill:none;stroke:#000000;stroke-width:0.15175501;stroke-linecap:butt;stroke-linejoin:round;stroke-miterlimit:10;stroke-dasharray:none;stroke-opacity:1"
         id="path164"
         inkscape:connector-curvature="0" /><path
         d="m -427.31953,647.5115 h 135.56769"
         style="fill:none;stroke:#000000;stroke-width:0.15175501;stroke-linecap:butt;stroke-linejoin:round;stroke-miterlimit:10;stroke-dasharray:none;stroke-opacity:1"
         id="path166"
         inkscape:connector-curvature="0" /><path
         d="m -427.31953,540.6255 v 106.886"
         style="fill:none;stroke:#000000;stroke-width:0.15175501;stroke-linecap:butt;stroke-linejoin:round;stroke-miterlimit:10;stroke-dasharray:none;stroke-opacity:1"
         id="path168"
         inkscape:connector-curvature="0" /><path
         d="m -291.75184,540.6255 v 106.886"
         style="fill:none;stroke:#000000;stroke-width:0.15175501;stroke-linecap:butt;stroke-linejoin:round;stroke-miterlimit:10;stroke-dasharray:none;stroke-opacity:1"
         id="path170"
         inkscape:connector-curvature="0" /><path
         inkscape:connector-curvature="0"
         id="path180"
         style="fill:#dfdfdf;fill-opacity:1;fill-rule:evenodd;stroke:none;stroke-width:0.030351"
         d="m -426.91486,551.32423 h 134.73325 v 85.51394 h -134.73325 z" /><path
         inkscape:connector-curvature="0"
         id="path182"
         style="fill:none;stroke:#dfdfdf;stroke-width:0.15175501;stroke-linecap:butt;stroke-linejoin:round;stroke-miterlimit:10;stroke-dasharray:none;stroke-opacity:1"
         d="m -426.91486,551.32423 h 134.73325 v 85.51394 h -134.73325 z" /><path
         d="m -426.86427,568.21951 c 0,-0.25131 -0.20383,-0.45527 -0.45526,-0.45527 -0.25143,0 -0.45527,0.20396 -0.45527,0.45527 0,0.25161 0.20384,0.45526 0.45527,0.45526 0.25143,0 0.45526,-0.20365 0.45526,-0.45526"
         style="fill:#0000ff;fill-opacity:1;fill-rule:nonzero;stroke:none;stroke-width:0.030351"
         id="path186"
         inkscape:connector-curvature="0" /><path
         d="m -424.15799,578.99411 c 0,-0.2513 -0.20381,-0.45526 -0.45527,-0.45526 -0.25142,0 -0.45526,0.20396 -0.45526,0.45526 0,0.25161 0.20384,0.45527 0.45526,0.45527 0.25146,0 0.45527,-0.20366 0.45527,-0.45527"
         style="fill:#0000ff;fill-opacity:1;fill-rule:nonzero;stroke:none;stroke-width:0.030351"
         id="path188"
         inkscape:connector-curvature="0" /><path
         d="m -421.45168,590.55299 c 0,-0.25161 -0.20384,-0.45527 -0.45527,-0.45527 -0.25143,0 -0.45526,0.20366 -0.45526,0.45527 0,0.2513 0.20383,0.45526 0.45526,0.45526 0.25143,0 0.45527,-0.20396 0.45527,-0.45526"
         style="fill:#0000ff;fill-opacity:1;fill-rule:nonzero;stroke:none;stroke-width:0.030351"
         id="path190"
         inkscape:connector-curvature="0" /><path
         d="m -418.74537,601.78286 c 0,-0.25161 -0.20384,-0.45527 -0.45527,-0.45527 -0.25143,0 -0.45526,0.20366 -0.45526,0.45527 0,0.2513 0.20383,0.45526 0.45526,0.45526 0.25143,0 0.45527,-0.20396 0.45527,-0.45526"
         style="fill:#0000ff;fill-opacity:1;fill-rule:nonzero;stroke:none;stroke-width:0.030351"
         id="path192"
         inkscape:connector-curvature="0" /><path
         d="m -416.03919,611.77319 c 0,-0.2513 -0.20365,-0.45526 -0.45526,-0.45526 -0.25134,0 -0.45518,0.20396 -0.45518,0.45526 0,0.25161 0.20384,0.45527 0.45518,0.45527 0.25161,0 0.45526,-0.20366 0.45526,-0.45527"
         style="fill:#0000ff;fill-opacity:1;fill-rule:nonzero;stroke:none;stroke-width:0.030351"
         id="path194"
         inkscape:connector-curvature="0" /><path
         d="m -413.3076,619.89209 c 0,-0.25131 -0.20365,-0.45527 -0.45526,-0.45527 -0.25131,0 -0.45527,0.20396 -0.45527,0.45527 0,0.25161 0.20396,0.45526 0.45527,0.45526 0.25161,0 0.45526,-0.20365 0.45526,-0.45526"
         style="fill:#0000ff;fill-opacity:1;fill-rule:nonzero;stroke:none;stroke-width:0.030351"
         id="path196"
         inkscape:connector-curvature="0" /><path
         d="m -410.6012,625.65878 c 0,-0.25131 -0.20396,-0.45527 -0.45526,-0.45527 -0.25131,0 -0.45527,0.20396 -0.45527,0.45527 0,0.25161 0.20396,0.45526 0.45527,0.45526 0.2513,0 0.45526,-0.20365 0.45526,-0.45526"
         style="fill:#0000ff;fill-opacity:1;fill-rule:nonzero;stroke:none;stroke-width:0.030351"
         id="path198"
         inkscape:connector-curvature="0" /><path
         d="m -407.8948,628.618 c 0,-0.25131 -0.20396,-0.45527 -0.45527,-0.45527 -0.25161,0 -0.45526,0.20396 -0.45526,0.45527 0,0.25161 0.20365,0.45526 0.45526,0.45526 0.25131,0 0.45527,-0.20365 0.45527,-0.45526"
         style="fill:#0000ff;fill-opacity:1;fill-rule:nonzero;stroke:none;stroke-width:0.030351"
         id="path200"
         inkscape:connector-curvature="0" /><path
         d="m -405.18871,628.46624 c 0,-0.2513 -0.20365,-0.45526 -0.45526,-0.45526 -0.25131,0 -0.45527,0.20396 -0.45527,0.45526 0,0.25161 0.20396,0.45527 0.45527,0.45527 0.25161,0 0.45526,-0.20366 0.45526,-0.45527"
         style="fill:#0000ff;fill-opacity:1;fill-rule:nonzero;stroke:none;stroke-width:0.030351"
         id="path202"
         inkscape:connector-curvature="0" /><path
         d="m -402.48231,625.15313 c 0,-0.25161 -0.20396,-0.45527 -0.45526,-0.45527 -0.25131,0 -0.45527,0.20366 -0.45527,0.45527 0,0.2513 0.20396,0.45526 0.45527,0.45526 0.2513,0 0.45526,-0.20396 0.45526,-0.45526"
         style="fill:#0000ff;fill-opacity:1;fill-rule:nonzero;stroke:none;stroke-width:0.030351"
         id="path204"
         inkscape:connector-curvature="0" /><path
         d="m -399.75072,619.05743 c 0,-0.2513 -0.20396,-0.45526 -0.45526,-0.45526 -0.25131,0 -0.45527,0.20396 -0.45527,0.45526 0,0.25161 0.20396,0.45527 0.45527,0.45527 0.2513,0 0.45526,-0.20366 0.45526,-0.45527"
         style="fill:#0000ff;fill-opacity:1;fill-rule:nonzero;stroke:none;stroke-width:0.030351"
         id="path206"
         inkscape:connector-curvature="0" /><path
         d="m -397.04432,611.24205 c 0,-0.2513 -0.20396,-0.45526 -0.45526,-0.45526 -0.25161,0 -0.45527,0.20396 -0.45527,0.45526 0,0.25161 0.20366,0.45527 0.45527,0.45527 0.2513,0 0.45526,-0.20366 0.45526,-0.45527"
         style="fill:#0000ff;fill-opacity:1;fill-rule:nonzero;stroke:none;stroke-width:0.030351"
         id="path208"
         inkscape:connector-curvature="0" /><path
         d="m -394.33822,603.09797 c 0,-0.25131 -0.20366,-0.45527 -0.45527,-0.45527 -0.2513,0 -0.45526,0.20396 -0.45526,0.45527 0,0.2513 0.20396,0.45526 0.45526,0.45526 0.25161,0 0.45527,-0.20396 0.45527,-0.45526"
         style="fill:#0000ff;fill-opacity:1;fill-rule:nonzero;stroke:none;stroke-width:0.030351"
         id="path210"
         inkscape:connector-curvature="0" /><path
         d="m -391.63182,596.14243 c 0,-0.25131 -0.20396,-0.45527 -0.45527,-0.45527 -0.25131,0 -0.45526,0.20396 -0.45526,0.45527 0,0.25161 0.20395,0.45526 0.45526,0.45526 0.25131,0 0.45527,-0.20365 0.45527,-0.45526"
         style="fill:#0000ff;fill-opacity:1;fill-rule:nonzero;stroke:none;stroke-width:0.030351"
         id="path212"
         inkscape:connector-curvature="0" /><path
         d="m -388.92543,591.64046 c 0,-0.2513 -0.20396,-0.45526 -0.45526,-0.45526 -0.25161,0 -0.45527,0.20396 -0.45527,0.45526 0,0.25131 0.20366,0.45527 0.45527,0.45527 0.2513,0 0.45526,-0.20396 0.45526,-0.45527"
         style="fill:#0000ff;fill-opacity:1;fill-rule:nonzero;stroke:none;stroke-width:0.030351"
         id="path214"
         inkscape:connector-curvature="0" /><path
         d="m -386.19384,590.12292 c 0,-0.25131 -0.20396,-0.45527 -0.45526,-0.45527 -0.25161,0 -0.45527,0.20396 -0.45527,0.45527 0,0.2513 0.20366,0.45526 0.45527,0.45526 0.2513,0 0.45526,-0.20396 0.45526,-0.45526"
         style="fill:#0000ff;fill-opacity:1;fill-rule:nonzero;stroke:none;stroke-width:0.030351"
         id="path216"
         inkscape:connector-curvature="0" /><path
         d="m -383.48774,591.58978 c 0,-0.25131 -0.20366,-0.45527 -0.45527,-0.45527 -0.2513,0 -0.45526,0.20396 -0.45526,0.45527 0,0.25161 0.20396,0.45526 0.45526,0.45526 0.25161,0 0.45527,-0.20365 0.45527,-0.45526"
         style="fill:#0000ff;fill-opacity:1;fill-rule:nonzero;stroke:none;stroke-width:0.030351"
         id="path218"
         inkscape:connector-curvature="0" /><path
         d="m -380.78134,595.45953 c 0,-0.2513 -0.20396,-0.45526 -0.45527,-0.45526 -0.2513,0 -0.45526,0.20396 -0.45526,0.45526 0,0.25161 0.20396,0.45527 0.45526,0.45527 0.25131,0 0.45527,-0.20366 0.45527,-0.45527"
         style="fill:#0000ff;fill-opacity:1;fill-rule:nonzero;stroke:none;stroke-width:0.030351"
         id="path220"
         inkscape:connector-curvature="0" /><path
         d="m -378.07494,600.99859 c 0,-0.25131 -0.20396,-0.45527 -0.45527,-0.45527 -0.25161,0 -0.45526,0.20396 -0.45526,0.45527 0,0.25161 0.20365,0.45526 0.45526,0.45526 0.25131,0 0.45527,-0.20365 0.45527,-0.45526"
         style="fill:#0000ff;fill-opacity:1;fill-rule:nonzero;stroke:none;stroke-width:0.030351"
         id="path222"
         inkscape:connector-curvature="0" /><path
         d="m -375.36885,607.34711 c 0,-0.25131 -0.20365,-0.45527 -0.45526,-0.45527 -0.25131,0 -0.45527,0.20396 -0.45527,0.45527 0,0.2513 0.20396,0.45526 0.45527,0.45526 0.25161,0 0.45526,-0.20396 0.45526,-0.45526"
         style="fill:#0000ff;fill-opacity:1;fill-rule:nonzero;stroke:none;stroke-width:0.030351"
         id="path224"
         inkscape:connector-curvature="0" /><path
         d="m -372.63726,613.72082 c 0,-0.25131 -0.20365,-0.45527 -0.45526,-0.45527 -0.25131,0 -0.45527,0.20396 -0.45527,0.45527 0,0.2513 0.20396,0.45526 0.45527,0.45526 0.25161,0 0.45526,-0.20396 0.45526,-0.45526"
         style="fill:#0000ff;fill-opacity:1;fill-rule:nonzero;stroke:none;stroke-width:0.030351"
         id="path226"
         inkscape:connector-curvature="0" /><path
         d="m -369.93086,619.36094 c 0,-0.2513 -0.20396,-0.45526 -0.45526,-0.45526 -0.25131,0 -0.45527,0.20396 -0.45527,0.45526 0,0.25161 0.20396,0.45527 0.45527,0.45527 0.2513,0 0.45526,-0.20366 0.45526,-0.45527"
         style="fill:#0000ff;fill-opacity:1;fill-rule:nonzero;stroke:none;stroke-width:0.030351"
         id="path228"
         inkscape:connector-curvature="0" /><path
         d="m -367.22446,623.61008 c 0,-0.2513 -0.20396,-0.45526 -0.45527,-0.45526 -0.25161,0 -0.45526,0.20396 -0.45526,0.45526 0,0.25161 0.20365,0.45527 0.45526,0.45527 0.25131,0 0.45527,-0.20366 0.45527,-0.45527"
         style="fill:#0000ff;fill-opacity:1;fill-rule:nonzero;stroke:none;stroke-width:0.030351"
         id="path230"
         inkscape:connector-curvature="0" /><path
         d="m -364.51837,626.06366 c 0,-0.25161 -0.20365,-0.45527 -0.45526,-0.45527 -0.25131,0 -0.45527,0.20366 -0.45527,0.45527 0,0.2513 0.20396,0.45526 0.45527,0.45526 0.25161,0 0.45526,-0.20396 0.45526,-0.45526"
         style="fill:#0000ff;fill-opacity:1;fill-rule:nonzero;stroke:none;stroke-width:0.030351"
         id="path232"
         inkscape:connector-curvature="0" /><path
         d="m -361.81197,626.72106 c 0,-0.2513 -0.20396,-0.45526 -0.45526,-0.45526 -0.25131,0 -0.45527,0.20396 -0.45527,0.45526 0,0.25161 0.20396,0.45527 0.45527,0.45527 0.2513,0 0.45526,-0.20366 0.45526,-0.45527"
         style="fill:#0000ff;fill-opacity:1;fill-rule:nonzero;stroke:none;stroke-width:0.030351"
         id="path234"
         inkscape:connector-curvature="0" /><path
         d="m -359.08038,626.01297 c 0,-0.2513 -0.20396,-0.45526 -0.45526,-0.45526 -0.25131,0 -0.45527,0.20396 -0.45527,0.45526 0,0.25131 0.20396,0.45527 0.45527,0.45527 0.2513,0 0.45526,-0.20396 0.45526,-0.45527"
         style="fill:#0000ff;fill-opacity:1;fill-rule:nonzero;stroke:none;stroke-width:0.030351"
         id="path236"
         inkscape:connector-curvature="0" /><path
         d="m -356.37398,624.64718 c 0,-0.25131 -0.20396,-0.45527 -0.45526,-0.45527 -0.25161,0 -0.45527,0.20396 -0.45527,0.45527 0,0.2513 0.20366,0.45526 0.45527,0.45526 0.2513,0 0.45526,-0.20396 0.45526,-0.45526"
         style="fill:#0000ff;fill-opacity:1;fill-rule:nonzero;stroke:none;stroke-width:0.030351"
         id="path238"
         inkscape:connector-curvature="0" /><path
         d="m -353.66788,623.40795 c 0,-0.25161 -0.20366,-0.45527 -0.45527,-0.45527 -0.2513,0 -0.45526,0.20366 -0.45526,0.45527 0,0.2513 0.20396,0.45526 0.45526,0.45526 0.25161,0 0.45527,-0.20396 0.45527,-0.45526"
         style="fill:#0000ff;fill-opacity:1;fill-rule:nonzero;stroke:none;stroke-width:0.030351"
         id="path240"
         inkscape:connector-curvature="0" /><path
         d="m -350.96149,622.77543 c 0,-0.2513 -0.20395,-0.45526 -0.45526,-0.45526 -0.25131,0 -0.45527,0.20396 -0.45527,0.45526 0,0.25161 0.20396,0.45527 0.45527,0.45527 0.25131,0 0.45526,-0.20366 0.45526,-0.45527"
         style="fill:#0000ff;fill-opacity:1;fill-rule:nonzero;stroke:none;stroke-width:0.030351"
         id="path242"
         inkscape:connector-curvature="0" /><path
         d="m -348.25509,622.82612 c 0,-0.25131 -0.20396,-0.45527 -0.45526,-0.45527 -0.25161,0 -0.45527,0.20396 -0.45527,0.45527 0,0.2513 0.20366,0.45526 0.45527,0.45526 0.2513,0 0.45526,-0.20396 0.45526,-0.45526"
         style="fill:#0000ff;fill-opacity:1;fill-rule:nonzero;stroke:none;stroke-width:0.030351"
         id="path244"
         inkscape:connector-curvature="0" /><path
         d="m -345.5235,623.33207 c 0,-0.25161 -0.20396,-0.45527 -0.45526,-0.45527 -0.25161,0 -0.45527,0.20366 -0.45527,0.45527 0,0.2513 0.20366,0.45526 0.45527,0.45526 0.2513,0 0.45526,-0.20396 0.45526,-0.45526"
         style="fill:#0000ff;fill-opacity:1;fill-rule:nonzero;stroke:none;stroke-width:0.030351"
         id="path246"
         inkscape:connector-curvature="0" /><path
         d="m -342.8174,623.86321 c 0,-0.25161 -0.20366,-0.45526 -0.45527,-0.45526 -0.2513,0 -0.45526,0.20365 -0.45526,0.45526 0,0.25131 0.20396,0.45527 0.45526,0.45527 0.25161,0 0.45527,-0.20396 0.45527,-0.45527"
         style="fill:#0000ff;fill-opacity:1;fill-rule:nonzero;stroke:none;stroke-width:0.030351"
         id="path248"
         inkscape:connector-curvature="0" /><path
         d="m -340.111,624.01497 c 0,-0.25161 -0.20396,-0.45527 -0.45527,-0.45527 -0.2513,0 -0.45526,0.20366 -0.45526,0.45527 0,0.2513 0.20396,0.45526 0.45526,0.45526 0.25131,0 0.45527,-0.20396 0.45527,-0.45526"
         style="fill:#0000ff;fill-opacity:1;fill-rule:nonzero;stroke:none;stroke-width:0.030351"
         id="path250"
         inkscape:connector-curvature="0" /><path
         d="m -337.4046,623.63558 c 0,-0.25161 -0.20396,-0.45527 -0.45527,-0.45527 -0.25161,0 -0.45526,0.20366 -0.45526,0.45527 0,0.2513 0.20365,0.45526 0.45526,0.45526 0.25131,0 0.45527,-0.20396 0.45527,-0.45526"
         style="fill:#0000ff;fill-opacity:1;fill-rule:nonzero;stroke:none;stroke-width:0.030351"
         id="path252"
         inkscape:connector-curvature="0" /><path
         d="m -334.69851,622.62368 c 0,-0.25131 -0.20365,-0.45527 -0.45526,-0.45527 -0.25131,0 -0.45527,0.20396 -0.45527,0.45527 0,0.25161 0.20396,0.45526 0.45527,0.45526 0.25161,0 0.45526,-0.20365 0.45526,-0.45526"
         style="fill:#0000ff;fill-opacity:1;fill-rule:nonzero;stroke:none;stroke-width:0.030351"
         id="path254"
         inkscape:connector-curvature="0" /><path
         d="m -331.96692,620.92918 c 0,-0.25131 -0.20365,-0.45526 -0.45526,-0.45526 -0.25131,0 -0.45527,0.20395 -0.45527,0.45526 0,0.25131 0.20396,0.45527 0.45527,0.45527 0.25161,0 0.45526,-0.20396 0.45526,-0.45527"
         style="fill:#0000ff;fill-opacity:1;fill-rule:nonzero;stroke:none;stroke-width:0.030351"
         id="path256"
         inkscape:connector-curvature="0" /><path
         d="m -329.26052,618.42522 c 0,-0.2513 -0.20396,-0.45526 -0.45526,-0.45526 -0.25131,0 -0.45527,0.20396 -0.45527,0.45526 0,0.25131 0.20396,0.45527 0.45527,0.45527 0.2513,0 0.45526,-0.20396 0.45526,-0.45527"
         style="fill:#0000ff;fill-opacity:1;fill-rule:nonzero;stroke:none;stroke-width:0.030351"
         id="path258"
         inkscape:connector-curvature="0" /><path
         d="m -326.55412,615.1373 c 0,-0.25161 -0.20396,-0.45527 -0.45527,-0.45527 -0.25161,0 -0.45526,0.20366 -0.45526,0.45527 0,0.2513 0.20365,0.45526 0.45526,0.45526 0.25131,0 0.45527,-0.20396 0.45527,-0.45526"
         style="fill:#0000ff;fill-opacity:1;fill-rule:nonzero;stroke:none;stroke-width:0.030351"
         id="path260"
         inkscape:connector-curvature="0" /><path
         d="m -323.84803,611.19167 c 0,-0.25161 -0.20365,-0.45527 -0.45526,-0.45527 -0.25131,0 -0.45527,0.20366 -0.45527,0.45527 0,0.2513 0.20396,0.45526 0.45527,0.45526 0.25161,0 0.45526,-0.20396 0.45526,-0.45526"
         style="fill:#0000ff;fill-opacity:1;fill-rule:nonzero;stroke:none;stroke-width:0.030351"
         id="path262"
         inkscape:connector-curvature="0" /><path
         d="m -321.14163,606.96772 c 0,-0.25131 -0.20396,-0.45526 -0.45526,-0.45526 -0.25131,0 -0.45527,0.20395 -0.45527,0.45526 0,0.25131 0.20396,0.45527 0.45527,0.45527 0.2513,0 0.45526,-0.20396 0.45526,-0.45527"
         style="fill:#0000ff;fill-opacity:1;fill-rule:nonzero;stroke:none;stroke-width:0.030351"
         id="path264"
         inkscape:connector-curvature="0" /><path
         d="m -318.41004,603.04728 c 0,-0.2513 -0.20396,-0.45526 -0.45526,-0.45526 -0.25131,0 -0.45527,0.20396 -0.45527,0.45526 0,0.25161 0.20396,0.45527 0.45527,0.45527 0.2513,0 0.45526,-0.20366 0.45526,-0.45527"
         style="fill:#0000ff;fill-opacity:1;fill-rule:nonzero;stroke:none;stroke-width:0.030351"
         id="path266"
         inkscape:connector-curvature="0" /><path
         d="m -315.70364,600.03768 c 0,-0.25161 -0.20396,-0.45527 -0.45526,-0.45527 -0.25161,0 -0.45527,0.20366 -0.45527,0.45527 0,0.2513 0.20366,0.45526 0.45527,0.45526 0.2513,0 0.45526,-0.20396 0.45526,-0.45526"
         style="fill:#0000ff;fill-opacity:1;fill-rule:nonzero;stroke:none;stroke-width:0.030351"
         id="path268"
         inkscape:connector-curvature="0" /><path
         d="m -312.99754,598.21662 c 0,-0.25161 -0.20366,-0.45527 -0.45527,-0.45527 -0.2513,0 -0.45526,0.20366 -0.45526,0.45527 0,0.2513 0.20396,0.45526 0.45526,0.45526 0.25161,0 0.45527,-0.20396 0.45527,-0.45526"
         style="fill:#0000ff;fill-opacity:1;fill-rule:nonzero;stroke:none;stroke-width:0.030351"
         id="path270"
         inkscape:connector-curvature="0" /><path
         d="m -310.29115,597.40715 c 0,-0.2513 -0.20395,-0.45526 -0.45526,-0.45526 -0.25131,0 -0.45527,0.20396 -0.45527,0.45526 0,0.25131 0.20396,0.45527 0.45527,0.45527 0.25131,0 0.45526,-0.20396 0.45526,-0.45527"
         style="fill:#0000ff;fill-opacity:1;fill-rule:nonzero;stroke:none;stroke-width:0.030351"
         id="path272"
         inkscape:connector-curvature="0" /><path
         d="m -307.58475,597.00258 c 0,-0.25161 -0.20396,-0.45527 -0.45526,-0.45527 -0.25161,0 -0.45527,0.20366 -0.45527,0.45527 0,0.2513 0.20366,0.45526 0.45527,0.45526 0.2513,0 0.45526,-0.20396 0.45526,-0.45526"
         style="fill:#0000ff;fill-opacity:1;fill-rule:nonzero;stroke:none;stroke-width:0.030351"
         id="path274"
         inkscape:connector-curvature="0" /><path
         d="m -304.85316,596.14243 c 0,-0.25131 -0.20396,-0.45527 -0.45526,-0.45527 -0.25161,0 -0.45527,0.20396 -0.45527,0.45527 0,0.25161 0.20366,0.45526 0.45527,0.45526 0.2513,0 0.45526,-0.20365 0.45526,-0.45526"
         style="fill:#0000ff;fill-opacity:1;fill-rule:nonzero;stroke:none;stroke-width:0.030351"
         id="path276"
         inkscape:connector-curvature="0" /><path
         d="m -302.14706,593.94198 c 0,-0.2513 -0.20366,-0.45526 -0.45527,-0.45526 -0.2513,0 -0.45526,0.20396 -0.45526,0.45526 0,0.25161 0.20396,0.45527 0.45526,0.45527 0.25161,0 0.45527,-0.20366 0.45527,-0.45527"
         style="fill:#0000ff;fill-opacity:1;fill-rule:nonzero;stroke:none;stroke-width:0.030351"
         id="path278"
         inkscape:connector-curvature="0" /><path
         d="m -299.44066,590.02185 c 0,-0.25161 -0.20396,-0.45527 -0.45527,-0.45527 -0.2513,0 -0.45526,0.20366 -0.45526,0.45527 0,0.2513 0.20396,0.45526 0.45526,0.45526 0.25131,0 0.45527,-0.20396 0.45527,-0.45526"
         style="fill:#0000ff;fill-opacity:1;fill-rule:nonzero;stroke:none;stroke-width:0.030351"
         id="path280"
         inkscape:connector-curvature="0" /><path
         d="m -296.73426,584.50798 c 0,-0.25131 -0.20396,-0.45526 -0.45527,-0.45526 -0.25161,0 -0.45526,0.20395 -0.45526,0.45526 0,0.25131 0.20365,0.45527 0.45526,0.45527 0.25131,0 0.45527,-0.20396 0.45527,-0.45527"
         style="fill:#0000ff;fill-opacity:1;fill-rule:nonzero;stroke:none;stroke-width:0.030351"
         id="path282"
         inkscape:connector-curvature="0" /><path
         d="m -294.02817,578.13427 c 0,-0.25131 -0.20365,-0.45527 -0.45526,-0.45527 -0.25131,0 -0.45527,0.20396 -0.45527,0.45527 0,0.25131 0.20396,0.45527 0.45527,0.45527 0.25161,0 0.45526,-0.20396 0.45526,-0.45527"
         style="fill:#0000ff;fill-opacity:1;fill-rule:nonzero;stroke:none;stroke-width:0.030351"
         id="path284"
         inkscape:connector-curvature="0" /><path
         d="m -291.29658,571.88712 c 0,-0.25161 -0.20365,-0.45526 -0.45526,-0.45526 -0.25131,0 -0.45527,0.20365 -0.45527,0.45526 0,0.25131 0.20396,0.45527 0.45527,0.45527 0.25161,0 0.45526,-0.20396 0.45526,-0.45527"
         style="fill:#0000ff;fill-opacity:1;fill-rule:nonzero;stroke:none;stroke-width:0.030351"
         id="path286"
         inkscape:connector-curvature="0" /><path
         inkscape:connector-curvature="0"
         id="path296"
         style="fill:none;stroke:#ff0000;stroke-width:0.60702002;stroke-linecap:butt;stroke-linejoin:round;stroke-miterlimit:10;stroke-dasharray:none;stroke-opacity:1"
         d="m -381.23661,598.31768 0.91053,-3.28792 0.88534,-3.33861 0.91053,-3.3641 0.91053,-3.31312 0.91053,-3.23754 0.88504,-3.11098 0.91053,-2.93403 0.91053,-2.70609 0.91053,-2.45358 0.88534,-2.14976 0.91053,-1.79587 0.91053,-1.46686 0.88533,-1.06229 0.91053,-0.6577 0.91053,-0.25283 0.91053,0.15176 0.88504,0.55633 0.91053,0.98641 0.91053,1.36579 0.91053,1.74519 0.88534,2.09938 0.91053,2.42807 0.91053,2.7316 0.91053,3.0099 0.88534,3.21205 0.91053,3.3638 0.91053,3.49037 0.88503,3.56624 0.91053,3.56624 0.91053,3.51586 0.91053,3.3638 0.88534,3.21205 0.91053,2.93403 0.91053,2.63052 0.91053,2.27633 0.88534,1.84625 0.91053,1.39098 0.91053,0.88534 0.91053,0.3542 0.88503,-0.17725 0.91053,-0.73328 0.91053,-1.28992 0.88534,-1.82106 0.91053,-2.30182 0.91053,-2.78197 0.91053,-3.16166 0.88504,-3.54106 0.91053,-3.79387 0.91053,-4.02151 0.91053,-4.12257 0.88534,-4.17327 0.91053,-4.14807 0.91053,-4.02151 0.91053,-3.81906 0.88534,-3.54105 0.91053,-3.21205 0.91053,-2.80747 0.88503,-2.37739 0.91053,-1.92243 0.91053,-1.44168 0.91053,-0.91053 0.88534,-0.42977 0.91053,0.0504 0.91053,0.53114 0.91053,0.93602 0.88534,1.31511 0.91053,1.66931 0.91053,1.94762 0.91053,2.17495 0.88503,2.32702 0.91053,2.42807 0.91053,2.47877 0.88534,2.45327 0.91053,2.3774 0.91053,2.25113 0.91053,2.04869 0.88534,1.87175 0.91053,1.59343 0.91053,1.28991 0.91053,1.0116 0.88504,0.65771 0.91053,0.35389 h 0.91053 l 0.91053,-0.27801 0.88533,-0.60702 0.91053,-0.86015 0.91053,-1.06229 0.88534,-1.26442 0.91053,-1.36579 0.91053,-1.44168 0.91053,-1.44167 0.88504,-1.36579 0.91053,-1.26473 0.91053,-1.08748 0.91053,-0.86014 0.88534,-0.58153 0.91053,-0.30351 0.91053,0.0504 0.91053,0.37939" /><path
         inkscape:connector-curvature="0"
         id="path298"
         style="fill:none;stroke:#ff0000;stroke-width:0.60702002;stroke-linecap:butt;stroke-linejoin:round;stroke-miterlimit:10;stroke-dasharray:none;stroke-opacity:1"
         d="m -427.31953,609.80038 0.88521,-1.11267 0.91053,-1.0119 0.91053,-0.96091 0.88525,-0.88534 0.91053,-0.80946 0.91053,-0.73328 0.91053,-0.6829 0.88522,-0.60702 0.91053,-0.55664 0.91053,-0.50565 0.91053,-0.43007 0.88516,-0.35389 0.91053,-0.30351 0.91053,-0.20244 0.91053,-0.10107 h 0.88534 l 0.91053,0.10107 0.91053,0.25282 0.88533,0.3542 0.91053,0.53114 0.91053,0.6574 0.91053,0.78427 0.88504,0.93572 0.91053,1.06229 0.91053,1.16335 0.91053,1.28992 0.88534,1.3406 0.91053,1.39099 0.91053,1.41648 0.91053,1.41648 0.88534,1.39099 0.91053,1.31511 0.91053,1.18885 0.88503,1.08747 0.91053,0.93603 0.91053,0.73328 0.91053,0.50595 0.88534,0.27832 h 0.91053 l 0.91053,-0.27832 0.91053,-0.58183 0.88504,-0.88504 0.91053,-1.18884 0.91053,-1.49236 0.91053,-1.79557 0.88533,-2.09938 0.91053,-2.37739 0.91053,-2.60533 0.88534,-2.83266 0.91053,-3.0351 0.91053,-3.18686" /><path
         inkscape:connector-curvature="0"
         id="path300"
         style="fill:none;stroke:#00ff00;stroke-width:0.60702002;stroke-linecap:butt;stroke-linejoin:round;stroke-miterlimit:10;stroke-dasharray:none;stroke-opacity:1"
         d="m -381.23661,594.24549 0.91053,-0.48046 0.88534,-0.68289 0.91053,-0.91053 0.91053,-1.0371 0.91053,-1.13816 0.88504,-1.21404 0.91053,-1.18854 0.91053,-1.18885 0.91053,-1.08748 0.88534,-1.0119 0.91053,-0.85985 0.91053,-0.70808 0.88533,-0.55664 0.91053,-0.40458 0.91053,-0.22763 0.91053,-0.0759 0.88504,0.0759 0.91053,0.20244 0.91053,0.3287 0.91053,0.45526 0.88534,0.53115 0.91053,0.63221 0.91053,0.70839 0.91053,0.78397 0.88534,0.83465 0.91053,0.93572 0.91053,0.98641 0.88503,1.03709 0.91053,1.13817 0.91053,1.18884 0.91053,1.26443 0.88534,1.3406 0.91053,1.3658 0.91053,1.44167 0.91053,1.46686 0.88534,1.46717 0.91053,1.49205 0.91053,1.44168 0.91053,1.39129 0.88503,1.3403 0.91053,1.21404 0.91053,1.11297 0.88534,0.93572 0.91053,0.78427 0.91053,0.58152 0.91053,0.37939 0.88504,0.15176 0.91053,-0.0504 0.91053,-0.30351 0.91053,-0.50595 0.88534,-0.75877 0.91053,-0.93572 0.91053,-1.13817 0.91053,-1.31541 0.88534,-1.46686 0.91053,-1.59343 0.91053,-1.71999 0.88503,-1.82106 0.91053,-1.87144 0.91053,-1.94763 0.91053,-1.94762 0.88534,-1.97282 0.91053,-1.97281 0.91053,-1.97282 0.91053,-1.92213 0.88534,-1.87174 0.91053,-1.79557 0.91053,-1.71999 0.91053,-1.61862 0.88503,-1.51755 0.91053,-1.39129 0.91053,-1.23923 0.88534,-1.06228 0.91053,-0.88534 0.91053,-0.70809 0.91053,-0.48046 0.88534,-0.27832 0.91053,-0.0759 0.91053,0.17694 0.91053,0.37939 0.88504,0.60702 0.91053,0.78427 0.91053,0.98641 0.91053,1.16335 0.88533,1.28992 0.91053,1.41648 0.91053,1.51755 0.88534,1.59343 0.91053,1.59343 0.91053,1.61862 0.91053,1.56823 0.88504,1.54274 0.91053,1.44168 0.91053,1.3406 0.91053,1.21404 0.88534,1.08748 0.91053,0.91053 0.91053,0.73358 0.91053,0.58152" /><path
         inkscape:connector-curvature="0"
         id="path302"
         style="fill:none;stroke:#00ff00;stroke-width:0.60702002;stroke-linecap:butt;stroke-linejoin:round;stroke-miterlimit:10;stroke-dasharray:none;stroke-opacity:1"
         d="m -427.31953,572.9746 0.88521,-1.59343 0.91053,-1.56823 0.91053,-1.56794 0.88525,-1.54304 0.91053,-1.54274 0.91053,-1.54274 0.91053,-1.51755 0.88522,-1.49236 0.91053,-1.49236 0.91053,-1.49206 0.91053,-1.44167 0.88516,-1.41648 0.91053,-1.36576 0.91053,-1.28992 0.91053,-1.21404 0.88534,-1.11285 0.91053,-1.01169 0.91053,-0.88525 0.88533,-0.73346 0.91053,-0.55646 0.91053,-0.37938 0.91053,-0.17704 0.88504,0.0253 0.91053,0.27823 0.91053,0.50583 0.91053,0.75877 0.88534,1.01172 0.91053,1.26461 0.91053,1.51755 0.91053,1.77046 0.88534,1.99798 0.91053,2.20045 0.91053,2.42808 0.88503,2.57983 0.91053,2.73159 0.91053,2.83296 0.91053,2.88335 0.88534,2.90854 0.91053,2.85815 0.91053,2.80747 0.91053,2.65571 0.88504,2.50396 0.91053,2.27632 0.91053,2.0232 0.91053,1.71999 0.88533,1.44167 0.91053,1.08748 0.91053,0.78427 0.88534,0.42977 0.91053,0.10137 0.91053,-0.17725" /><text
         y="-526.23407"
         x="-371.29666"
         id="text310"
         style="font-variant:normal;font-weight:normal;font-size:7.28423977px;font-family:Helvetica;-inkscape-font-specification:Helvetica;writing-mode:lr-tb;fill:#000000;fill-opacity:1;fill-rule:nonzero;stroke:none;stroke-width:0.30351001"
         transform="scale(1,-1)"><tspan
           style="stroke-width:0.30351001"
           id="tspan308"
           sodipodi:role="line"
           y="-526.23407"
           x="-371.29666 -369.67953 -365.62952 -361.57947 -357.52945 -355.50443 -353.4794 -351.45438">input, x</tspan></text>
<text
         y="-439.51053"
         x="576.66742"
         id="text314"
         style="font-variant:normal;font-weight:normal;font-size:7.28423977px;font-family:Helvetica;-inkscape-font-specification:Helvetica;writing-mode:lr-tb;fill:#000000;fill-opacity:1;fill-rule:nonzero;stroke:none;stroke-width:0.30351001"
         transform="matrix(0,1,1,0,0,0)"><tspan
           style="stroke-width:0.30351001"
           id="tspan312"
           sodipodi:role="line"
           y="-439.51053"
           x="576.66742 580.71747 584.76746 586.79248 590.84253 594.89258 596.9176 598.94263 600.96765 602.99268 605.41827 609.06042">output, f(x)</tspan></text>
</g><g
       id="g7356"
       transform="translate(-8.8729306,-0.23582649)"><g
         transform="matrix(0.30467,0,0,0.30467,-276.0224,524.413)"
         id="g322"><g
           clip-path="url(#clipPath328)"
           id="g324"><g
             transform="scale(0.1)"
             id="g332"><path
               d="m 649.167,534.167 h 4466.67 v 3521.67 H 649.167 Z"
               style="fill:none;stroke:#ffffff;stroke-width:5;stroke-linecap:butt;stroke-linejoin:round;stroke-miterlimit:10;stroke-dasharray:none;stroke-opacity:1"
               id="path334"
               inkscape:connector-curvature="0" /><path
               d="M 649.167,534.167 H 5115.83"
               style="fill:none;stroke:#000000;stroke-width:5;stroke-linecap:butt;stroke-linejoin:round;stroke-miterlimit:10;stroke-dasharray:none;stroke-opacity:1"
               id="path336"
               inkscape:connector-curvature="0" /><path
               d="M 649.167,4055.83 H 5115.83"
               style="fill:none;stroke:#000000;stroke-width:5;stroke-linecap:butt;stroke-linejoin:round;stroke-miterlimit:10;stroke-dasharray:none;stroke-opacity:1"
               id="path338"
               inkscape:connector-curvature="0" /><path
               d="M 649.167,534.167 V 4055.83"
               style="fill:none;stroke:#000000;stroke-width:5;stroke-linecap:butt;stroke-linejoin:round;stroke-miterlimit:10;stroke-dasharray:none;stroke-opacity:1"
               id="path340"
               inkscape:connector-curvature="0" /><path
               d="M 5115.83,534.167 V 4055.83"
               style="fill:none;stroke:#000000;stroke-width:5;stroke-linecap:butt;stroke-linejoin:round;stroke-miterlimit:10;stroke-dasharray:none;stroke-opacity:1"
               id="path342"
               inkscape:connector-curvature="0" /><path
               d="M 649.167,534.167 H 5115.83"
               style="fill:none;stroke:#000000;stroke-width:5;stroke-linecap:butt;stroke-linejoin:round;stroke-miterlimit:10;stroke-dasharray:none;stroke-opacity:1"
               id="path344"
               inkscape:connector-curvature="0" /><path
               d="M 649.167,534.167 V 4055.83"
               style="fill:none;stroke:#000000;stroke-width:5;stroke-linecap:butt;stroke-linejoin:round;stroke-miterlimit:10;stroke-dasharray:none;stroke-opacity:1"
               id="path346"
               inkscape:connector-curvature="0" /><path
               d="m 649.167,534.167 v 45"
               style="fill:none;stroke:#000000;stroke-width:5;stroke-linecap:butt;stroke-linejoin:round;stroke-miterlimit:10;stroke-dasharray:none;stroke-opacity:1"
               id="path348"
               inkscape:connector-curvature="0" /><path
               d="m 649.167,4055.83 v -44.16"
               style="fill:none;stroke:#000000;stroke-width:5;stroke-linecap:butt;stroke-linejoin:round;stroke-miterlimit:10;stroke-dasharray:none;stroke-opacity:1"
               id="path350"
               inkscape:connector-curvature="0" /><g
               id="g352"
               transform="scale(10)"><text
                 transform="matrix(1,0,0,-1,44.25,28.25)"
                 style="font-variant:normal;font-weight:normal;font-size:24px;font-family:Helvetica;-inkscape-font-specification:Helvetica;writing-mode:lr-tb;fill:#000000;fill-opacity:1;fill-rule:nonzero;stroke:none"
                 id="text356"><tspan
                   x="0 14.016"
                   y="0"
                   sodipodi:role="line"
                   id="tspan354">−5</tspan></text>
</g><path
               d="m 2882.5,534.167 v 45"
               style="fill:none;stroke:#000000;stroke-width:5;stroke-linecap:butt;stroke-linejoin:round;stroke-miterlimit:10;stroke-dasharray:none;stroke-opacity:1"
               id="path358"
               inkscape:connector-curvature="0" /><path
               d="m 2882.5,4055.83 v -44.16"
               style="fill:none;stroke:#000000;stroke-width:5;stroke-linecap:butt;stroke-linejoin:round;stroke-miterlimit:10;stroke-dasharray:none;stroke-opacity:1"
               id="path360"
               inkscape:connector-curvature="0" /><g
               id="g362"
               transform="scale(10)"><text
                 transform="matrix(1,0,0,-1,281.583,28.25)"
                 style="font-variant:normal;font-weight:normal;font-size:24px;font-family:Helvetica;-inkscape-font-specification:Helvetica;writing-mode:lr-tb;fill:#000000;fill-opacity:1;fill-rule:nonzero;stroke:none"
                 id="text366"><tspan
                   x="0"
                   y="0"
                   id="tspan364">0</tspan></text>
</g><path
               d="m 5115.83,534.167 v 45"
               style="fill:none;stroke:#000000;stroke-width:5;stroke-linecap:butt;stroke-linejoin:round;stroke-miterlimit:10;stroke-dasharray:none;stroke-opacity:1"
               id="path368"
               inkscape:connector-curvature="0" /><path
               d="m 5115.83,4055.83 v -44.16"
               style="fill:none;stroke:#000000;stroke-width:5;stroke-linecap:butt;stroke-linejoin:round;stroke-miterlimit:10;stroke-dasharray:none;stroke-opacity:1"
               id="path370"
               inkscape:connector-curvature="0" /><g
               id="g372"
               transform="scale(10)"><text
                 transform="matrix(1,0,0,-1,504.917,28.25)"
                 style="font-variant:normal;font-weight:normal;font-size:24px;font-family:Helvetica;-inkscape-font-specification:Helvetica;writing-mode:lr-tb;fill:#000000;fill-opacity:1;fill-rule:nonzero;stroke:none"
                 id="text376"><tspan
                   x="0"
                   y="0"
                   id="tspan374">5</tspan></text>
</g><path
               d="m 649.167,886.667 h 44.166"
               style="fill:none;stroke:#000000;stroke-width:5;stroke-linecap:butt;stroke-linejoin:round;stroke-miterlimit:10;stroke-dasharray:none;stroke-opacity:1"
               id="path378"
               inkscape:connector-curvature="0" /><path
               d="m 5115.83,886.667 h -45"
               style="fill:none;stroke:#000000;stroke-width:5;stroke-linecap:butt;stroke-linejoin:round;stroke-miterlimit:10;stroke-dasharray:none;stroke-opacity:1"
               id="path380"
               inkscape:connector-curvature="0" /><g
               id="g382"
               transform="scale(10)"><text
                 transform="matrix(1,0,0,-1,34.6667,79.75)"
                 style="font-variant:normal;font-weight:normal;font-size:24px;font-family:Helvetica;-inkscape-font-specification:Helvetica;writing-mode:lr-tb;fill:#000000;fill-opacity:1;fill-rule:nonzero;stroke:none"
                 id="text386"><tspan
                   x="0 14.016"
                   y="0"
                   sodipodi:role="line"
                   id="tspan384">−2</tspan></text>
</g><path
               d="m 649.167,1590.83 h 44.166"
               style="fill:none;stroke:#000000;stroke-width:5;stroke-linecap:butt;stroke-linejoin:round;stroke-miterlimit:10;stroke-dasharray:none;stroke-opacity:1"
               id="path388"
               inkscape:connector-curvature="0" /><path
               d="m 5115.83,1590.83 h -45"
               style="fill:none;stroke:#000000;stroke-width:5;stroke-linecap:butt;stroke-linejoin:round;stroke-miterlimit:10;stroke-dasharray:none;stroke-opacity:1"
               id="path390"
               inkscape:connector-curvature="0" /><g
               id="g392"
               transform="scale(10)"><text
                 transform="matrix(1,0,0,-1,34.6667,150.167)"
                 style="font-variant:normal;font-weight:normal;font-size:24px;font-family:Helvetica;-inkscape-font-specification:Helvetica;writing-mode:lr-tb;fill:#000000;fill-opacity:1;fill-rule:nonzero;stroke:none"
                 id="text396"><tspan
                   x="0 14.016"
                   y="0"
                   sodipodi:role="line"
                   id="tspan394">−1</tspan></text>
</g><path
               d="m 649.167,2295 h 44.166"
               style="fill:none;stroke:#000000;stroke-width:5;stroke-linecap:butt;stroke-linejoin:round;stroke-miterlimit:10;stroke-dasharray:none;stroke-opacity:1"
               id="path398"
               inkscape:connector-curvature="0" /><path
               d="m 5115.83,2295 h -45"
               style="fill:none;stroke:#000000;stroke-width:5;stroke-linecap:butt;stroke-linejoin:round;stroke-miterlimit:10;stroke-dasharray:none;stroke-opacity:1"
               id="path400"
               inkscape:connector-curvature="0" /><g
               id="g402"
               transform="scale(10)"><text
                 transform="matrix(1,0,0,-1,48.6667,220.583)"
                 style="font-variant:normal;font-weight:normal;font-size:24px;font-family:Helvetica;-inkscape-font-specification:Helvetica;writing-mode:lr-tb;fill:#000000;fill-opacity:1;fill-rule:nonzero;stroke:none"
                 id="text406"><tspan
                   x="0"
                   y="0"
                   id="tspan404">0</tspan></text>
</g><path
               d="m 649.167,3000 h 44.166"
               style="fill:none;stroke:#000000;stroke-width:5;stroke-linecap:butt;stroke-linejoin:round;stroke-miterlimit:10;stroke-dasharray:none;stroke-opacity:1"
               id="path408"
               inkscape:connector-curvature="0" /><path
               d="m 5115.83,3000 h -45"
               style="fill:none;stroke:#000000;stroke-width:5;stroke-linecap:butt;stroke-linejoin:round;stroke-miterlimit:10;stroke-dasharray:none;stroke-opacity:1"
               id="path410"
               inkscape:connector-curvature="0" /><g
               id="g412"
               transform="scale(10)"><text
                 transform="matrix(1,0,0,-1,48.6667,291.083)"
                 style="font-variant:normal;font-weight:normal;font-size:24px;font-family:Helvetica;-inkscape-font-specification:Helvetica;writing-mode:lr-tb;fill:#000000;fill-opacity:1;fill-rule:nonzero;stroke:none"
                 id="text416"><tspan
                   x="0"
                   y="0"
                   id="tspan414">1</tspan></text>
</g><path
               d="m 649.167,3704.17 h 44.166"
               style="fill:none;stroke:#000000;stroke-width:5;stroke-linecap:butt;stroke-linejoin:round;stroke-miterlimit:10;stroke-dasharray:none;stroke-opacity:1"
               id="path418"
               inkscape:connector-curvature="0" /><path
               d="m 5115.83,3704.17 h -45"
               style="fill:none;stroke:#000000;stroke-width:5;stroke-linecap:butt;stroke-linejoin:round;stroke-miterlimit:10;stroke-dasharray:none;stroke-opacity:1"
               id="path420"
               inkscape:connector-curvature="0" /><g
               id="g422"
               transform="scale(10)"><text
                 transform="matrix(1,0,0,-1,48.6667,361.5)"
                 style="font-variant:normal;font-weight:normal;font-size:24px;font-family:Helvetica;-inkscape-font-specification:Helvetica;writing-mode:lr-tb;fill:#000000;fill-opacity:1;fill-rule:nonzero;stroke:none"
                 id="text426"><tspan
                   x="0"
                   y="0"
                   id="tspan424">2</tspan></text>
</g><path
               d="M 649.167,534.167 H 5115.83"
               style="fill:none;stroke:#000000;stroke-width:5;stroke-linecap:butt;stroke-linejoin:round;stroke-miterlimit:10;stroke-dasharray:none;stroke-opacity:1"
               id="path428"
               inkscape:connector-curvature="0" /><path
               d="M 649.167,4055.83 H 5115.83"
               style="fill:none;stroke:#000000;stroke-width:5;stroke-linecap:butt;stroke-linejoin:round;stroke-miterlimit:10;stroke-dasharray:none;stroke-opacity:1"
               id="path430"
               inkscape:connector-curvature="0" /><path
               d="M 649.167,534.167 V 4055.83"
               style="fill:none;stroke:#000000;stroke-width:5;stroke-linecap:butt;stroke-linejoin:round;stroke-miterlimit:10;stroke-dasharray:none;stroke-opacity:1"
               id="path432"
               inkscape:connector-curvature="0" /><path
               d="M 5115.83,534.167 V 4055.83"
               style="fill:none;stroke:#000000;stroke-width:5;stroke-linecap:butt;stroke-linejoin:round;stroke-miterlimit:10;stroke-dasharray:none;stroke-opacity:1"
               id="path434"
               inkscape:connector-curvature="0" /></g><g
             transform="scale(0.1)"
             id="g436"><g
               id="g438"
               clip-path="url(#clipPath442)"><path
                 d="m 662.5,2148.33 15.833,-118.33 30,-119.17 30,-119.16 29.167,-116.67 30,-115 30,-109.17 30,-104.16 29.167,-96.67 30,-88.33 30,-78.34 30,-65.83 29.163,-54.165 30,-40 30,-25.833 30,-10.834 29.17,119.162 30,120.84 30,123.33 29.17,121.67 30,120.83 30,115.83 30,111.67 29.16,105 30,97.5 30,88.33 30,78.34 29.17,68.33 30,57.5 30,45.83 30,35 29.17,140 30,135.84 30,130 29.16,122.5 30,114.16 30,103.34 30,92.5 29.17,80.83 30,68.33 30,56.67 30,43.33 29.17,30.84 30,19.16 30,8.34 30,-3.34 29.16,-11.66 30,-20.84 30,-27.5 29.17,-33.33 30,-38.33 30,-40 30,-42.5 29.16,-41.67 30,-40.83 30,-37.5 30,-33.34 29.17,-28.33 30,-21.67 30,-14.16 30,-6.67 29.17,108.33 30,105.84 30,102.5 29.16,95.83 30,89.17 30,79.16 30,69.17 29.17,56.67 30,44.16 30,30 30,15 h 29.17 l 30,-15.83 30,-30.83 30,-45 29.16,58.33 30,51.67 30,44.16 29.17,35.84 30,25.83 30,15.83 30,4.17 29.17,-7.5 30,-20 30,-32.5 30,-45 29.16,-56.67 30,-68.33 30,-80 30,-90.83 29.17,-100.84 30,-110 30,-117.5 29.17,-125 30,-130.83 30,-135 30,-138.33 29.16,-140.84 30,-141.66 30,-141.67 30,-140 29.17,-137.5 30,-135 30,-129.17 30,-125 29.17,60.84 30,68.33 30,74.17 29.16,80.83 30,85 30,89.17 30,90.83 29.17,92.5 30,93.33 30,92.5 30,91.67 29.17,90 30,86.67 30,84.16 30,80.84 29.16,76.66 30,72.5 30,68.34 29.17,63.33 30,59.17 30,55 30,50 29.16,46.66 30,41.67 30,38.33 30,34.17 29.17,30.83 30,27.5 30,25 30,21.67 29.17,19.16 30,17.5 30,15 29.16,12.5 30,11.67 30,10 30,8.33 29.17,7.5 30,6.67 30,5.83 30,4.17 29.17,4.17 30,3.33 30,2.5 15.83,2.5 V 876.663 l -15.83,-2.5 -30,-2.5 -30,-3.333 -29.17,-4.166 -30,-4.167 -30,-5 -30,-5.833 -29.17,-5.833 -30,-7.5 -30,-8.334 -30,-9.166 -29.16,-10 -30,-11.667 -30,-11.666 -29.17,-13.333 -30,-14.167 -30,-14.166 -30,-15 -29.17,-15.834 -30,-15.833 -30,-15 -30,-15 -29.16,-13.333 -30,-12.5 -30,-10.833 -30,-8.334 -29.17,-5 -30,-1.666 -30,2.5 -29.16,7.5 -30,12.5 -30,18.333 -30,25.833 -29.17,31.667 -30,39.166 -30,47.5 -30,55 -29.17,64.167 -30,71.666 -30,79.999 -30,89.17 -29.16,96.66 -30,104.17 -30,111.67 -29.17,118.33 -30,-51.67 -30,-41.66 -30,-31.67 -29.17,-20.83 -30,-8.34 -30,3.34 -30,16.66 -29.16,29.17 -30,41.67 -30,54.16 -30,65.84 -29.17,78.33 -30,89.17 -30,99.16 -29.17,108.34 -30,115.83 -30,122.5 -30,127.5 -29.16,130.83 -30,132.5 -30,132.5 -30,130.84 -29.17,128.33 -30,121.67 -30,115.83 -30,107.5 -29.17,96.67 -30,85.83 -30,73.33 -29.16,60 -30,-63.33 -30,-65.83 -30,-68.34 -29.17,-68.33 -30,-67.5 -30,-65 -30,-61.67 -29.17,-56.66 -30,-50 -30,-43.34 -30,-35.83 -29.16,-27.5 -30,-19.17 -30,-10 -29.17,-1.66 -30,-109.17 -30,-107.5 -30,-104.17 -29.17,-100 -30,-93.33 -30,-85.83 -30,-77.5 -29.16,-68.34 -30,-57.5 -30,-47.5 -30,-36.66 -29.17,-25.84 -30,-15.83 -30,-5.83 -29.16,2.5 -30,11.66 -30,17.5 -30,24.17 -29.17,27.5 -30,30.83 -30,31.67 -30,30.83 -29.17,29.17 -30,25 -30,20 -30,14.17 -29.16,5.83 -30,-3.33 -30,-13.34 -29.17,-24.16 -30,-142.5 -30,-143.34 -30,-141.66 -29.17,-138.34 -30,-133.33 -30,-125.83 -30,-117.5 -29.16,-106.67 -30,-95 -30,-81.67 -30,-66.66 -29.17,-52.502 -30,-37.5 -30,-20.833 -29.17,-5 -30,-114.167 -30,-109.166 -30,-102.5 -29.163,-15.833 H 662.5"
                 style="fill:#dfdfdf;fill-opacity:1;fill-rule:evenodd;stroke:none"
                 id="path444"
                 inkscape:connector-curvature="0" /><path
                 d="m 3566.67,1456.67 -29.17,29.16 -30,41.67 -30,54.17 -30,65.83 -29.17,78.33 -30,89.17 -30,99.17 -29.16,108.33 -30,115.83 -30,122.5 -30,127.5 -29.17,130.84 -30,132.5 -30,132.5 -30,130.83 -29.17,128.33 -30,121.67 -30,115.83 -30,107.5 -29.16,96.67 -30,85.83 -30,73.34 -29.17,60 -30,-63.34 -30,-65.83 -30,-68.33 -29.17,-68.34 -30,-67.5 -30,-65 -30,-61.66 -29.16,-56.67 -30,-50 -30,-43.33 -30,-35.84 -29.17,-27.5 -30,-19.16 -30,-10 -29.16,-1.67 -30,-109.17 -30,-107.5 -30,-104.16 -29.17,-100 -30,-93.34 -30,-85.83 -30,-77.5 -29.17,-68.33 -30,-57.5 -30,-47.5 -30,-36.67 -29.16,-25.83 -30,-15.84 -30,-5.83 -29.17,2.5 -30,11.67 -30,17.5 -30,24.16 -29.17,27.5 -30,30.84 -30,31.66 -30,30.84 -29.16,29.16 -30,25 -30,20 -30,14.17 -29.17,5.83 -30,-3.33 -30,-13.33 -29.17,-24.17 -30,-142.5 -30,-143.33 -30,-141.67 -29.16,-138.33 -30,-133.34 -30,-125.83 -30,-117.5 -29.17,-106.67 -30,-95 -30,-81.66 -30,-66.67 -29.17,-52.499 -30,-37.5 -30,-20.834 -29.16,-5 -30,-114.166 -30,-109.167 -30,-102.5 -29.169,-15.833 H 662.505 V 2148.33"
                 style="fill:none;stroke:#dfdfdf;stroke-width:5;stroke-linecap:butt;stroke-linejoin:round;stroke-miterlimit:10;stroke-dasharray:none;stroke-opacity:1"
                 id="path446"
                 inkscape:connector-curvature="0" /><path
                 d="m 3745.83,1715.83 30,-125 29.17,60.84 30,68.33 30,74.17 29.17,80.83 30,85 30,89.17 30,90.83 29.16,92.5 30,93.33 30,92.5 30,91.67 29.17,90 30,86.67 30,84.16 30,80.84 29.17,76.66 30,72.5 30,68.34 29.16,63.33 30,59.17 30,55 30,50 29.17,46.66 30,41.67 30,38.33 30,34.17 29.17,30.83 30,27.5 30,25 30,21.67 29.16,19.16 30,17.5 30,15 29.17,12.5 30,11.67 30,10 30,8.33 29.17,7.5 30,6.67 30,5.83 30,4.17 29.16,4.17 30,3.33 30,2.5 15.84,2.5 V 876.663 l -15.84,-2.5 -30,-2.5 -30,-3.333 -29.16,-4.167 -30,-4.166 -30,-5 -30,-5.833 -29.17,-5.834 -30,-7.5 -30,-8.333 -30,-9.166 -29.17,-10 -30,-11.667 -30,-11.666 -29.16,-13.334 -30,-14.166 -30,-14.167 -30,-15 -29.17,-15.833 -30,-15.833 -30,-15 -30,-15 -29.17,-13.333 -30,-12.5 -30,-10.834 -30,-8.333 -29.16,-5 -30,-1.666 -30,2.5 -29.17,7.5 -30,12.5 -30,18.333 -30,25.833 -29.17,31.667 -30,39.166 -30,47.5 -30,55 -29.16,64.167 -30,71.666 -30,79.999 -30,89.17 -29.17,96.66 -30,104.17 -30,111.67 -29.17,118.33 -30,-51.67 -30,-41.66 -30,-31.67 -29.16,-20.83 -30,-8.34 -30,3.34 -30,16.66"
                 style="fill:none;stroke:#dfdfdf;stroke-width:5;stroke-linecap:butt;stroke-linejoin:round;stroke-miterlimit:10;stroke-dasharray:none;stroke-opacity:1"
                 id="path448"
                 inkscape:connector-curvature="0" /><path
                 d="m 797.5,1560 30,-109.17 30,-104.16 29.167,-96.67 30,-88.33 30,-78.34 30,-65.83 29.163,-54.166 30,-40 30,-25.833 30,-10.833 29.17,119.162 30,120.84 30,123.33 29.17,121.67 30,120.83 30,115.83 30,111.67 29.16,105 30,97.5 30,88.33 30,78.34 29.17,68.33 30,57.5 30,45.83 30,35 29.17,140 30,135.84 30,130 29.16,122.5 30,114.16 30,103.34 30,92.5 29.17,80.83 30,68.33 30,56.67 30,43.33 29.17,30.84 30,19.16 30,8.34 30,-3.34 29.16,-11.66 30,-20.84 30,-27.5 29.17,-33.33 30,-38.33 30,-40 30,-42.5 29.16,-41.67 30,-40.83 30,-37.5 30,-33.34 29.17,-28.33 30,-21.67 30,-14.16 30,-6.67 29.17,108.33 30,105.84 30,102.5 29.16,95.83 30,89.17 30,79.16 30,69.17 29.17,56.67 30,44.16 30,30 30,15 h 29.17 l 30,-15.83 30,-30.83 30,-45 29.16,58.33 30,51.67 30,44.16 29.17,35.84 30,25.83 30,15.83 30,4.17 29.17,-7.5 30,-20 30,-32.5 30,-45 29.16,-56.67 30,-68.33 30,-80 30,-90.83 29.17,-100.84 30,-110 30,-117.5 29.17,-125 30,-130.83 30,-135 30,-138.33 29.16,-140.84 30,-141.66 30,-141.67 30,-140 29.17,-137.5 30,-135 30,-129.17"
                 style="fill:none;stroke:#dfdfdf;stroke-width:5;stroke-linecap:butt;stroke-linejoin:round;stroke-miterlimit:10;stroke-dasharray:none;stroke-opacity:1"
                 id="path450"
                 inkscape:connector-curvature="0" /><path
                 d="m 662.5,2148.33 15.833,-118.33 30,-119.17 30,-119.16 29.167,-116.67 30,-115"
                 style="fill:none;stroke:#dfdfdf;stroke-width:5;stroke-linecap:butt;stroke-linejoin:round;stroke-miterlimit:10;stroke-dasharray:none;stroke-opacity:1"
                 id="path452"
                 inkscape:connector-curvature="0" /><path
                 d="m 2167.5,2617.5 30,21.67 29.17,27.5 30,33.33 30,38.33 30,44.17 29.16,49.17 30,52.5 30,56.66 30,59.17 29.17,61.67 30,63.33 30,64.17 29.17,64.16 30,63.34 30,62.5 30,60 29.16,56.66 30,52.5 30,45.84 30,40 29.17,31.66 30,23.33 30,12.5 30,2.5 29.17,-10 30,-20.83 30,-34.16 29.16,-46.67 30,-58.33 30,-70 30,-80.84 29.17,-90.83 30,-99.17 30,-106.66 30,-111.67 29.17,-115.83 30,-117.5 30,-119.17 30,-117.5 29.16,-114.17 30,-110.83 30,-105 29.17,-99.17 30,-90.83 30,-82.5 30,-73.33 29.16,-64.17 30,-54.17 30,-44.16 30,-34.17 29.17,-24.17 30,-15 30,-5.83 30,3.33 29.17,11.67 30,19.17 30,25.83 29.16,32.5 30,38.33 30,42.5 30,46.67 29.17,50 30,53.33 30,54.17 30,55 29.17,55.83 30,55 30,53.34 30,50.83 29.16,48.33 30,44.17 30,40 29.17,35 30,30 30,23.33 30,16.67 29.17,10 30,3.33 30,-3.33 30,-10 29.16,-15.83 30,-21.67 30,-26.67 30,-30.83 29.17,-34.17 30,-36.66 30,-37.5 29.17,-37.5 30,-36.67 30,-34.17 30,-32.5 29.16,-28.33 30,-25 30,-20 30,-15.83 29.17,-12.5 30,-7.5 30,-5 30,-1.67"
                 style="fill:none;stroke:#0000ff;stroke-width:20;stroke-linecap:butt;stroke-linejoin:round;stroke-miterlimit:10;stroke-dasharray:none;stroke-opacity:1"
                 id="path454"
                 inkscape:connector-curvature="0" /><path
                 d="m 649.167,1706.67 29.166,-130.84 30,-125 30,-118.33 29.167,-110 30,-99.17 30,-87.5 30,-74.996 29.166,-61.667 30,-46.666 30,-32.5 30,-16.667 29.164,-0.833 30,13.333 30,28.334 30,42.5 29.17,55.833 30,66.669 30,78.33 29.17,87.5 30,95.83 30,101.67 30,105.83 29.16,109.17 30,110 30,110 30,107.5 29.17,104.17 30,98.33 30,92.5 30,85 29.17,77.5 30,67.5 30,57.5 29.16,48.33 30,39.17 30,29.17 30,20 29.17,12.5 30,4.16 30,-0.83 30,-5 29.16,-9.17 30,-10.83 30,-11.67 30,-10.83 29.17,-8.33 30,-5 30,-0.84 29.17,4.17 30,9.17 30,15.83"
                 style="fill:none;stroke:#0000ff;stroke-width:20;stroke-linecap:butt;stroke-linejoin:round;stroke-miterlimit:10;stroke-dasharray:none;stroke-opacity:1"
                 id="path456"
                 inkscape:connector-curvature="0" /><path
                 d="m 2167.5,2785.83 30,-1.66 29.17,5 30,10 30,17.5 30,24.16 29.16,30 30,37.5 30,42.5 30,49.17 29.17,53.33 30,56.67 30,59.17 29.17,61.66 30,61.67 30,60.83 30,59.17 29.16,55.83 30,51.67 30,46.67 30,40.83 29.17,35 30,27.5 30,20.83 30,13.34 29.17,5.83 30,-1.67 30,-8.33 29.16,-15 30,-21.67 30,-27.5 30,-33.33 29.17,-39.17 30,-44.16 30,-49.17 30,-55 29.17,-60 30,-65 30,-70.83 30,-75.84 29.16,-80.83 30,-87.5 30,-91.67 29.17,-97.5 30,-101.66 30,-106.67 30,-109.17 29.16,-111.66 30,-114.17 30,-113.33 30,-114.17 29.17,-111.67 30,-108.33 30,-104.17 30,-100 29.17,-93.33 30,-86.67 30,-80 29.16,-71.66 30,-64.17 30,-55.83 30,-48.33 29.17,-40.84 30,-33.33 30,-25.834 30,-18.334 29.17,-11.666 30,-5.833 30,0.833 30,7.5 29.16,14.166 30,19.167 30,26.671 29.17,32.5 30,38.33 30,44.17 30,50.83 29.17,55.83 30,61.67 30,65 30,69.16 29.16,71.67 30,72.5 30,72.5 30,70.83 29.17,67.5 30,62.5 30,56.67 29.17,49.17 30,40 30,30 30,20 29.16,7.5 30,-2.5 30,-14.17 30,-24.17 29.17,-33.33 30,-41.67 30,-47.5 30,-52.5"
                 style="fill:none;stroke:#ff0000;stroke-width:20;stroke-linecap:butt;stroke-linejoin:round;stroke-miterlimit:10;stroke-dasharray:none;stroke-opacity:1"
                 id="path458"
                 inkscape:connector-curvature="0" /><path
                 d="m 649.167,829.167 29.166,-30.834 30,-26.666 30,-23.333 29.167,-19.167 30,-15 30,-10 30,-4.166 h 29.166 l 30,6.666 30,12.5 30,19.167 29.164,25.833 30,33.333 30,40.833 30,48.334 29.17,56.666 30,63.337 30,71.66 29.17,79.17 30,86.67 30,92.5 30,99.16 29.16,103.34 30,106.66 30,110 30,110.84 29.17,110.83 30,109.17 30,106.66 30,101.67 29.17,96.66 30,90 30,81.67 29.16,72.5 30,64.17 30,54.16 30,44.17 29.17,35 30,25.83 30,16.67 30,8.33 29.16,1.67 30,-4.17 30,-9.16 30,-12.5 29.17,-14.17 30,-15.83 30,-15 29.17,-13.34 30,-10 30,-5.83"
                 style="fill:none;stroke:#ff0000;stroke-width:20;stroke-linecap:butt;stroke-linejoin:round;stroke-miterlimit:10;stroke-dasharray:none;stroke-opacity:1"
                 id="path460"
                 inkscape:connector-curvature="0" /><path
                 d="m 2167.5,2540.83 30,28.34 29.17,35.83 30,41.67 30,47.5 30,53.33 29.16,57.5 30,62.5 30,65 30,67.5 29.17,68.33 30,69.17 30,68.33 29.17,66.67 30,64.17 30,60.83 30,57.5 29.16,53.33 30,47.5 30,41.67 30,35.83 29.17,28.34 30,21.66 30,14.17 30,6.66 29.17,-1.66 30,-10 30,-19.17 29.16,-26.66 30,-35 30,-43.34 30,-50.83 29.17,-58.33 30,-65 30,-71.67 30,-76.67 29.17,-81.66 30,-85.84 30,-89.16 30,-91.67 29.16,-93.33 30,-94.17 30,-95.83 29.17,-95 30,-94.17 30,-94.17 30,-91.66 29.16,-90.84 30,-89.16 30,-85.84 30,-84.16 29.17,-80 30,-77.5 30,-72.5 30,-68.34 29.17,-62.5 30,-56.66 30,-50.84 29.16,-42.5 30,-35 30,-26.66 30,-17.5 29.17,-8.34 30,0.84 30,10 30,19.16 29.17,27.5 30,36.67 30,43.33 30,50 29.16,55.84 30,60.83 30,63.33 29.17,65 30,65.84 30,65.83 30,63.33 29.17,60 30,55.84 30,50.83 30,44.17 29.16,36.66 30,30 30,20.84 30,12.5 29.17,3.33 30,-5 30,-14.17 29.17,-22.5 30,-30 30,-37.5 30,-44.16 29.16,-50 30,-53.34 30,-57.5 30,-59.16 29.17,-60.84 30,-60 30,-59.16 30,-56.67"
                 style="fill:none;stroke:#00ff00;stroke-width:20;stroke-linecap:butt;stroke-linejoin:round;stroke-miterlimit:10;stroke-dasharray:none;stroke-opacity:1"
                 id="path462"
                 inkscape:connector-curvature="0" /><path
                 d="m 649.167,1159.17 29.166,-87.5 30,-81.67 30,-75.833 29.167,-68.333 30,-59.167 30,-48.333 30,-36.666 29.166,-24.167 30,-10.833 30,3.333 30,16.667 29.164,30.833 30,44.166 30,56.667 30,68.333 29.17,79.167 30,87.496 30,95 29.17,100.84 30,105 30,106.66 30,108.34 29.16,106.66 30,105 30,100.84 30,95.83 29.17,90.83 30,83.34 30,75.83 30,67.5 29.17,60 30,50.83 30,43.34 29.16,34.16 30,25.84 30,18.33 30,11.67 29.17,5 30,0.83 30,-5 30,-6.67 29.16,-9.16 30,-10 30,-10 30,-7.5 29.17,-5 30,-0.84 30,3.34 29.17,9.16 30,15.84 30,21.66"
                 style="fill:none;stroke:#00ff00;stroke-width:20;stroke-linecap:butt;stroke-linejoin:round;stroke-miterlimit:10;stroke-dasharray:none;stroke-opacity:1"
                 id="path464"
                 inkscape:connector-curvature="0" /></g></g><g
             transform="scale(0.1)"
             id="g466"><path
               d="m 1010.83,886.667 h 170"
               style="fill:none;stroke:#000000;stroke-width:20;stroke-linecap:butt;stroke-linejoin:round;stroke-miterlimit:10;stroke-dasharray:none;stroke-opacity:1"
               id="path468"
               inkscape:connector-curvature="0" /><path
               d="m 1095.83,971.667 v -170"
               style="fill:none;stroke:#000000;stroke-width:20;stroke-linecap:butt;stroke-linejoin:round;stroke-miterlimit:10;stroke-dasharray:none;stroke-opacity:1"
               id="path470"
               inkscape:connector-curvature="0" /><path
               d="m 1457.5,2295 h 170"
               style="fill:none;stroke:#000000;stroke-width:20;stroke-linecap:butt;stroke-linejoin:round;stroke-miterlimit:10;stroke-dasharray:none;stroke-opacity:1"
               id="path472"
               inkscape:connector-curvature="0" /><path
               d="M 1542.5,2380 V 2210"
               style="fill:none;stroke:#000000;stroke-width:20;stroke-linecap:butt;stroke-linejoin:round;stroke-miterlimit:10;stroke-dasharray:none;stroke-opacity:1"
               id="path474"
               inkscape:connector-curvature="0" /><path
               d="m 2350.83,3000 h 170"
               style="fill:none;stroke:#000000;stroke-width:20;stroke-linecap:butt;stroke-linejoin:round;stroke-miterlimit:10;stroke-dasharray:none;stroke-opacity:1"
               id="path476"
               inkscape:connector-curvature="0" /><path
               d="M 2435.83,3085 V 2915"
               style="fill:none;stroke:#000000;stroke-width:20;stroke-linecap:butt;stroke-linejoin:round;stroke-miterlimit:10;stroke-dasharray:none;stroke-opacity:1"
               id="path478"
               inkscape:connector-curvature="0" /><path
               d="m 2797.5,3704.17 h 170"
               style="fill:none;stroke:#000000;stroke-width:20;stroke-linecap:butt;stroke-linejoin:round;stroke-miterlimit:10;stroke-dasharray:none;stroke-opacity:1"
               id="path480"
               inkscape:connector-curvature="0" /><path
               d="m 2882.5,3789.17 v -170"
               style="fill:none;stroke:#000000;stroke-width:20;stroke-linecap:butt;stroke-linejoin:round;stroke-miterlimit:10;stroke-dasharray:none;stroke-opacity:1"
               id="path482"
               inkscape:connector-curvature="0" /><path
               d="m 3690.83,1590.83 h 170"
               style="fill:none;stroke:#000000;stroke-width:20;stroke-linecap:butt;stroke-linejoin:round;stroke-miterlimit:10;stroke-dasharray:none;stroke-opacity:1"
               id="path484"
               inkscape:connector-curvature="0" /><path
               d="m 3775.83,1675.83 v -170"
               style="fill:none;stroke:#000000;stroke-width:20;stroke-linecap:butt;stroke-linejoin:round;stroke-miterlimit:10;stroke-dasharray:none;stroke-opacity:1"
               id="path486"
               inkscape:connector-curvature="0" /><g
               id="g488"
               transform="scale(10)"><text
                 transform="matrix(1,0,0,-1,249.5,6.00002)"
                 style="font-variant:normal;font-weight:normal;font-size:24px;font-family:Helvetica;-inkscape-font-specification:Helvetica;writing-mode:lr-tb;fill:#000000;fill-opacity:1;fill-rule:nonzero;stroke:none"
                 id="text492"><tspan
                   x="0 5.3280001 18.672001 32.015999 45.360001 52.032001 58.703999 65.375999"
                   y="0"
                   sodipodi:role="line"
                   id="tspan490">input, x</tspan></text>
<text
                 transform="matrix(0,1,1,0,24.75,172.167)"
                 style="font-variant:normal;font-weight:normal;font-size:24px;font-family:Helvetica;-inkscape-font-specification:Helvetica;writing-mode:lr-tb;fill:#000000;fill-opacity:1;fill-rule:nonzero;stroke:none"
                 id="text496"><tspan
                   x="0 13.344 26.688 33.360001 46.703999 60.048 66.720001 73.391998 80.064003 86.736 94.727997 106.728"
                   y="0"
                   sodipodi:role="line"
                   id="tspan494">output, f(x)</tspan></text>
</g></g></g></g></g><text
       style="font-variant:normal;font-weight:normal;font-size:7.28423977px;font-family:Helvetica;-inkscape-font-specification:Helvetica;writing-mode:lr-tb;fill:#000000;fill-opacity:1;fill-rule:nonzero;stroke:none;stroke-width:0.30351001"
       id="text310-7"
       x="-411.97433"
       y="-509.94217"
       transform="scale(1,-1)"><tspan
         sodipodi:role="line"
         id="tspan308-7"
         style="stroke-width:0.30351001"
         x="-411.97433"
         y="-509.94217">(a) Gaussian Process Prior</tspan></text>
<text
       style="font-variant:normal;font-weight:normal;font-size:7.28423977px;font-family:Helvetica;-inkscape-font-specification:Helvetica;writing-mode:lr-tb;fill:#000000;fill-opacity:1;fill-rule:nonzero;stroke:none;stroke-width:0.30351001"
       id="text310-7-5"
       x="-245.57504"
       y="-509.94217"
       transform="scale(1,-1)"><tspan
         sodipodi:role="line"
         id="tspan308-7-4"
         style="stroke-width:0.30351001"
         x="-245.57504"
         y="-509.94217">(b) Conditioned Posterior</tspan></text>
</g></svg>