<?xml version="1.0" encoding="UTF-8" standalone="no"?>
<svg
   xmlns:dc="http://purl.org/dc/elements/1.1/"
   xmlns:cc="http://creativecommons.org/ns#"
   xmlns:rdf="http://www.w3.org/1999/02/22-rdf-syntax-ns#"
   xmlns:svg="http://www.w3.org/2000/svg"
   xmlns="http://www.w3.org/2000/svg"
   xmlns:sodipodi="http://sodipodi.sourceforge.net/DTD/sodipodi-0.dtd"
   xmlns:inkscape="http://www.inkscape.org/namespaces/inkscape"
   inkscape:export-ydpi="179.91"
   inkscape:export-xdpi="179.91"
   inkscape:export-filename="/home/phrb/cloud/presentations/img/singularity_logo.png"
   inkscape:version="1.0 (4035a4fb49, 2020-05-01)"
   sodipodi:docname="singularity_logo.svg"
   id="svg921"
   version="1.1"
   viewBox="0 0 456.224 466.168"
   height="466.168"
   width="456.224">
  <metadata
     id="metadata927">
    <rdf:RDF>
      <cc:Work
         rdf:about="">
        <dc:format>image/svg+xml</dc:format>
        <dc:type
           rdf:resource="http://purl.org/dc/dcmitype/StillImage" />
        <dc:title></dc:title>
      </cc:Work>
    </rdf:RDF>
  </metadata>
  <defs
     id="defs925" />
  <sodipodi:namedview
     inkscape:current-layer="svg921"
     inkscape:window-maximized="1"
     inkscape:window-y="0"
     inkscape:window-x="0"
     inkscape:cy="304.32022"
     inkscape:cx="283.38028"
     inkscape:zoom="1.2360227"
     fit-margin-bottom="0"
     fit-margin-right="0"
     fit-margin-left="0"
     fit-margin-top="0"
     showgrid="false"
     id="namedview923"
     inkscape:window-height="1060"
     inkscape:window-width="1920"
     inkscape:pageshadow="2"
     inkscape:pageopacity="0"
     guidetolerance="10"
     gridtolerance="10"
     objecttolerance="10"
     borderopacity="1"
     bordercolor="#666666"
     pagecolor="#ffffff" />
  <path
     style="fill:#5a0046;fill-opacity:1"
     d="m 228.11205,233.08397 h 218.61202 c 0,123.48204 -97.87594,223.584 -218.61202,223.584 z"
     fill="#5a0046"
     opacity="0.744649"
     id="path899" />
  <path
     d="m 234.0019,466.0919 5.853,-0.2273 5.8143,-0.3765 5.7739,-0.524 11.4193,-1.4829 11.236,-2.0506 11.0385,-2.6036 10.8266,-3.142 10.6005,-3.6657 10.3599,-4.1748 10.1052,-4.6691 9.8361,-5.1489 9.5527,-5.6138 9.255,-6.0642 8.943,-6.4999 8.6166,-6.9209 8.2761,-7.3272 7.9211,-7.7189 7.5519,-8.0959 7.1684,-8.4582 6.7705,-8.8059 6.3583,-9.1388 5.9319,-9.4572 5.4912,-9.7608 5.0361,-10.0498 4.5667,-10.3241 4.083,-10.5837 3.585,-10.8287 3.0727,-11.0589 2.5462,-11.2746 2.0052,-11.4755 1.45,-11.6618 0.8805,-11.8334 0.2967,-11.9903 -0.193,-1.9146 -0.5535,-1.7832 -0.8759,-1.6137 -1.1601,-1.406 -1.4059,-1.16 -1.6138,-0.8759 -1.7832,-0.5536 -1.9146,-0.193 H 228.112 l -1.9146,0.193 -1.7832,0.5536 -1.6137,0.8759 -1.406,1.16 -1.16,1.406 -0.8759,1.6137 -0.5536,1.7832 -0.193,1.9146 v 223.584 l 0.193,1.9146 0.5536,1.7833 0.8759,1.6137 1.16,1.4059 1.406,1.1601 1.6137,0.8759 1.7832,0.5535 1.9146,0.193 z M 228.112,233.084 h 218.612 l -0.2844,11.5056 -0.8443,11.3546 -1.3902,11.1895 -1.9225,11.0103 -2.4411,10.8171 -2.9458,10.61 -3.437,10.3886 -3.9143,10.1533 -4.3779,9.9039 -4.8278,9.6405 -5.2639,9.3631 -5.6863,9.0715 -6.0949,8.7659 -6.4899,8.4463 -6.8711,8.1127 -7.2386,7.7649 -7.5922,7.4032 -7.9323,7.0273 -8.2584,6.6375 -8.571,6.2336 -8.8698,5.8156 -9.1548,5.3836 -9.4261,4.9376 -9.6837,4.4775 -9.9276,4.0033 -10.1576,3.5151 -10.3739,3.0129 -10.5767,2.4966 -10.7654,1.9662 -10.9407,1.4219 -11.1021,0.8634 -11.2497,0.2909 z"
     fill="#ffffff"
     opacity="1"
     id="path901" />
  <path
     style="fill:#ad8100;fill-opacity:1;stroke-width:1.0015748;stroke-miterlimit:4;stroke-dasharray:none"
     d="M 228.11205,233.08397 V 9.49996 c 120.73609,0 218.61203,100.10197 218.61203,223.58401 z"
     fill="#ad8100"
     opacity="0.763277"
     id="path903" />
  <path
     style="fill:#ffffff;fill-opacity:1"
     d="m 448.6386,242.391 1.7833,-0.5535 1.6137,-0.8759 1.4059,-1.1601 1.1601,-1.4059 0.8759,-1.6137 0.5535,-1.7833 0.193,-1.9146 -0.2966,-11.9903 -0.8806,-11.8334 -1.45,-11.6618 -2.0052,-11.4755 -2.5461,-11.2745 -3.0728,-11.059 -3.585,-10.8287 -4.083,-10.5837 -4.5667,-10.3241 -5.0361,-10.0497 -5.4912,-9.7608 -5.9319,-9.4572 -6.3583,-9.1389 -6.7705,-8.8058 -7.1684,-8.4583 -7.5519,-8.0959 -7.9211,-7.7189 -8.2761,-7.3272 -8.6166,-6.9209 -8.943,-6.4999 -9.255,-6.0642 -9.5527,-5.6138 -9.8361,-5.1488 L 316.9239,18.3235 306.564,14.1488 295.9635,10.4831 285.1369,7.341 274.0984,4.7374 262.8624,2.6868 251.4431,1.2039 245.6692,0.68 239.8549,0.3034 234.0019,0.0762 228.112,0 l -1.9146,0.193 -1.7832,0.5536 -1.6137,0.8759 -1.406,1.16 -1.16,1.406 -0.8759,1.6137 -0.5536,1.7832 -0.193,1.9146 v 223.584 l 0.193,1.9146 0.5536,1.7833 0.8759,1.6137 1.16,1.4059 1.406,1.1601 1.6137,0.8759 1.7832,0.5535 1.9146,0.193 H 446.724 Z M 228.112,233.084 V 9.5 l 11.2497,0.2909 11.1021,0.8634 10.9407,1.4219 10.7655,1.9662 10.5766,2.4966 10.3739,3.0129 10.1576,3.5151 9.9276,4.0033 9.6837,4.4775 9.4261,4.9376 9.1548,5.3836 8.8698,5.8156 8.571,6.2336 8.2585,6.6375 7.9322,7.0274 7.5923,7.4032 7.2385,7.7649 6.8711,8.1126 6.4899,8.4463 6.0949,8.766 5.6863,9.0715 5.2639,9.363 4.8278,9.6405 4.3779,9.9039 3.9143,10.1533 3.437,10.3887 2.9458,10.6099 2.4411,10.8171 1.9225,11.0104 1.3903,11.1895 0.8442,11.3545 0.2844,11.5056 z"
     fill="#ffffff"
     opacity="1"
     id="path905" />
  <path
     style="fill:#001563;fill-opacity:1"
     d="m 228.11205,233.08397 v 223.584 c -120.73608,0 -218.612013,-100.10196 -218.612013,-223.584 z"
     fill="#001563"
     opacity="0.764338"
     id="path907" />
  <path
     d="m 230.0266,465.975 1.7832,-0.5535 1.6137,-0.8759 1.406,-1.1601 1.1601,-1.4059 0.8758,-1.6137 0.5536,-1.7833 0.193,-1.9146 V 233.084 l -0.193,-1.9146 -0.5536,-1.7832 -0.8758,-1.6137 -1.1601,-1.406 -1.406,-1.16 -1.6137,-0.8759 -1.7832,-0.5536 -1.9146,-0.193 H 9.5 l -1.9146,0.193 -1.7832,0.5536 -1.6138,0.8759 -1.4059,1.16 -1.1601,1.406 -0.8759,1.6137 -0.5535,1.7832 -0.193,1.9146 0.2967,11.9903 0.8805,11.8334 1.45,11.6618 2.0052,11.4755 2.5462,11.2746 3.0727,11.0589 3.585,10.8287 4.0831,10.5837 4.5667,10.3241 5.036,10.0498 5.4912,9.7608 5.9319,9.4572 6.3583,9.1388 6.7705,8.8059 7.1684,8.4582 7.5519,8.0959 7.9211,7.7189 8.2761,7.3272 8.6166,6.9209 8.943,6.4999 9.255,6.0642 9.5527,5.6138 9.8361,5.1489 10.1052,4.6691 10.3599,4.1748 10.6005,3.6657 10.8266,3.142 11.0385,2.6036 11.236,2.0506 11.4193,1.4829 5.7739,0.524 5.8143,0.3765 5.853,0.2273 5.8899,0.0761 z m -13.1643,-9.5979 -11.1021,-0.8634 -10.9407,-1.4219 -10.7654,-1.9662 -10.5766,-2.4966 -10.374,-3.0129 -10.1576,-3.5151 -9.9276,-4.0033 -9.6836,-4.4775 -9.4262,-4.9376 -9.1548,-5.3836 -8.8698,-5.8156 -8.571,-6.2336 -8.2584,-6.6375 -7.9323,-7.0273 -7.5922,-7.4032 -7.2386,-7.7649 -6.8711,-8.1127 -6.4898,-8.4463 -6.095,-8.7659 -5.6863,-9.0715 -5.2639,-9.3631 -4.8278,-9.6405 -4.3779,-9.9039 -3.9143,-10.1533 -3.4369,-10.3886 -2.9459,-10.61 L 13.9414,278.144 12.0189,267.1337 10.6287,255.9442 9.7844,244.5896 9.5,233.084 h 218.612 v 223.584 z"
     fill="#ffffff"
     opacity="1"
     id="path909" />
  <path
     style="fill:#005c0c;fill-opacity:1"
     d="M 228.11205,233.08397 H 9.500037 c 0,-123.48203 97.875933,-223.584 218.612013,-223.584 z"
     fill="#005c0c"
     opacity="0.789943"
     id="path911" />
  <path
     d="m 230.0266,242.391 1.7832,-0.5535 1.6137,-0.8759 1.406,-1.1601 1.1601,-1.4059 0.8758,-1.6137 0.5536,-1.7833 0.193,-1.9146 V 9.5 l -0.193,-1.9146 -0.5536,-1.7832 -0.8758,-1.6137 -1.1601,-1.406 -1.406,-1.16 L 231.8098,0.7466 230.0266,0.193 228.112,0 l -5.8899,0.0762 -5.853,0.2272 -5.8143,0.3766 -5.7739,0.5239 -11.4193,1.4829 -11.236,2.0506 -11.0385,2.6036 -10.8266,3.1421 -10.6005,3.6657 -10.3599,4.1748 -10.1052,4.6691 -9.8361,5.1488 -9.5527,5.6139 -9.255,6.0642 -8.943,6.4998 -8.6166,6.9209 -8.2761,7.3273 -7.9211,7.7189 -7.5519,8.0958 -7.1684,8.4583 -6.7705,8.8058 -6.3583,9.1389 -5.9319,9.4572 -5.4912,9.7608 -5.036,10.0498 -4.5667,10.324 -4.0831,10.5837 -3.585,10.8287 -3.0727,11.059 -2.5462,11.2745 -2.0052,11.4755 -1.45,11.6618 L 0.2967,221.0937 0,233.084 l 0.193,1.9146 0.5535,1.7833 0.8759,1.6137 1.1601,1.4059 1.4059,1.1601 1.6138,0.8759 1.7832,0.5535 1.9146,0.193 H 228.112 Z M 9.5,233.084 l 0.2844,-11.5056 0.8443,-11.3545 1.3902,-11.1895 1.9225,-11.0104 2.4411,-10.8171 2.9459,-10.6099 3.4369,-10.3887 3.9143,-10.1533 4.3779,-9.9039 4.8278,-9.6405 5.2639,-9.363 5.6863,-9.0715 6.095,-8.7659 6.4898,-8.4464 6.8711,-8.1126 7.2386,-7.7649 7.5922,-7.4032 7.9323,-7.0274 8.2584,-6.6375 8.571,-6.2335 8.8698,-5.8157 9.1548,-5.3836 9.4262,-4.9376 9.6836,-4.4774 9.9276,-4.0034 10.1576,-3.5151 10.374,-3.0129 10.5766,-2.4965 10.7654,-1.9663 10.9407,-1.4218 L 216.8623,9.7909 228.112,9.5 v 223.584 z"
     fill="#ffffff"
     opacity="1"
     id="path913" />
  <path
     d="m 401.80472,233.08397 c 0,-98.06449 -77.76485,-177.56147 -173.69267,-177.56147 -95.92781,0 -173.692671,79.49698 -173.692671,177.56147 0,98.0645 77.764861,177.56148 173.692671,177.56148 95.92782,0 173.69267,-79.49698 173.69267,-177.56148 z"
     fill="#ffffff"
     opacity="1"
     id="path915" />
  <path
     d="m 239.45298,111.81426 q 12.01148,0 24.33094,1.15494 12.31947,1.15495 25.4089,3.31086 13.08943,2.15591 24.17695,4.92779 11.08751,2.77188 20.32711,6.31372 l -25.87087,74.07078 q -12.16547,-16.32329 -27.10282,-25.3319 -14.93735,-9.00861 -31.26064,-9.00861 -9.70158,0 -14.01339,3.92683 -4.31182,3.92683 -4.31182,9.77858 0,5.54376 8.39264,10.62554 8.39263,5.08178 25.94787,11.70349 45.73601,16.78527 59.13343,33.41654 13.08943,16.32329 13.08943,40.34625 0,37.42037 -28.41177,57.3625 -28.41176,19.94214 -84.61932,19.94214 -29.25872,0 -55.59158,-4.00383 -26.33285,-4.00382 -51.74175,-13.7054 l 25.4089,-78.53659 q 10.77953,16.93927 27.25681,27.25682 16.32329,10.31755 31.56863,10.31755 7.54567,0 12.55045,-3.77284 5.00479,-3.77283 5.00479,-9.47059 0,-6.7757 -7.0067,-11.78048 -7.0067,-5.00479 -21.79005,-10.70254 -36.34242,-13.7054 -49.89383,-29.72071 -13.39742,-16.16929 -13.39742,-39.57627 0,-39.2683 28.33477,-59.05644 28.33476,-19.78813 84.08034,-19.78813 z"
     fill="#000000"
     opacity="1"
     id="path917" />
</svg>
