<?xml version="1.0" encoding="UTF-8" standalone="no"?>
<!-- Created with Inkscape (http://www.inkscape.org/) -->

<svg
   xmlns:dc="http://purl.org/dc/elements/1.1/"
   xmlns:cc="http://creativecommons.org/ns#"
   xmlns:rdf="http://www.w3.org/1999/02/22-rdf-syntax-ns#"
   xmlns:svg="http://www.w3.org/2000/svg"
   xmlns="http://www.w3.org/2000/svg"
   xmlns:sodipodi="http://sodipodi.sourceforge.net/DTD/sodipodi-0.dtd"
   xmlns:inkscape="http://www.inkscape.org/namespaces/inkscape"
   id="svg2"
   version="1.1"
   inkscape:version="0.91 r13725"
   width="1352.7406"
   height="517.81952"
   viewBox="0 0 1352.7406 517.81951"
   sodipodi:docname="tradeoff_software.svg"
   inkscape:export-filename="/home/phrb/Dropbox/newos-fpga/img/tradeoff_software.png"
   inkscape:export-xdpi="204.62"
   inkscape:export-ydpi="204.62">
  <metadata
     id="metadata8">
    <rdf:RDF>
      <cc:Work
         rdf:about="">
        <dc:format>image/svg+xml</dc:format>
        <dc:type
           rdf:resource="http://purl.org/dc/dcmitype/StillImage" />
        <dc:title></dc:title>
      </cc:Work>
    </rdf:RDF>
  </metadata>
  <defs
     id="defs6" />
  <sodipodi:namedview
     pagecolor="#ffffff"
     bordercolor="#666666"
     borderopacity="1"
     objecttolerance="10"
     gridtolerance="10"
     guidetolerance="10"
     inkscape:pageopacity="0"
     inkscape:pageshadow="2"
     inkscape:window-width="1920"
     inkscape:window-height="1055"
     id="namedview4"
     showgrid="false"
     fit-margin-top="0"
     fit-margin-left="0"
     fit-margin-right="0"
     fit-margin-bottom="0"
     inkscape:zoom="0.43071569"
     inkscape:cx="1020.8102"
     inkscape:cy="-22.42489"
     inkscape:window-x="0"
     inkscape:window-y="25"
     inkscape:window-maximized="0"
     inkscape:current-layer="svg2" />
  <path
     style="fill:#000000"
     d="m 425.11386,516.89771 c -0.30845,-0.50458 1.89836,-3.6028 4.90403,-6.88495 6.39716,-6.98563 13.79983,-10.98885 20.32034,-10.98885 3.72596,0 4.43818,-0.32821 4.9195,-2.26702 0.85635,-3.44948 12.06513,-15.8625 19.23007,-21.29609 15.60908,-11.8373 40.63987,-22.20635 74.46206,-30.84609 13.99314,-3.57448 38.04521,-7.26238 61.50065,-9.42988 6.0884,-0.56263 7.83638,-1.13765 10.27174,-3.37905 6.92568,-6.37406 23.45256,-14.68393 35.40293,-17.80091 l 4.09858,-1.06902 -1.4515,-3.51209 c -1.69118,-4.09202 -1.32519,-5.71674 2.48582,-11.0355 1.85908,-2.59459 3.82539,-4.11982 5.83514,-4.52618 l 3.0312,-0.6129 0,-39.54705 0,-39.54704 -3.95766,-1.0774 c -4.34635,-1.18321 -7.31834,-4.9582 -8.38152,-10.64611 -0.53037,-2.83741 -0.0743,-3.84024 3.66563,-8.05872 2.55709,-2.88435 5.15477,-4.85841 6.47247,-4.91865 2.00756,-0.0918 2.20108,-0.58553 2.20108,-5.61583 l 0,-5.51519 -3.77006,0.27521 c -3.44285,0.2513 -4.42445,-0.32152 -11.31,-6.6002 -8.81805,-8.04085 -12.49087,-9.85969 -22.80487,-11.29334 -4.18231,-0.58134 -9.66196,-1.6852 -12.177,-2.45302 -3.99184,-1.21866 -5.2347,-1.20444 -9.78261,0.11199 -7.05657,2.04259 1.52451,0.90442 -110.86198,14.70433 -55.41847,6.80481 -104.72282,13.05588 -109.56521,13.89124 -4.84239,0.83535 -18.03524,4.38064 -29.31744,7.87841 -21.17899,6.56603 -24.4547,8.17401 -33.51397,16.45129 -2.27466,2.07831 -4.49229,3.77876 -4.92807,3.77876 -0.43578,0 -2.97687,-2.25147 -5.64686,-5.00327 -2.67,-2.7518 -6.21468,-5.8594 -7.87709,-6.90578 -2.81433,-1.77143 -3.28612,-1.79818 -6.84783,-0.38823 -2.10389,0.83284 -11.03175,2.71654 -19.83968,4.186 l -16.01441,2.67172 -2.64313,7.41758 c -2.17553,6.10531 -3.37964,7.98624 -6.8062,10.63187 -2.28969,1.76786 -4.79563,3.21429 -5.56877,3.21429 -2.53381,0 -8.12308,-6.32753 -10.04665,-11.37363 -2.21257,-5.80427 -1.10476,-5.63324 -20.3929,-3.14824 -21.00191,2.70581 -27.96063,2.05327 -33.73574,-3.1635 -2.79284,-2.52284 -2.97029,-3.0639 -2.35816,-7.19071 1.07646,-7.25718 5.13147,-10.2961 25.84987,-19.37252 9.85691,-4.31817 17.9582,-8.03398 18.00286,-8.25736 0.0446,-0.22337 -1.39137,-9.81919 -3.19117,-21.32405 l -3.27238,-20.91792 -3.48049,-0.58219 c -1.91427,-0.3202 -6.65178,-0.58708 -10.52782,-0.59306 -13.61064,-0.021 -56.8641,-5.46632 -83.44179,-10.5047 -38.777373,-7.35111 -56.811833,-15.19865 -72.210119,-31.42162 -5.36305,-5.65027 -6.13691,-6.93462 -5.86957,-9.74152 l 0.30794,-3.23316 206.902179,0 206.90217,0 0.28265,2.47253 c 0.84629,7.40311 -32.93267,26.12878 -59.46743,32.96627 -27.5146,7.08999 -57.04132,12.69096 -84.46887,16.02307 -15.52038,1.88553 -29.68242,3.42824 -31.47118,3.42824 -3.6047,0 -3.46217,-0.31691 -5.33808,11.86813 -1.65526,10.7517 -2.76882,10.53022 14.54287,2.89237 8.55105,-3.77268 17.72729,-7.27738 20.39165,-7.78822 6.41301,-1.22956 13.69836,0.39241 30.58274,6.80881 22.61219,8.59307 4.01429,9.81503 170.73042,-11.21772 80.69337,-10.1802 148.36604,-18.76143 150.3837,-19.06941 l 3.66848,-0.55996 0,-54.2692 c 0,-29.84805 -0.143,-54.2692 -0.31779,-54.2692 -0.17477,0 -3.53555,1.10647 -7.46838,2.4588 -8.32051,2.86109 -23.27617,10.76285 -32.18866,17.00672 -3.42366,2.39853 -6.57899,4.22941 -7.01186,4.0686 -0.43286,-0.16079 -7.63172,-9.38339 -15.99746,-20.49464 l -15.21043,-20.202286 7.05925,-5.19565 c 12.16416,-8.95291 26.26867,-16.9884 35.91794,-20.46285 26.50388,-9.54334 45.03718,-13.55786 62.5465,-13.54825 17.11564,0.009 57.68377,12.1579 78.32306,23.45459 9.62184,5.2664 20.54348,12.86358 20.54348,14.29019 0,0.53999 -7.09243,10.320766 -15.76094,21.735036 -10.59135,13.94616 -16.21297,20.57787 -17.13904,20.2186 -0.75793,-0.29404 -3.95495,-2.30378 -7.10446,-4.46607 -9.8425,-6.75736 -15.78215,-9.98789 -25.7324,-13.99562 -5.29571,-2.13299 -9.83982,-3.87816 -10.09804,-3.87816 -0.2582,0 -0.46946,22.69781 -0.46946,50.43956 0,50.17072 0.0107,50.43956 2.00304,50.43956 1.10167,0 68.97651,-8.47044 150.833,-18.8232 l 148.82973,-18.8232 5.4443,-3.0931 c 2.9943,-1.70121 10.9701,-6.75977 17.7239,-11.24124 6.7538,-4.48148 13.9572,-8.6164 16.0075,-9.18873 4.7099,-1.31477 27.5984,0.17794 44.1041,2.87633 6.4565,1.05552 12.0386,1.91922 12.4045,1.91932 0.366,1.1e-4 0.2732,-1.38275 -0.2064,-3.07302 -0.4794,-1.69025 -1.3724,-6.53473 -1.9843,-10.76548 l -1.1126,-7.69227 -3.5723,-0.59725 c -1.9648,-0.3285 -6.7437,-0.60216 -10.6197,-0.60815 -13.6106,-0.0211 -56.8641,-5.46631 -83.4418,-10.5047 -29.67355,-5.62528 -43.22095,-10.2047 -59.03543,-19.95573 -8.751,-5.395686 -11.5673,-7.735876 -15.0449,-12.501256 -3.2536,-4.45858 -4.2081,-6.59062 -3.9849,-8.9011 l 0.2936,-3.0382 205.92373,-0.25359 c 113.2582,-0.13947 206.5478,-0.0136 207.3103,0.27968 1.0568,0.40643 1.1149,0.8078 0.2446,1.68765 -0.628,0.63491 -1.1418,2.12623 -1.1418,3.31403 0,3.38446 -6.7683,8.76499 -18.3284,14.57044 -34.0254,17.087396 -66.1805,25.256676 -126.9433,32.251046 -14.5272,1.67221 -28.3767,3.15175 -30.7765,3.28787 l -4.3635,0.24748 -2.3491,14.64224 c -1.292,8.05323 -2.1153,14.87864 -1.8295,15.16757 0.2857,0.28894 6.6081,1.57684 14.0495,2.86202 23.0988,3.98928 27.3844,5.21729 30.2583,8.6701 2.1549,2.58914 2.4425,3.65441 1.9065,7.06236 -0.9188,5.8414 -6.0019,10.655 -15.1168,14.3151 -6.3216,2.53848 -9.622,3.14649 -22.105,4.0722 -8.0707,0.5985 -15.5919,1.27096 -16.7137,1.49435 -1.1659,0.23215 -4.2948,3.59385 -7.3033,7.84686 -7.5785,10.71312 -9.1442,10.80149 -16.1258,0.91022 -5.2088,-7.37976 -2.897,-6.97094 -27.3572,-4.838 -9.1468,0.7976 -17.6348,1.45606 -18.8623,1.46325 -1.2274,0.007 -2.5265,0.7919 -2.8869,1.74382 -0.716,1.89155 -8.6922,12.75406 -9.9355,13.53094 -0.4241,0.26498 -4.2539,-0.86035 -8.5106,-2.50076 -10.4062,-4.01019 -36.0756,-6.75116 -63.639,-6.79531 -19.44685,-0.0312 -21.03995,0.13618 -122.14753,12.83073 -69.1185,8.67818 -104.71523,13.54238 -109.42655,14.95288 -14.5054,4.34271 -20.45697,9.10984 -33.18459,26.58042 -3.15686,4.33326 -3.42151,4.47028 -10.04204,5.19923 -3.73984,0.41178 -7.34998,0.95412 -8.02254,1.20522 -0.8376,0.31273 -1.22282,2.92923 -1.22282,8.30582 l 0,7.84928 4.07045,1.33012 c 5.01659,1.63928 7.73219,5.18363 8.37259,10.92777 0.4706,4.22097 0.31589,4.53792 -4.15834,8.51958 -2.55591,2.27453 -5.46557,4.13551 -6.46591,4.13551 -1.74247,0 -1.81879,1.6546 -1.81879,39.42901 l 0,39.42902 3.88928,2.60209 c 4.63187,3.09891 6.49968,5.79861 7.37862,10.66494 0.52417,2.90205 0.29893,3.81828 -1.15046,4.6797 -2.70018,1.60483 -0.31772,2.75458 7.3893,3.56598 9.71289,1.02259 19.01484,5.82221 27.98239,14.43835 3.5891,3.44846 4.68241,3.88241 13.20652,5.24184 5.11141,0.81517 15.89674,2.22306 23.96739,3.12864 29.5765,3.31868 67.4926,14.57164 97.8053,29.02722 15.123,7.21192 26.1336,16.81841 34.4059,30.01849 1.6526,2.63707 3.0168,3.70879 4.7209,3.70879 5.2988,0 13.3513,4.13758 19.65518,10.09935 3.4612,3.27338 6.2931,6.34563 6.2931,6.82722 0,1.20083 -539.71117,1.15911 -540.44529,-0.0417 z m 531.80501,-6.00566 c -2.331,-2.1312 -6.6486,-4.78665 -9.5946,-5.901 -5.3473,-2.02269 -5.7736,-2.02607 -254.68714,-2.02071 -173.74749,0.004 -250.16733,0.3242 -252.09025,1.05715 -2.9375,1.11968 -8.66332,6.21675 -10.21108,9.08981 -0.88697,1.64647 12.01846,1.72879 264.94442,1.69021 l 265.87683,-0.0406 -4.23818,-3.87489 z m -24.6205,-12.98344 c 0,-2.40345 -10.3205,-15.01168 -15.7369,-19.2253 -9.4816,-7.37614 -33.7427,-18.06832 -59.5892,-26.26175 -25.2178,-7.99412 -46.7945,-11.99874 -77.28263,-14.34363 -4.57337,-0.35174 -8.86549,-1.07905 -9.53804,-1.61623 -0.81974,-0.65473 -1.22283,-0.62469 -1.22283,0.0912 0,0.75335 -24.129,1.16409 -81.92935,1.39464 l -81.92934,0.3268 -19.92457,2.70049 c -34.03767,4.6133 -77.0052,16.89303 -96.30039,27.52179 -5.81502,3.20321 -12.92626,7.58175 -15.80275,9.73008 -6.32986,4.7275 -16.17881,16.21808 -16.17881,18.87548 0,1.8977 2.97284,1.92174 237.71738,1.92174 175.77033,0 237.71743,-0.29064 237.71743,-1.1153 z M 765.41191,431.6509 c -2.5037,-2.81901 -12.35334,-9.53933 -16.8336,-11.4854 -7.69085,-3.34064 -19.19758,-4.22386 -54.69944,-4.19851 -31.93674,0.0229 -34.93649,0.17323 -41.08696,2.06044 -8.45827,2.59531 -29.35463,12.59652 -30.02853,14.37195 -0.43001,1.13291 11.13892,1.3498 71.99988,1.3498 l 72.51223,0 -1.86358,-2.09828 z m -38.09903,-25.30993 c -0.0311,-4.03603 -0.54613,-5.70034 -2.37161,-7.66484 l -2.33181,-2.50937 -29.16417,0 -29.16418,0 -1.48052,3.58232 c -1.79473,4.34261 -1.94043,10.89778 -0.25769,11.5938 0.67256,0.27819 15.52989,0.42654 33.0163,0.32968 l 31.79348,-0.17613 -0.0398,-5.15546 z m -10.23194,-53.19619 0,-39.06593 -22.01087,0 -22.01086,0 0,39.06593 0,39.06594 22.01086,0 22.01087,0 0,-39.06594 z M 254.16392,326.37264 c 1.20572,-0.8538 3.24422,-3.65121 4.53001,-6.21647 2.54628,-5.08005 7.55527,-21.8473 9.34961,-31.2971 0.61972,-3.26374 2.24921,-10.16209 3.6211,-15.32967 2.38191,-8.9721 7.33162,-37.68666 6.62496,-38.43312 -0.18547,-0.19591 -12.28145,-0.0272 -26.87998,0.37487 l -26.54276,0.73105 0.66605,5.0647 c 2.55897,19.45834 6.85141,40.73525 11.09777,55.00975 6.45395,21.69547 8.73408,27.84683 11.08957,29.91758 2.42646,2.13314 3.63594,2.16663 6.44367,0.17841 z m -7.37431,-26.62453 c -3.57191,-2.59708 -4.37144,-4.95823 -3.18602,-9.4089 0.83769,-3.14515 1.85074,-4.36293 4.96614,-5.96976 l 3.91378,-2.0186 2.85764,2.05718 c 1.5717,1.13145 3.81037,3.40988 4.97481,5.06316 1.73247,2.45977 1.9254,3.43153 1.06172,5.34792 -2.26321,5.02178 -10.59067,7.83546 -14.58807,4.929 z m 8.99531,-2.6412 c 2.68151,-1.23521 3.28728,-4.40243 1.491,-7.79569 -3.51648,-6.6428 -11.71806,-2.8626 -10.82075,4.98741 0.4572,3.99976 4.25894,5.14409 9.32975,2.80828 z m -33.83373,16.03157 c 8.2683,-1.06101 15.17738,-2.0748 15.35352,-2.25287 0.44132,-0.44618 -7.39534,-27.79312 -8.21149,-28.65491 -0.87663,-0.92566 -36.2518,14.73833 -39.01031,17.27361 -2.00159,1.83962 -4.16231,9.99483 -2.96803,11.20224 1.03851,1.04992 13.13137,4.21401 16.37912,4.28558 1.88315,0.0414 10.18889,-0.79265 18.45719,-1.85365 z m 104.55629,-4.36973 c 8.17762,-7.42203 14.39545,-10.40556 35.21224,-16.89605 11.16878,-3.48232 24.03218,-7.04001 28.58533,-7.90597 6.22001,-1.18299 193.9543,-24.91055 221.20932,-27.95844 2.46827,-0.27603 9.92002,0.2479 16.55944,1.1643 14.29971,1.97368 18.20085,3.73382 27.73419,12.51326 l 6.71617,6.18507 35.78075,-3.8642 35.78075,-3.8642 2.50308,-2.98342 c 7.78118,-9.27441 17.91093,-18.95035 23.04654,-22.01407 12.35509,-7.37061 11.80859,-7.27601 121.74808,-21.07548 99.28898,-12.46263 102.72428,-12.82613 121.30423,-12.83517 10.5168,-0.005 27.0454,0.69098 36.7302,1.54687 15.0859,1.33322 18.9642,2.03523 27.0697,4.89974 l 9.4609,3.34356 1.7114,-2.66516 c 3.0022,-4.67513 9.3399,-11.9018 11.0115,-12.55606 0.8888,-0.34787 10.1344,-1.46185 20.5457,-2.47549 10.4113,-1.01364 19.0813,-1.99631 19.2667,-2.1837 0.5304,-0.53622 -9.1535,-39.56499 -10.0251,-40.40338 -2.1195,-2.03908 -27.8349,-5.11527 -43.8303,-5.24317 l -16.6371,-0.13303 -12.4096,9.11178 c -11.8872,8.72823 -17.9547,11.99902 -28.6638,15.45184 -2.6902,0.86738 -75.32603,10.29494 -161.41293,20.95015 -86.08697,10.65521 -159.60327,19.80467 -163.36958,20.33214 -3.7663,0.52747 -77.50271,9.67976 -163.85869,20.33843 -179.85066,22.19844 -159.75265,20.95897 -185.38043,11.43264 -22.60719,-8.40353 -23.76853,-8.66572 -29.64419,-6.6927 -2.67138,0.89705 -11.62145,4.64506 -19.88904,8.32893 l -15.03199,6.69794 -2.17837,11.13137 c -1.19811,6.12225 -3.76113,16.48326 -5.6956,23.02447 -1.93448,6.54121 -3.35037,12.06181 -3.14643,12.268 0.20395,0.20618 7.16914,-0.74851 15.47822,-2.12154 8.30906,-1.37302 17.62088,-2.7566 20.69292,-3.07461 l 5.58552,-0.57819 6.15361,6.04911 c 3.38448,3.32703 6.4825,6.05754 6.88449,6.06781 0.40197,0.0103 2.38295,-1.48074 4.40217,-3.31338 z m 365.48031,-51.50774 c -3.55215,-1.56248 -4.91872,-5.57335 -3.33435,-9.78633 1.86532,-4.96009 9.41118,-6.11763 13.42527,-2.05943 2.09747,2.12052 2.42146,3.15187 1.9418,6.18132 -1.0014,6.32469 -5.60493,8.49182 -12.03272,5.66444 z m 34.6312,50.86872 c 3.55064,-3.26559 3.97797,-6.02818 1.76187,-11.39034 l -1.41748,-3.42977 -30.55751,0 c -30.02774,0 -30.59677,0.0373 -32.82166,2.15041 -2.31658,2.20024 -2.75509,5.01066 -1.65194,10.58707 0.47124,2.38209 1.31589,3.30088 3.66848,3.99047 1.68095,0.49272 15.38237,0.92295 30.44759,0.95606 l 27.3913,0.0602 3.17935,-2.9241 z m -9.53805,-26.68824 c 0,-7.12263 -0.18603,-7.91209 -1.86453,-7.91209 -3.01657,0 -39.59683,3.97685 -40.93438,4.45021 -0.77929,0.2758 -1.22282,2.41704 -1.22282,5.90337 l 0,5.47059 22.01086,0 22.01087,0 0,-7.91208 z M 317.46138,227.47394 c 29.96897,-4.42448 49.85013,-7.76578 67.81933,-11.39793 11.72248,-2.36949 46.13035,-14.66726 57.45252,-20.5342 7.4361,-3.85325 15.10859,-9.96019 15.10859,-12.02573 0,-0.63847 -70.66376,-0.97569 -204.45652,-0.97569 l -204.456529,0 0,2.00011 c 0,3.1626 7.2753,10.32346 17.496176,17.22096 8.71555,5.88165 10.73447,6.74841 27.50382,11.8079 23.813933,7.18491 45.264073,11.26693 81.684793,15.54486 26.81343,3.14947 39.9689,3.68532 77.77174,3.16788 l 34.72826,-0.47537 29.34782,-4.33279 z M 681.5253,216.39887 c 0.84123,-0.54134 0.1599,-13.58762 -2.67209,-51.16618 -2.09067,-27.74176 -3.80938,-51.66346 -3.81936,-53.15934 -0.01,-1.49588 -0.45834,-2.71978 -0.99638,-2.71978 -0.64021,0 -0.97826,18.62637 -0.97826,53.9011 l 0,53.9011 3.66847,-0.0151 c 2.01767,-0.008 4.17659,-0.34212 4.79762,-0.74176 z m 31.88717,-3.8605 3.66847,-0.58046 0,-51.32665 0,-51.32664 -2.69021,-1.21179 c -3.01526,-1.3582 -31.84271,-1.73895 -33.12992,-0.43758 -0.63901,0.64603 13.43751,99.21517 14.98467,104.92838 0.45146,1.66712 1.16537,1.78906 7.00062,1.19581 3.57384,-0.36335 8.1487,-0.92183 10.16637,-1.24107 z m 432.34513,-1.06941 c 4.9524,-5.34289 8.6922,-13.83825 12.083,-27.44816 3.102,-12.45054 9.2402,-45.11684 9.2402,-49.17428 0,-1.63697 -1.6999,-1.75668 -24.9456,-1.75668 -13.7201,0 -24.9423,0.33379 -24.9382,0.74175 0.049,4.87077 10.3602,50.21895 14.3368,63.04946 2.0158,6.50403 8.934,17.23154 11.1521,17.29255 0.3028,0.008 1.6851,-1.20876 3.0717,-2.70464 z m -8.6739,-25.21978 c -3.4627,-3.91382 -4.725,-8.36594 -3.1928,-11.2604 3.0979,-5.85198 11.1055,-7.0156 15.7771,-2.29262 2.5564,2.58448 2.8987,3.52057 2.4072,6.58295 -1.2801,7.97515 -10.3654,12.19916 -14.9915,6.97007 z m 10.3063,-2.07229 c 1.7513,-2.13333 2.3729,-7.15139 1.1679,-9.42776 -0.9244,-1.74605 -2.0098,-2.09885 -6.4571,-2.09885 l -5.346,0 0,3.31395 c 0,1.82267 0.4832,4.71553 1.0739,6.42858 0.9492,2.75261 1.5037,3.11461 4.7716,3.11461 2.0336,0 4.189,-0.59874 4.7897,-1.33053 z m 29.0302,10.79846 c 14.9083,-1.46726 27.0802,-4.54169 30.4568,-7.69288 1.1732,-1.09492 2.4198,-3.70646 2.7703,-5.80346 0.9843,-5.88973 -1.0609,-8.03072 -9.0631,-9.48795 -22.3347,-4.06724 -34.9064,-6.1641 -35.1967,-5.87055 -0.2764,0.27939 -7.111,29.09549 -7.111,29.98129 0,0.50833 4.1532,0.25046 18.1437,-1.12645 z M 630.99399,125.13767 c 11.31729,-7.68096 35.76017,-18.75113 41.40238,-18.75113 1.84174,0 1.89911,-0.48231 1.26472,-10.631866 -0.3655,-5.84753 -0.93376,-13.63599 -1.26282,-17.30769 -0.50673,-5.6542 -0.36412,-6.67582 0.93186,-6.67582 1.71133,0 1.88674,0.69481 4.1198,16.31868 0.85521,5.98351 1.77067,12.000736 2.03437,13.371616 l 0.47943,2.49251 13.51146,-0.37514 c 12.48735,-0.3467 14.17205,-0.17191 22.22708,2.30607 13.99882,4.30648 24.28707,8.86663 35.61737,15.78697 5.82876,3.56011 10.9647,6.44433 11.41322,6.40939 0.44851,-0.0349 7.29071,-8.37973 15.20488,-18.54396 l 14.3894,-18.480426 -4.11766,-3.68957 c -4.73116,-4.23928 -4.0547,-4.6238 -10.61044,6.03123 -2.13115,3.46373 -4.09518,6.07492 -4.3645,5.80263 -0.26934,-0.27229 1.5131,-3.83021 3.96096,-7.90647 2.44787,-4.07627 4.45066,-7.65765 4.45066,-7.95863 0,-0.58937 -14.01565,-8.59787 -15.04711,-8.59787 -0.3418,0 -2.38237,3.85337 -4.53459,8.56305 -2.15223,4.70967 -4.14485,8.32878 -4.42806,8.04247 -0.2832,-0.28632 1.05179,-3.99625 2.96665,-8.2443 1.91485,-4.24806 3.34334,-8.14295 3.1744,-8.65533 -0.3758,-1.13977 -12.38534,-5.80171 -13.36646,-5.18867 -0.38656,0.24153 -2.21108,4.24118 -4.05448,8.88811 -1.84341,4.64693 -3.72891,8.45208 -4.19001,8.45588 -0.9434,0.008 -1.04087,0.30673 3.30937,-10.14996 1.75829,-4.22639 2.9582,-7.92568 2.66646,-8.22062 -0.77,-0.77846 -15.69279,-6.33994 -17.02297,-6.34419 -0.61855,-0.002 -1.85718,3.44559 -2.75251,7.66125 -1.89878,8.94029 -3.26984,13.37613 -3.38259,10.94378 -0.0746,-1.61045 2.38358,-14.42125 3.41367,-17.79 0.41501,-1.35723 -0.82738,-1.95375 -6.92606,-3.32549 -4.08749,-0.91937 -7.65337,-1.44758 -7.92418,-1.17379 -0.27081,0.27378 -1.14091,4.86223 -1.93354,10.19654 -0.79264,5.33432 -1.70935,9.94469 -2.03714,10.24529 -0.56394,0.51713 -0.13773,-5.05256 1.2523,-16.36501 l 0.61971,-5.04341 -3.7873,-0.63252 c -2.08301,-0.34789 -5.15529,-0.63742 -6.82728,-0.64341 -3.00483,-0.0108 -3.04727,0.0594 -3.66848,6.06826 -0.34567,3.34353 -0.62849,8.21287 -0.62849,10.82076 0,2.60788 -0.4443,5.01921 -0.98732,5.35851 -0.94683,0.5916 -0.42133,-17.88209 0.60193,-21.16056 0.35343,-1.13236 -0.90762,-1.25223 -7.15388,-0.67998 -4.17062,0.38208 -7.73801,0.85146 -7.92753,1.04306 -0.37391,0.37802 1.5772,14.75333 2.38575,17.57753 0.27252,0.95192 0.0619,1.73077 -0.46793,1.73077 -0.52989,0 -1.53109,-4.05481 -2.22489,-9.01068 -0.8045,-5.74653 -1.74603,-9.19867 -2.59912,-9.52963 -1.7288,-0.67069 -13.94522,1.36751 -15.08142,2.5162 -0.50606,0.51161 -0.0344,4.74259 1.12982,10.13563 2.23928,10.37273 2.38557,11.66527 1.16462,10.28958 -0.45863,-0.51676 -1.58859,-4.72253 -2.51101,-9.34615 -0.92243,-4.62363 -1.83964,-8.92502 -2.03825,-9.55865 -0.24963,-0.79644 -3.17241,-0.23806 -9.46842,1.80888 -5.00901,1.62851 -9.25158,3.10679 -9.42793,3.28507 -0.17633,0.17827 1.26176,3.7866 3.19578,8.01851 1.934,4.2319 3.35593,8.16765 3.15985,8.7461 -0.34434,1.01576 -7.51092,-13.68419 -7.51092,-15.40623 0,-0.46735 -0.35474,-0.84973 -0.78831,-0.84973 -0.79277,0 -13.14573,4.0366 -13.68542,4.47201 -0.15892,0.12821 1.29671,4.10574 3.23473,8.83895 1.93803,4.73321 3.36759,9.07924 3.17682,9.65784 -0.19077,0.5786 -2.04332,-3.12877 -4.11676,-8.23862 -2.07344,-5.10984 -3.88746,-9.43987 -4.03115,-9.62228 -0.38504,-0.48882 -15.09426,9.6757 -15.09426,10.4306 0,0.35368 2.24665,3.92866 4.99256,7.94441 2.74591,4.01575 4.75937,7.53711 4.47435,7.82526 -0.285,0.28815 -2.84193,-2.85534 -5.68205,-6.98554 -2.84011,-4.13019 -5.48645,-7.50944 -5.88074,-7.50944 -1.71142,0 -11.49564,7.52691 -11.13983,8.56979 1.08004,3.16563 27.33986,36.790876 28.29348,36.229306 0.59595,-0.35094 3.50473,-2.28132 6.46397,-4.28973 z m 577.17381,0.66786 c 39.2815,-4.91637 74.5422,-12.73082 100.3531,-22.24021 27.4795,-10.124106 39.5382,-16.863766 39.5382,-22.098066 0,-1.71362 -8.0283,-1.78401 -203.4783,-1.78401 -189.05443,0 -203.47813,0.11655 -203.47813,1.64419 0,0.9043 1.3227,3.72806 2.9393,6.27502 2.3272,3.66651 5.1283,5.97401 13.4511,11.08088 9.24068,5.670076 12.70018,7.117466 28.60958,11.969596 23.65135,7.21336 44.96625,11.2863 81.68475,15.60869 26.2718,3.09266 40.5217,3.70298 78.2608,3.35189 32.2031,-0.29959 35.897,-0.52603 62.1196,-3.80798 z M 89.037467,425.34259 l 0,-53.91119 92.201093,0.2523 92.20109,0.25229 0,53.4066 0,53.40659 -92.20109,0.2523 -92.201093,0.25229 0,-53.91118 z m 182.934793,0 0,-51.92308 -90.97826,0 -90.978273,0 0,51.92308 0,51.92307 90.978273,0 90.97826,0 0,-51.92307 z m -98.8352,18.39828 c -13.59235,-4.41255 -15.1408,-22.59635 -2.9433,-34.56371 5.41772,-5.31549 11.15654,-7.14992 21.37588,-6.83287 7.54218,0.23399 8.05893,0.38537 7.60915,2.22907 -0.26539,1.08791 -0.77997,3.8695 -1.14348,6.18131 -0.80104,5.09426 -1.92661,5.40534 -2.78671,0.77019 -0.82915,-4.4683 -3.77913,-6.457 -9.57816,-6.457 -3.96614,0 -5.24394,0.52348 -8.46972,3.46981 -9.06098,8.276 -11.38862,24.51918 -4.3192,30.1411 4.29639,3.41667 13.12274,2.16476 16.86329,-2.39185 0.69924,-0.8518 1.96014,-1.54873 2.802,-1.54873 1.94748,0 -3.05357,5.49665 -6.80339,7.47759 -3.39635,1.79422 -9.50202,2.53287 -12.60636,1.52509 z m 857.96554,-19.8818 0,-53.40659 143.8043,0 143.8044,0 0,53.40659 0,53.40659 -143.8044,0 -143.8043,0 0,-53.40659 z m 286.6304,0 0,-52.41758 -142.3369,0 -142.337,0 0,52.41758 0,52.41758 142.337,0 142.3369,0 0,-52.41758 z m -59.4325,28.5298 c -0.7673,-0.7758 -0.8239,-1.71507 -0.1769,-2.93723 0.7994,-1.5102 1.3375,-1.61873 3.3741,-0.68058 2.7766,1.27901 4.9975,-0.2232 8.2881,-5.60599 1.769,-2.89371 1.7965,-3.48521 0.4617,-9.93527 -2.9821,-14.40915 -4.1732,-17.31816 -7.5885,-18.5329 l -3.1325,-1.11414 2.4456,-0.69733 c 1.3452,-0.38353 3.6393,-0.74169 5.0981,-0.79591 2.3787,-0.0884 2.8096,0.43699 4.1779,5.09373 0.8391,2.85577 2.0334,7.97768 2.6541,11.38205 l 1.1286,6.18974 1.7709,-2.7282 c 0.9741,-1.50052 2.717,-5.08399 3.8732,-7.96328 l 2.1023,-5.23507 -2.27,-2.44286 c -2.4906,-2.68028 -1.6342,-4.86368 1.66,-4.23196 5.1084,0.97965 0.2272,15.33818 -10.5948,31.16469 -5.9381,8.68432 -10.5417,11.83059 -13.2719,9.07051 z m -157.0077,-11.47414 c -3.5277,-0.34799 -3.6685,-0.50509 -3.6685,-4.09339 0,-4.93208 1.0455,-5.78398 2.5775,-2.1003 0.6823,1.64055 2.4142,3.52344 3.8486,4.1842 2.3215,1.06936 2.813,0.9456 4.4723,-1.12618 2.1893,-2.73331 1.9055,-3.98057 -2.643,-11.6172 -3.9205,-6.58221 -4.085,-8.03242 -1.3154,-11.59224 1.8419,-2.36723 2.6321,-2.61543 7.8261,-2.45786 5.1865,0.15733 5.7704,0.3877 5.7086,2.25249 -0.038,1.14248 -0.4129,2.96735 -0.8334,4.05526 -0.7382,1.90917 -0.7895,1.89964 -1.4729,-0.2736 -1.047,-3.3291 -5.0519,-5.74301 -6.9233,-4.17285 -2.2135,1.85723 -1.7931,4.01346 1.9364,9.93184 6.9431,11.0181 2.9069,18.23501 -9.513,17.00983 z m 23.4783,-0.0549 c -3.5568,-0.2976 -3.6685,-0.42384 -3.6685,-4.14492 0,-4.48086 1.4746,-6.03057 2.3568,-2.47687 0.8529,3.43519 4.7664,5.89513 7.2451,4.55399 3.9991,-2.16378 3.768,-3.63764 -2.23,-14.21915 -4.6134,-8.13871 -1.88,-12.74243 7.3987,-12.46096 5.182,0.1572 5.7658,0.38775 5.7041,2.25236 -0.038,1.14248 -0.4129,2.96735 -0.8335,4.05526 -0.7382,1.90917 -0.7894,1.89964 -1.4729,-0.2736 -1.0469,-3.3291 -5.0518,-5.74301 -6.9232,-4.17285 -2.2135,1.85723 -1.7932,4.01346 1.9364,9.93184 6.9707,11.06188 3.0733,18.00805 -9.513,16.9549 z m 26.9216,0.0329 c -3.1061,-0.50238 -6.1336,-4.84216 -6.1336,-8.79218 0,-4.47688 1.9966,-9.07044 5.8924,-13.55621 3.9198,-4.51341 7.6431,-6.55337 11.9612,-6.55337 10.4199,0 5.5383,11.80369 -6.3233,15.28984 -6.0998,1.79273 -7.6487,4.26863 -5.1156,8.17699 1.8924,2.92001 6.4704,2.96566 10.4453,0.10418 3.5596,-2.56254 3.2843,-0.35692 -0.2913,2.33273 -2.8745,2.1624 -7.4586,3.47943 -10.4351,2.99802 z m 5.4951,-15.98764 c 5.2268,-2.69586 8.7162,-8.82921 6.3715,-11.19961 -1.9242,-1.94544 -8.9876,5.29332 -10.6312,10.89538 -0.796,2.71255 -0.4567,2.73678 4.2597,0.30423 z m 45.1461,15.78949 c -1.5523,-0.96989 -1.1085,-4.62617 1.95,-16.06703 1.2684,-4.74493 1.9798,-8.95721 1.5808,-9.36062 -2.2687,-2.29366 -10.5883,8.65774 -13.665,17.98777 -1.799,5.45541 -2.7333,6.99008 -4.4074,7.23912 -1.1684,0.17382 -2.1245,0.17289 -2.1245,-0.002 0,-0.17496 1.3207,-4.98932 2.9348,-10.69857 3.2555,-11.51487 3.6066,-14.83516 1.5687,-14.83516 -3.2108,0 -9.9346,10.25153 -13.2903,20.26316 -1.2252,3.65548 -2.216,5.03958 -3.7743,5.27266 -1.162,0.17382 -2.1128,-0.0497 -2.1128,-0.49659 0,-0.44695 1.3206,-5.48383 2.9348,-11.19308 3.4134,-12.07365 3.524,-13.37442 1.2228,-14.39021 -1.4047,-0.62005 -1.1852,-0.88431 1.2228,-1.47232 1.6142,-0.39414 3.9144,-0.76928 5.1116,-0.83364 1.8595,-0.0999 2.0587,0.20749 1.3662,2.10826 -0.446,1.2239 -1.1062,3.45908 -1.4673,4.96705 -0.5935,2.47861 -0.195,2.25771 4.1516,-2.30143 3.9267,-4.11855 5.3212,-4.98391 7.6057,-4.7198 2.675,0.30925 2.7902,0.5328 2.6319,5.105 l -0.1654,4.78158 2.3943,-3.29806 c 3.3399,-4.60045 6.2896,-6.71191 9.4125,-6.73762 3.9847,-0.0328 4.3035,3.24856 1.3308,13.69514 -3.5434,12.45174 -3.3683,14.06256 1.0705,9.84674 1.2453,-1.18274 2.2641,-1.71106 2.2641,-1.17406 0,1.22883 -4.8609,5.81863 -6.9365,6.54953 -0.8559,0.30139 -2.1205,0.19531 -2.8104,-0.23573 z m 17.727,-0.0995 c -1.7985,-0.38468 -3.6619,-1.09564 -4.141,-1.57992 -0.509,-0.51465 0.9497,-7.64732 3.5108,-17.16661 2.4099,-8.95736 4.3833,-17.01735 4.3855,-17.91107 0,-0.89373 -0.7666,-1.96502 -1.7082,-2.38064 -1.4047,-0.62005 -1.1851,-0.88431 1.2228,-1.47232 1.6142,-0.39414 3.8836,-0.76928 5.0434,-0.83365 l 2.1086,-0.11701 -2.3532,8.6469 c -1.2942,4.75579 -2.3531,8.93985 -2.3531,9.2979 0,0.35805 1.3672,-0.64019 3.0383,-2.21832 3.6478,-3.44505 9.3838,-3.9532 11.9731,-1.06069 2.7214,3.0402 2.1374,10.82384 -1.2128,16.16476 -5.1247,8.16948 -12.4257,12.14685 -19.5142,10.63067 z m 9.9628,-4.69109 c 3.3569,-3.19923 6.1165,-8.40414 7.0106,-13.22298 1.3539,-7.29606 -3.6475,-10.21718 -8.5662,-5.00319 -4.3646,4.62658 -8.6256,16.84271 -7.1922,20.61944 0.838,2.20761 5.1612,1.02481 8.7478,-2.39327 z m 16.7805,4.1276 c -0.8409,-0.85015 -1.3177,-2.27767 -1.0595,-3.17227 2.4567,-8.51288 8.4014,-31.91129 8.4014,-33.06805 0,-0.81332 -0.7704,-1.81881 -1.712,-2.23443 -1.4047,-0.62005 -1.1852,-0.88431 1.2228,-1.47232 7.6962,-1.87929 7.56,-2.86264 2.2987,16.6 -6.0322,22.3148 -6.0781,23.63022 -0.6402,18.36321 1.509,-1.46166 2.7437,-2.21655 2.7437,-1.67753 0,1.28219 -5.879,6.84635 -8.0424,7.61155 -0.9326,0.32991 -2.3655,-0.0939 -3.2125,-0.95016 z m -189.2886,-0.34835 c 0,-0.54396 0.4062,-0.98902 0.9026,-0.98902 0.4964,0 7.4299,-9.00833 15.4076,-20.01852 l 14.505,-20.01853 0.5621,19.77128 c 0.3091,10.8742 0.6393,19.88253 0.7337,20.01852 0.095,0.13599 0.832,0.24725 1.639,0.24725 0.8071,0 1.4674,0.44506 1.4674,0.98902 0,0.57143 -3.0978,0.98901 -7.3369,0.98901 -4.0354,0 -7.337,-0.4141 -7.337,-0.92023 0,-0.50612 0.9905,-1.06244 2.2011,-1.23626 1.9499,-0.27997 2.2345,-0.96514 2.4945,-6.00285 l 0.2933,-5.68682 -5.9088,0 -5.9089,0 -3.4092,4.69781 c -3.9754,5.47811 -4.1304,6.18864 -1.5011,6.88376 3.7969,1.00383 1.8907,2.26459 -3.4239,2.26459 -2.9593,0 -5.3805,-0.44506 -5.3805,-0.98901 z m 25.4348,-22.45063 0,-6.62647 -4.4022,6.11637 c -2.4212,3.364 -4.4021,6.3459 -4.4021,6.62646 0,0.28055 1.9809,0.51009 4.4021,0.51009 l 4.4022,0 0,-6.62645 z m -768.91293,-255.7525 2.44565,-1.2509 0,-18.23829 0,-18.23828 -2.34747,-1.18321 c -2.25175,-1.13495 -2.1348,-1.24705 2.86777,-2.74899 2.86839,-0.86118 5.35546,-1.56578 5.52682,-1.56578 0.17138,0 0.31158,0.92241 0.31158,2.04981 l 0,2.0498 2.57758,-2.0498 c 4.91031,-3.90491 11.54123,-2.18196 14.9076,3.87352 4.14495,7.45598 1.4917,19.74799 -5.1459,23.83995 -3.4714,2.14005 -9.39958,2.48301 -11.21519,0.64881 -0.9794,-0.98943 -1.16495,0.13779 -0.92935,5.64562 0.27318,6.38607 0.47058,6.93119 2.74004,7.56625 1.44776,0.40513 -0.9472,0.71865 -5.86956,0.76837 -7.31016,0.0739 -8.01961,-0.0671 -5.86957,-1.16688 z m 19.59491,-16.0596 c 3.16371,-3.40462 3.83215,-13.19727 1.24602,-18.25415 -2.28412,-4.46632 -6.0618,-5.90087 -9.51511,-3.6133 -2.4214,1.60399 -2.52147,2.04898 -2.52147,11.21246 0,7.4912 0.34799,9.93093 1.61901,11.35083 2.31069,2.58135 6.41566,2.26991 9.17155,-0.69584 z m -294.372639,2.61932 c -4.83257,-4.88569 -1.58462,-11.04218 8.21945,-15.57995 5.09949,-2.36029 5.36263,-2.66294 5.36263,-6.16782 0,-4.1553 -1.38332,-6.05937 -4.40218,-6.05937 -2.82001,0 -4.40217,1.84837 -4.40217,5.14286 0,2.26149 -0.42922,2.76923 -2.34099,2.76923 -3.03642,0 -3.98159,-2.61525 -2.03221,-5.62306 2.7709,-4.27541 9.8216,-5.5609 15.16848,-2.76554 3.46831,1.81324 3.814246,3.13878 4.125076,15.80618 0.2337,9.52407 0.32713,9.90221 2.52427,10.21681 2.18538,0.31294 2.20992,0.40676 0.58207,2.22528 -2.31731,2.58874 -7.283296,2.53919 -7.960636,-0.0794 -0.61764,-2.3878 -1.08546,-2.44585 -3.30984,-0.41069 -0.94218,0.86204 -3.45699,1.80381 -5.58846,2.09284 -3.08497,0.41833 -4.29761,0.0987 -5.94549,-1.56733 z m 11.68987,-3.11666 c 1.51639,-0.82047 1.89221,-2.09725 1.89221,-6.42857 0,-2.97262 -0.24197,-5.40476 -0.53771,-5.40476 -1.28568,0 -6.90404,3.40984 -7.99096,4.84979 -3.76965,4.99403 1.01261,10.02641 6.63646,6.98354 z m 16.632536,-0.95421 c 0.0491,-4.63966 0.20098,-5.07604 1.03261,-2.96754 1.57209,3.98583 4.88424,6.92358 7.80597,6.92358 2.8877,0 5.76891,-2.23881 5.76891,-4.48266 0,-1.82564 -3.5565,-5.13885 -8.006,-7.45835 -7.02449,-3.66182 -8.89208,-10.62556 -4.13851,-15.43137 2.28855,-2.3137 3.04358,-2.50355 7.92908,-1.99378 2.96982,0.30988 5.60099,0.76694 5.84704,1.0157 0.24605,0.24875 0.30669,2.39008 0.13475,4.75851 l -0.31261,4.30624 -1.61583,-3.61349 c -2.38519,-5.33402 -8.67205,-6.40535 -10.14044,-1.72802 -0.79007,2.51665 0.66189,4.24538 7.01855,8.35637 2.81382,1.81976 5.58426,4.19315 6.15653,5.27419 1.89344,3.57678 1.23328,7.94344 -1.6026,10.60052 -2.36785,2.21856 -3.33519,2.44538 -9.28907,2.17806 l -6.64597,-0.2984 0.0576,-5.43956 z m 27.3593,4.02106 c -0.55698,-1.05215 -1.01268,-7.29726 -1.01268,-13.87802 0,-11.26997 -0.11992,-12.00987 -2.06428,-12.73704 -2.01758,-0.75455 -2.00546,-0.81097 0.53584,-2.49439 1.43006,-0.94732 3.45788,-3.14463 4.50627,-4.88293 l 1.90617,-3.16055 0.004,4.2033 c 0.004,4.14371 0.0521,4.20329 3.427573,4.20329 1.88315,0 3.42391,0.44506 3.42391,0.98901 0,0.54396 -1.54076,0.98901 -3.42391,0.98901 l -3.423913,0 0,10.79823 c 0,5.93903 0.2672,11.50222 0.59379,12.36264 0.699823,1.84375 4.381213,2.0732 6.058383,0.3776 0.69138,-0.69898 1.17392,-0.76984 1.17392,-0.1724 0,0.55792 -1.01886,1.9821 -2.26414,3.16484 -2.90381,2.75796 -8.037943,2.88708 -9.440593,0.23741 z m 85.813523,0.1775 c -1.47657,-0.92559 -3.34749,-3.09501 -4.15761,-4.82096 -1.96662,-4.18988 -1.88264,-13.53543 0.16073,-17.88885 4.29641,-9.15352 17.16776,-9.5567 21.33966,-0.66846 2.44962,5.21892 2.27123,5.33355 -8.29941,5.33355 l -9.78261,0 0,3.51066 c 0,10.39458 9.70799,14.38094 17.36413,7.13018 2.80803,-2.65934 2.9129,-0.5832 0.16744,3.31482 -3.96281,5.62642 -11.4365,7.44632 -16.79233,4.08906 z m 11.97816,-21.07677 c 0,-1.48665 -2.04358,-5.23558 -3.3258,-6.10116 -2.19727,-1.48328 -5.39635,-0.68003 -7.36407,1.84901 -3.45926,4.44605 -2.75717,5.30618 4.33117,5.30618 3.84845,0 6.3587,-0.41611 6.3587,-1.05403 z m 23.57124,20.587 c -5.06996,-13.48148 -10.3833,-25.30022 -12.00497,-26.7033 -1.93819,-1.67694 -1.79345,-1.73077 4.65363,-1.73077 5.79325,0 6.4227,0.17103 4.86568,1.32205 -1.70935,1.26365 -1.64655,1.70192 1.42137,9.91982 1.76535,4.72877 3.53472,8.80082 3.93192,9.049 0.3972,0.24818 2.17045,-3.60935 3.94055,-8.57228 3.10139,-8.69555 3.15211,-9.07251 1.39555,-10.37106 -1.63316,-1.20731 -1.34227,-1.34753 2.7956,-1.34753 l 4.61843,0 -1.89978,2.71978 c -1.04489,1.49588 -4.02954,8.39066 -6.63255,15.32175 -2.60302,6.93108 -5.07382,12.60553 -5.49067,12.60989 -0.41685,0.004 -1.1345,-0.99345 -1.59476,-2.21735 z m 24.96505,0.15992 c -1.42842,-1.13594 -3.24866,-3.33911 -4.04497,-4.89594 -1.94512,-3.80278 -1.84571,-13.15584 0.18581,-17.48402 4.26886,-9.09479 17.1242,-9.64951 21.22356,-0.91582 0.87962,1.87403 1.5993,3.89638 1.5993,4.49412 0,0.71727 -3.32625,1.08679 -9.7826,1.08679 l -9.78261,0 0,3.06482 c 0,10.62094 9.68645,14.84717 17.36413,7.57602 2.80803,-2.65934 2.9129,-0.5832 0.16744,3.31482 -4.106,5.8297 -12.09565,7.60375 -16.93006,3.75921 z M 252.94867,125.425 c -1.70259,-7.13817 -9.54063,-6.80806 -11.74185,0.49451 -0.64903,2.15318 -0.4592,2.22527 5.85991,2.22527 l 6.53068,0 -0.64874,-2.71978 z m 35.86208,22.36284 c -8.06743,-5.22261 -8.94872,-17.40359 -1.82754,-25.25953 2.46421,-2.71848 4.11603,-3.58914 7.55215,-3.98069 5.77627,-0.65823 11.06042,1.60527 13.60747,5.82885 2.52662,4.18969 2.65762,12.78649 0.26813,17.59475 -3.68147,7.40802 -12.91102,10.14702 -19.60021,5.81662 z m 13.41659,-2.46874 c 1.57129,-2.01953 2.02752,-4.02961 2.02752,-8.93287 0,-10.07823 -3.84208,-16.64151 -9.35478,-15.98042 -4.43355,0.53167 -6.80879,4.83817 -6.65809,12.07167 0.13083,6.28033 2.8891,13.73451 5.47041,14.78371 3.24055,1.31714 6.56991,0.55778 8.51494,-1.94209 z m 99.4905,2.53712 c -1.54482,-1.23275 -3.41575,-3.71002 -4.15761,-5.50507 -3.1578,-7.64073 -0.22014,-19.62299 5.55058,-22.63994 5.78032,-3.02197 13.32032,-0.93672 16.07314,4.44516 2.83625,5.54498 2.41625,5.86714 -8.05409,6.17787 l -9.53804,0.28307 0.0836,4.19294 c 0.1847,9.25524 10.40758,13.04993 16.58008,6.15444 2.52051,-2.81574 3.66609,-2.37855 2.04126,0.77899 -2.51712,4.89155 -6.06691,7.42123 -11.09158,7.90419 -3.80713,0.36593 -5.20187,0.0322 -7.48742,-1.79165 z m 12.10224,-21.4694 c 0,-4.41095 -4.10109,-7.15766 -8.27139,-5.53977 -1.37472,0.53333 -4.446,5.19904 -4.446,6.75411 0,0.29899 2.86141,0.54362 6.35869,0.54362 5.4412,0 6.3587,-0.25366 6.3587,-1.75796 z m 47.50112,21.31812 c -1.17755,-1.69968 -1.52286,-4.95136 -1.52286,-14.34066 0,-11.81743 -0.0571,-12.14258 -2.13261,-12.14258 -1.82675,0 -1.54614,-0.50751 1.95652,-3.5386 2.24902,-1.94623 4.08913,-4.17151 4.08913,-4.94505 0,-0.77356 0.44022,-1.40646 0.97826,-1.40646 0.53805,0 0.97826,1.78022 0.97826,3.95605 0,3.73626 0.16305,3.95604 2.93479,3.95604 1.61413,0 2.93478,0.44506 2.93478,0.98901 0,0.54396 -1.3342,0.98901 -2.96489,0.98901 l -2.9649,0 0.27468,12.11539 0.27467,12.11538 3.17935,-0.14583 c 3.71036,-0.17018 4.06013,0.89349 1.00516,3.05679 -3.16363,2.24024 -7.21707,1.94434 -9.02034,-0.65849 z m -460.81633796,0.067 C 4.626942,145.49256 4.907042,144.20541 4.907042,127.54211 c 0,-8.82683 -0.28015,-16.78684 -0.62256,-17.68894 -0.3424,-0.90209 -1.7731,-2.16239 -3.17934,-2.80066 -2.09977996,-0.95307 0.48444,-1.20899 14.457539,-1.43172 9.35789,-0.14917 17.1978,-0.0858 17.42203,0.14095 0.22422,0.22669 0.25956,2.57401 0.0785,5.21626 -0.25748,3.75792 -0.5155,4.37336 -1.18485,2.82609 -2.09535,-4.8436 -3.40568,-5.43956 -11.95992,-5.43956 l -8.1636,0 0,8.40659 0,8.4066 6.8622,0 c 6.69216,0 6.91024,-0.0796 8.80069,-3.21429 l 1.93849,-3.21428 0.004,7.82967 c 0.004,7.85842 -0.3263,8.45796 -2.36839,4.30323 -0.97018,-1.97387 -1.94973,-2.27764 -8.1695,-2.53337 l -7.06711,-0.29059 0,8.99217 0,8.99218 3.17935,1.39706 c 3.01549,1.32506 2.67517,1.39751 -6.60327,1.4057 -7.61837896,0.007 -9.349759,-0.23072 -7.82607896,-1.07326 z M 129.87987,147.4395 l 3.17934,-1.39706 0,-18.74221 0,-18.7422 -3.17934,-1.24476 c -3.10734,-1.21656 -3.12396,-1.25476 -0.7337,-1.68648 1.34511,-0.24294 7.72826,-0.25333 14.18478,-0.023 12.5666,0.44814 17.11304,1.88858 21.71961,6.88137 7.37527,7.9936 6.73113,23.07683 -1.3112,30.70367 -4.76433,4.51818 -9.9196,5.72957 -24.19988,5.68652 -11.92517,-0.036 -12.61268,-0.13814 -9.65961,-1.43578 z m 24.6858,-3.46269 c 10.99638,-5.67158 10.69344,-27.02119 -0.47385,-33.39519 -2.88906,-1.64901 -5.19303,-2.16663 -8.80435,-1.97803 l -4.8913,0.25545 -0.2673,18.22413 c -0.2039,13.90101 0.0282,18.42392 0.97826,19.06635 1.74421,1.17939 9.33533,-0.0461 13.45854,-2.17271 z m 111.15084,3.9703 c 2.70971,-1.10716 3.29675,-5.02517 3.31019,-22.09265 0.011,-13.95357 -0.719,-17.42762 -3.69212,-17.5706 -1.67136,-0.0804 1.86286,-1.91863 6.39311,-3.32525 l 2.20109,-0.68342 0,20.15234 c 0,20.55333 0.32039,22.502 3.91304,23.8001 0.80707,0.29161 -2.05435,0.53712 -6.3587,0.54559 -5.25121,0.0103 -7.14849,-0.26148 -5.76661,-0.82611 z m 80.90369,0.27431 c 2.63441,-0.69026 3.61292,-4.42171 3.61292,-13.7775 0,-8.92672 -0.97916,-12.18292 -3.70289,-12.31391 -1.67136,-0.0804 1.86286,-1.91863 6.39311,-3.32524 1.79081,-0.55603 2.20109,-0.3023 2.20109,1.36124 0,2.51665 0.16082,2.51939 4.13396,0.0703 4.52736,-2.79067 9.11235,-2.60544 11.09136,0.44809 l 1.57476,2.42981 3.73585,-2.49943 c 4.87207,-3.25962 9.30817,-2.92328 12.13417,0.91998 1.73289,2.35665 2.10251,4.5109 2.4001,13.98841 0.32328,10.29559 0.52171,11.28592 2.45056,12.22982 1.64434,0.80467 0.4042,1.0384 -5.72728,1.07943 -6.92296,0.0463 -7.54386,-0.0918 -5.38044,-1.19635 2.34963,-1.19967 2.45654,-1.66377 2.72298,-11.82042 0.25197,-9.6049 0.0908,-10.76029 -1.76199,-12.63347 -2.20973,-2.23401 -4.95633,-1.96722 -8.05338,0.78224 -1.42209,1.26248 -1.71196,3.24267 -1.71196,11.69506 0,9.39366 0.16701,10.29352 2.1742,11.71486 2.04837,1.45049 1.75115,1.53596 -5.13587,1.4769 -5.44551,-0.0467 -6.74068,-0.29381 -5.07776,-0.96882 2.16884,-0.88035 2.22446,-1.23372 1.95652,-12.4288 -0.247,-10.32024 -0.48354,-11.66189 -2.26661,-12.85683 -1.7019,-1.14052 -2.48277,-1.08594 -5.38044,0.37612 l -3.3896,1.71028 -0.29868,7.91209 c -0.39466,10.45431 0.35417,14.22424 3.04289,15.31904 1.49719,0.60964 -0.22178,0.85851 -5.67899,0.82222 -4.30435,-0.0286 -7.03072,-0.26043 -6.05858,-0.51514 z m 78.26087,0 c 2.63441,-0.69026 3.61292,-4.42171 3.61292,-13.7775 0,-8.92672 -0.97916,-12.18292 -3.70289,-12.31391 -1.67136,-0.0804 1.86286,-1.91863 6.39311,-3.32524 1.79081,-0.55603 2.20109,-0.3023 2.20109,1.36124 0,2.39627 1.22551,2.64333 2.9133,0.58733 1.48029,-1.80325 6.94973,-2.92009 9.80834,-2.00283 3.41956,1.09726 4.88705,6.26763 4.88705,17.21849 0,9.07386 0.17452,9.98937 2.1742,11.40539 2.05108,1.45241 1.76179,1.53959 -5.10898,1.53959 -6.87077,0 -7.16006,-0.0872 -5.10898,-1.53959 2.02105,-1.43116 2.1742,-2.30034 2.1742,-12.33984 0,-10.25688 -0.11611,-10.87716 -2.30782,-12.32899 -2.4414,-1.61725 -4.82879,-1.21758 -7.71936,1.29226 -1.41068,1.22487 -1.71195,3.16674 -1.71195,11.03427 0,9.57517 0.73284,12.04648 3.91304,13.19554 0.80706,0.29161 -2.05435,0.5137 -6.3587,0.49354 -4.30434,-0.0202 -7.03071,-0.24504 -6.05857,-0.49975 z m -126.142,-50.241496 c -1.19623,-3.15157 0.43725,-4.63579 4.71945,-4.2882 3.74287,0.30382 4.25387,0.0532 5.99033,-2.93793 1.04412,-1.79854 1.8901,-4.24635 1.87994,-5.43956 -0.0259,-3.03948 -10.62341,-26.62828 -12.63819,-28.13102 -1.3767,-1.02682 -0.42429,-1.22564 5.62185,-1.17357 5.35668,0.0461 6.698,0.29894 5.07828,0.95714 -1.2106,0.49195 -2.18504,1.46511 -2.16544,2.16259 0.0196,0.69747 1.74754,5.27362 3.83984,10.16923 4.29074,10.03956 3.6376,10.31114 7.96032,-3.30994 2.26311,-7.13113 2.27106,-7.29173 0.42851,-8.65384 -1.70623,-1.26133 -1.44516,-1.38787 2.86337,-1.38787 4.43543,0 4.64397,0.11147 3.23773,1.73077 -0.82668,0.95192 -3.81297,8.18406 -6.63621,16.07143 -5.71038,15.95322 -7.96399,20.91868 -10.79153,23.77729 -2.33505,2.36071 -8.55038,2.660916 -9.38825,0.45348 z M 122.06608,85.058134 c -3.92911,-2.15533 -5.97607,-6.87586 -5.97607,-13.78148 0,-9.67897 3.96587,-15.20563 11.52991,-16.06758 6.24373,-0.71149 10.73519,2.59947 12.74031,9.39176 0.65073,2.20431 0.56414,2.22527 -9.19161,2.22527 l -9.84854,0 0,3.51065 c 0,10.46667 9.64884,14.46398 17.32205,7.17616 2.71545,-2.57906 2.90549,-1.3376 0.38654,2.52509 -3.98468,6.11034 -11.12363,8.22313 -16.96259,5.02013 z m 11.43248,-22.43533 c -1.78868,-5.934 -6.75769,-7.44214 -10.15095,-3.0809 -3.46636,4.45518 -2.76115,5.30618 4.39709,5.30618 6.20914,0 6.40212,-0.0746 5.75386,-2.22528 z m 67.06065,22.70506 -2.44565,-1.2493 -0.48913,-18.73598 c -0.48024,-18.39541 -0.53049,-18.75679 -2.76456,-19.88128 -2.18229,-1.09841 -2.08505,-1.21088 2.37535,-2.74739 2.55794,-0.88115 4.79248,-1.6021 4.96565,-1.6021 0.17317,0 0.31486,4.0055 0.31486,8.9011 0,4.89561 0.26073,8.9011 0.5794,8.9011 0.31867,0 1.69869,-0.89011 3.06671,-1.97802 5.63116,-4.47815 13.87484,-0.7522 16.00147,7.2323 2.22984,8.37199 -1.19498,17.4447 -7.91043,20.95555 -3.44683,1.80202 -10.36367,1.90507 -13.69367,0.20402 z m 12.98926,-2.68151 c 4.61739,-3.67195 4.7467,-16.2253 0.21802,-21.16552 -3.04968,-3.32683 -6.61614,-3.31171 -9.22323,0.0391 -1.70207,2.1876 -2.02753,4.00193 -2.02753,11.30297 0,6.58776 0.37284,9.07402 1.53727,10.25124 2.1204,2.14371 6.51059,1.94593 9.49547,-0.42778 z m 71.04893,2.36408 c -0.89276,-1.08754 -1.43518,-5.65554 -1.70284,-14.34066 -0.31756,-10.30375 -0.66501,-12.74477 -1.81416,-12.74477 -0.86902,0 -0.15878,-1.25219 1.82764,-3.22225 1.78695,-1.77224 3.77338,-4.10878 4.41429,-5.19231 1.02759,-1.73723 1.17211,-1.47331 1.22283,2.23324 0.0565,4.13335 0.1145,4.2033 3.48144,4.2033 1.88315,0 3.42392,0.44505 3.42392,0.98901 0,0.54396 -1.54077,0.98901 -3.42392,0.98901 l -3.42391,0 0,10.79823 c 0,5.93903 0.2672,11.50222 0.59379,12.36264 0.69982,1.84375 4.38121,2.07319 6.05838,0.37759 0.69138,-0.69897 1.17392,-0.76983 1.17392,-0.1724 0,0.55793 -1.01886,1.98211 -2.26414,3.16484 -2.68307,2.5483 -7.6922,2.83864 -9.56724,0.55453 z m 66.72756,-0.26731 c -4.71391,-4.7657 -1.34871,-11.15137 8.20763,-15.57448 5.11216,-2.36615 5.37445,-2.66741 5.37445,-6.17328 0,-4.15531 -1.38332,-6.05937 -4.40218,-6.05937 -2.82001,0 -4.40217,1.84836 -4.40217,5.14286 0,2.26149 -0.42922,2.76923 -2.34099,2.76923 -3.03641,0 -3.98159,-2.61525 -2.03222,-5.62306 2.77092,-4.27541 9.82161,-5.56091 15.16848,-2.76555 3.46832,1.81325 3.81426,3.13879 4.12508,15.80619 0.23437,9.55082 0.3182,9.88742 2.44378,9.81158 2.66853,-0.0952 2.78487,0.72136 0.4121,2.89228 -2.56055,2.34273 -7.06752,2.14327 -7.71017,-0.34122 -0.61764,-2.38781 -1.08546,-2.44585 -3.30984,-0.41069 -0.94218,0.86203 -3.45699,1.80381 -5.58846,2.09284 -3.08497,0.41833 -4.29762,0.0986 -5.94549,-1.56733 z m 11.68987,-3.11665 c 1.5164,-0.82047 1.89221,-2.09725 1.89221,-6.42857 0,-2.97262 -0.24905,-5.40477 -0.55345,-5.40477 -1.11753,0 -4.88728,2.28072 -7.02808,4.25204 -5.17167,4.76224 -0.53061,10.94668 5.68932,7.5813 z m 53.50776,3.43166 c -3.88211,-2.12955 -6.03713,-6.91042 -5.98923,-13.28697 0.0444,-5.91331 1.734,-10.08298 5.54326,-13.67998 2.84888,-2.69013 9.26387,-3.85045 12.27635,-2.2205 2.02533,1.09583 2.09754,0.94927 2.09754,-4.25704 0,-4.99649 -0.1973,-5.46039 -2.69021,-6.32535 -2.60695,-0.90453 -2.52575,-0.98361 2.6232,-2.55495 2.92239,-0.89184 5.45364,-1.62153 5.625,-1.62153 0.17137,0 0.31158,9.13797 0.31158,20.3066 0,20.1451 0.0175,20.31342 2.20109,21.16468 2.35351,0.9175 2.46671,0.83531 -4.05902,2.94712 -4.16866,1.34902 -4.01164,1.36596 -4.01164,-0.4328 0,-1.35255 -0.29909,-1.35255 -2.8862,0 -3.60161,1.88293 -7.5633,1.86884 -11.04172,-0.0393 z m 12.03571,-3.43166 c 1.67268,-0.90503 1.89221,-2.14556 1.89221,-10.69263 0,-8.36334 -0.26931,-9.96108 -1.99463,-11.83334 -4.30898,-4.67597 -10.83636,-1.10518 -12.05416,6.5942 -1.69429,10.71196 5.17218,19.71079 12.15658,15.93177 z m -366.665583,2.84066 c 1.48071,-0.54671 2.92676,-1.958 3.21344,-3.13621 0.28668,-1.1782 0.39584,-9.92494 0.24258,-19.43721 -0.2643,-16.40363 -0.3795,-17.31337 -2.23518,-17.65094 -1.07609,-0.19576 -2.37473,-0.75777 -2.88587,-1.24893 -0.5548,-0.53311 6.00941,-0.89301 16.28736,-0.89301 l 17.21671,0 0.35687,4.53636 c 0.39045,4.96328 -0.57127,6.7827 -1.53444,2.90293 -0.89605,-3.60936 -3.66757,-4.5875 -12.08867,-4.26639 l -7.56936,0.28863 -0.28412,8.15934 -0.28413,8.15935 6.81751,0 c 6.96165,0 9.89205,-1.33936 9.89205,-4.5212 0,-0.77708 0.44022,-1.41287 0.97826,-1.41287 0.56522,0 0.97826,3.13187 0.97826,7.41758 0,4.28572 -0.41304,7.41758 -0.97826,7.41758 -0.53804,0 -0.97826,-0.63579 -0.97826,-1.41287 0,-3.17592 -2.93159,-4.52119 -9.85249,-4.52119 l -6.77795,0 0.015,8.15934 c 0.0163,8.89838 0.27166,9.64076 3.89807,11.33406 2.03739,0.95132 0.81259,1.1401 -7.33696,1.13081 -7.69737,-0.009 -9.20874,-0.22302 -7.0904,-1.00516 z m 37.63179,0.14129 c 3.035953,-1.23503 3.315193,-3.25664 2.998803,-21.71032 -0.27318,-15.93308 -0.32925,-16.31579 -2.554753,-17.43637 -2.1824,-1.09888 -2.08529,-1.21122 2.375363,-2.74782 2.55793,-0.88115 4.79248,-1.6021 4.96565,-1.6021 0.17317,0 0.31486,8.17789 0.31486,18.17308 0,20.89674 0.43012,24.1846 3.31821,25.36452 1.38918,0.56755 -0.49195,0.84252 -5.76386,0.84252 -5.562963,0 -7.198043,-0.25549 -5.654273,-0.88351 z m 47.372613,-1.2213 c 1.42336,-1.2212 4.13498,-4.60256 6.02582,-7.51413 l 3.4379,-5.29377 -3.75813,-6.00902 c -2.06696,-3.30497 -4.77858,-6.58145 -6.02581,-7.28108 -2.01424,-1.12988 -1.45412,-1.27597 5.01168,-1.30709 6.33242,-0.0305 7.0453,0.13798 5.48007,1.29508 -1.74593,1.29069 -1.74523,1.42267 0.024,4.45055 1.00275,1.71623 2.0992,3.12042 2.43651,3.12042 0.33731,0 1.45202,-1.57454 2.47713,-3.49897 1.6293,-3.05867 1.67945,-3.6168 0.39861,-4.4354 -1.02442,-0.65472 0.15346,-0.93308 3.91521,-0.92527 5.28151,0.011 5.33547,0.0398 2.93479,1.5695 -2.52782,1.61069 -7.82609,8.5569 -7.82609,10.26026 0,1.77487 8.62193,14.59074 10.90237,16.20558 2.16081,1.53012 1.97892,1.59293 -4.57057,1.57838 -4.68099,-0.0104 -6.36079,-0.30922 -5.35424,-0.95249 1.2647,-0.80827 1.12998,-1.56641 -0.97827,-5.50521 -1.34471,-2.51232 -2.8044,-4.79859 -3.24372,-5.08061 -0.89438,-0.57411 -2.64688,1.55571 -5.26503,6.39858 -1.542,2.85226 -1.57796,3.36675 -0.29272,4.18815 1.03652,0.66245 0.0341,0.93943 -3.42608,0.94667 l -4.89131,0.0102 2.58791,-2.22036 z m 31.89579,1.21036 c 2.11209,-0.85829 2.20109,-1.37689 2.20109,-12.82632 0,-11.37112 -0.10062,-11.96951 -2.14088,-12.73254 -1.88413,-0.70464 -1.56993,-0.99735 2.61992,-2.44066 2.61843,-0.902 4.89039,-1.63999 5.04879,-1.63999 0.1584,0 0.41015,6.32953 0.55943,14.06563 0.26804,13.88969 0.30202,14.08127 2.71708,15.31509 2.16445,1.1058 1.5458,1.24393 -5.38043,1.20135 -5.67312,-0.0349 -7.22056,-0.29417 -5.625,-0.94256 z m 49.75244,0.0519 c 2.46119,-1.00551 3.31821,-4.60244 3.31821,-13.92651 0,-7.84546 -1.20482,-11.77621 -3.64427,-11.88957 -1.74463,-0.0811 1.68581,-1.88185 6.33449,-3.32524 l 2.20108,-0.68342 0,13.22927 c 0,13.37049 0.52957,15.6545 3.91305,16.87701 0.80706,0.29161 -2.05435,0.53712 -6.3587,0.54559 -5.2589,0.0103 -7.14962,-0.26098 -5.76386,-0.82713 z m 17.60594,9.9e-4 c 2.69009,-1.09916 3.29663,-5.03291 3.31019,-21.46875 0.0115,-13.8526 -0.82963,-18.06422 -3.63349,-18.19451 -1.74162,-0.0809 1.68476,-1.88176 6.31485,-3.31894 l 2.18146,-0.67713 0.26419,21.04838 0.2642,21.04837 2.44565,1.25014 c 2.16495,1.10666 1.5474,1.24462 -5.38043,1.20204 -5.30414,-0.0326 -7.16243,-0.31928 -5.76662,-0.8896 z m 18.75547,-0.57273 c 2.03008,-1.43752 2.17419,-2.28526 2.17419,-12.79046 0,-10.40932 -0.14741,-11.2982 -1.97073,-11.88325 -2.52702,-0.81086 -1.75714,-2.059 1.70581,-2.76547 1.49082,-0.30415 3.48095,-0.8543 4.42253,-1.22257 1.58202,-0.61876 1.71196,0.41541 1.71196,13.62576 0,13.84746 0.069,14.32896 2.20108,15.36854 1.80234,0.87879 0.87679,1.08534 -5.10897,1.14015 -6.88648,0.0631 -7.18408,-0.0223 -5.13587,-1.47266 z m 113.45136,0.33255 c 2.09952,-1.02368 2.20109,-1.61539 2.20109,-12.82207 0,-11.18286 -0.10314,-11.78744 -2.14088,-12.54954 -1.88413,-0.70464 -1.56993,-0.99734 2.61992,-2.44065 5.83058,-2.00851 5.39053,-2.03611 5.39053,0.33803 0,1.08791 0.26072,1.97802 0.57939,1.97802 0.31867,0 1.69869,-0.89011 3.06671,-1.97802 2.69414,-2.1425 7.12324,-2.57234 10.07106,-0.97738 2.66309,1.44091 3.87984,7.04132 3.88607,17.88668 0.005,8.86324 0.1512,9.56279 2.20655,10.56493 1.80234,0.87879 0.87678,1.08534 -5.10898,1.14015 -6.88648,0.0631 -7.18407,-0.0223 -5.13587,-1.47266 2.01075,-1.42385 2.1742,-2.31608 2.1742,-11.86813 0,-9.09572 -0.23951,-10.57067 -2.00656,-12.35715 -2.18384,-2.20784 -4.94157,-1.91879 -8.05189,0.84397 -1.50175,1.33394 -1.70501,2.99223 -1.46739,11.97139 0.26461,9.99845 0.37544,10.47382 2.72149,11.67166 2.16342,1.1046 1.54252,1.24265 -5.38044,1.19634 -6.35102,-0.0425 -7.41122,-0.25463 -5.625,-1.12557 z M 180.4509,44.895934 c -0.6917,-2.20333 1.85101,-5.15657 3.85756,-4.48037 1.64364,0.5539 2.89101,3.32977 2.25236,5.01234 -0.9275,2.4436 -5.29516,2.06333 -6.10992,-0.53197 z m 50.10094,0.7199 c -1.29861,-3.42132 2.25859,-6.5824 4.90684,-4.3604 0.76483,0.64173 1.2593,2.09584 1.09883,3.23135 -0.36391,2.57502 -5.11762,3.46871 -6.00567,1.12905 z m 36.24794,0.81608 c -1.16371,-1.17649 -0.78195,-4.01771 0.70777,-5.26766 2.09261,-1.75579 5.65188,0.42992 5.25776,3.22874 -0.30496,2.16571 -4.44165,3.57956 -5.96553,2.03892 z m 750.90892,-1.46655 c -1.7171,-0.5022 -4.1383,-2.35355 -5.3804,-4.1141 -1.8879,-2.6759 -2.2583,-4.44652 -2.2583,-10.79333 0,-8.79668 1.6329,-11.96856 7.7402,-15.03529 3.1116,-1.5625 4.2791,-1.68324 7.3324,-0.75839 4.4917,1.36053 7.6895,4.68328 8.5129,8.84563 l 0.6264,3.16674 -9.9049,0 -9.9048,0 0,2.50429 c 0,3.67987 2.4788,9.04752 4.7441,10.27325 4.1263,2.23257 11.5088,0.28607 13.7645,-3.62917 0.9037,-1.5687 0.9998,-1.57581 1.0268,-0.0759 0.044,2.45281 -4.7995,7.81546 -8.4529,9.35872 -3.5879,1.51556 -3.5489,1.51428 -7.846,0.25755 z m 9.4808,-23.00591 c 0,-2.18644 -3.9031,-6.56195 -5.8536,-6.56195 -1.7634,0 -6.8637,5.20075 -6.8637,6.99896 0,0.50222 2.8614,0.91313 6.3586,0.91313 4.7208,0 6.3587,-0.34777 6.3587,-1.35014 z m 64.6004,21.87211 c -5.3251,-2.76053 -7.8612,-7.30735 -7.8612,-14.0934 0,-6.93725 2.5161,-11.33797 8.1102,-14.18501 3.573,-1.81843 5.3972,-2.17259 8.4789,-1.64622 13.7618,2.35059 15.6309,24.2749 2.5804,30.26695 -5.1542,2.36647 -6.1408,2.3366 -11.3083,-0.34232 z m 11.4524,-1.96702 c 3.4027,-2.75159 3.7606,-14.62889 0.6257,-20.75788 -1.8393,-3.59591 -5.6301,-6.03933 -8.1268,-5.23821 -3.9249,1.25942 -5.9445,5.27647 -5.9214,11.77781 0.044,12.44144 6.787,19.58411 13.4225,14.21828 z m 90.5601,3.18717 c -2.4235,-0.97675 -4.2216,-3.85848 -4.2216,-6.76606 0,-3.23275 4.5663,-7.72766 10.2845,-10.12376 5.3378,-2.23672 5.3677,-2.27316 5.3677,-6.53902 0,-3.55502 -0.3976,-4.47295 -2.3219,-5.35931 -3.4349,-1.58228 -6.4824,0.36626 -6.4824,4.14483 0,3.59127 -2.6213,5.03631 -4.4782,2.46879 -3.041,-4.20453 4.3309,-10.22215 11.1519,-9.1031 6.4217,1.05355 7.4478,3.13576 8.0002,16.23441 0.477,11.31004 0.5437,11.59195 2.6902,11.36221 3.1255,-0.33455 2.7253,1.39425 -0.7425,3.20724 -3.0352,1.58681 -6.2286,0.85777 -7.0414,-1.60752 -0.2647,-0.80275 -1.2123,-0.69887 -3.2647,0.35787 -4.3592,2.24462 -6.5845,2.6735 -8.9418,1.72342 z m 8.9389,-4.09868 c 2.2612,-1.04161 2.4917,-1.68874 2.4917,-6.99718 l 0,-5.84941 -4.1367,2.30701 c -5.1668,2.88154 -6.841,6.73494 -4.2053,9.67937 2.0897,2.33442 2.5144,2.39687 5.8503,0.86021 z m 57.2743,4.46946 c -4.2042,-1.43055 -6.0416,-3.05656 -7.9445,-7.03055 -2.8534,-5.9591 -2.1777,-14.63233 1.522,-19.5361 4.572,-6.06014 13.873,-6.81781 18.6182,-1.51667 2.1698,2.42389 1.5734,5.39176 -1.1628,5.78699 -1.6694,0.24114 -2.5473,-0.53422 -3.9046,-3.44829 -1.9964,-4.28645 -4.2308,-5.13119 -7.625,-2.88274 -3.0898,2.04673 -4.8264,8.068 -3.9775,13.79098 0.8874,5.98301 3.097,8.55131 7.9081,9.1921 3.1384,0.418 4.6443,0.009 7.6862,-2.0892 2.0808,-1.43498 3.9465,-2.44393 4.1462,-2.2421 0.5397,0.54566 -4.1187,6.68972 -6.1599,8.12452 -2.1654,1.522 -7.116,2.52831 -9.1064,1.85106 z m 27.3918,-0.4657 c -6.36,-2.59275 -9.4634,-9.25453 -8.2989,-17.81485 1.326,-9.74692 8.2571,-15.23333 16.2038,-12.82629 4.2242,1.2795 7.7365,5.69567 7.7432,9.73569 0,2.16122 -0.2812,2.22528 -9.8879,2.22528 l -9.8915,0 0.6704,3.70879 c 1.3365,7.39433 5.4954,10.89924 11.5665,9.74778 1.8505,-0.35096 4.1534,-1.51952 5.1178,-2.59679 2.6802,-2.99423 3.7323,-2.3313 1.7499,1.10272 -3.312,5.73746 -10.0083,8.74168 -14.9733,6.71767 z m 8.8039,-23.62523 c 0,-2.34478 -3.2813,-5.93406 -5.425,-5.93406 -1.9569,0 -6.3142,4.40513 -6.3142,6.38361 0,1.2088 1.2277,1.52848 5.8696,1.52848 5.2174,0 5.8696,-0.21978 5.8696,-1.97803 z m -323.80425,22.74726 c 0,-0.54396 0.7924,-0.98901 1.7608,-0.98901 3.7521,0 4.1087,-1.75992 4.1087,-20.27473 0,-18.5148099 -0.3566,-20.2747199 -4.1087,-20.2747199 -0.9684,0 -1.7608,-0.44506 -1.7608,-0.98902 0,-1.34744005 16.2019,-1.27313005 22.5509,0.10344 9.38935,2.03581 13.66975,9.0113899 10.39365,16.9383799 -1.8924,4.57899 -6.09865,6.8077 -14.06885,7.45451 l -6.1583,0.49976 0,7.08438 c 0,7.31799 0.9296,9.458 4.1086,9.458 0.9685,0 1.7609,0.44505 1.7609,0.98901 0,0.58993 -3.7499,0.98901 -9.2935,0.98901 -5.5435,0 -9.2934,-0.39908 -9.2934,-0.98901 z m 21.8569,-21.8673 c 4.8855,-2.25043 6.15175,-10.76228 2.2784,-15.3148099 -1.8007,-2.11648 -3.1834,-2.69752 -6.6032,-2.77493 l -4.3256,-0.0979 -0.28,9.6428599 -0.28,9.64286 3.4133,0 c 1.8774,0 4.486,-0.49413 5.7971,-1.09807 z m 45.52725,21.00105 c 2.0894,-1.62425 2.38,-2.77879 2.8147,-11.18148 0.5021,-9.70414 -0.4322,-13.66656 -3.2225,-13.66656 -2.7869,0 -1.3826,-1.68018 2.349,-2.81048 5.211,-1.5784 6.0006,-1.45728 6.0006,0.92038 0,1.98809 0.1134,1.96946 3.0098,-0.49451 1.6555,-1.40824 3.4453,-2.56044 3.9775,-2.56044 2.1832,0 4.7519,2.174 4.7519,4.02188 0,2.6462 -2.5059,3.46754 -5.5516,1.81962 -2.2597,-1.22265 -2.6523,-1.13507 -4.3361,0.96716 -1.5177,1.89481 -1.8487,3.94121 -1.8365,11.35035 0.017,9.80416 0.2401,10.50546 3.8981,12.2135 2.0784,0.9705 1.1971,1.14871 -5.8696,1.18691 -8.2525,0.0446 -8.2976,0.0313 -5.9853,-1.76633 z m 25.306,0.19923 c 2.0813,-1.46784 2.201,-2.21813 2.201,-13.79427 l 0,-12.24201 -2.4456,0 c -1.5218,0 -2.4457,-0.56044 -2.4457,-1.48352 0,-0.92119 0.9226,-1.48351 2.4341,-1.48351 2.0869,0 2.5242,-0.56934 3.0652,-3.99034 0.8302,-5.2486199 3.5322,-8.5598999 8.1186,-9.94909995 4.5669,-1.38333 9.3713,0.439 9.3713,3.55460005 0,2.91134 -3.0297,2.94621 -5.509,0.0634 -3.9817,-4.62973005 -6.7193,-2.26433 -6.7193,5.80585 l 0,4.5155699 3.913,0 c 2.8261,0 3.9131,0.41209 3.9131,1.48352 0,1.07143 -1.087,1.48352 -3.9131,1.48352 l -3.913,0 0,12.38711 c 0,12.3029 0.017,12.39351 2.4457,13.32717 1.3451,0.51703 2.4456,1.1736 2.4456,1.45904 0,0.28544 -3.4117,0.49564 -7.5815,0.46711 -7.1778,-0.0491 -7.4643,-0.13454 -5.3804,-1.60415 z m 50.625,0.66702 c 0.3325,-0.54396 1.1918,-0.98901 1.9095,-0.98901 2.0158,0 2.4926,-2.36509 2.4926,-12.36264 0,-10.06476 -0.474,-12.36264 -2.5503,-12.36264 -2.7653,0 -1.2489,-1.91699 2.3058,-2.91503 5.2095,-1.46265 6.1141,-1.31101 6.1141,1.02493 0,1.98809 0.1134,1.96946 3.0098,-0.49451 3.4229,-2.91183 5.0443,-3.18257 6.7338,-1.12444 2.817,3.43157 -0.3862,6.06094 -4.9708,4.08038 -0.9401,-0.40616 -2.2345,-0.0292 -3.1793,0.92595 -1.2681,1.2821 -1.5935,3.71048 -1.5935,11.89343 0,10.20011 0.022,10.29419 2.6902,11.75789 2.5701,1.40961 2.3272,1.47727 -5.4381,1.5151 -5.1792,0.0252 -7.9091,-0.31926 -7.5238,-0.94941 z m 24.9456,-0.95341 c 2.252,-1.74807 2.4723,-2.63875 2.7811,-11.24506 0.3447,-9.60898 -0.6104,-13.51582 -3.3047,-13.51582 -2.7868,0 -1.3825,-1.68018 2.349,-2.81048 5.204,-1.57628 6.0007,-1.45682 6.0007,0.89981 l 0,2.04536 2.8524,-2.05344 c 4.7472,-3.41745 8.0796,-3.58526 11.607,-0.58452 l 3.0763,2.61703 2.9871,-2.2327 c 3.5155,-2.62767 9.125,-2.94668 11.3985,-0.64823 2.0779,2.10071 3.2014,8.39376 3.2534,18.22346 0.038,7.19122 0.2747,8.20236 2.2438,9.59098 2.0832,1.46917 1.792,1.55505 -5.4382,1.60415 -4.8558,0.033 -7.4189,-0.30848 -7.0347,-0.93713 0.3326,-0.54396 1.1919,-0.98901 1.9096,-0.98901 2.0109,0 2.4926,-2.36242 2.4926,-12.22347 0,-6.63069 -0.4125,-9.69017 -1.5228,-11.29274 -1.7804,-2.56968 -4.9739,-2.83117 -8.0421,-0.65848 -2.0235,1.43284 -2.1742,2.29648 -2.1742,12.45523 0,10.08386 0.1491,10.95504 1.9565,11.43289 4.2419,1.12147 1.5948,2.26194 -5.1359,2.21271 -6.7331,-0.0492 -6.9808,-0.13049 -4.8913,-1.60415 2.0496,-1.44538 2.2011,-2.28008 2.2011,-12.12173 0,-12.52669 -0.8872,-14.57582 -5.874,-13.56748 -5.4321,1.09835 -5.8664,1.98073 -5.8517,11.88941 0.015,10.21573 0.6174,13.47781 2.4886,13.47781 0.7126,0 1.5677,0.44505 1.9002,0.98901 0.3837,0.62775 -2.1859,0.98098 -7.0347,0.96702 l -7.6392,-0.022 2.4456,-1.89844 z m 78.2507,0.007 c 2.1731,-1.68797 2.4742,-2.7537 2.7949,-9.89106 0.4761,-10.60021 -0.3371,-14.87645 -2.829,-14.87645 -3.2009,0 -2.1389,-1.59627 1.8697,-2.81048 5.1909,-1.57231 6.0007,-1.45598 6.0007,0.86207 l 0,2.00763 2.6902,-1.99413 c 4.5033,-3.33807 8.2925,-3.57266 11.5795,-0.71686 2.8169,2.44738 2.8536,2.61545 3.1789,14.54695 0.2973,10.9042 0.5101,12.1188 2.2011,12.56588 4.0862,1.08031 1.5077,2.24224 -4.9758,2.24224 -6.5399,0 -9.0541,-1.16404 -4.8913,-2.26459 1.8021,-0.47645 1.9565,-1.34902 1.9565,-11.05949 0,-5.79822 -0.4557,-11.40307 -1.0127,-12.45522 -1.242,-2.34624 -5.0327,-2.49017 -8.3152,-0.31574 -2.2949,1.52021 -2.4112,2.0711 -2.4112,11.42085 0,9.35266 0.124,9.93985 2.5884,12.24889 l 2.5885,2.4253 -7.7243,-0.022 -7.7244,-0.022 2.4355,-1.8918 z"
     id="path4138"
     inkscape:connector-curvature="0" />
</svg>
